<svg height="512pt" viewBox="-70 0 512 512" width="512pt" xmlns="http://www.w3.org/2000/svg"><path d="m87.433594 193.707031v-56.40625c0-54.324219 44.195312-98.523437 98.519531-98.523437s98.519531 44.199218 98.519531 98.523437v56.40625h31.28125v-56.40625c-.003906-71.574219-58.230468-129.800781-129.800781-129.800781-71.574219 0-129.800781 58.226562-129.800781 129.796875v56.410156zm0 0" fill="#dfebfa"/><path d="m215.453125 38.777344c-5.011719 0-9.9375.378906-14.75 1.105468 47.351563 7.140626 83.769531 48.101563 83.769531 97.414063v56.410156h29.5v-56.410156c0-54.324219-44.195312-98.519531-98.519531-98.519531zm0 0" fill="#b1dbfc"/><path d="m200.703125 8.34375c-4.84375-.550781-9.761719-.84375-14.75-.84375-71.570313 0-129.800781 58.226562-129.800781 129.796875v56.410156h29.5v-56.410156c0-66.582031 50.398437-121.605469 115.050781-128.953125zm0 0" fill="#b1dbfc"/><path d="m331.480469 190.707031h-291.054688c-18.015625 0-32.757812 14.742188-32.757812 32.761719v248.269531c0 18.019531 14.742187 32.761719 32.757812 32.761719h291.054688c18.015625 0 32.757812-14.742188 32.757812-32.761719v-248.269531c0-18.019531-14.742187-32.761719-32.757812-32.761719zm0 0" fill="#4f67d2"/><path d="m37.167969 471.738281v-248.269531c0-18.019531 14.738281-32.761719 32.757812-32.761719h-29.5c-18.015625 0-32.757812 14.742188-32.757812 32.761719v248.269531c0 18.019531 14.738281 32.761719 32.757812 32.761719h29.5c-18.019531 0-32.757812-14.742188-32.757812-32.761719zm0 0" fill="#324ccc"/><path d="m7.667969 252.570312h356.570312v190.066407h-356.570312zm0 0" fill="#6c7ed6"/><path d="m7.667969 252.570312h29.5v190.066407h-29.5zm0 0" fill="#4f67d2"/><path d="m183.078125 288.011719c-19.785156 1.386719-35.753906 17.476562-37.003906 37.269531-.996094 15.792969 7.191406 29.757812 19.730469 37.09375 2.1875 1.277344 3.5 3.648438 3.5 6.179688v28.464843c0 6.851563 5.554687 12.40625 12.40625 12.40625h8.488281c6.851562 0 12.40625-5.554687 12.40625-12.40625v-28.464843c0-2.5625 1.359375-4.921876 3.5625-6.21875 11.8125-6.941407 19.746093-19.773438 19.746093-34.464844 0-23.023438-19.46875-41.496094-42.835937-39.859375zm0 0" fill="#4f67d2"/><path d="m198.804688 397.019531v-28.464843c0-2.53125-1.3125-4.902344-3.5-6.179688-12.539063-7.335938-20.726563-21.300781-19.730469-37.09375.984375-15.632812 11.15625-28.949219 25.136719-34.542969-5.398438-2.148437-11.375-3.164062-17.632813-2.726562-19.785156 1.386719-35.753906 17.476562-37.003906 37.269531-.996094 15.792969 7.191406 29.757812 19.730469 37.09375 2.1875 1.277344 3.5 3.648438 3.5 6.179688v28.464843c0 6.851563 5.554687 12.40625 12.40625 12.40625h8.488281c4.433593 0 8.3125-2.335937 10.503906-5.832031-1.199219-1.90625-1.898437-4.15625-1.898437-6.574219zm0 0" fill="#324ccc"/><path d="m185.785156 0c-75.707031 0-137.296875 61.59375-137.296875 137.296875v45.910156h-8.226562c-22.199219 0-40.261719 18.0625-40.261719 40.261719v248.269531c0 22.199219 18.0625 40.261719 40.261719 40.261719h291.050781c22.199219 0 40.261719-18.0625 40.261719-40.261719v-105.570312c0-4.144531-3.359375-7.5-7.5-7.5-4.144531 0-7.5 3.355469-7.5 7.5v68.96875h-341.574219v-175.066407h341.574219v71.097657c0 4.144531 3.355469 7.5 7.5 7.5 4.140625 0 7.5-3.355469 7.5-7.5v-107.699219c0-22.199219-18.0625-40.261719-40.261719-40.261719h-8.226562v-45.910156c0-75.703125-61.59375-137.296875-137.300782-137.296875zm170.789063 450.136719v21.605469c0 13.929687-11.332031 25.257812-25.261719 25.257812h-291.050781c-13.929688 0-25.261719-11.328125-25.261719-25.257812v-21.605469zm-293.085938-312.839844c0-67.433594 54.863281-122.296875 122.296875-122.296875 67.4375 0 122.300782 54.863281 122.300782 122.296875v45.910156h-16.277344v-45.910156c0-58.457031-47.5625-106.019531-106.023438-106.019531-58.457031 0-106.019531 47.5625-106.019531 106.019531v45.910156h-16.277344zm267.824219 60.910156c13.929688 0 25.261719 11.332031 25.261719 25.261719v21.601562h-341.574219v-21.601562c0-13.929688 11.332031-25.261719 25.261719-25.261719h128.023437c4.144532 0 7.5-3.355469 7.5-7.5 0-4.140625-3.355468-7.5-7.5-7.5h-73.519531v-45.910156c0-50.1875 40.832031-91.019531 91.019531-91.019531 50.191406 0 91.023438 40.832031 91.023438 91.019531v45.910156h-73.523438c-4.140625 0-7.5 3.359375-7.5 7.5 0 4.144531 3.359375 7.5 7.5 7.5zm0 0"/><path d="m181.542969 416.925781h8.488281c10.976562 0 19.90625-8.929687 19.90625-19.90625v-28.296875c14.382812-8.519531 23.308594-24.15625 23.308594-40.851562 0-13.117188-5.503906-25.769532-15.101563-34.71875-9.726562-9.074219-22.433593-13.5625-35.757812-12.621094-23.578125 1.648438-42.476563 20.683594-43.964844 44.277344-1.132813 17.960937 7.757813 34.765625 23.214844 43.914062v28.296875c0 10.976563 8.929687 19.90625 19.90625 19.90625zm-28.148438-91.171875c1.015625-16.125 13.929688-29.132812 30.039063-30.261718 9.128906-.640626 17.828125 2.425781 24.484375 8.632812 6.660156 6.210938 10.328125 14.644531 10.328125 23.746094 0 11.453125-6.148438 22.179687-16.042969 27.996094-4.484375 2.632812-7.269531 7.496093-7.269531 12.6875v28.464843c0 2.707031-2.199219 4.90625-4.90625 4.90625h-8.484375c-2.707031 0-4.90625-2.199219-4.90625-4.90625v-28.464843c0-5.199219-2.761719-10.050782-7.210938-12.652344-10.667969-6.242188-16.8125-17.792969-16.03125-30.148438zm0 0"/></svg>