<svg height="512pt" viewBox="0 0 512 512" width="512pt" xmlns="http://www.w3.org/2000/svg"><path d="m492.308594 7.5h-472.285156c-6.796876 0-12.359376 5.5625-12.359376 12.359375v472.28125c0 6.796875 5.5625 12.359375 12.359376 12.359375h472.285156c6.796875 0 12.359375-5.5625 12.359375-12.359375v-472.28125c0-6.796875-5.5625-12.359375-12.359375-12.359375zm0 0" fill="#544e55"/><path d="m38.5625 492.140625v-472.28125c0-6.796875 5.5625-12.359375 12.359375-12.359375h-30.898437c-6.796876 0-12.359376 5.5625-12.359376 12.359375v472.28125c0 6.796875 5.5625 12.359375 12.359376 12.359375h30.898437c-6.796875 0-12.359375-5.5625-12.359375-12.359375zm0 0" fill="#453f46"/><path d="m471.878906 40.3125c-1.175781-1.183594-2.804687-1.914062-4.601562-1.914062h-422.21875c-3.585938 0-6.496094 2.90625-6.496094 6.492187v422.21875c0 1.71875.671875 3.277344 1.765625 4.441406zm0 0" fill="#695d67"/><path d="m68.898438 44.890625c0-3.585937 2.90625-6.492187 6.492187-6.492187h-30.332031c-3.585938 0-6.496094 2.90625-6.496094 6.492187v422.21875c0 1.71875.671875 3.277344 1.765625 4.441406l28.570313-28.550781zm0 0" fill="#544e55"/><path d="m471.871094 40.316406-4.636719 4.636719-426.898437 426.589844c1.183593 1.261719 2.855468 2.058593 4.722656 2.058593h422.21875c3.585937 0 6.492187-2.90625 6.492187-6.492187v-422.21875c0-1.785156-.730469-3.398437-1.898437-4.574219zm0 0" fill="#dfebfa"/><path d="m467.273438 443.226562h-398.601563l-28.335937 28.316407c1.183593 1.261719 2.855468 2.058593 4.722656 2.058593h422.214844c3.589843 0 6.496093-2.90625 6.496093-6.492187v-30.375c0 3.585937-2.90625 6.492187-6.496093 6.492187zm0 0" fill="#b1dbfc"/><path d="m254.890625 148.726562h-64.464844c-2.996093 0-5.425781-2.429687-5.425781-5.425781v-64.464843c0-3.308594-2.683594-5.988282-5.992188-5.988282h-24.78125c-3.308593 0-5.988281 2.679688-5.988281 5.988282v64.464843c0 2.996094-2.429687 5.425781-5.429687 5.425781h-64.460938c-3.308594 0-5.992187 2.683594-5.992187 5.992188v24.78125c0 3.308594 2.683593 5.988281 5.992187 5.988281h64.460938c3 0 5.429687 2.429688 5.429687 5.429688v64.460937c0 3.308594 2.679688 5.992188 5.988281 5.992188h24.78125c3.308594 0 5.992188-2.683594 5.992188-5.992188v-64.460937c0-3 2.429688-5.429688 5.425781-5.429688h64.464844c3.308594 0 5.988281-2.679687 5.988281-5.988281v-24.78125c0-3.308594-2.679687-5.992188-5.988281-5.992188zm0 0" fill="#dfebfa"/><g fill="#b1dbfc"><path d="m175.238281 143.300781v-64.464843c0-2.929688 2.101563-5.359376 4.878907-5.882813-.359376-.066406-.730469-.105469-1.109376-.105469h-24.78125c-3.308593 0-5.992187 2.679688-5.992187 5.988282v64.464843c0 2.996094-2.429687 5.425781-5.425781 5.425781h27c3 0 5.429687-2.429687 5.429687-5.425781zm0 0"/><path d="m175.238281 255.378906v-64.460937c0-3-2.429687-5.429688-5.429687-5.429688h-27c3 0 5.429687 2.429688 5.429687 5.429688v64.460937c0 3.308594 2.679688 5.992188 5.988281 5.992188h24.78125c.378907 0 .75-.039063 1.109376-.109375-2.777344-.519531-4.878907-2.953125-4.878907-5.882813zm0 0"/><path d="m99.355469 179.5v-24.78125c0-3.308594 2.683593-5.992188 5.992187-5.992188h-27c-3.308594 0-5.992187 2.683594-5.992187 5.992188v24.78125c0 3.308594 2.683593 5.988281 5.992187 5.988281h27c-3.308594 0-5.992187-2.679687-5.992187-5.988281zm0 0"/></g><path d="m243.859375 343.753906h176.542969c3.308594 0 5.992187 2.679688 5.992187 5.988282v24.78125c0 3.308593-2.683593 5.992187-5.992187 5.992187h-176.542969c-3.308594 0-5.988281-2.683594-5.988281-5.992187v-24.78125c0-3.308594 2.679687-5.988282 5.988281-5.988282zm0 0" fill="#695d67"/><path d="m279.371094 374.523438v-24.78125c0-3.308594 2.679687-5.988282 5.988281-5.988282h-41.5c-3.308594 0-5.988281 2.679688-5.988281 5.988282v24.78125c0 3.308593 2.679687 5.992187 5.988281 5.992187h41.5c-3.308594 0-5.988281-2.683594-5.988281-5.992187zm0 0" fill="#544e55"/><path d="m467.109375 30.898438h-422.214844c-7.71875 0-13.996093 6.277343-13.996093 13.992187v422.21875c0 3.570313 1.351562 6.96875 3.800781 9.578125.199219.210938.410156.40625.632812.59375 2.585938 2.429688 6.015625 3.824219 9.5625 3.824219h422.214844c7.714844 0 13.996094-6.28125 13.996094-13.996094v-422.21875c0-3.441406-1.257813-6.6875-3.527344-9.25-.171875-.210937-.351563-.417969-.546875-.617187-2.644531-2.660157-6.171875-4.125-9.921875-4.125zm-421.210937 15h409.613281l-409.613281 409.316406zm420.207031 420.203124h-409.882813l409.882813-409.582031zm0 0"/><path d="m254.722656 141.226562h-62.390625v-62.390624c0-7.4375-6.050781-13.488282-13.492187-13.488282h-24.777344c-7.4375 0-13.492188 6.050782-13.492188 13.488282v62.390624h-62.390624c-7.4375 0-13.488282 6.050782-13.488282 13.492188v24.78125c0 7.4375 6.050782 13.488281 13.488282 13.488281h62.390624v62.394531c0 7.4375 6.054688 13.488282 13.492188 13.488282h24.777344c7.441406 0 13.492187-6.050782 13.492187-13.488282v-62.394531h62.390625c7.4375 0 13.488282-6.050781 13.488282-13.488281v-24.78125c0-7.441406-6.050782-13.492188-13.488282-13.492188zm-1.511718 36.761719h-68.378907c-4.144531 0-7.5 3.359375-7.5 7.5v68.382813h-21.761719v-68.382813c0-4.140625-3.355468-7.5-7.5-7.5h-68.382812v-21.761719h68.382812c4.144532 0 7.5-3.355468 7.5-7.5v-68.378906h21.761719v68.378906c0 4.144532 3.355469 7.5 7.5 7.5h68.378907zm0 0"/><path d="m243.695312 388.015625h176.542969c7.4375 0 13.488281-6.054687 13.488281-13.492187v-24.78125c0-7.4375-6.050781-13.488282-13.488281-13.488282h-176.542969c-7.4375 0-13.492187 6.050782-13.492187 13.488282v24.78125c0 7.4375 6.054687 13.492187 13.492187 13.492187zm1.507813-36.761719h173.523437v21.761719h-173.523437zm0 0"/><path d="m504.5 246c4.144531 0 7.5-3.359375 7.5-7.5v-218.640625c0-10.949219-8.90625-19.859375-19.859375-19.859375h-218.640625c-4.140625 0-7.5 3.359375-7.5 7.5s3.359375 7.5 7.5 7.5h218.640625c2.636719 0 4.859375 2.226562 4.859375 4.859375v218.640625c0 4.140625 3.355469 7.5 7.5 7.5zm0 0"/><path d="m19.859375 512h472.28125c10.949219 0 19.859375-8.90625 19.859375-19.859375v-218.640625c0-4.140625-3.359375-7.5-7.5-7.5-4.144531 0-7.5 3.359375-7.5 7.5v218.640625c0 2.636719-2.226562 4.859375-4.859375 4.859375h-472.28125c-2.636719 0-4.859375-2.226562-4.859375-4.859375v-472.28125c0-2.632813 2.226562-4.859375 4.859375-4.859375h218.640625c4.144531 0 7.5-3.359375 7.5-7.5s-3.355469-7.5-7.5-7.5h-218.640625c-10.953125 0-19.859375 8.90625-19.859375 19.859375v472.28125c0 10.953125 8.90625 19.859375 19.859375 19.859375zm0 0"/></svg>