<svg height="512pt" viewBox="0 0 512.001 512" width="512pt" xmlns="http://www.w3.org/2000/svg"><path d="m354.777344 276.382812c-.855469.289063-1.703125.582032-2.550782.886719v-229.558593c0-3.914063.578126-7.691407 1.636719-11.269532h-338.300781c-4.363281 0-7.894531 3.484375-7.894531 7.785156v295.246094c0 4.296875 3.53125 7.785156 7.894531 7.785156h265.867188c12.242187-33.246093 39.320312-59.464843 73.347656-70.875zm0 0" fill="#dfebfa"/><path d="m38.367188 339.472656v-295.246094c0-4.300781 3.535156-7.785156 7.894531-7.785156h-30.699219c-4.363281 0-7.894531 3.484375-7.894531 7.785156v295.246094c0 4.296875 3.53125 7.78125 7.894531 7.78125h30.699219c-4.359375 0-7.894531-3.484375-7.894531-7.78125zm0 0" fill="#b1dbfc"/><path d="m352.226562 277.269531v-210.554687h-302.484374c-6.28125 0-11.375 5.09375-11.375 11.375v227.515625c0 6.28125 5.09375 11.375 11.375 11.375h248.324218c14.191406-18.628907 33.890625-32.945313 56.710938-40.597657-.855469.289063-1.707032.582032-2.550782.886719zm0 0" fill="#23a8fe"/><path d="m69.070312 305.605469v-227.515625c0-6.28125 5.089844-11.375 11.375-11.375h-30.703124c-6.28125 0-11.375 5.09375-11.375 11.375v227.515625c0 6.28125 5.09375 11.375 11.375 11.375h30.703124c-6.285156 0-11.375-5.089844-11.375-11.375zm0 0" fill="#0193fa"/><path d="m49.742188 316.980469h80.113281l46.988281-67.671875-46.25-62.289063c-3.09375-4.457031-9.761719-4.457031-12.855469 0l-79.371093 112.996094v5.589844c0 6.285156 5.09375 11.375 11.375 11.375zm0 0" fill="#43cb8e"/><path d="m69.070312 305.605469c0-3.640625 1.121094-7.191407 3.214844-10.167969l67.480469-96.066406-9.171875-12.351563c-3.09375-4.457031-9.761719-4.457031-12.855469 0l-79.371093 112.996094v5.589844c0 6.285156 5.09375 11.375 11.375 11.375h30.703124c-6.285156 0-11.375-5.089844-11.375-11.375zm0 0" fill="#00ba66"/><path d="m354.777344 276.382812c-.855469.289063-1.703125.582032-2.550782.886719v-28.117187l-82.667968-119.183594c-3.09375-4.457031-9.757813-4.457031-12.855469 0l-129.847656 187.011719h171.210937c14.191406-18.628907 33.890625-32.945313 56.710938-40.597657zm0 0" fill="#43cb8e"/><path d="m269.558594 129.96875c-3.09375-4.457031-9.761719-4.457031-12.855469 0l-129.847656 187.011719h30.703125l120.917968-174.152344zm0 0" fill="#00ba66"/><path d="m205.691406 126.101562c0-16.023437-13.171875-29.015624-29.421875-29.015624s-29.425781 12.992187-29.425781 29.015624c0 16.023438 13.175781 29.015626 29.425781 29.015626s29.421875-12.992188 29.421875-29.015626zm0 0" fill="#fee55a"/><path d="m177.546875 126.101562c0-10.476562 5.632813-19.652343 14.074219-24.753906-4.46875-2.703125-9.726563-4.261718-15.351563-4.261718-16.25 0-29.425781 12.992187-29.425781 29.015624 0 16.023438 13.175781 29.015626 29.425781 29.015626 5.625 0 10.878907-1.558594 15.351563-4.261719-8.441406-5.101563-14.074219-14.277344-14.074219-24.753907zm0 0" fill="#ffd301"/><path d="m387.644531 272.238281c14.128907 0 27.671875 2.523438 40.210938 7.148438v-231.363281c0-22.378907-18.003907-40.523438-40.210938-40.523438s-40.207031 18.144531-40.207031 40.523438v231.363281c12.539062-4.625 26.082031-7.148438 40.207031-7.148438zm0 0" fill="#6c7ed6"/><path d="m377.066406 48.023438c0-17.105469 10.523438-31.726563 25.394532-37.671876-4.585938-1.832031-9.582032-2.851562-14.816407-2.851562-22.207031 0-40.207031 18.144531-40.207031 40.527344v231.359375c9.375-3.457031 19.308594-5.738281 29.628906-6.671875zm0 0" fill="#4f67d2"/><path d="m387.644531 144.15625c5.222657 0 9.984375 1.980469 13.621094 5.226562v-100.453124c0-7.644532-6.097656-13.847657-13.621094-13.847657-7.523437 0-13.621093 6.203125-13.621093 13.847657v100.457031c3.640624-3.25 8.398437-5.230469 13.621093-5.230469zm0 0" fill="#324ccc"/><path d="m374.023438 176.050781v96.988281c4.46875-.542968 9.011718-.835937 13.621093-.835937s9.152344.289063 13.621094.835937v-96.988281c-7.816406 7.207031-19.414063 7.210938-27.242187 0zm0 0" fill="#fee55a"/><path d="m408.332031 163.074219c0 11.421875-9.261719 20.6875-20.6875 20.6875s-20.6875-9.265625-20.6875-20.6875c0-11.425781 9.261719-20.6875 20.6875-20.6875s20.6875 9.261719 20.6875 20.6875zm0 0" fill="#2941b2"/><path d="m504.664062 387.199219c0 64.628906-52.390624 117.019531-117.019531 117.019531-64.628906 0-117.019531-52.390625-117.019531-117.019531 0-64.628907 52.390625-117.019531 117.019531-117.019531 64.628907 0 117.019531 52.390624 117.019531 117.019531zm0 0" fill="#4f67d2"/><path d="m300.253906 387.199219c0-59.609375 44.574219-108.808594 102.207032-116.089844-70.320313-8.886719-131.835938 45.90625-131.835938 116.089844 0 64.628906 52.390625 117.019531 117.019531 117.019531 5.019531 0 9.964844-.316406 14.816407-.929688-57.632813-7.28125-102.207032-56.480468-102.207032-116.089843zm0 0" fill="#324ccc"/><path d="m428.039062 387.199219c0 22.308593-18.085937 40.394531-40.394531 40.394531-22.308593 0-40.394531-18.085938-40.394531-40.394531 0-22.308594 18.085938-40.394531 40.394531-40.394531 22.308594 0 40.394531 18.085937 40.394531 40.394531zm0 0" fill="#ffd301"/><path d="m376.882812 387.199219c0-17.078125 10.601563-31.667969 25.578126-37.578125-4.589844-1.8125-9.582032-2.816406-14.816407-2.816406-22.308593 0-40.394531 18.085937-40.394531 40.394531 0 22.3125 18.085938 40.398437 40.394531 40.398437 5.234375 0 10.230469-1.007812 14.816407-2.816406-14.976563-5.914062-25.578126-20.503906-25.578126-37.582031zm0 0" fill="#ffc20c"/><path d="m173.757812 162.613281c20.132813 0 36.515626-16.378906 36.515626-36.511719 0-20.136718-16.382813-36.515624-36.515626-36.515624-20.132812 0-36.515624 16.378906-36.515624 36.515624 0 20.132813 16.382812 36.511719 36.515624 36.511719zm0-58.027343c11.863282 0 21.515626 9.652343 21.515626 21.515624 0 11.863282-9.652344 21.515626-21.515626 21.515626-11.863281 0-21.511718-9.652344-21.511718-21.515626 0-11.863281 9.648437-21.515624 21.511718-21.515624zm0 0"/><path d="m435.1875 272.1875v-91.613281c0-4.144531-3.355469-7.5-7.5-7.5-4.140625 0-7.5 3.355469-7.5 7.5v86.445312c-2.933594-.796875-7.628906-1.871093-11.585938-2.550781v-82.761719c4.390626-4.972656 7.066407-11.496093 7.066407-18.632812 0-7.140625-2.675781-13.664063-7.066407-18.636719v-95.730469c0-11.648437-9.476562-21.125-21.121093-21.125-11.648438 0-21.125 9.476563-21.125 21.125v95.730469c-4.390625 4.972656-7.0625 11.496094-7.0625 18.636719 0 7.136719 2.671875 13.660156 7.0625 18.632812v82.761719c-3.601563.613281-8.609375 1.742188-11.585938 2.550781v-219.308593c0-17.878907 14.542969-32.710938 32.710938-32.710938 18.035156 0 32.707031 14.675781 32.707031 32.710938v97.863281c0 4.140625 3.359375 7.5 7.5 7.5 4.144531 0 7.5-3.359375 7.5-7.5v-97.863281c0-26.308594-21.398438-47.710938-47.707031-47.710938-19.648438 0-36.550781 11.941406-43.855469 28.941406h-328.339844c-8.429687 0-15.285156 6.855469-15.285156 15.285156v295.242188c0 8.429688 6.855469 15.285156 15.285156 15.285156h129.457032c4.144531 0 7.503906-3.355468 7.503906-7.5 0-4.140625-3.359375-7.5-7.503906-7.5h-129.457032c-.15625 0-.285156-.125-.285156-.285156v-295.242188c0-.15625.128906-.285156.285156-.285156h324.632813c-.078125.996094-.148438 2.582032-.148438 3.769532v11.503906h-301.996093c-4.140626 0-7.5 3.359375-7.5 7.5v250.265625c0 4.144531 3.359374 7.5 7.5 7.5h242.164062c-2.875 4.898437-5.429688 9.996093-7.613281 15.273437h-92.578125c-4.144532 0-7.5 3.359375-7.5 7.5 0 4.144532 3.355468 7.5 7.5 7.5h87.507812c-2.796875 10.351563-4.296875 21.222656-4.296875 32.445313 0 68.660156 55.859375 124.519531 124.523438 124.519531 68.660156 0 124.519531-55.859375 124.519531-124.519531 0-51.769531-31.757812-96.253907-76.8125-115.011719zm-53.832031-223.480469c0-3.378906 2.75-6.125 6.125-6.125s6.121093 2.746094 6.121093 6.125v86.855469c-.003906 0-.011718-.003906-.019531-.003906-.480469-.105469-.964843-.203125-1.453125-.285156-.019531 0-.035156-.003907-.050781-.007813-1.496094-.246094-3.03125-.382813-4.597656-.382813-1.566407 0-3.101563.136719-4.597657.382813-.023437.003906-.042968.007813-.0625.011719-.484374.082031-.964843.175781-1.441406.277344-.007812.003906-.015625.003906-.023437.007812zm6.125 101.175781c7.167969 0 13.1875 5.867188 13.1875 13.191407 0 7.304687-6 13.1875-13.1875 13.1875-17.925781-.003907-16.988281-26.378907 0-26.378907zm6.121093 40.699219v72.25c-4.199218-.203125-8.433593-.1875-12.246093 0v-72.25c4.183593.914063 8.386719.890625 12.246093 0zm-348.328124-116.367187h294.496093v150.683594l-67.832031-99.167969c-2.832031-4.136719-7.511719-6.605469-12.523438-6.605469-5.011718 0-9.695312 2.46875-12.527343 6.605469l-75.519531 110.304687-36.460938-53.253906c-2.832031-4.136719-7.515625-6.605469-12.527344-6.605469-5.011718 0-9.691406 2.46875-12.5 6.570313l-64.605468 93.265625zm75.804687 235.265625h-75.804687v-7.125l76.957031-111.101563c.070312-.105468.226562-.105468.296875 0l39.75 58.054688-5.867188 8.570312zm18.179687 0 38.296876-55.933594 81.710937-119.34375c.070313-.105469.226563-.101563.292969-.003906l80.210937 117.269531v20.675781c-19.402343 8.039063-36.375 20.804688-49.582031 37.335938zm248.222657 187.238281c-60.390625 0-109.523438-49.128906-109.523438-109.519531 0-59.257813 47.164063-107.285157 105.453125-109.433594 62.71875-2.285156 113.589844 48.121094 113.589844 109.433594 0 60.390625-49.128906 109.519531-109.519531 109.519531zm0 0"/><path d="m387.480469 339.304688c-26.410157 0-47.898438 21.484374-47.898438 47.894531 0 26.410156 21.488281 47.898437 47.898438 47.898437 26.410156 0 47.894531-21.488281 47.894531-47.898437 0-26.410157-21.484375-47.894531-47.894531-47.894531zm0 80.789062c-18.140625 0-32.898438-14.757812-32.898438-32.894531 0-18.140625 14.757813-32.898438 32.898438-32.898438s32.894531 14.757813 32.894531 32.898438c0 18.136719-14.757812 32.894531-32.894531 32.894531zm0 0"/><path d="m387.480469 329.945312c4.144531 0 7.5-3.355468 7.5-7.5v-19.003906c0-4.144531-3.355469-7.5-7.5-7.5s-7.5 3.355469-7.5 7.5v19.003906c0 4.144532 3.355469 7.5 7.5 7.5zm0 0"/><path d="m387.480469 444.453125c-4.144531 0-7.5 3.355469-7.5 7.5v19.003906c0 4.144531 3.355469 7.5 7.5 7.5s7.5-3.355469 7.5-7.5v-19.003906c0-4.144531-3.359375-7.5-7.5-7.5zm0 0"/><path d="m336.386719 346.714844c2.933593 2.929687 7.679687 2.929687 10.609375 0 2.929687-2.929688 2.929687-7.675782 0-10.605469l-13.4375-13.4375c-2.929688-2.929687-7.679688-2.929687-10.609375 0-2.925781 2.929687-2.925781 7.675781 0 10.605469zm0 0"/><path d="m438.570312 427.683594c-2.929687-2.929688-7.679687-2.929688-10.609374 0-2.925782 2.929687-2.925782 7.679687.003906 10.605468l13.4375 13.4375c2.929687 2.929688 7.675781 2.929688 10.605468 0 2.929688-2.929687 2.929688-7.675781 0-10.605468zm0 0"/><path d="m330.226562 387.199219c0-4.144531-3.355468-7.5-7.5-7.5h-19.003906c-4.144531 0-7.5 3.355469-7.5 7.5s3.355469 7.5 7.5 7.5h19.003906c4.140626 0 7.5-3.355469 7.5-7.5zm0 0"/><path d="m444.734375 387.199219c0 4.144531 3.355469 7.5 7.5 7.5h19.003906c4.144531 0 7.5-3.355469 7.5-7.5s-3.355469-7.5-7.5-7.5h-19.003906c-4.144531 0-7.5 3.355469-7.5 7.5zm0 0"/><path d="m336.386719 427.683594-13.4375 13.4375c-2.925781 2.929687-2.925781 7.679687 0 10.605468 2.933593 2.929688 7.679687 2.929688 10.609375 0l13.4375-13.4375c2.929687-2.929687 2.929687-7.675781 0-10.605468-2.929688-2.929688-7.679688-2.929688-10.609375 0zm0 0"/><path d="m438.570312 346.714844 13.4375-13.4375c2.929688-2.929688 2.929688-7.675782 0-10.605469-2.929687-2.929687-7.675781-2.929687-10.605468 0l-13.4375 13.4375c-2.929688 2.929687-2.929688 7.679687-.003906 10.605469 2.933593 2.929687 7.679687 2.925781 10.609374 0zm0 0"/></svg>