<svg height="512pt" viewBox="0 -43 512 512" width="512pt" xmlns="http://www.w3.org/2000/svg"><path d="m376.527344 212.894531h128.136718v102.695313h-128.136718zm0 0" fill="#695d67"/><path d="m376.527344 212.894531h33.890625v102.695313h-33.890625zm0 0" fill="#544e55"/><path d="m492.390625 418.285156h-115.863281v-102.695312h128.136718v90.792968c0 6.546876-5.523437 11.902344-12.273437 11.902344zm0 0" fill="#544e55"/><path d="m376.527344 315.589844h33.890625v102.699218h-33.890625zm0 0" fill="#453f46"/><path d="m376.527344 110.195312h128.136718v102.699219h-128.136718zm0 0" fill="#4f67d2"/><path d="m376.527344 110.195312h33.890625v102.699219h-33.890625zm0 0" fill="#324ccc"/><path d="m492.390625 7.5h-115.863281v102.699219h128.136718v-90.792969c0-6.550781-5.523437-11.90625-12.273437-11.90625zm0 0" fill="#6c7ed6"/><path d="m376.527344 7.5h33.890625v102.695312h-33.890625zm0 0" fill="#4f67d2"/><path d="m131.917969 212.894531h129.359375v102.695313h-129.359375zm0 0" fill="#fee55a"/><path d="m128.027344 212.894531h33.890625v102.695313h-33.890625zm0 0" fill="#ffd301"/><path d="m131.917969 315.589844h129.359375v102.699218h-129.359375zm0 0" fill="#ffd301"/><path d="m128.027344 315.589844h33.890625v102.699218h-33.890625zm0 0" fill="#ffc20c"/><path d="m7.667969 212.894531h124.25v102.695313h-124.25zm0 0" fill="#ffa85d"/><path d="m7.667969 212.894531h30v102.695313h-30zm0 0" fill="#ff9839"/><path d="m19.570312 418.285156h112.34375v-102.695312h-124.246093v90.792968c0 6.546876 5.355469 11.902344 11.902343 11.902344zm0 0" fill="#ff9839"/><path d="m37.667969 315.589844h-30v90.792968c0 6.546876 5.355469 11.902344 11.902343 11.902344h18.097657zm0 0" fill="#ff8607"/><path d="m256.164062 212.894531h124.25v102.695313h-124.25zm0 0" fill="#23a8fe"/><path d="m256.164062 212.894531h30v102.695313h-30zm0 0" fill="#0492fe"/><path d="m256.164062 315.589844h124.25v102.699218h-124.25zm0 0" fill="#0492fe"/><path d="m256.164062 315.589844h30v102.699218h-30zm0 0" fill="#0083fe"/><path d="m131.917969 110.195312h129.359375v102.699219h-129.359375zm0 0" fill="#00ba66"/><path d="m128.027344 110.195312h33.890625v102.699219h-33.890625zm0 0" fill="#01a755"/><path d="m131.917969 7.5h129.359375v102.699219h-129.359375zm0 0" fill="#43cb8e"/><path d="m128.027344 7.5h33.890625v102.695312h-33.890625zm0 0" fill="#00ba66"/><path d="m7.667969 110.195312h124.25v102.699219h-124.25zm0 0" fill="#ff4756"/><path d="m7.667969 110.195312h30v102.699219h-30zm0 0" fill="#fc2d39"/><path d="m19.570312 7.5h112.34375v102.699219h-124.246093v-90.792969c0-6.550781 5.355469-11.90625 11.902343-11.90625zm0 0" fill="#ff656f"/><path d="m37.667969 7.5h-18.097657c-6.546874 0-11.90625 5.355469-11.90625 11.902344v90.792968h30v-102.695312zm0 0" fill="#ff4756"/><path d="m256.164062 110.195312h124.25v102.699219h-124.25zm0 0" fill="#60b8fe"/><path d="m256.164062 110.195312h30v102.699219h-30zm0 0" fill="#23a8fe"/><path d="m256.164062 7.5h124.25v102.699219h-124.25zm0 0" fill="#8cc9f9"/><path d="m256.164062 7.5h30v102.695312h-30zm0 0" fill="#60b8fe"/><path d="m492.597656 0c-5.667968 0-147.175781 0-156.972656 0-4.144531 0-7.5 3.355469-7.5 7.5s3.355469 7.5 7.5 7.5h37.125v87.695312h-109.25v-87.695312h37.125c4.144531 0 7.5-3.355469 7.5-7.5s-3.355469-7.5-7.5-7.5h-44.625c-3.089844 0-233.34375 0-236.59375 0-10.703125 0-19.40625 8.707031-19.40625 19.40625v386.976562c0 10.699219 8.703125 19.40625 19.40625 19.40625h473.1875c10.699219 0 19.40625-8.707031 19.40625-19.40625 0-15.148437 0-111.53125 0-124.640624 0-4.140626-3.359375-7.5-7.5-7.5-4.144531 0-7.5 3.359374-7.5 7.5v26.347656h-109.25v-87.695313h109.25v26.347657c0 4.144531 3.355469 7.5 7.5 7.5s7.5-3.355469 7.5-7.5c0-10.179688 0-216.578126 0-227.335938 0-10.699219-8.703125-19.40625-19.402344-19.40625zm-368.347656 410.789062h-104.84375c-2.390625 0-4.40625-2.019531-4.40625-4.40625v-83.292968h109.25zm0-102.699218h-109.25v-87.695313h109.25zm0-102.695313h-109.25v-87.695312h109.25zm0-102.695312h-109.25v-83.292969c0-2.390625 2.019531-4.40625 4.40625-4.40625h104.84375zm124.25 308.089843h-109.25v-87.699218h109.25zm0-102.699218h-109.25v-87.695313h109.25zm0-102.695313h-109.25v-87.695312h109.25zm0-102.695312h-109.25v-87.699219h109.25zm124.25 308.089843h-109.25v-87.699218h109.25zm0-102.699218h-109.25v-87.695313h109.25zm0-102.695313h-109.25v-87.695312h109.25zm124.25 117.695313v83.292968c0 2.386719-2.015625 4.402344-4.402344 4.402344h-104.847656v-87.695312zm0-117.695313h-109.25v-87.695312h109.25zm0-102.695312h-109.25v-87.699219h104.847656c2.386719 0 4.402344 2.015625 4.402344 4.402344zm0 0"/></svg>