<svg height="512pt" viewBox="0 0 512 512.001" width="512pt" xmlns="http://www.w3.org/2000/svg"><path d="m464.074219 7.5h-415.8125c-22.328125 0-40.59375 18.265625-40.59375 40.59375v415.8125c0 22.324219 18.265625 40.59375 40.589843 40.59375h415.8125c22.328126 0 40.59375-18.265625 40.59375-40.59375v-415.8125c.003907-22.328125-18.265624-40.59375-40.589843-40.59375zm0 0" fill="#dfebfa"/><path d="m38.332031 463.90625v-415.8125c0-22.328125 18.269531-40.59375 40.59375-40.59375h-30.664062c-22.328125 0-40.59375 18.265625-40.59375 40.59375v415.8125c0 22.328125 18.265625 40.59375 40.59375 40.59375h30.664062c-22.324219 0-40.59375-18.269531-40.59375-40.59375zm0 0" fill="#b1dbfc"/><path d="m464.074219 7.5h-415.8125c-22.328125 0-40.59375 18.265625-40.59375 40.59375v19.726562h496.996093v-19.726562c.003907-22.328125-18.265624-40.59375-40.589843-40.59375zm0 0" fill="#23a8fe"/><path d="m75.867188 67.820312v18.917969c0 6.882813 5.628906 12.511719 12.511718 12.511719h155.277344c6.878906 0 12.511719-5.628906 12.511719-12.511719v-18.917969zm0 0" fill="#8cc9f9"/><path d="m106.117188 86.738281v-18.917969h-30.25v18.917969c0 6.882813 5.628906 12.511719 12.511718 12.511719h30.25c-6.882812 0-12.511718-5.628906-12.511718-12.511719zm0 0" fill="#60b8fe"/><path d="m7.667969 67.820312h68.199219v49.78125h-68.199219zm0 0" fill="#b1dbfc"/><path d="m7.667969 67.820312h30.664062v49.78125h-30.664062zm0 0" fill="#8cc9f9"/><path d="m7.667969 117.601562h68.199219v49.78125h-68.199219zm0 0" fill="#8cc9f9"/><path d="m7.667969 117.601562h30.664062v49.78125h-30.664062zm0 0" fill="#60b8fe"/><path d="m7.667969 167.386719h68.199219v49.777343h-68.199219zm0 0" fill="#b1dbfc"/><path d="m7.667969 167.386719h30.664062v49.777343h-30.664062zm0 0" fill="#8cc9f9"/><path d="m7.667969 217.164062h68.199219v49.78125h-68.199219zm0 0" fill="#8cc9f9"/><path d="m7.667969 217.164062h30.664062v49.78125h-30.664062zm0 0" fill="#60b8fe"/><path d="m7.667969 316.730469h68.199219v49.78125h-68.199219zm0 0" fill="#8cc9f9"/><path d="m7.667969 316.730469h30.664062v49.78125h-30.664062zm0 0" fill="#60b8fe"/><path d="m7.667969 266.945312h68.199219v49.78125h-68.199219zm0 0" fill="#b1dbfc"/><path d="m7.667969 266.945312h30.664062v49.78125h-30.664062zm0 0" fill="#8cc9f9"/><path d="m7.667969 366.511719v49.777343h57.878906c5.699219 0 10.320313-4.617187 10.320313-10.320312v-39.460938h-68.199219zm0 0" fill="#b1dbfc"/><path d="m7.667969 366.511719h30.664062v49.777343h-30.664062zm0 0" fill="#8cc9f9"/><path d="m106.269531 7.5h-58.007812c-22.328125 0-40.59375 18.265625-40.59375 40.59375v19.726562h98.601562zm0 0" fill="#ff656f"/><path d="m38.332031 48.09375c0-22.328125 18.269531-40.59375 40.59375-40.59375h-30.664062c-22.328125 0-40.59375 18.265625-40.59375 40.59375v19.726562h30.664062zm0 0" fill="#ff4756"/><path d="m65.546875 416.292969c3.128906 0 5.925781-1.398438 7.820313-3.601563l-65.699219-46.179687v49.777343h57.878906zm0 0" fill="#8cc9f9"/><path d="m38.332031 388.066406-30.664062-21.554687v49.78125h30.664062zm0 0" fill="#60b8fe"/><path d="m322.695312 126.925781h-212.269531c-3.335937 0-6.039062 2.707031-6.039062 6.039063v256.695312c0 3.332032 2.703125 6.039063 6.039062 6.039063h212.269531zm0 0" fill="#60b8fe"/><path d="m134.050781 389.65625v-256.691406c0-3.332032 2.707031-6.039063 6.039063-6.039063h-29.664063c-3.335937 0-6.039062 2.707031-6.039062 6.039063v256.695312c0 3.332032 2.703125 6.039063 6.039062 6.039063h29.664063c-3.335938 0-6.039063-2.707031-6.039063-6.042969zm0 0" fill="#23a8fe"/><g fill="#b1dbfc"><path d="m466.101562 128.011719h-55.269531c-3.738281 0-6.773437 3.03125-6.773437 6.769531v20.628906c0 3.738282 3.035156 6.769532 6.773437 6.769532h55.269531c3.738282 0 6.769532-3.03125 6.769532-6.769532v-20.628906c0-3.738281-3.03125-6.769531-6.769532-6.769531zm0 0"/><path d="m466.101562 186.390625h-55.269531c-3.738281 0-6.773437 3.03125-6.773437 6.769531v20.628906c0 3.738282 3.035156 6.773438 6.773437 6.773438h55.269531c3.738282 0 6.769532-3.035156 6.769532-6.773438v-20.628906c0-3.738281-3.03125-6.769531-6.769532-6.769531zm0 0"/><path d="m466.101562 244.769531h-55.269531c-3.738281 0-6.773437 3.03125-6.773437 6.769531v20.628907c0 3.738281 3.035156 6.773437 6.773437 6.773437h55.269531c3.738282 0 6.769532-3.035156 6.769532-6.773437v-20.628907c0-3.738281-3.03125-6.769531-6.769532-6.769531zm0 0"/><path d="m466.101562 303.148438h-55.269531c-3.738281 0-6.773437 3.03125-6.773437 6.769531v20.628906c0 3.738281 3.035156 6.773437 6.773437 6.773437h55.269531c3.738282 0 6.769532-3.035156 6.769532-6.773437v-20.628906c0-3.738281-3.03125-6.769531-6.769532-6.769531zm0 0"/><path d="m466.101562 361.527344h-55.269531c-3.738281 0-6.773437 3.03125-6.773437 6.769531v20.628906c0 3.738281 3.035156 6.773438 6.773437 6.773438h55.269531c3.738282 0 6.769532-3.035157 6.769532-6.773438v-20.628906c0-3.738281-3.03125-6.769531-6.769532-6.769531zm0 0"/></g><path d="m434.558594 155.410156v-20.628906c0-3.738281 3.035156-6.769531 6.773437-6.769531h-30.5c-3.738281 0-6.773437 3.03125-6.773437 6.769531v20.628906c0 3.738282 3.035156 6.769532 6.773437 6.769532h30.5c-3.738281 0-6.773437-3.03125-6.773437-6.769532zm0 0" fill="#8cc9f9"/><path d="m434.558594 213.789062v-20.628906c0-3.738281 3.035156-6.773437 6.773437-6.773437h-30.5c-3.738281 0-6.773437 3.035156-6.773437 6.773437v20.628906c0 3.738282 3.035156 6.769532 6.773437 6.769532h30.5c-3.738281 0-6.773437-3.03125-6.773437-6.769532zm0 0" fill="#8cc9f9"/><path d="m434.558594 272.167969v-20.628907c0-3.738281 3.035156-6.769531 6.773437-6.769531h-30.5c-3.738281 0-6.773437 3.03125-6.773437 6.769531v20.628907c0 3.738281 3.035156 6.773437 6.773437 6.773437h30.5c-3.738281-.003906-6.773437-3.035156-6.773437-6.773437zm0 0" fill="#8cc9f9"/><path d="m434.558594 330.546875v-20.628906c0-3.738281 3.035156-6.769531 6.773437-6.769531h-30.5c-3.738281 0-6.773437 3.03125-6.773437 6.769531v20.628906c0 3.738281 3.035156 6.773437 6.773437 6.773437h30.5c-3.738281-.003906-6.773437-3.035156-6.773437-6.773437zm0 0" fill="#8cc9f9"/><path d="m434.558594 388.925781v-20.628906c0-3.738281 3.035156-6.769531 6.773437-6.769531h-30.5c-3.738281 0-6.773437 3.03125-6.773437 6.769531v20.628906c0 3.738281 3.035156 6.773438 6.773437 6.773438h30.5c-3.738281 0-6.773437-3.035157-6.773437-6.773438zm0 0" fill="#8cc9f9"/><path d="m369.941406 126.925781h-48.246094v67.734375h54.285157v-61.695312c0-3.335938-2.703125-6.039063-6.039063-6.039063zm0 0" fill="#ff656f"/><path d="m321.695312 126.925781h30v67.734375h-30zm0 0" fill="#ff4756"/><path d="m321.695312 395.699219h48.246094c3.335938 0 6.035156-2.707031 6.035156-6.039063v-60.613281h-54.28125zm0 0" fill="#23a8fe"/><path d="m321.695312 329.046875h30v66.652344h-30zm0 0" fill="#0193ff"/><path d="m321.695312 194.660156h54.285157v66.652344h-54.285157zm0 0" fill="#fee55a"/><path d="m321.695312 194.660156h30v66.652344h-30zm0 0" fill="#ffd301"/><path d="m321.695312 261.3125h54.285157v67.734375h-54.285157zm0 0" fill="#43cb8e"/><path d="m321.695312 261.3125h30v67.734375h-30zm0 0" fill="#00ba66"/><path d="m215.15625 218.976562c-22.648438 0-41.007812 18.359376-41.007812 41.007813s18.359374 41.007813 41.007812 41.007813 41.011719-18.359376 41.011719-41.007813-18.363281-41.007813-41.011719-41.007813zm0 55.953126c-8.25 0-14.941406-6.691407-14.941406-14.945313s6.691406-14.945313 14.941406-14.945313c8.253906 0 14.945312 6.691407 14.945312 14.945313s-6.691406 14.945313-14.945312 14.945313zm0 0" fill="#fee55a"/><path d="m207.964844 273.082031c-4.621094-2.542969-7.75-7.453125-7.75-13.097656s3.128906-10.554687 7.75-13.097656c3.769531-11.183594 12.214844-20.210938 23.027344-24.738281-4.871094-2.042969-10.21875-3.171876-15.832032-3.171876-22.652344 0-41.011718 18.359376-41.011718 41.007813s18.359374 41.007813 41.011718 41.007813c5.613282 0 10.960938-1.128907 15.832032-3.171876-10.8125-4.527343-19.257813-13.554687-23.027344-24.738281zm0 0" fill="#ffd301"/><path d="m463.90625 0h-415.8125c-26.519531 0-48.09375 21.574219-48.09375 48.09375v19.726562 348.472657 47.613281c0 26.519531 21.574219 48.09375 48.09375 48.09375h190.40625c4.144531 0 7.5-3.355469 7.5-7.5s-3.355469-7.5-7.5-7.5h-190.40625c-18.246094 0-33.09375-14.847656-33.09375-33.09375v-40.113281h50.378906c9.8125 0 17.824219-8.019531 17.824219-17.824219v-299.878906c1.601563.417968 3.277344.664062 5.007813.664062h155.277343c11.035157 0 20.011719-8.980468 20.011719-20.015625v-11.417969h233.5v169.03125c0 4.144532 3.355469 7.5 7.5 7.5 4.140625 0 7.5-3.355468 7.5-7.5v-196.257812c0-2.484375-.191406-4.929688-.554688-7.3125-3.535156-23.0625-23.507812-40.78125-47.539062-40.78125zm-448.90625 408.792969v-27.84375l39.609375 27.84375zm53.203125-8.78125-36.992187-26h36.992187zm0-41h-53.203125v-34.78125h53.203125zm0-49.78125h-53.203125v-34.78125h53.203125zm0-49.785157h-53.203125v-34.78125h53.203125zm0-49.78125h-53.203125v-34.777343h53.203125zm0-49.777343h-53.203125v-34.78125h53.203125zm0-73.148438v23.363281h-53.203125v-34.78125h53.203125zm7.5-26.417969h-60.703125v-12.226562c0-18.246094 14.847656-33.09375 33.09375-33.09375h50.511719v45.320312zm172.796875 26.417969c0 2.714844-2.292969 5.011719-5.011719 5.011719h-155.277343c-2.714844 0-5.007813-2.296875-5.007813-5.011719v-11.417969h165.296875zm248.5-26.417969h-383.394531v-45.320312h350.300781c18.253906 0 33.09375 14.851562 33.09375 33.09375zm0 0"/><path d="m410.667969 169.679688h55.265625c7.871094 0 14.273437-6.402344 14.273437-14.269532v-20.628906c0-7.867188-6.402343-14.269531-14.273437-14.269531h-55.265625c-7.871094 0-14.273438 6.402343-14.273438 14.269531v20.628906c0 7.867188 6.402344 14.269532 14.273438 14.269532zm.726562-34.167969h53.8125v19.167969h-53.8125zm0 0"/><path d="m396.394531 213.789062c0 7.867188 6.402344 14.269532 14.273438 14.269532h55.265625c7.871094 0 14.273437-6.402344 14.273437-14.269532v-20.628906c0-7.871094-6.402343-14.269531-14.273437-14.269531h-55.265625c-7.871094 0-14.273438 6.398437-14.273438 14.269531zm15-19.898437h53.8125v19.171875h-53.8125zm0 0"/><path d="m396.394531 272.167969c0 7.867187 6.402344 14.269531 14.273438 14.269531h55.265625c7.871094 0 14.273437-6.402344 14.273437-14.269531v-20.628907c0-7.867187-6.402343-14.269531-14.273437-14.269531h-55.265625c-7.871094 0-14.273438 6.402344-14.273438 14.269531zm15-19.898438h53.8125v19.171875h-53.8125zm0 0"/><path d="m396.394531 330.546875c0 7.867187 6.402344 14.269531 14.273438 14.269531h55.265625c7.871094 0 14.273437-6.402344 14.273437-14.269531v-20.628906c0-7.867188-6.402343-14.269531-14.273437-14.269531h-55.265625c-7.871094 0-14.273438 6.402343-14.273438 14.269531zm15-19.898437h53.8125v19.167968h-53.8125zm0 0"/><path d="m396.394531 388.925781c0 7.871094 6.402344 14.269531 14.273438 14.269531h55.265625c7.871094 0 14.273437-6.398437 14.273437-14.269531v-20.628906c0-7.867187-6.402343-14.269531-14.273437-14.269531h-55.265625c-7.871094 0-14.273438 6.402344-14.273438 14.269531zm15-19.898437h53.8125v19.167968h-53.8125zm0 0"/><path d="m383.3125 261.3125v-128.34375c0-7.46875-6.070312-13.539062-13.539062-13.539062h-259.515626c-7.464843 0-13.539062 6.070312-13.539062 13.539062v256.691406c0 7.464844 6.074219 13.539063 13.539062 13.539063h259.515626c2.335937 0 4.53125-.59375 6.449218-1.636719 4.21875-2.296875 7.089844-6.769531 7.089844-11.902344v-20.664062c3.855469-.316406 6.882812-3.535156 6.882812-7.46875s-3.027343-7.15625-6.882812-7.46875zm-69.285156-66.652344v159.363282h-.144532c-4.144531 0-7.5 3.359374-7.5 7.5 0 4.144531 3.355469 7.5 7.5 7.5h.144532v19.171874h-202.308594v-253.769531h202.308594zm54.285156 193.535156h-39.285156v-19.167968h39.285156zm0-34.167968h-39.285156v-17.480469h39.285156zm0-32.480469h-39.285156v-52.734375h39.285156zm0-67.734375h-39.285156v-51.652344h39.285156zm0-66.652344h-39.285156v-52.734375h39.285156zm0 0"/><path d="m214.992188 282.429688c12.375 0 22.441406-10.070313 22.441406-22.445313s-10.066406-22.441406-22.441406-22.441406-22.445313 10.066406-22.445313 22.441406 10.070313 22.445313 22.445313 22.445313zm0-29.890626c4.101562 0 7.441406 3.34375 7.441406 7.445313 0 4.105469-3.339844 7.445313-7.441406 7.445313-4.105469 0-7.445313-3.339844-7.445313-7.445313 0-4.101563 3.339844-7.445313 7.445313-7.445313zm0 0"/><path d="m214.992188 308.492188c26.746093 0 48.507812-21.757813 48.507812-48.507813 0-26.746094-21.761719-48.507813-48.507812-48.507813-26.75 0-48.511719 21.761719-48.511719 48.507813 0 26.75 21.761719 48.507813 48.511719 48.507813zm0-82.015626c18.476562 0 33.507812 15.03125 33.507812 33.507813 0 18.480469-15.03125 33.511719-33.507812 33.511719-18.480469 0-33.511719-15.03125-33.511719-33.511719 0-18.476563 15.035156-33.507813 33.511719-33.507813zm0 0"/><path d="m504.5 271.855469c-4.144531 0-7.5 3.355469-7.5 7.5v184.550781c0 18.25-14.847656 33.09375-33.09375 33.09375h-190.40625c-4.140625 0-7.5 3.359375-7.5 7.5 0 4.144531 3.359375 7.5 7.5 7.5h190.40625c26.519531 0 48.09375-21.574219 48.09375-48.09375v-184.550781c0-4.144531-3.359375-7.5-7.5-7.5zm0 0"/></svg>