<svg height="512pt" viewBox="0 0 512 512" width="512pt" xmlns="http://www.w3.org/2000/svg"><path d="m254.167969 129.46875v253.0625c.664062.011719 1.328125.027344 2 .027344 69.894531 0 126.554687-56.664063 126.554687-126.558594 0-70.421875-57.59375-127.628906-128.554687-126.53125zm0 0" fill="#6c7ed6"/><path d="m286.167969 133.03125c-10.25-2.492188-20.859375-3.734375-32-3.5625v253.0625c.664062.011719 1.328125.027344 2 .027344 10.335937 0 20.378906-1.25 30-3.585938zm0 0" fill="#4f67d2"/><path d="m129.609375 256c0 69.894531 56.660156 126.558594 126.554687 126.558594v-253.117188c-69.894531 0-126.554687 56.664063-126.554687 126.558594zm0 0" fill="#fee55a"/><path d="m160.273438 256c0-59.320312 40.816406-109.097656 95.894531-122.808594v-3.75c-69.898438 0-126.558594 56.664063-126.558594 126.558594s56.660156 126.558594 126.558594 126.558594v-3.75c-55.078125-13.710938-95.894531-63.488282-95.894531-122.808594zm0 0" fill="#ffd301"/><path d="m356.542969 344.570312c11.097656-12.585937 19.878906-27.265624 25.660156-43.359374.148437-.332032.265625-.675782.363281-1.027344 4.847656-13.84375 7.492188-28.707032 7.492188-44.183594 0-73.90625-60.132813-134.058594-134.058594-134.058594-73.917969 0-134.058594 60.140625-134.058594 134.058594 0 73.921875 60.140625 134.058594 134.058594 134.058594 39.3125 0 74.730469-17.011719 99.273438-44.058594.476562-.421875.910156-.898438 1.269531-1.429688zm-37.265625-165.441406h27.558594c6.941406 8.191406 12.796874 17.324219 17.34375 27.1875h-100.679688v-27.1875h22.878906c4.144532 0 7.5-3.359375 7.5-7.5 0-4.144531-3.355468-7.5-7.5-7.5h-22.878906v-26.941406c25.78125 1.609375 49.371094 11.453125 68.144531 26.941406h-12.363281c-4.144531 0-7.5 3.355469-7.5 7.5 0 4.140625 3.355469 7.5 7.496094 7.5zm-55.777344 84.371094h22.710938c4.144531 0 7.5-3.355469 7.5-7.5 0-4.140625-3.355469-7.5-7.5-7.5h-22.710938v-27.1875h106.398438c2.648437 8.6875 4.328124 17.792969 4.917968 27.1875h-54.769531c-4.144531 0-7.5 3.359375-7.5 7.5 0 4.144531 3.355469 7.5 7.5 7.5h54.769531c-.589844 9.398438-2.269531 18.5-4.917968 27.1875h-106.398438zm0 84.371094h68.144531c-18.773437 15.488281-42.359375 25.332031-68.144531 26.945312zm0-15v-27.183594h100.679688c-4.546876 9.859375-10.402344 18.992188-17.34375 27.183594zm-15-195.6875v237.632812c-62.585938-3.914062-111.558594-56.070312-111.558594-118.816406 0-62.609375 48.808594-114.894531 111.558594-118.816406zm0 0"/><path d="m256 111.277344c4.144531 0 7.5-3.355469 7.5-7.5v-96.277344c0-4.144531-3.355469-7.5-7.5-7.5-4.140625 0-7.5 3.355469-7.5 7.5v96.277344c0 4.144531 3.359375 7.5 7.5 7.5zm0 0"/><path d="m256 400.722656c-4.140625 0-7.5 3.355469-7.5 7.5v96.277344c0 4.144531 3.359375 7.5 7.5 7.5 4.144531 0 7.5-3.355469 7.5-7.5v-96.277344c0-4.144531-3.355469-7.5-7.5-7.5zm0 0"/><path d="m143.058594 153.667969c2.933594 2.929687 7.679687 2.929687 10.609375 0 2.929687-2.929688 2.929687-7.675781 0-10.605469l-68.078125-68.082031c-2.933594-2.925781-7.679688-2.929688-10.609375 0-2.929688 2.929687-2.929688 7.675781 0 10.605469zm0 0"/><path d="m368.941406 358.332031c-2.933594-2.925781-7.679687-2.925781-10.609375 0-2.929687 2.929688-2.929687 7.679688 0 10.609375l68.082031 68.078125c2.929688 2.929688 7.675782 2.929688 10.605469 0 2.929688-2.929687 2.929688-7.675781 0-10.605469zm0 0"/><path d="m111.277344 256c0-4.140625-3.355469-7.5-7.5-7.5h-96.277344c-4.144531 0-7.5 3.359375-7.5 7.5 0 4.144531 3.355469 7.5 7.5 7.5h96.277344c4.144531 0 7.5-3.355469 7.5-7.5zm0 0"/><path d="m504.5 248.5h-96.277344c-4.144531 0-7.5 3.359375-7.5 7.5 0 4.144531 3.355469 7.5 7.5 7.5h96.277344c4.144531 0 7.5-3.355469 7.5-7.5 0-4.140625-3.355469-7.5-7.5-7.5zm0 0"/><path d="m143.058594 358.332031-68.078125 68.082031c-2.929688 2.929688-2.929688 7.675782 0 10.605469 2.933593 2.929688 7.679687 2.929688 10.609375 0l68.078125-68.078125c2.929687-2.933594 2.929687-7.679687 0-10.609375-2.929688-2.925781-7.679688-2.925781-10.609375 0zm0 0"/><path d="m368.941406 153.667969 68.078125-68.078125c2.929688-2.933594 2.929688-7.679688 0-10.609375-2.929687-2.925781-7.675781-2.925781-10.605469 0l-68.082031 68.082031c-2.929687 2.929688-2.929687 7.675781 0 10.605469 2.933594 2.929687 7.679688 2.929687 10.609375 0zm0 0"/></svg>