<svg height="512pt" viewBox="0 0 512.001 512" width="512pt" xmlns="http://www.w3.org/2000/svg"><path d="m501.191406 344.871094h-330.417968c-1.921876 0-3.476563-1.554688-3.476563-3.476563v-330.417969c0-1.921874-1.554687-3.476562-3.476563-3.476562h-39.652343c-1.921875 0-3.476563 1.554688-3.476563 3.476562v377.023438c0 1.921875 1.554688 3.476562 3.476563 3.476562h377.023437c1.917969 0 3.476563-1.554687 3.476563-3.476562v-39.652344c0-1.921875-1.558594-3.476562-3.476563-3.476562zm0 0" fill="#dfebfa"/><path d="m148.996094 366.5c-1.921875 0-3.476563-1.558594-3.476563-3.476562v-355.523438h-21.351562c-1.917969 0-3.476563 1.554688-3.476563 3.476562v377.023438c0 1.921875 1.558594 3.476562 3.476563 3.476562h377.023437c1.917969 0 3.476563-1.554687 3.476563-3.476562v-21.5zm0 0" fill="#b1dbfc"/><path d="m168.347656 343.878906c-.648437-.628906-1.050781-1.507812-1.050781-2.484375v-330.417969c0-1.921874-1.554687-3.476562-3.476563-3.476562h-39.652343c-1.921875 0-3.476563 1.554688-3.476563 3.476562v377.023438c0 .941406.378906 1.796875.988282 2.421875l46.667968-46.539063zm0 0" fill="#b1dbfc"/><path d="m120.761719 388.691406c.039062.1875.097656.363282.164062.539063.011719.03125.019531.070312.03125.101562.171875.40625.417969.777344.722657 1.089844l24.941406-24.871094c-.675782-.636719-1.101563-1.53125-1.101563-2.527343v-355.523438h-21.351562c-.960938 0-1.828125.390625-2.457031 1.019531-.160157.15625-.300782.328125-.425782.511719-.21875.328125-.375.699219-.476562 1.089844-.066406.273437-.117188.558594-.117188.855468v377.023438.011719c0 .234375.027344.460937.070313.679687zm0 0" fill="#8cc9f9"/><path d="m11.140625 167.070312h330.421875c1.917969 0 3.472656 1.558594 3.472656 3.476563v330.417969c0 1.921875 1.558594 3.476562 3.476563 3.476562h39.65625c1.917969 0 3.472656-1.554687 3.472656-3.476562v-377.023438c0-1.917968-1.554687-3.476562-3.472656-3.476562h-377.027344c-1.917969 0-3.476563 1.558594-3.476563 3.476562v39.65625c0 1.917969 1.558594 3.472656 3.476563 3.472656zm0 0" fill="#b1dbfc"/><path d="m375.511719 476.804688c-1.917969 0-3.476563-1.554688-3.476563-3.476563v-330.417969c0-1.917968-1.554687-3.476562-3.472656-3.476562h-330.421875c-1.917969 0-3.472656-1.554688-3.472656-3.476563v-15.492187h-23.527344c-1.917969 0-3.476563 1.558594-3.476563 3.476562v39.65625c0 1.917969 1.558594 3.472656 3.476563 3.472656h330.421875c1.917969 0 3.472656 1.558594 3.472656 3.476563v330.417969c0 1.921875 1.558594 3.476562 3.476563 3.476562h39.65625c1.917969 0 3.472656-1.554687 3.472656-3.476562v-24.160156zm0 0" fill="#8cc9f9"/><path d="m343.984375 168.0625c.648437.632812 1.050781 1.511719 1.050781 2.484375v330.417969c0 1.921875 1.558594 3.476562 3.476563 3.476562h39.65625c1.917969 0 3.472656-1.554687 3.472656-3.476562v-377.023438c0-.941406-.375-1.792968-.988281-2.417968zm0 0" fill="#dfebfa"/><path d="m391.640625 500.964844v-24.160156h-16.128906c-1.917969 0-3.476563-1.554688-3.476563-3.476563v-330.417969c0-.792968-.273437-1.515625-.722656-2.101562l-27.328125 27.25v.003906c.320313.3125.578125.679688.757813 1.09375.003906.007812.007812.015625.011718.023438.078125.183593.140625.382812.183594.582031.007812.027343.019531.050781.023438.078125.046874.230468.074218.464844.074218.707031v330.417969c0 1.605468 1.09375 2.945312 2.574219 3.34375.289063.078125.585937.132812.902344.132812h39.652343c.242188 0 .476563-.023437.703126-.070312 1.582031-.324219 2.773437-1.726563 2.773437-3.40625zm0 0" fill="#b1dbfc"/><path d="m408.488281 111.003906c1.921875 0 3.839844-.730468 5.304688-2.195312l.179687-.175782c2.925782-2.929687 2.925782-7.679687 0-10.605468-2.933594-2.929688-7.679687-2.929688-10.609375 0l-.175781.175781c-2.929688 2.929687-2.929688 7.675781 0 10.605469 1.464844 1.464844 3.382812 2.195312 5.300781 2.195312zm0 0"/><path d="m430.730469 88.765625c1.917969 0 3.839843-.734375 5.304687-2.199219l.3125-.316406c2.929688-2.925781 2.929688-7.675781 0-10.605469-2.929687-2.929687-7.675781-2.929687-10.605468 0l-.316407.316407c-2.929687 2.929687-2.929687 7.675781 0 10.605468 1.464844 1.464844 3.386719 2.199219 5.304688 2.199219zm0 0"/><path d="m453.109375 66.382812c1.921875 0 3.847656-.734374 5.3125-2.203124l.3125-.316407c2.925781-2.933593 2.917969-7.683593-.015625-10.605469-2.933594-2.925781-7.683594-2.917968-10.605469.015626l-.316406.316406c-2.925781 2.933594-2.914063 7.683594.019531 10.605468 1.460938 1.460938 3.375 2.1875 5.292969 2.1875zm0 0"/><path d="m475.488281 44.003906c1.917969 0 3.835938-.730468 5.300781-2.199218l.179688-.175782c2.929688-2.929687 2.929688-7.675781 0-10.605468-2.929688-2.929688-7.679688-2.929688-10.609375 0l-.175781.175781c-2.929688 2.929687-2.929688 7.679687 0 10.605469 1.464844 1.46875 3.382812 2.199218 5.304687 2.199218zm0 0"/><path d="m193.898438 307.503906-.175782.175782c-2.929687 2.929687-2.929687 7.675781 0 10.605468 1.464844 1.464844 3.386719 2.195313 5.304688 2.195313 1.917968 0 3.839844-.730469 5.304687-2.195313l.175781-.175781c2.929688-2.929687 2.929688-7.679687 0-10.605469-2.929687-2.929687-7.675781-2.929687-10.609374 0zm0 0"/><path d="m216.695312 284.703125-.320312.320313c-2.929688 2.929687-2.929688 7.679687 0 10.609374 1.464844 1.460938 3.386719 2.195313 5.304688 2.195313 1.917968 0 3.839843-.730469 5.304687-2.195313l.320313-.324218c2.929687-2.925782 2.929687-7.675782 0-10.605469-2.929688-2.929687-7.679688-2.929687-10.609376 0zm0 0"/><path d="m239.492188 261.90625-.320313.320312c-2.929687 2.929688-2.929687 7.679688 0 10.609376 1.464844 1.460937 3.382813 2.195312 5.304687 2.195312 1.917969 0 3.839844-.730469 5.304688-2.195312l.320312-.324219c2.929688-2.925781 2.929688-7.675781 0-10.605469-2.929687-2.929688-7.679687-2.929688-10.609374 0zm0 0"/><path d="m285.085938 216.3125-.320313.320312c-2.929687 2.929688-2.929687 7.675782 0 10.605469 1.464844 1.464844 3.382813 2.195313 5.304687 2.195313 1.917969 0 3.835938-.730469 5.300782-2.195313l.324218-.320312c2.925782-2.929688 2.925782-7.679688 0-10.605469-2.933593-2.929688-7.679687-2.929688-10.609374 0zm0 0"/><path d="m262.285156 239.113281-.320312.320313c-2.925782 2.929687-2.921875 7.679687.007812 10.605468 1.464844 1.464844 3.382813 2.195313 5.300782 2.195313 1.921874 0 3.84375-.734375 5.308593-2.203125l.320313-.320312c2.925781-2.929688 2.921875-7.679688-.011719-10.605469-2.929687-2.925781-7.679687-2.921875-10.605469.007812zm0 0"/><path d="m307.738281 193.65625-.179687.179688c-2.929688 2.929687-2.929688 7.675781 0 10.605468 1.464844 1.464844 3.386718 2.195313 5.304687 2.195313s3.839844-.730469 5.304688-2.195313l.175781-.175781c2.929688-2.929687 2.929688-7.679687 0-10.609375-2.929688-2.925781-7.675781-2.925781-10.605469 0zm0 0"/><path d="m10.976562 174.570312h102.050782v213.429688c0 .371094.019531.734375.054687 1.097656.011719.109375.03125.210938.046875.320313.03125.253906.066406.503906.117188.753906.019531.109375.050781.214844.078125.324219.054687.242187.113281.484375.1875.722656.03125.097656.066406.195312.101562.292969.082031.238281.164063.480469.261719.714843.039062.089844.085938.175782.125.269532.105469.230468.210938.460937.332031.683594.050781.097656.109375.1875.164063.28125.117187.207031.242187.417968.375.621093.074218.105469.152344.207031.226562.3125.128906.179688.257813.355469.398438.527344.097656.121094.203125.234375.304687.347656.113281.128907.21875.257813.335938.378907.019531.023437.042969.039062.0625.058593.128906.132813.269531.253907.40625.378907.03125.027343.058593.054687.089843.082031 1.941407 1.738281 4.5 2.808593 7.304688 2.808593h213.371094v101.988282c0 6.050781 4.921875 10.976562 10.976562 10.976562h39.652344c6.050781 0 10.976562-4.925781 10.976562-10.976562v-101.988282h102.046876c6.054687 0 10.976562-4.925781 10.976562-10.976562v-39.65625c0-6.050781-4.921875-10.972656-10.976562-10.972656h-102.046876v-63.898438c0-4.144531-3.359374-7.5-7.5-7.5-4.144531 0-7.5 3.355469-7.5 7.5v223.46875h-31.605468v-326.394531c0-.136719-.003906-.277344-.007813-.414063l31.613281-31.523437v99.863281c0 4.140625 3.355469 7.5 7.5 7.5 4.140626 0 7.5-3.359375 7.5-7.5v-114.53125c0-.367187-.023437-.734375-.058593-1.09375-.011719-.113281-.03125-.222656-.046875-.332031-.03125-.25-.0625-.5-.113282-.742187-.023437-.117188-.058593-.230469-.085937-.34375-.054687-.234376-.109375-.472657-.179687-.699219-.035157-.109375-.078126-.214844-.113282-.320313-.078125-.230468-.15625-.460937-.25-.6875-.042968-.101562-.09375-.199218-.140625-.300781-.097656-.21875-.199219-.441406-.316406-.65625-.054687-.101563-.117187-.199219-.175781-.304687-.117188-.199219-.234375-.402344-.363282-.59375-.078124-.113282-.160156-.222657-.238281-.332032-.125-.171875-.25-.34375-.386719-.511718-.097656-.121094-.207031-.238282-.3125-.355469-.109374-.125-.210937-.253907-.328124-.375-.019532-.019531-.042969-.035157-.0625-.058594-.125-.125-.261719-.242187-.390626-.363281-.039062-.03125-.074218-.066406-.109374-.097656-1.941407-1.738282-4.496094-2.808594-7.304688-2.808594h-128.453125c-4.144531 0-7.5 3.359375-7.5 7.5 0 4.144531 3.355469 7.5 7.5 7.5h113.855469l-31.707032 31.621094c-.101562-.003907-.199218-.015626-.300781-.015626h-326.394531v-31.605468h209.542969c4.144531 0 7.5-3.355469 7.5-7.5 0-4.140625-3.355469-7.5-7.5-7.5h-49.914063v-101.988282c0-6.050781-4.921875-10.976562-10.972656-10.976562h-39.65625c-6.050781 0-10.976562 4.925781-10.976562 10.976562v101.988282h-102.046876c-6.050781 0-10.976562 4.925781-10.976562 10.976562v39.65625c0 6.050782 4.925781 10.972656 10.976562 10.972656zm388 177.800782h98.023438v31.605468h-98.023438zm-224.347656-177.800782h162.742188v162.800782h-162.742188zm-4.324218 177.785157c.101562.003906.199218.015625.300781.015625h166.765625v31.605468h-198.773438zm-42.28125-177.785157h31.605468v166.824219c0 .140625.003906.277344.007813.414063l-31.613281 31.527344zm0-159.570312h31.605468v97.964844h-31.605468zm0 0"/></svg>