<svg height="511pt" viewBox="-60 1 511 511.999" width="511pt" xmlns="http://www.w3.org/2000/svg"><path d="m40.640625 139.492188v318.816406c0 25.507812 20.683594 46.191406 46.195313 46.191406h219.042968c25.511719 0 46.191406-20.683594 46.191406-46.191406v-318.816406zm0 0" fill="#43cb8e"/><path d="m69.976562 458.308594v-318.816406h-29.335937v318.816406c0 25.507812 20.683594 46.191406 46.195313 46.191406h29.332031c-25.511719 0-46.191407-20.683594-46.191407-46.191406zm0 0" fill="#00ba66"/><path d="m351.742188 94.660156c-2.265626-16.238281-16.292969-28.84375-33.128907-28.84375h-244.511719c-16.835937 0-30.863281 12.605469-33.132812 28.84375zm0 0" fill="#43cb8e"/><g fill="#00ba66"><path d="m103.433594 65.816406h-29.332032c-16.835937 0-30.863281 12.605469-33.132812 28.84375h29.335938c2.265624-16.238281 16.292968-28.84375 33.128906-28.84375zm0 0"/><path d="m99.71875 177.027344h-9.382812c-6.878907 0-12.507813 5.628906-12.507813 12.507812v250.226563c0 6.882812 5.628906 12.511719 12.507813 12.511719h9.382812c6.882812 0 12.511719-5.628907 12.511719-12.511719v-250.226563c0-6.878906-5.628907-12.507812-12.511719-12.507812zm0 0"/><path d="m167.273438 177.027344h-9.382813c-6.882813 0-12.511719 5.628906-12.511719 12.507812v250.226563c0 6.882812 5.628906 12.511719 12.511719 12.511719h9.382813c6.878906 0 12.511718-5.628907 12.511718-12.511719v-250.226563c0-6.878906-5.632812-12.507812-12.511718-12.507812zm0 0"/><path d="m234.824219 177.027344h-9.382813c-6.882812 0-12.511718 5.628906-12.511718 12.507812v250.226563c0 6.882812 5.628906 12.511719 12.511718 12.511719h9.382813c6.882812 0 12.511719-5.628907 12.511719-12.511719v-250.226563c0-6.878906-5.628907-12.507812-12.511719-12.507812zm0 0"/><path d="m302.375 177.027344h-9.382812c-6.878907 0-12.507813 5.628906-12.507813 12.507812v250.226563c0 6.882812 5.628906 12.511719 12.507813 12.511719h9.382812c6.882812 0 12.511719-5.628907 12.511719-12.511719v-250.226563c0-6.878906-5.628907-12.507812-12.511719-12.507812zm0 0"/></g><path d="m103.160156 439.761719v-250.226563c0-3.855468 1.769532-7.316406 4.535156-9.617187-2.167968-1.804688-4.953124-2.890625-7.976562-2.890625h-9.382812c-6.882813 0-12.511719 5.628906-12.511719 12.507812v250.226563c0 6.882812 5.628906 12.511719 12.511719 12.511719h9.382812c3.023438 0 5.808594-1.089844 7.976562-2.890626-2.765624-2.300781-4.535156-5.761718-4.535156-9.621093zm0 0" fill="#01a755"/><path d="m170.710938 439.761719v-250.226563c0-3.855468 1.769531-7.316406 4.535156-9.617187-2.167969-1.804688-4.949219-2.890625-7.972656-2.890625h-9.386719c-6.878907 0-12.511719 5.628906-12.511719 12.507812v250.226563c0 6.882812 5.632812 12.511719 12.511719 12.511719h9.386719c3.023437 0 5.804687-1.089844 7.972656-2.890626-2.765625-2.300781-4.535156-5.761718-4.535156-9.621093zm0 0" fill="#01a755"/><path d="m238.261719 439.761719v-250.226563c0-3.855468 1.773437-7.316406 4.539062-9.617187-2.171875-1.804688-4.953125-2.890625-7.976562-2.890625h-9.382813c-6.882812 0-12.511718 5.628906-12.511718 12.507812v250.226563c0 6.882812 5.628906 12.511719 12.511718 12.511719h9.382813c3.023437 0 5.804687-1.089844 7.976562-2.890626-2.765625-2.300781-4.539062-5.761718-4.539062-9.621093zm0 0" fill="#01a755"/><path d="m305.816406 439.761719v-250.226563c0-3.855468 1.769532-7.316406 4.535156-9.617187-2.167968-1.804688-4.949218-2.890625-7.976562-2.890625h-9.382812c-6.878907 0-12.507813 5.628906-12.507813 12.507812v250.226563c0 6.882812 5.628906 12.511719 12.507813 12.511719h9.382812c3.027344 0 5.808594-1.089844 7.976562-2.890626-2.765624-2.300781-4.535156-5.761718-4.535156-9.621093zm0 0" fill="#01a755"/><path d="m372.035156 93.429688h-351.359375c-6.878906 0-12.507812 5.910156-12.507812 13.132812v20.796875c0 7.222656 5.628906 13.132813 12.507812 13.132813h351.359375c6.882813 0 12.511719-5.910157 12.511719-13.132813v-20.796875c0-7.222656-5.628906-13.132812-12.511719-13.132812zm0 0" fill="#00ba66"/><path d="m372.035156 112.410156h-351.359375c-5.675781 0-10.492187-4.027344-12.007812-9.492187-.320313 1.160156-.5 2.378906-.5 3.644531v20.796875c0 7.222656 5.628906 13.132813 12.507812 13.132813h351.359375c6.882813 0 12.511719-5.910157 12.511719-13.132813v-20.796875c0-1.265625-.183594-2.484375-.503906-3.644531-1.515625 5.464843-6.332031 9.492187-12.007813 9.492187zm0 0" fill="#01a755"/><path d="m391.878906 126.980469v-19.808594c0-11.035156-8.976562-20.011719-20.007812-20.011719h-14.324219c-5.246094-16.824218-21.03125-28.84375-39.101563-28.84375h-36.5625v-19.03125c.003907-21.660156-17.621093-39.285156-39.28125-39.285156h-92.820312c-21.660156 0-39.285156 17.625-39.285156 39.285156v19.03125h-36.5625c-18.070313 0-33.855469 12.019532-39.101563 28.84375h-14.320312c-11.035157 0-20.011719 8.976563-20.011719 20.011719v19.808594c0 11.035156 8.976562 20.011719 20.011719 20.011719h12.464843v311.316406c0 29.605468 24.085938 53.691406 53.691407 53.691406h219.042969c29.609374 0 53.695312-24.085938 53.695312-53.691406v-311.316406h12.464844c11.035156 0 20.007812-8.976563 20.007812-20.011719zm-317.945312-53.664063h104.757812c4.140625 0 7.5-3.359375 7.5-7.5 0-4.144531-3.359375-7.5-7.5-7.5h-53.195312v-19.03125c0-13.390625 10.894531-24.285156 24.285156-24.285156h92.820312c13.390626 0 24.285157 10.894531 24.285157 24.285156v19.03125h-53.195313c-4.144531 0-7.5 3.355469-7.5 7.5 0 4.140625 3.355469 7.5 7.5 7.5h104.753906c9.789063 0 18.527344 5.566406 22.933594 13.84375h-290.375c4.40625-8.277344 13.140625-13.84375 22.929688-13.84375zm270.472656 384.992188c0 21.335937-17.359375 38.691406-38.691406 38.691406h-219.046875c-21.335938 0-38.691407-17.355469-38.691407-38.691406v-311.316406h296.429688zm32.472656-331.328125c0 2.714843-2.292968 5.011719-5.007812 5.011719-3.222656 0-348.140625 0-351.359375 0-2.71875 0-5.011719-2.296876-5.011719-5.011719v-19.808594c0-2.71875 2.292969-5.011719 5.011719-5.011719h351.359375c2.714844 0 5.007812 2.292969 5.007812 5.011719zm0 0"/><path d="m90.171875 459.773438h9.382813c11.03125 0 20.011718-8.976563 20.011718-20.011719v-250.222657c0-11.035156-8.980468-20.011718-20.011718-20.011718h-9.382813c-11.035156 0-20.011719 8.976562-20.011719 20.011718v250.226563c0 11.03125 8.976563 20.007813 20.011719 20.007813zm-5.011719-270.234376c0-2.71875 2.292969-5.011718 5.011719-5.011718h9.382813c2.71875 0 5.011718 2.292968 5.011718 5.011718v250.226563c0 2.714844-2.292968 5.007813-5.011718 5.007813h-9.382813c-2.71875 0-5.011719-2.292969-5.011719-5.007813zm0 0"/><path d="m157.722656 459.773438h9.382813c11.035156 0 20.011719-8.976563 20.011719-20.011719v-250.222657c0-11.035156-8.976563-20.011718-20.011719-20.011718h-9.382813c-11.035156 0-20.011718 8.976562-20.011718 20.011718v250.226563c0 11.03125 8.976562 20.007813 20.011718 20.007813zm-5.011718-270.234376c0-2.71875 2.296874-5.011718 5.011718-5.011718h9.382813c2.71875 0 5.011719 2.292968 5.011719 5.011718v250.226563c0 2.714844-2.292969 5.007813-5.011719 5.007813h-9.382813c-2.714844 0-5.011718-2.292969-5.011718-5.007813zm0 0"/><path d="m225.277344 459.773438h9.382812c11.03125 0 20.011719-8.976563 20.011719-20.011719v-250.222657c0-11.035156-8.980469-20.011718-20.011719-20.011718h-9.382812c-11.035156 0-20.015625 8.976562-20.015625 20.011718v250.226563c0 11.03125 8.980469 20.007813 20.015625 20.007813zm-5.015625-270.234376c0-2.71875 2.296875-5.011718 5.015625-5.011718h9.382812c2.714844 0 5.011719 2.292968 5.011719 5.011718v250.226563c0 2.714844-2.296875 5.007813-5.011719 5.007813h-9.382812c-2.71875 0-5.015625-2.292969-5.015625-5.007813zm0 0"/><path d="m292.828125 459.773438h9.382813c11.035156 0 20.011718-8.976563 20.011718-20.011719v-114.542969c0-4.144531-3.355468-7.5-7.5-7.5-4.144531 0-7.5 3.355469-7.5 7.5v114.542969c0 2.71875-2.296875 5.011719-5.011718 5.011719h-9.382813c-2.71875 0-5.011719-2.292969-5.011719-5.011719v-250.222657c0-2.71875 2.292969-5.011718 5.011719-5.011718h9.382813c2.714843 0 5.011718 2.292968 5.011718 5.011718v100.679688c0 4.140625 3.355469 7.5 7.5 7.5 4.144532 0 7.5-3.359375 7.5-7.5v-100.679688c0-11.035156-8.976562-20.011718-20.011718-20.011718h-9.382813c-11.035156 0-20.011719 8.976562-20.011719 20.011718v250.226563c0 11.03125 8.976563 20.007813 20.011719 20.007813zm0 0"/></svg>