<svg height="512pt" viewBox="0 -26 512.001 512" width="512pt" xmlns="http://www.w3.org/2000/svg"><path d="m322.886719 353.921875-164.628907-164.628906c-2.054687-2.050781-3.566406-4.4375-4.558593-6.980469l-138.386719 138.390625c-8.84375 8.839844-8.84375 23.308594 0 32.152344l98.671875 98.671875h124.191406l92.695313-92.695313c-2.917969-.96875-5.664063-2.589843-7.984375-4.910156zm0 0" fill="#dfebfa"/><path d="m45.308594 320.703125 122.179687-122.179687-9.230469-9.230469c-2.050781-2.054688-3.5625-4.4375-4.554687-6.980469l-138.390625 138.390625c-8.84375 8.839844-8.84375 23.308594 0 32.152344l98.671875 98.671875h29.996094l-98.671875-98.671875c-8.839844-8.84375-8.839844-23.3125 0-32.152344zm0 0" fill="#b1dbfc"/><path d="m497.414062 173.003906-158.234374-158.238281c-9.671876-9.667969-25.492188-9.667969-35.164063 0l-146.757813 146.757813c-7.945312 7.945312-7.945312 20.828124 0 28.769531l164.628907 164.628906c7.945312 7.945313 20.824219 7.945313 28.769531 0l146.757812-146.757813c9.671876-9.667968 9.671876-25.492187 0-35.160156zm0 0" fill="#ff656f"/><path d="m187.257812 190.292969c-7.945312-7.941407-7.945312-20.824219 0-28.769531l146.757813-146.757813c.816406-.8125 1.6875-1.535156 2.582031-2.210937-9.726562-7.363282-23.726562-6.640626-32.582031 2.210937l-146.757813 146.757813c-7.945312 7.945312-7.945312 20.828124 0 28.769531l164.628907 164.628906c7.945312 7.945313 20.824219 7.945313 28.769531 0l.613281-.613281zm0 0" fill="#ff4756"/><path d="m210.722656 190.289062c-2.925781 2.929688-2.925781 7.675782 0 10.605469l100.394532 100.394531c1.464843 1.464844 3.386718 2.195313 5.304687 2.195313s3.839844-.730469 5.304687-2.195313c2.929688-2.929687 2.929688-7.675781 0-10.605468l-100.394531-100.394532c-2.929687-2.929687-7.679687-2.929687-10.609375 0zm0 0"/><path d="m94.707031 445.027344h-40.316406c-4.144531 0-7.5 3.355468-7.5 7.5 0 4.140625 3.355469 7.5 7.5 7.5h248.578125c4.144531 0 7.5-3.359375 7.5-7.5 0-4.144532-3.355469-7.5-7.5-7.5h-47.851562l76.9375-76.9375c8.46875 1.226562 17.265624-1.394532 23.742187-7.863282l56.082031-56.085937c2.929688-2.929687 2.929688-7.675781 0-10.605469-2.929687-2.925781-7.679687-2.925781-10.609375 0l-56.082031 56.082032c-4.984375 4.988281-13.0625 5.035156-18.101562.058593-.019532-.019531-.042969-.039062-.0625-.058593l-164.625-164.625c-4.9375-4.933594-5.066407-13.101563 0-18.164063l146.753906-146.757813c6.773437-6.773437 17.789062-6.769531 24.554687 0l67.09375 67.089844c2.929688 2.929688 7.675781 2.929688 10.605469 0 2.929688-2.929687 2.929688-7.675781 0-10.605468l-67.089844-67.09375c-12.621094-12.613282-33.152344-12.613282-45.769531 0l-146.757813 146.757812c-6.753906 6.753906-9.304687 16.140625-7.65625 24.886719l-135.292968 135.292969c-11.785156 11.789062-11.785156 30.972656 0 42.757812zm-75.257812-118.023438 131.878906-131.878906c.152344.160156.304687.316406.460937.472656l164.625 164.625s0 0 .003907.003906c.035156.035157.070312.066407.105469.101563.328124.324219.660156.636719 1 .941406.023437.023438.046874.046875.070312.066407l-83.691406 83.691406h-117.980469l-96.472656-96.476563c-5.941407-5.9375-5.941407-15.605469 0-21.546875zm0 0"/><path d="m426.019531 268.785156c-2.929687 2.933594-2.929687 7.679688 0 10.609375 1.464844 1.464844 3.382813 2.195313 5.300781 2.195313 1.921876 0 3.839844-.730469 5.304688-2.195313l65.925781-65.929687c6.09375-6.089844 9.449219-14.21875 9.449219-22.882813 0-8.664062-3.355469-16.789062-9.445312-22.882812l-66.398438-66.398438c-2.929688-2.929687-7.675781-2.929687-10.605469 0-2.929687 2.929688-2.929687 7.679688 0 10.605469l66.394531 66.398438c3.261719 3.257812 5.058594 7.621093 5.058594 12.277343s-1.796875 9.015625-5.058594 12.277344zm0 0"/></svg>