<svg height="512pt" viewBox="0 0 512.004 512" width="512pt" xmlns="http://www.w3.org/2000/svg"><path d="m50.113281 462.121094c-.648437-.632813-1.054687-1.511719-1.054687-2.488282v-60.996093c0-6.367188 7.695312-9.550781 12.195312-5.050781l57.332032 57.328124c4.5 4.5 1.3125 12.195313-5.050782 12.195313h-61c-.917968 0-1.777344-.363281-2.421875-.988281zm0 0" fill="#8cc9f9"/><path d="m462.285156 49.890625c-.632812-.648437-1.511718-1.054687-2.488281-1.054687h-61c-6.363281 0-9.550781 7.695312-5.050781 12.195312l57.332031 57.332031c4.5 4.5 12.195313 1.3125 12.195313-5.050781v-61c0-.917969-.363282-1.777344-.988282-2.421875zm0 0" fill="#8cc9f9"/><path d="m80.113281 462.121094c-.648437-.632813-1.054687-1.511719-1.054687-2.488282v-48.242187l-17.804688-17.808594c-4.5-4.5-12.195312-1.3125-12.195312 5.050781v61c0 .976563.40625 1.855469 1.054687 2.488282.644531.625 1.503907.988281 2.421875.988281h30c-.917968 0-1.777344-.363281-2.421875-.988281zm0 0" fill="#60b8fe"/><path d="m423.746094 61.03125c-4.5-4.5-1.3125-12.195312 5.050781-12.195312h-30c-6.363281 0-9.550781 7.695312-5.050781 12.195312l57.332031 57.332031c4.5 4.5 12.195313 1.3125 12.195313-5.050781v-12.757812zm0 0" fill="#60b8fe"/><path d="m500.242188 344.871094h-330.417969c-1.917969 0-3.472657-1.554688-3.472657-3.476563v-330.414062c0-1.921875-1.558593-3.476563-3.476562-3.476563h-39.65625c-1.917969 0-3.472656 1.554688-3.472656 3.476563v377.023437c0 1.917969 1.554687 3.472656 3.472656 3.472656h377.023438c1.917968 0 3.476562-1.554687 3.476562-3.472656v-39.65625c0-1.917968-1.554688-3.476562-3.476562-3.476562zm0 0" fill="#dfebfa"/><path d="m148.050781 366.5c-1.921875 0-3.476562-1.554688-3.476562-3.476562v-355.519532h-21.351563c-1.917968 0-3.476562 1.554688-3.476562 3.476563v377.023437c0 1.917969 1.558594 3.472656 3.476562 3.472656h377.023438c1.917968 0 3.476562-1.554687 3.476562-3.472656v-21.503906zm0 0" fill="#b1dbfc"/><path d="m167.402344 343.882812c-.648438-.632812-1.050782-1.511718-1.050782-2.488281v-330.414062c0-1.921875-1.554687-3.476563-3.476562-3.476563h-39.652344c-1.921875 0-3.476562 1.554688-3.476562 3.476563v377.023437c0 .941406.378906 1.792969.988281 2.417969zm0 0" fill="#b1dbfc"/><path d="m119.816406 388.691406c.039063.1875.097656.363282.164063.539063.011719.03125.019531.070312.03125.101562.171875.40625.417969.777344.722656 1.089844l24.941406-24.871094c-.675781-.636719-1.101562-1.527343-1.101562-2.527343v-355.519532h-21.351563c-.960937 0-1.828125.386719-2.457031 1.015625-.160156.160157-.300781.332031-.425781.515625-.21875.324219-.375.695313-.476563 1.085938-.066406.277344-.117187.558594-.117187.855468v377.023438.011719c0 .234375.023437.460937.070312.679687zm0 0" fill="#8cc9f9"/><path d="m10.195312 167.074219h330.417969c1.921875 0 3.476563 1.554687 3.476563 3.476562v330.417969c0 1.917969 1.558594 3.476562 3.476562 3.476562h39.65625c1.917969 0 3.472656-1.558593 3.472656-3.476562v-377.023438c0-1.921874-1.554687-3.476562-3.472656-3.476562h-377.027344c-1.917968 0-3.472656 1.554688-3.472656 3.476562v39.652344c0 1.921875 1.554688 3.476563 3.472656 3.476563zm0 0" fill="#b1dbfc"/><path d="m374.566406 476.804688c-1.917968 0-3.476562-1.554688-3.476562-3.476563v-330.417969c0-1.917968-1.554688-3.476562-3.476563-3.476562h-330.417969c-1.917968 0-3.472656-1.554688-3.472656-3.472656v-15.492188h-23.527344c-1.917968 0-3.472656 1.554688-3.472656 3.476562v39.652344c0 1.917969 1.554688 3.476563 3.472656 3.476563h330.417969c1.921875 0 3.476563 1.554687 3.476563 3.476562v330.417969c0 1.917969 1.558594 3.472656 3.476562 3.472656h39.65625c1.917969 0 3.472656-1.554687 3.472656-3.472656v-24.164062zm0 0" fill="#8cc9f9"/><path d="m66.390625 388.28125c-4.203125-4.203125-10.464844-5.449219-15.957031-3.175781-5.492188 2.277343-9.039063 7.585937-9.039063 13.53125v60.996093c0 2.984376 1.179688 5.777344 3.324219 7.863282 2.0625 2.007812 4.777344 3.113281 7.648438 3.113281h61c5.941406 0 11.253906-3.546875 13.527343-9.039063 2.277344-5.492187 1.03125-11.753906-3.171875-15.957031zm-9.996094 67.328125v-56.113281l56.113281 56.113281zm0 0"/><path d="m445.609375 123.664062c2.804687 2.808594 6.535156 4.296876 10.335937 4.296876 1.890626 0 3.796876-.367188 5.621094-1.121094 5.492188-2.277344 9.039063-7.585938 9.039063-13.527344v-61c0-2.867188-1.105469-5.585938-3.109375-7.648438-2.054688-2.113281-4.921875-3.324218-7.863282-3.324218h-61c-5.945312 0-11.253906 3.546875-13.527343 9.039062-2.277344 5.492188-1.03125 11.753906 3.171875 15.957032zm9.996094-67.328124v56.113281l-56.113281-56.113281zm0 0"/><path d="m10.976562 174.574219h102.050782v213.429687c0 .367188.019531.734375.054687 1.09375.011719.109375.03125.214844.046875.320313.03125.253906.066406.507812.113282.757812.023437.109375.058593.214844.082031.324219.054687.242188.113281.484375.1875.71875.027343.101562.066406.195312.101562.296875.082031.238281.164063.476563.261719.710937.039062.09375.085938.179688.125.269532.105469.234375.210938.464844.332031.6875.050781.09375.105469.183594.160157.277344.121093.210937.246093.417968.378906.625.074218.105468.152344.203124.226562.308593.128906.179688.257813.359375.398438.53125.097656.117188.203125.230469.304687.34375.113281.128907.21875.257813.339844.382813.019531.019531.039063.035156.058594.058594.128906.128906.269531.25.40625.375.03125.027343.0625.058593.09375.085937 1.941406 1.738281 4.496093 2.804687 7.304687 2.804687h213.367188v101.992188c0 6.050781 4.925781 10.972656 10.976562 10.972656h39.65625c6.050782 0 10.972656-4.921875 10.972656-10.972656v-101.992188h102.050782c6.050781 0 10.976562-4.921874 10.976562-10.976562v-39.652344c0-6.050781-4.925781-10.976562-10.976562-10.976562h-102.050782v-63.898438c0-4.140625-3.359374-7.5-7.5-7.5-4.144531 0-7.5 3.359375-7.5 7.5v223.46875h-31.605468v-326.390625c0-.140625-.003906-.277343-.007813-.417969l31.609375-31.523437v99.863281c0 4.140625 3.359375 7.5 7.5 7.5 4.144532 0 7.5-3.359375 7.5-7.5v-114.527344c0-.371093-.019531-.734374-.054687-1.097656-.011719-.113281-.035157-.222656-.050781-.335937-.03125-.246094-.0625-.496094-.109376-.738281-.027343-.117188-.0625-.230469-.085937-.347657-.058594-.234375-.109375-.46875-.179687-.695312-.035157-.113281-.078126-.21875-.117188-.328125-.078125-.226563-.15625-.453125-.246094-.675782-.046875-.105468-.097656-.207031-.144531-.308593-.101563-.21875-.199219-.4375-.3125-.648438-.058594-.109375-.125-.210937-.1875-.316406-.113281-.195313-.226563-.394531-.355469-.585937-.078125-.117188-.164062-.226563-.25-.34375-.121094-.167969-.238281-.335938-.371094-.496094-.105468-.128906-.21875-.25-.328124-.371094-.105469-.121094-.207032-.242188-.316407-.359375-.019531-.019531-.042969-.035156-.0625-.058594-.132812-.132812-.273437-.253906-.410156-.382812-.03125-.023438-.058594-.050781-.085937-.078125-1.945313-1.742188-4.5-2.808594-7.308594-2.808594h-109.785156c-4.140626 0-7.5 3.355469-7.5 7.5 0 4.140625 3.359374 7.5 7.5 7.5h95.191406l-31.707032 31.621094c-.101562-.003906-.199218-.015625-.300781-.015625h-326.394531v-31.605469h228.210938c4.144531 0 7.5-3.359375 7.5-7.5s-3.355469-7.5-7.5-7.5h-68.582032v-101.992188c0-6.050781-4.921875-10.97265575-10.976562-10.97265575h-39.652344c-6.050781 0-10.976562 4.92187475-10.976562 10.97265575v101.992188h-102.046876c-6.050781 0-10.976562 4.921875-10.976562 10.976562v39.652344c0 6.050782 4.925781 10.976563 10.976562 10.976563zm388 177.796875h98.023438v31.605468h-98.023438zm-224.347656-177.796875h162.742188v162.796875h-162.742188zm-4.324218 177.78125c.101562.003906.199218.015625.300781.015625h166.765625v31.605468h-198.773438zm-42.28125-177.78125h31.605468v166.824219c0 .136718.003906.273437.007813.414062l-31.613281 31.523438zm0-159.570313h31.605468v97.964844h-31.605468zm0 0"/></svg>