<svg height="512pt" viewBox="-47 0 512 512.001" width="512pt" xmlns="http://www.w3.org/2000/svg"><path d="m305.234375 69.847656h-105.222656c4.9375 11.910156 7.667969 24.964844 7.667969 38.660156 0 55.785157-43.222657 99.007813-99.007813 99.007813v283.625c0 7.378906 5.984375 13.359375 13.363281 13.359375h274.632813c7.378906 0 13.363281-5.980469 13.363281-13.359375v-316.496094zm0 0" fill="#dfebfa"/><path d="m230.011719 69.847656h-30c4.9375 11.910156 7.671875 24.964844 7.671875 38.660156 0 55.785157-43.222656 99.007813-99.007813 99.007813v283.625c0 7.378906 5.980469 13.359375 13.359375 13.359375h30.003906c-7.382812 0-13.363281-5.980469-13.363281-13.359375v-264.503906c0-10.246094 7.460938-18.875 17.566407-20.589844 47.035156-7.996094 81.441406-47.769531 81.441406-97.539063 0-13.695312-2.730469-26.75-7.671875-38.660156zm0 0" fill="#b1dbfc"/><path d="m318.59375 174.644531h91.4375l-104.796875-104.796875v91.433594c0 7.378906 5.980469 13.363281 13.359375 13.363281zm0 0" fill="#b1dbfc"/><path d="m335.234375 161.28125v-61.433594l-30-30v91.433594c0 7.378906 5.980469 13.363281 13.359375 13.363281h30c-7.378906 0-13.359375-5.984375-13.359375-13.363281zm0 0" fill="#8cc9f9"/><path d="m209.683594 108.507812c0 55.785157-45.222656 101.007813-101.007813 101.007813-55.785156 0-101.007812-45.222656-101.007812-101.007813 0-55.785156 45.222656-101.007812 101.007812-101.007812 55.785157 0 101.007813 45.222656 101.007813 101.007812zm0 0" fill="#ff4756"/><path d="m37.667969 108.507812c0-50.6875 37.335937-92.652343 86.007812-99.898437-4.894531-.726563-9.902343-1.109375-15-1.109375-55.785156 0-101.007812 45.222656-101.007812 101.007812 0 61.542969 54.679687 109.027344 116.007812 99.898438-48.671875-7.25-86.007812-49.210938-86.007812-99.898438zm0 0" fill="#fc2d39"/><path d="m166.976562 96.367188h-42.433593c-2.058594 0-3.726563-1.671876-3.726563-3.730469v-42.429688c0-2.1875-1.773437-3.957031-3.957031-3.957031h-16.367187c-2.183594 0-3.957032 1.769531-3.957032 3.957031v42.429688c0 2.0625-1.667968 3.730469-3.730468 3.730469h-42.433594c-2.183594 0-3.953125 1.769531-3.953125 3.957031v16.367187c0 2.183594 1.769531 3.953125 3.953125 3.953125h42.433594c2.058593 0 3.730468 1.671875 3.730468 3.730469v42.433594c0 2.183594 1.769532 3.957031 3.953125 3.957031h16.367188c2.1875 0 3.957031-1.773437 3.957031-3.957031v-42.433594c0-2.058594 1.671875-3.730469 3.730469-3.730469h42.429687c2.1875 0 3.957032-1.769531 3.957032-3.953125v-16.367187c.003906-2.1875-1.769532-3.957031-3.953126-3.957031zm0 0" fill="#dfebfa"/><g fill="#b1dbfc"><path d="m123.675781 96.253906c-1.640625-.390625-2.859375-1.855468-2.859375-3.617187v-42.429688c0-2.1875-1.773437-3.957031-3.957031-3.957031h-16.367187c-2.183594 0-3.957032 1.769531-3.957032 3.957031v42.429688c0 2.0625-1.667968 3.730469-3.730468 3.730469h30.003906c.296875 0 .585937-.046876.867187-.113282zm0 0"/><path d="m122.804688 120.648438h-30c2.0625 0 3.730468 1.667968 3.730468 3.726562v42.433594c0 2.183594 1.769532 3.957031 3.957032 3.957031h16.367187c2.183594 0 3.953125-1.773437 3.953125-3.957031v-42.433594c0-1.757812 1.222656-3.222656 2.863281-3.617188-.28125-.066406-.570312-.109374-.871093-.109374zm0 0"/><path d="m76.417969 116.691406v-16.367187c0-2.1875 1.769531-3.957031 3.953125-3.957031h-30c-2.183594 0-3.953125 1.769531-3.953125 3.957031v16.367187c0 2.183594 1.769531 3.953125 3.953125 3.953125h30c-2.183594.003907-3.953125-1.769531-3.953125-3.953125zm0 0"/></g><path d="m417.363281 174.644531c0-2.015625-.84375-3.945312-2.1875-5.292969-.003906-.003906-.003906-.007812-.007812-.011718l-104.796875-104.796875c-1.34375-1.34375-3.285156-2.195313-5.304688-2.195313h-98.375c-17.375-36.8125-54.851562-62.347656-98.183594-62.347656-59.832031 0-108.507812 48.675781-108.507812 108.507812 0 57.308594 44.660156 104.375 101.007812 108.242188v274.386719c0 11.503906 9.359376 20.863281 20.863282 20.863281h113.269531c4.144531 0 7.5-3.359375 7.5-7.5s-3.355469-7.5-7.5-7.5h-113.269531c-3.230469 0-5.863282-2.628906-5.863282-5.863281v-274.378907c56.777344-3.894531 101.007813-51.339843 101.007813-108.25 0-.066406 0-.125 0-.1875-.019531-10.480468-1.617187-21.222656-4.542969-30.972656h85.09375v83.933594c0 11.503906 9.359375 20.863281 20.863282 20.863281h83.933593v122.351563c0 4.144531 3.359375 7.5 7.5 7.5 4.144531 0 7.5-3.355469 7.5-7.5zm-308.855469 27.371094c-51.5625 0-93.507812-41.949219-93.507812-93.507813 0-51.558593 41.949219-93.507812 93.507812-93.507812 51.628907 0 93.453126 41.996094 93.507813 93.421875v.085937c0 51.558594-41.945313 93.507813-93.507813 93.507813zm209.921876-34.871094c-3.234376 0-5.863282-2.628906-5.863282-5.863281v-73.328125l79.191406 79.191406zm0 0"/><path d="m166.808594 88.867188h-38.660156v-38.660157c0-6.320312-5.140626-11.457031-11.457032-11.457031h-16.367187c-6.316407 0-11.457031 5.136719-11.457031 11.457031v38.660157h-38.660157c-6.316406 0-11.457031 5.140624-11.457031 11.457031v16.367187c0 6.316406 5.140625 11.457032 11.457031 11.457032h38.660157v38.660156c0 6.320312 5.140624 11.457031 11.457031 11.457031h16.367187c6.316406 0 11.457032-5.136719 11.457032-11.457031v-38.660156h38.660156c6.316406 0 11.457031-5.140626 11.457031-11.457032v-16.367187c0-6.316407-5.140625-11.457031-11.457031-11.457031zm-3.542969 24.28125h-42.617187c-4.144532 0-7.5 3.355468-7.5 7.5v42.617187h-9.28125v-42.617187c0-4.144532-3.355469-7.5-7.5-7.5h-42.617188v-9.28125h42.617188c4.144531 0 7.5-3.355469 7.5-7.5v-42.617188h9.28125v42.617188c0 4.144531 3.355468 7.5 7.5 7.5h42.617187zm0 0"/><path d="m409.863281 331.996094c-4.144531 0-7.5 3.359375-7.5 7.5v151.644531c0 3.230469-2.628906 5.859375-5.859375 5.859375h-126.359375c-4.144531 0-7.5 3.359375-7.5 7.5 0 4.144531 3.355469 7.5 7.5 7.5h126.355469c11.503906 0 20.863281-9.355469 20.863281-20.859375v-151.644531c0-4.140625-3.359375-7.5-7.5-7.5zm0 0"/></svg>