<svg height="512pt" viewBox="0 -69 512 512" width="512pt" xmlns="http://www.w3.org/2000/svg"><path d="m495.730469 67.929688h-180.121094c-4.933594 0-8.933594 4-8.933594 8.933593v219.3125c0 4.933594 4 8.933594 8.933594 8.933594h180.121094c4.933593 0 8.933593-4 8.933593-8.933594v-219.3125c0-4.933593-4-8.933593-8.933593-8.933593zm0 0" fill="#23a8fe"/><path d="m336.675781 296.175781v-219.3125c0-4.933593 4-8.933593 8.933594-8.933593h-30c-4.933594 0-8.933594 4-8.933594 8.933593v219.3125c0 4.933594 4 8.933594 8.933594 8.933594h30c-4.933594 0-8.933594-4-8.933594-8.933594zm0 0" fill="#0193fa"/><path d="m504.664062 296.175781v-42.519531l-32.273437-46.59375c-2.300781-3.359375-7.257813-3.359375-9.558594 0l-34.175781 46.996094 34.953125 51.050781h32.125c4.929687 0 8.929687-4 8.929687-8.933594zm0 0" fill="#43cb8e"/><path d="m461.414062 259.921875c-2.40625-3.515625-2.34375-8.164063.164063-11.609375l20.171875-27.738281-9.359375-13.507813c-2.300781-3.363281-7.257813-3.363281-9.558594 0l-34.175781 46.992188 34.953125 51.050781h28.742187zm0 0" fill="#00ba66"/><path d="m450.738281 161.105469c0 12.089843-9.796875 21.890625-21.886719 21.890625-12.089843 0-21.890624-9.800782-21.890624-21.890625 0-12.085938 9.800781-21.886719 21.890624-21.886719 12.089844 0 21.886719 9.800781 21.886719 21.886719zm0 0" fill="#fee55a"/><path d="m16.601562 67.929688h180.121094c4.933594 0 8.933594 4 8.933594 8.933593v219.3125c0 4.933594-4 8.933594-8.933594 8.933594h-180.121094c-4.9375 0-8.933593-4-8.933593-8.933594v-219.3125c-.003907-4.933593 3.996093-8.933593 8.933593-8.933593zm0 0" fill="#23a8fe"/><path d="m37.664062 296.175781v-219.3125c0-4.933593 4-8.933593 8.933594-8.933593h-30c-4.933594 0-8.933594 4-8.933594 8.933593v219.3125c0 4.933594 4 8.933594 8.933594 8.933594h30c-4.933594 0-8.933594-4-8.933594-8.933594zm0 0" fill="#0193fa"/><path d="m7.664062 296.175781v-42.519531l32.277344-46.59375c2.300782-3.359375 7.257813-3.359375 9.558594 0l34.175781 46.996094-34.953125 51.050781h-32.121094c-4.9375 0-8.9375-4-8.9375-8.933594zm0 0" fill="#43cb8e"/><path d="m36.410156 296.175781v-35.53125c0-4.550781 1.386719-8.992187 3.976563-12.734375l18.9375-27.339844-9.824219-13.507812c-2.300781-3.359375-7.257812-3.359375-9.5625 0l-32.273438 46.59375v42.519531c0 4.933594 4 8.933594 8.933594 8.933594h28.746094c-4.933594 0-8.933594-4-8.933594-8.933594zm0 0" fill="#00ba66"/><path d="m105.371094 161.105469c0 12.089843-9.800782 21.890625-21.890625 21.890625-12.089844 0-21.886719-9.800782-21.886719-21.890625 0-12.085938 9.796875-21.886719 21.886719-21.886719 12.089843 0 21.890625 9.800781 21.890625 21.886719zm0 0" fill="#fee55a"/><path d="m436.960938 161.105469c0-6.28125 2.652343-11.941407 6.890624-15.929688-3.917968-3.691406-9.195312-5.957031-15-5.957031-12.089843 0-21.890624 9.800781-21.890624 21.886719 0 12.089843 9.800781 21.890625 21.890624 21.890625 5.804688 0 11.082032-2.265625 15-5.957032-4.238281-3.992187-6.890624-9.648437-6.890624-15.933593zm0 0" fill="#ffd301"/><path d="m91.59375 161.105469c0-6.28125 2.648438-11.941407 6.886719-15.929688-3.917969-3.691406-9.191407-5.957031-15-5.957031-12.089844 0-21.886719 9.800781-21.886719 21.886719 0 12.089843 9.796875 21.890625 21.886719 21.890625 5.808593 0 11.082031-2.265625 15-5.957032-4.238281-3.992187-6.886719-9.648437-6.886719-15.933593zm0 0" fill="#ffd301"/><path d="m152.878906 164.023438 52.777344 77.160156v54.992187c0 4.933594-4 8.933594-8.933594 8.933594h-150l96.597656-141.085937c2.300782-3.359376 7.257813-3.359376 9.558594 0zm0 0" fill="#43cb8e"/><path d="m152.878906 164.023438c-2.300781-3.359376-7.257812-3.359376-9.5625 0l-96.59375 141.085937h28.742188l87-127.070313zm0 0" fill="#00ba66"/><path d="m359.453125 164.023438-52.777344 77.160156v54.992187c0 4.933594 4 8.933594 8.933594 8.933594h150l-96.597656-141.085937c-2.300781-3.359376-7.257813-3.359376-9.558594 0zm0 0" fill="#43cb8e"/><path d="m335.417969 296.175781v-49.054687c0-3.867188 1.167969-7.644532 3.351562-10.835938l39.839844-58.246094-9.59375-14.015624c-2.300781-3.359376-7.261719-3.359376-9.5625 0l-52.777344 77.160156v54.992187c0 4.933594 4 8.933594 8.933594 8.933594h28.742187c-4.933593 0-8.933593-4-8.933593-8.933594zm0 0" fill="#00ba66"/><path d="m248.5 365.539062c0 4.140626 3.355469 7.5 7.5 7.5s7.5-3.359374 7.5-7.5v-28.054687c0-4.140625-3.355469-7.5-7.5-7.5s-7.5 3.359375-7.5 7.5zm0 0"/><path d="m248.5 299.539062c0 4.144532 3.355469 7.5 7.5 7.5s7.5-3.355468 7.5-7.5v-28.050781c0-4.140625-3.355469-7.5-7.5-7.5s-7.5 3.359375-7.5 7.5zm0 0"/><path d="m248.5 233.542969c0 4.144531 3.355469 7.5 7.5 7.5s7.5-3.355469 7.5-7.5v-28.050781c0-4.144532-3.355469-7.5-7.5-7.5s-7.5 3.355468-7.5 7.5zm0 0"/><path d="m248.5 167.546875c0 4.140625 3.355469 7.5 7.5 7.5s7.5-3.359375 7.5-7.5v-28.054687c0-4.140626-3.355469-7.5-7.5-7.5s-7.5 3.359374-7.5 7.5zm0 0"/><path d="m256 109.050781c4.144531 0 7.5-3.359375 7.5-7.5v-28.054687c0-4.140625-3.355469-7.5-7.5-7.5s-7.5 3.359375-7.5 7.5v28.054687c0 4.140625 3.355469 7.5 7.5 7.5zm0 0"/><path d="m256 0c-4.144531 0-7.5 3.355469-7.5 7.5v28.050781c0 4.144531 3.355469 7.5 7.5 7.5s7.5-3.355469 7.5-7.5v-28.050781c0-4.140625-3.355469-7.5-7.5-7.5zm0 0"/><path d="m399.296875 161.105469c0 16.207031 13.183594 29.390625 29.386719 29.390625 16.207031 0 29.390625-13.183594 29.390625-29.390625 0-16.203125-13.183594-29.386719-29.390625-29.386719-16.203125 0-29.386719 13.183594-29.386719 29.386719zm43.777344 0c0 7.933593-6.457031 14.390625-14.390625 14.390625s-14.386719-6.457032-14.386719-14.390625c0-7.933594 6.453125-14.386719 14.386719-14.386719s14.390625 6.453125 14.390625 14.386719zm0 0"/><path d="m53.925781 161.105469c0 16.207031 13.183594 29.390625 29.390625 29.390625 16.203125 0 29.386719-13.183594 29.386719-29.390625 0-16.203125-13.183594-29.386719-29.386719-29.386719-16.207031 0-29.390625 13.183594-29.390625 29.386719zm43.777344 0c0 7.933593-6.457031 14.390625-14.390625 14.390625s-14.386719-6.457032-14.386719-14.390625c0-7.933594 6.453125-14.386719 14.386719-14.386719s14.390625 6.453125 14.390625 14.386719zm0 0"/><path d="m16.433594 312.609375h180.125c9.0625 0 16.433594-7.371094 16.433594-16.433594v-219.3125c0-9.0625-7.371094-16.433593-16.433594-16.433593h-72.5625c-4.144532 0-7.5 3.355468-7.5 7.5 0 4.140624 3.355468 7.5 7.5 7.5h72.5625c.789062 0 1.433594.644531 1.433594 1.433593v140.070313l-39.085938-57.144532s-.003906 0-.003906-.003906c-2.476563-3.621094-6.578125-5.78125-10.96875-5.78125-4.386719 0-8.488282 2.160156-10.96875 5.78125l-55.453125 80.996094-25.988281-37.953125c-2.476563-3.625-6.578126-5.785156-10.96875-5.785156-4.390626 0-8.488282 2.160156-10.945313 5.75l-18.609375 26.867187v-152.796875c0-.789062.644531-1.433593 1.433594-1.433593h72.5625c4.144531 0 7.5-3.359376 7.5-7.5 0-4.144532-3.355469-7.5-7.5-7.5h-72.5625c-9.0625 0-16.433594 7.371093-16.433594 16.433593v219.3125c0 9.0625 7.371094 16.433594 16.433594 16.433594zm131.5-142.292969 50.058594 73.1875v52.671875c0 .789063-.644532 1.433594-1.433594 1.433594h-135.777344zm-132.933594 85.683594 29.546875-42.652344 27.875 40.710938-12.546875 18.324218-17.273438 25.226563h-26.167968c-.789063 0-1.433594-.644531-1.433594-1.433594zm0 0"/><path d="m495.566406 60.429688h-180.125c-9.0625 0-16.433594 7.371093-16.433594 16.433593v219.3125c0 9.0625 7.371094 16.433594 16.433594 16.433594h180.125c9.0625 0 16.433594-7.371094 16.433594-16.433594v-101.574219c0-4.140624-3.355469-7.5-7.5-7.5s-7.5 3.359376-7.5 7.5v35.054688l-18.585938-26.832031c-2.476562-3.621094-6.578124-5.78125-10.96875-5.78125-4.390624 0-8.492187 2.160156-10.96875 5.78125l-25.988281 37.953125-55.453125-80.992188c-2.480468-3.621094-6.582031-5.78125-10.96875-5.785156-4.390625 0-8.492187 2.164062-10.972656 5.785156v.003906l-39.085938 57.144532v-140.070313c0-.789062.640626-1.433593 1.433594-1.433593h180.125c.789063 0 1.433594.644531 1.433594 1.433593v82.738281c0 4.144532 3.355469 7.5 7.5 7.5 4.140625 0 7.5-3.355468 7.5-7.5v-82.738281c0-9.0625-7.371094-16.433593-16.433594-16.433593zm-28.113281 152.914062 29.546875 42.65625v40.175781c0 .789063-.644531 1.433594-1.433594 1.433594h-26.167968l-29.820313-43.550781zm-103.386719-43.027344 60.230469 87.972656s.003906.003907.003906.003907l26.917969 39.316406h-135.777344c-.789062 0-1.433594-.644531-1.433594-1.433594v-52.671875zm0 0"/></svg>