<svg height="512pt" viewBox="-154 0 512 512" width="512pt" xmlns="http://www.w3.org/2000/svg"><path d="m158.113281 334.226562c-5.085937-3.761718-8.117187-9.683593-8.117187-16.011718v-262.753906c0-26.488282-21.472656-47.960938-47.957032-47.960938-26.488281 0-47.960937 21.472656-47.960937 47.960938v262.746093c0 6.378907-3.113281 12.304688-8.234375 16.105469-23.1875 17.214844-38.207031 44.804688-38.175781 75.90625.046875 50.429688 40.296875 92.296875 90.691406 94.210938 53.792969 2.042968 98.050781-40.960938 98.050781-94.300782-.003906-31.121094-15.066406-58.714844-38.296875-75.902344zm0 0" fill="#dfebfa"/><path d="m34.667969 410.21875c-.03125-31.101562 14.988281-58.691406 38.175781-75.90625 5.121094-3.800781 8.234375-9.726562 8.234375-16.105469v-262.746093c0-21.796876 14.546875-40.1875 34.457031-46.019532-4.28125-1.257812-8.808594-1.941406-13.5-1.941406-26.488281 0-47.957031 21.472656-47.957031 47.960938v262.746093c0 6.378907-3.113281 12.304688-8.234375 16.105469-23.1875 17.214844-38.207031 44.804688-38.175781 75.90625.046875 50.429688 40.296875 92.292969 90.6875 94.210938 5.863281.222656 11.609375-.09375 17.203125-.894532-45.710938-6.570312-80.847656-46.203125-80.890625-93.316406zm0 0" fill="#b1dbfc"/><path d="m85.359375 55.460938v70.195312h33.363281v-70.195312c0-9.199219-7.484375-16.683594-16.683594-16.683594-9.199218 0-16.679687 7.484375-16.679687 16.683594zm0 0" fill="#ffbb7e"/><path d="m160.671875 386.292969h-117.085937c-3.027344 7.453125-4.648438 15.523437-4.636719 23.898437.03125 33.457032 27.214843 61.714844 60.597656 62.980469h5.105469c46.167968-1.605469 71.171875-49.296875 56.019531-86.878906zm0 0" fill="#ff8607"/><path d="m85.359375 125.65625h33.363281v86.878906h-33.363281zm0 0" fill="#ffa85d"/><path d="m85.359375 212.535156h33.363281v86.878906h-33.363281zm0 0" fill="#ff9839"/><path d="m85.359375 318.207031c0 16.109375-7.804687 31.519531-20.871094 41.21875-9.511719 7.0625-16.625 16.34375-20.902343 26.867188h117.085937c-4.054687-10.058594-10.984375-19.394531-21.164063-26.925781-1.042968-1.042969-20.785156-14.171876-20.785156-41.152344v-18.800782h-33.363281zm0 0" fill="#ff9839"/><path d="m73.285156 410.191406c-.007812-8.375 1.609375-16.445312 4.636719-23.898437h-34.335937c-3.027344 7.453125-4.648438 15.523437-4.636719 23.898437.03125 33.457032 27.214843 61.714844 60.597656 62.980469h5.105469c5.261718-.183594 10.246094-.96875 14.929687-2.269531-26.507812-7.464844-46.269531-32.191406-46.296875-60.710938zm0 0" fill="#ff7501"/><path d="m98.828125 359.425781c11.15625-8.28125 18.453125-20.730469 20.355469-34.21875-.296875-2.21875-.460938-4.546875-.460938-6.992187v-18.800782h-33.363281v18.792969c0 16.109375-7.804687 31.519531-20.871094 41.21875-9.515625 7.0625-16.625 16.34375-20.902343 26.867188h34.335937c4.277344-10.523438 11.390625-19.804688 20.90625-26.867188zm0 0" fill="#ff8607"/><path d="m189.195312 96.636719-36.933593 24.492187c-3.238281 2.148438-3.238281 6.90625 0 9.054688l36.933593 24.492187c3.609376 2.394531 8.433594-.195312 8.433594-4.527343v-48.984376c0-4.332031-4.824218-6.921874-8.433594-4.527343zm0 0" fill="#60b8fe"/><path d="m182.265625 130.183594c-3.242187-2.144532-3.242187-6.90625 0-9.050782l15.363281-10.191406v-9.773437c0-4.335938-4.824218-6.925781-8.433594-4.527344l-36.933593 24.492187c-3.238281 2.144532-3.238281 6.90625 0 9.050782l36.933593 24.492187c3.609376 2.394531 8.433594-.191406 8.433594-4.527343v-9.773438zm0 0" fill="#23a8fe"/><path d="m126.054688 212.535156v-157.074218c0-13.335938-10.847657-24.183594-24.179688-24.183594-13.335938 0-24.183594 10.847656-24.183594 24.183594v262.746093c0 13.746094-6.667968 26.90625-17.839844 35.199219-10.457031 7.761719-18.542968 18.15625-23.382812 30.0625v.007812c-3.453125 8.492188-5.199219 17.484376-5.1875 26.71875.035156 37.441407 30.457031 69.050782 67.816406 70.472657.09375.003906.1875.003906.285156.003906h5.101563c.089844 0 .175781 0 .261719-.003906 50.832031-1.769531 80.039062-54.207031 62.714844-97.175781v-.003907c-4.785157-11.867187-12.65625-21.945312-23.402344-29.960937-.207032-.175782-.433594-.351563-.695313-.558594-11.324219-8.925781-17.308593-20.945312-17.308593-34.753906zm-33.363282-157.074218c0-5.0625 4.117188-9.183594 9.183594-9.183594 5.0625 0 9.179688 4.121094 9.179688 9.183594v62.695312h-18.363282zm0 77.695312h18.363282v71.878906h-18.363282zm0 86.878906h18.363282v71.878906h-18.363282zm41.386719 144.714844.28125.222656c.167969.148438.34375.292969.523437.425782 5.25 3.886718 9.632813 8.371093 13.109376 13.394531h-28.636719c-4.144531 0-7.5 3.359375-7.5 7.5 0 4.144531 3.355469 7.503906 7.5 7.503906h35.824219c9.4375 32.003906-11.878907 70.441406-50.828126 71.875h-4.824218c-29.347656-1.1875-53.21875-26.050781-53.246094-55.488281-.007812-5.609375.808594-11.101563 2.421875-16.386719h35.652344c4.140625 0 7.5-3.359375 7.5-7.503906 0-4.140625-3.359375-7.5-7.5-7.5h-28.425781c3.480468-5.082031 7.820312-9.597657 12.863281-13.34375 14.960937-11.109375 23.894531-28.769531 23.894531-47.242188v-11.289062h18.363281v11.296875c.003907 18.304687 8.179688 34.828125 23.027344 46.535156zm0 0"/><path d="m149.828125 202.535156c4.144531 0 7.503906-3.359375 7.503906-7.5v-52.378906l27.550781 18.269531c2.164063 1.433594 4.652344 2.160157 7.148438 2.160157 2.09375 0 4.195312-.511719 6.117188-1.542969 4.203124-2.257813 6.8125-6.621094 6.8125-11.394531v-48.984376c0-4.769531-2.609376-9.136718-6.8125-11.394531-4.207032-2.253906-9.289063-2.019531-13.265626.617188l-27.554687 18.273437v-53.199218c.003906-30.582032-24.875-55.460938-55.457031-55.460938-30.582032 0-55.460938 24.878906-55.460938 55.460938v262.746093c0 3.894531-1.945312 7.664063-5.203125 10.082031-25.835937 19.179688-41.238281 49.808594-41.207031 81.9375.0546875 54.476563 43.433594 99.625 97.90625 101.699219 1.339844.050781 2.675781.074219 4.007812.074219 55.859376 0 101.828126-45.132812 101.828126-101.871094 0-32.152344-15.453126-62.78125-41.335938-81.933594-3.179688-2.351562-5.074219-6.082031-5.074219-9.980468v-88.175782c0-4.144531-3.359375-7.5-7.503906-7.5-4.140625 0-7.5 3.355469-7.5 7.5v88.175782c0 8.632812 4.171875 16.871094 11.15625 22.039062 22.078125 16.335938 35.257813 42.457032 35.257813 69.875 0 49.261719-40.789063 88.6875-90.265626 86.804688-46.375-1.761719-83.433593-40.265625-83.476562-86.71875-.027344-27.808594 12.78125-53.277344 35.148438-69.878906 7.050781-5.234376 11.261718-13.507813 11.261718-22.128907v-262.746093c0-22.3125 18.152344-40.460938 40.460938-40.460938s40.457031 18.148438 40.457031 40.460938v68.25c-.09375.640624-.160156 1.289062-.160156 1.945312 0 .660156.066406 1.308594.160156 1.945312v67.433594c0 4.140625 3.359375 7.5 7.5 7.5zm40.136719-97.515625v41.277344l-31.125-20.640625zm0 0"/></svg>