<svg height="512pt" viewBox="0 0 512 512" width="512pt" xmlns="http://www.w3.org/2000/svg"><g fill="#dfebfa"><path d="m483.667969 173.167969h-147.667969l-162.667969 162.664062v147.667969c0 11.597656 9.402344 21 21 21h289.335938c11.59375 0 20.996093-9.402344 20.996093-21v-289.332031c0-11.597657-9.402343-21-20.996093-21zm0 0"/><path d="m203.332031 483.5v-177.667969l-30 30v147.667969c0 11.597656 9.402344 21 21 21h30.003907c-11.601563 0-21.003907-9.402344-21.003907-21zm0 0"/><path d="m318 7.5h-289.332031c-11.597657 0-21 9.402344-21 21v289.332031c0 11.597657 9.402343 21 21 21h147.664062l162.667969-162.664062v-147.667969c0-11.597656-9.402344-21-21-21zm0 0"/><path d="m37.667969 317.832031v-289.332031c0-11.597656 9.402343-21 21-21h-30c-11.597657 0-21 9.402344-21 21v289.332031c0 11.601563 9.402343 21 21 21h30c-11.597657 0-21-9.398437-21-21zm0 0"/></g><path d="m297.859375 38.613281h-249.054687c-5.535157 0-10.027344 4.488281-10.027344 10.027344v249.054687c0 5.535157 4.492187 10.027344 10.027344 10.027344h127.527343v-110.554687c0-11.597657 9.402344-21 21-21h110.554688v-127.527344c0-5.539063-4.488281-10.027344-10.027344-10.027344zm0 0" fill="#b1dbfc"/><path d="m68.78125 297.695312v-249.054687c0-5.539063 4.488281-10.027344 10.027344-10.027344h-30.003906c-5.535157 0-10.027344 4.488281-10.027344 10.027344v249.054687c0 5.535157 4.492187 10.027344 10.027344 10.027344h30.003906c-5.539063 0-10.027344-4.492187-10.027344-10.027344zm0 0" fill="#8cc9f9"/><path d="m460.394531 204.277344h-124.394531v110.554687c0 11.597657-9.402344 21-21 21h-110.554688v124.394531c0 7.269532 5.890626 13.160157 13.160157 13.160157h242.789062c7.269531 0 13.160157-5.890625 13.160157-13.160157v-242.789062c0-7.265625-5.894532-13.160156-13.160157-13.160156zm0 0" fill="#b1dbfc"/><path d="m234.445312 455.195312v-119.363281h-30v124.394531c0 7.269532 5.890626 13.160157 13.160157 13.160157h35.035156c-10.046875 0-18.195313-8.144531-18.195313-18.191407zm0 0" fill="#8cc9f9"/><path d="m194.332031 173.167969c-11.597656 0-20.996093 9.402343-20.996093 21v144.664062h144.664062c11.597656 0 21-9.402343 21-21 0-16.230469 0-130.511719 0-144.664062-14.09375 0-126.488281 0-144.667969 0zm0 0" fill="#60b8fe"/><path d="m224.335938 172.5c-14.125 0-25.265626 0-30.003907 0-11.597656 0-21 9.402344-21 21v144.664062h30c0-2.210937 0-141.984374 0-144.664062 0-11.597656 9.402344-21 21.003907-21zm0 0" fill="#23a8fe"/><path d="m317.832031 0h-289.332031c-15.714844 0-28.5 12.785156-28.5 28.5v289.332031c0 15.714844 12.785156 28.5 28.5 28.5h46.089844c4.140625 0 7.5-3.355469 7.5-7.5 0-4.140625-3.359375-7.5-7.5-7.5h-46.089844c-7.445312 0-13.5-6.054687-13.5-13.5v-289.332031c0-7.445312 6.054688-13.5 13.5-13.5h289.332031c7.445313 0 13.5 6.054688 13.5 13.5v137.167969h-16.113281v-127.054688c0-4.140625-3.355469-7.5-7.5-7.5h-269.105469c-4.144531 0-7.5 3.359375-7.5 7.5v269.109375c0 4.140625 3.355469 7.5 7.5 7.5h127.054688v16.109375h-56.078125c-4.144532 0-7.5 3.359375-7.5 7.5 0 4.144531 3.355468 7.5 7.5 7.5h56.078125v137.167969c0 15.714844 12.785156 28.5 28.5 28.5h289.332031c15.714844 0 28.5-12.785156 28.5-28.5v-127.167969c0-4.140625-3.355469-7.5-7.5-7.5s-7.5 3.359375-7.5 7.5v127.167969c0 7.445312-6.054688 13.5-13.5 13.5h-289.332031c-7.445313 0-13.5-6.054688-13.5-13.5v-137.167969h16.113281v127.054688c0 4.140625 3.355469 7.5 7.5 7.5h269.105469c4.144531 0 7.5-3.359375 7.5-7.5v-269.109375c0-4.140625-3.355469-7.5-7.5-7.5h-127.054688v-16.109375h137.167969c7.445312 0 13.5 6.054687 13.5 13.5v127.164062c0 4.140625 3.355469 7.5 7.5 7.5s7.5-3.359375 7.5-7.5v-127.164062c0-15.714844-12.785156-28.5-28.5-28.5h-137.167969v-137.167969c0-15.714844-12.785156-28.5-28.5-28.5zm-152.164062 194.167969v106.054687h-119.554688v-254.109375h254.105469v119.554688h-106.050781c-15.714844 0-28.5 12.785156-28.5 28.5zm15 137.164062c0-6.808593 0-130.4375 0-137.164062 0-7.445313 6.054687-13.5 13.5-13.5h137.164062v137.164062c0 7.445313-6.054687 13.5-13.5 13.5zm285.21875-119.554687v254.109375h-254.105469v-119.554688h106.050781c15.714844 0 28.5-12.785156 28.5-28.5v-106.054687zm0 0"/></svg>