<svg height="512pt" viewBox="0 -78 512.0005 512" width="512pt" xmlns="http://www.w3.org/2000/svg"><path d="m499.40625 167.121094c-131.25-181.632813-354.976562-181.722656-486.289062 0-7.144532 9.882812-7.144532 25.195312 0 35.078125 60.550781 83.796875 147.074218 136.246093 243.144531 136.246093 96.070312 0 182.59375-52.449218 243.144531-136.246093 7.140625-9.882813 7.140625-25.195313 0-35.078125zm0 0" fill="#dfebfa"/><path d="m43.117188 202.199219c-7.144532-9.882813-7.144532-25.195313 0-35.078125 57.382812-79.410156 138.089843-130.664063 228.144531-135.808594-105.152344-6.011719-196.742188 50.832031-258.144531 135.808594-7.144532 9.882812-7.144532 25.195312 0 35.078125 60.550781 83.796875 147.074218 136.246093 243.144531 136.246093 5.027343 0 10.027343-.152343 15-.433593-90.054688-5.148438-170.761719-56.398438-228.144531-135.8125zm0 0" fill="#b1dbfc"/><path d="m377.058594 184.660156c0 66.714844-54.082032 120.796875-120.796875 120.796875-66.714844 0-120.796875-54.082031-120.796875-120.796875s54.082031-120.796875 120.796875-120.796875c66.714843 0 120.796875 54.082031 120.796875 120.796875zm0 0" fill="#8cc9f9"/><path d="m165.464844 184.660156c0-61.632812 46.160156-112.484375 105.796875-119.871094-72.328125-8.960937-135.796875 47.367188-135.796875 119.871094 0 66.714844 54.082031 120.796875 120.796875 120.796875 5.078125 0 10.085937-.316406 15-.925781-59.636719-7.386719-105.796875-58.234375-105.796875-119.871094zm0 0" fill="#60b8fe"/><path d="m229.996094 130.257812c2.960937 3.6875 4.738281 8.363282 4.738281 13.457032 0 17.570312-19.945313 27.707031-34.132813 17.453125-16.800781 39.757812 12.503907 83.890625 55.660157 83.890625 33.355469 0 60.398437-27.039063 60.398437-60.398438 0-44.550781-46.703125-73.726562-86.664062-54.402344zm0 0" fill="#60b8fe"/><path d="m236.53125 218.941406c-18.929688-27.464844-12.011719-65.078125 15.449219-84.007812 6.039062-4.164063 12.566406-7.074219 19.277343-8.792969-13.300781-3.398437-28.015624-2.289063-41.261718 4.117187 2.960937 3.6875 4.738281 8.363282 4.738281 13.460938 0 17.570312-19.945313 27.707031-34.132813 17.449219-19.28125 45.632812 22.03125 94.496093 70.71875 82-13.652343-3.484375-26.164062-11.714844-34.789062-24.226563zm0 0" fill="#23a8fe"/><path d="m90.65625 343.101562c-6.105469-6.109374-6.105469-16.011718 0-22.117187l308.902344-308.902344c6.105468-6.105469 16.007812-6.105469 22.117187 0 6.105469 6.109375 6.105469 16.011719 0 22.117188l-308.902343 308.902343c-6.105469 6.105469-16.007813 6.105469-22.117188 0zm0 0" fill="#ff4756"/><path d="m123.160156 320.984375 302.410156-302.414063c-.722656-2.371093-2.019531-4.609374-3.894531-6.488281-6.105469-6.105469-16.011719-6.105469-22.117187 0l-308.902344 308.902344c-6.105469 6.105469-6.105469 16.007813 0 22.117187 6.109375 6.105469 16.011719 6.105469 22.117188 0l6.488281-6.488281c-1.628907-5.351562-.332031-11.398437 3.898437-15.628906zm0 0" fill="#fc2d39"/><path d="m235.675781 144.1875c0 12.15625-9.855469 22.011719-22.011719 22.011719-12.152343 0-22.007812-9.855469-22.007812-22.011719s9.855469-22.011719 22.007812-22.011719c12.15625 0 22.011719 9.855469 22.011719 22.011719zm0 0" fill="#dfebfa"/><path d="m221.65625 144.1875c0-6.359375 2.699219-12.082031 7.011719-16.101562-3.933594-3.664063-9.203125-5.910157-15.003907-5.910157-12.152343 0-22.007812 9.855469-22.007812 22.011719 0 19.28125 23.046875 29.113281 37.011719 16.101562-4.3125-4.019531-7.011719-9.742187-7.011719-16.101562zm0 0" fill="#b1dbfc"/><path d="m102.019531 298.847656-16.832031 16.832032c-9.019531 9.023437-9.019531 23.703124 0 32.722656 9.046875 9.046875 23.679688 9.046875 32.726562 0l26.46875-26.464844c30.078126 13.371094 61.542969 21.242188 93.617188 23.386719 4.121094.273437 7.707031-2.851563 7.984375-6.984375.273437-4.132813-2.851563-7.707032-6.984375-7.984375-28.429688-1.898438-56.371094-8.558594-83.21875-19.820313l23.246094-23.246094c22.117187 16.59375 49.1875 25.671876 76.972656 25.671876 62.121094 0 115.21875-44.304688 126.246094-105.34375.734375-4.078126-1.972656-7.980469-6.046875-8.714844-4.070313-.734375-7.976563 1.96875-8.714844 6.046875-9.738281 53.894531-56.625 93.011719-111.484375 93.011719-23.820312 0-47.046875-7.546876-66.25-21.390626l32.820312-32.824218c10.171876 5.777344 21.605469 8.816406 33.429688 8.816406 51.882812 0 84.695312-56.230469 59.082031-101.328125l32.828125-32.828125c11.433594 15.820312 18.550782 34.226562 20.695313 53.699219.453125 4.117187 4.15625 7.085937 8.277343 6.632812 4.117188-.453125 7.085938-4.160156 6.632813-8.277343-2.519531-22.867188-11.105469-44.417969-24.894531-62.765626l31.742187-31.742187c38.863281 22.875 73.390625 55.003906 102.699219 95.566406 5.238281 7.246094 5.238281 19.042969 0 26.289063-57.710938 79.871094-135.867188 126.949218-220.0625 132.570312-4.132812.277344-7.257812 3.851563-6.984375 7.984375.265625 3.960938 3.5625 7 7.476563 7 .167968 0 .335937-.003906.507812-.015625 94.863281-6.332031 175.539062-61.695312 231.222656-138.75 9.035156-12.503906 9.035156-31.363281 0-43.863281-29.695312-41.097656-64.621094-73.929687-103.921875-97.71875l25.511719-25.507813c9.019531-9.023437 9.019531-23.703124 0-32.722656-9.046875-9.046875-23.679688-9.046875-32.726562 0l-36.40625 36.40625c-120.320313-48.210937-258.304688-8.609375-350.902344 119.539063-9.035156 12.5-9.035156 31.359375 0 43.863281 27.421875 37.949219 59.433594 68.941406 95.242187 92.253906zm131.667969-66.21875 70.28125-70.28125c20.703125 44.339844-25.582031 91.15625-70.28125 70.28125zm171.007812-215.242187c1.535157-1.539063 3.582032-2.382813 5.753907-2.382813 2.175781 0 4.21875.847656 5.753906 2.382813 3.175781 3.171875 3.175781 8.335937 0 11.511719l-32.378906 32.378906c-4.835938 4.835937-204.910157 204.910156-210.6875 210.6875v.003906l-65.832031 65.828125c-1.535157 1.539063-3.582032 2.386719-5.753907 2.386719-2.175781 0-4.21875-.847656-5.753906-2.386719-3.175781-3.171875-3.175781-8.335937 0-11.507813l66.746094-66.75h.003906l44.023437-44.027343 124.304688-124.304688s0 0 0-.003906zm-199.964843 154.1875c2.679687.792969 5.609375 1.183593 8.203125 1.183593 19.882812 0 34.054687-19.71875 27.402344-38.644531 9.125-2.832031 18.75-3.019531 27.453124-1.03125l-63.371093 63.367188c-1.808594-7.925781-1.800781-16.585938.3125-24.875zm-5.835938-27.855469c0-7.742188 6.296875-14.042969 14.039063-14.042969 7.632812 0 14.042968 6.226563 14.042968 14.042969 0 7.742188-6.300781 14.039062-14.042968 14.039062-7.6875 0-14.039063-6.289062-14.039063-14.039062zm32.554688-22.355469c-5.027344-4.171875-11.484375-6.6875-18.515625-6.6875-16.011719 0-29.039063 13.027344-29.039063 29.042969 0 7.554688 2.902344 14.441406 7.644531 19.613281-4.714843 14.238281-4.738281 30.15625.882813 45.113281l-33.933594 33.933594c-10.351562-17.425781-15.785156-37.207031-15.785156-57.71875 0-87.890625 96.046875-142.042968 171.015625-97.511718l-33.933594 33.933593c-15.589844-5.855469-32.792968-5.769531-48.335937.28125zm-212.515625 50.152344c87.171875-120.640625 214.980468-158.609375 327.164062-116.746094l-21.488281 21.488281c-85.03125-53.980468-196.90625 7.476563-196.90625 108.402344 0 24.511719 6.871094 48.09375 19.894531 68.613282l-34.730468 34.730468c-35.335938-22.488281-66.914063-52.804687-93.933594-90.195312-5.238282-7.25-5.238282-19.046875 0-26.292969zm0 0"/></svg>