<svg height="511pt" viewBox="-58 0 511 511.998" width="511pt" xmlns="http://www.w3.org/2000/svg"><path d="m385.351562 389.476562-72.757812-43.601562-112.105469 64.097656c-1.535156.878906-3.421875.878906-4.957031 0l-112.101562-64.097656-72.761719 43.601562c-3.351563 1.917969-3.351563 6.753907 0 8.667969l184.863281 105.703125c1.535156.878906 3.421875.878906 4.957031 0l184.863281-105.703125c3.351563-1.914062 3.351563-6.75 0-8.667969zm0 0" fill="#4f67d2"/><path d="m40.167969 398.144531c-3.351563-1.914062-3.351563-6.75 0-8.667969l58.355469-34.96875-15.09375-8.632812-72.761719 43.601562c-3.351563 1.917969-3.351563 6.753907 0 8.667969l184.863281 105.703125c1.535156.878906 3.421875.878906 4.957031 0l12.273438-7.015625zm0 0" fill="#324ccc"/><path d="m225.03125 409.972656c1.539062.878906 3.421875.878906 4.957031 0l97.007813-55.464844-14.402344-8.632812-99.832031 57.082031zm0 0" fill="#324ccc"/><path d="m385.351562 297.601562-72.757812-43.601562-112.105469 64.097656c-1.535156.878906-3.421875.878906-4.957031 0l-112.101562-64.097656-72.761719 43.601562c-3.351563 1.917969-3.351563 6.753907 0 8.671876l184.863281 105.699218c1.535156.878906 3.421875.878906 4.957031 0l184.863281-105.699218c3.351563-1.917969 3.351563-6.753907 0-8.671876zm0 0" fill="#43cb8e"/><path d="m225.03125 318.097656c1.539062.878906 3.421875.878906 4.957031 0l97.007813-55.464844-14.402344-8.632812-99.832031 57.082031zm0 0" fill="#00ba66"/><path d="m40.167969 306.273438c-3.351563-1.917969-3.351563-6.753907 0-8.671876l58.355469-34.96875-15.09375-8.632812-72.761719 43.601562c-3.351563 1.917969-3.351563 6.753907 0 8.671876l184.863281 105.699218c1.535156.878906 3.421875.878906 4.957031 0l12.273438-7.015625zm0 0" fill="#00ba66"/><path d="m385.351562 205.726562-72.757812-43.601562-112.105469 64.097656c-1.535156.878906-3.421875.878906-4.957031 0l-112.101562-64.097656-72.761719 43.601562c-3.351563 1.917969-3.351563 6.753907 0 8.671876l184.863281 105.699218c1.535156.878906 3.421875.878906 4.957031 0l184.863281-105.699218c3.351563-1.917969 3.351563-6.753907 0-8.671876zm0 0" fill="#fee55a"/><path d="m225.03125 226.222656c1.539062.878906 3.421875.878906 4.957031 0l97.007813-55.464844-14.402344-8.632812-99.832031 57.082031zm0 0" fill="#ffd301"/><path d="m40.167969 214.398438c-3.351563-1.917969-3.351563-6.753907 0-8.671876l58.355469-34.96875-15.09375-8.632812-72.761719 43.601562c-3.351563 1.917969-3.351563 6.753907 0 8.671876l184.863281 105.699218c1.535156.878906 3.421875.878906 4.957031 0l12.273438-7.015625zm0 0" fill="#ffd301"/><path d="m385.351562 113.851562-184.863281-105.699218c-1.535156-.878906-3.421875-.878906-4.957031 0l-184.863281 105.699218c-3.351563 1.917969-3.351563 6.753907 0 8.671876l184.863281 105.699218c1.535156.878906 3.421875.878906 4.957031 0l184.863281-105.699218c3.351563-1.917969 3.351563-6.753907 0-8.671876zm0 0" fill="#ff4756"/><path d="m40.167969 122.523438c-3.351563-1.917969-3.351563-6.753907 0-8.671876l172.59375-98.683593-12.273438-7.019531c-1.535156-.875-3.421875-.875-4.957031 0l-184.863281 105.703124c-3.351563 1.917969-3.351563 6.753907 0 8.671876l184.863281 105.699218c1.535156.878906 3.421875.878906 4.957031 0l12.273438-7.015625zm0 0" fill="#fc2d39"/><path d="m388.90625 129.035156c8.367188-4.785156 8.382812-16.902344 0-21.691406l-88.152344-50.40625c-3.59375-2.054688-8.175781-.808594-10.230468 2.789062-2.058594 3.59375-.808594 8.175782 2.785156 10.234376l84.347656 48.226562-179.8125 102.8125-179.8125-102.8125 179.8125-102.8125 60.855469 34.792969c3.589843 2.054687 8.175781.808593 10.230469-2.789063 2.058593-3.59375.808593-8.175781-2.785157-10.230468l-62.097656-35.507813c-3.828125-2.1875-8.582031-2.1875-12.402344 0l-184.863281 105.699219c-8.371094 4.785156-8.382812 16.902344 0 21.695312l61.371094 35.089844-61.371094 35.089844c-8.367188 4.785156-8.382812 16.902344 0 21.691406l61.371094 35.09375-61.371094 35.089844c-8.367188 4.785156-8.382812 16.902344 0 21.691406l61.371094 35.089844-61.371094 35.09375c-8.371094 4.78125-8.382812 16.898437 0 21.691406l184.859375 105.699219c1.910156 1.09375 4.058594 1.640625 6.203125 1.640625s4.289062-.546875 6.199219-1.640625l79.246093-45.308594c3.59375-2.058594 4.84375-6.640625 2.789063-10.234375-2.058594-3.597656-6.644531-4.84375-10.234375-2.789062l-78 44.601562-179.8125-102.8125 65.230469-37.296875c117.089843 66.949219 109.117187 62.652344 111.714843 63.261719 3.039063.710937 6.296876.292968 9.066407-1.292969l108.382812-61.96875 65.230469 37.296875-71.410156 40.832031c-3.597656 2.054688-4.84375 6.636719-2.789063 10.234375 2.054688 3.597656 6.640625 4.84375 10.234375 2.785156l75.21875-43.007812c8.363282-4.785156 8.375-16.902344-.003906-21.691406l-61.371094-35.089844 61.371094-35.09375c8.371094-4.78125 8.378906-16.898438 0-21.691406l-61.371094-35.089844 61.371094-35.09375c8.371094-4.78125 8.378906-16.898438 0-21.691406l-61.371094-35.089844zm-11.25 172.902344-68.949219 39.425781c-.003906 0-.003906 0-.003906 0l-110.859375 63.390625-110.859375-63.390625s-.003906 0-.003906-.003906l-68.949219-39.421875 65.230469-37.296875 108.382812 61.96875c3.582031 2.050781 8.402344 2.285156 12.402344 0l108.378906-61.972656zm3.804688-89.699219c0-.003906-.003907-.003906-.007813-.007812zm-3.804688-2.175781-68.949219 39.425781c-.003906 0-.003906 0-.003906 0l-110.859375 63.390625-110.859375-63.390625c-.003906 0-.003906-.003906-.007813-.003906l-68.945312-39.421875 65.230469-37.296875c113.335937 64.804687 108.667969 62.230469 110.203125 62.804687 3.664062 1.363282 7.5.925782 10.582031-.835937l108.378906-61.96875zm0 0"/></svg>