<svg height="512pt" viewBox="0 -18 512.001 512" width="512pt" xmlns="http://www.w3.org/2000/svg"><path d="m490.480469 7.5h-468.628907c-7.835937 0-14.183593 6.351562-14.183593 14.1875v431.679688c0 7.835937 6.347656 14.1875 14.183593 14.1875h468.628907c7.835937 0 14.183593-6.351563 14.183593-14.1875v-431.683594c0-7.832032-6.347656-14.183594-14.183593-14.183594zm0 0" fill="#dfebfa"/><path d="m38 453.367188v-431.683594c0-7.832032 6.351562-14.183594 14.183594-14.183594h-30.332032c-7.835937 0-14.183593 6.351562-14.183593 14.183594v431.683594c0 7.835937 6.347656 14.183593 14.183593 14.183593h30.332032c-7.832032 0-14.183594-6.347656-14.183594-14.183593zm0 0" fill="#b1dbfc"/><path d="m466.230469 313.871094h-420.128907c-4.164062 0-7.539062 3.375-7.539062 7.539062v107.707032c0 4.164062 3.375 7.539062 7.539062 7.539062h420.128907c4.164062 0 7.539062-3.375 7.539062-7.539062v-107.707032c0-4.164062-3.375-7.539062-7.539062-7.539062zm0 0" fill="#23a8fe"/><path d="m68.898438 429.117188v-107.707032c0-4.164062 3.371093-7.539062 7.535156-7.539062h-30.332032c-4.164062 0-7.539062 3.375-7.539062 7.539062v107.707032c0 4.164062 3.375 7.539062 7.539062 7.539062h30.332032c-4.164063 0-7.535156-3.375-7.535156-7.539062zm0 0" fill="#0193fa"/><path d="m147.597656 58.996094h-86.835937c-5.980469 0-10.867188 4.890625-10.867188 10.867187v9.164063c0 5.976562 4.886719 10.867187 10.867188 10.867187h86.835937c5.976563 0 10.867188-4.890625 10.867188-10.867187v-9.164063c0-5.976562-4.890625-10.867187-10.867188-10.867187zm0 0" fill="#4f67d2"/><path d="m147.597656 69.296875h-86.835937c-3.882813 0-7.292969-2.070313-9.21875-5.152344-1.039063 1.667969-1.648438 3.621094-1.648438 5.71875v9.164063c0 5.976562 4.886719 10.867187 10.867188 10.867187h86.835937c5.976563 0 10.867188-4.890625 10.867188-10.867187v-9.164063c0-2.097656-.613282-4.050781-1.652344-5.71875-1.921875 3.082031-5.335938 5.152344-9.214844 5.152344zm0 0" fill="#324ccc"/><path d="m294.859375 344.328125-72.769531 92.328125h154.175781l-72.765625-92.328125c-2.082031-2.640625-6.5625-2.640625-8.640625 0zm0 0" fill="#43cb8e"/><path d="m303.5 344.328125c-2.082031-2.640625-6.5625-2.640625-8.640625 0l-72.769531 92.328125h30l62.085937-78.78125zm0 0" fill="#00ba66"/><path d="m201.433594 378.113281-46.136719 58.542969h66.792969l17.0625-21.648438-29.078125-36.894531c-2.078125-2.636719-6.5625-2.636719-8.640625 0zm0 0" fill="#43cb8e"/><path d="m210.074219 378.113281c-2.078125-2.636719-6.5625-2.636719-8.640625 0l-46.136719 58.542969h30l35.457031-44.992188zm0 0" fill="#00ba66"/><path d="m466.230469 38.398438h-228.546875c-4.160156 0-7.535156 3.375-7.535156 7.535156v229.847656c0 4.164062 3.375 7.535156 7.535156 7.535156h228.546875c4.164062 0 7.539062-3.371094 7.539062-7.535156v-229.847656c0-4.160156-3.375-7.535156-7.539062-7.535156zm0 0" fill="#23a8fe"/><path d="m260.480469 275.78125v-229.847656c0-4.160156 3.375-7.535156 7.535156-7.535156h-30.332031c-4.160156 0-7.535156 3.375-7.535156 7.535156v229.847656c0 4.164062 3.375 7.535156 7.535156 7.535156h30.332031c-4.160156.003906-7.535156-3.371094-7.535156-7.535156zm0 0" fill="#0193fa"/><path d="m420.023438 118.816406c-2.683594-3.917968-8.464844-3.917968-11.148438 0l-112.628906 164.503906h169.984375c4.164062 0 7.539062-3.375 7.539062-7.539062v-78.46875zm0 0" fill="#43cb8e"/><path d="m420.023438 118.816406c-2.683594-3.917968-8.464844-3.917968-11.148438 0l-112.628906 164.503906h30l103.203125-150.738281zm0 0" fill="#00ba66"/><path d="m288.339844 169-58.191406 84.992188v21.789062c0 4.164062 3.375 7.535156 7.535156 7.535156h58.5625l40.753906-59.523437-37.511719-54.792969c-2.683593-3.917969-8.46875-3.917969-11.148437 0zm0 0" fill="#43cb8e"/><path d="m260.148438 275.78125v-16.800781c0-6.835938-.625-4.078125 48.765624-76.214844l-9.425781-13.765625c-2.683593-3.917969-8.46875-3.917969-11.148437 0l-58.191406 84.992188v21.789062c0 4.164062 3.375 7.535156 7.535156 7.535156h30c-4.160156 0-7.535156-3.371094-7.535156-7.535156zm0 0" fill="#00ba66"/><path d="m364.628906 115.414062c0 14.097657-11.425781 25.523438-25.523437 25.523438-14.09375 0-25.519531-11.425781-25.519531-25.523438 0-14.09375 11.425781-25.519531 25.519531-25.519531 14.097656 0 25.523437 11.425781 25.523437 25.519531zm0 0" fill="#fee55a"/><path d="m343.75 115.414062c0-8.449218 4.109375-15.9375 10.4375-20.582031-4.226562-3.101562-9.4375-4.9375-15.082031-4.9375-14.09375 0-25.523438 11.425781-25.523438 25.523438 0 14.09375 11.429688 25.519531 25.523438 25.519531 5.644531 0 10.855469-1.835938 15.082031-4.9375-6.328125-4.644531-10.4375-12.132812-10.4375-20.585938zm0 0" fill="#ffd301"/><path d="m167.671875 361.972656c0 14.09375-11.425781 25.523438-25.523437 25.523438-14.09375 0-25.519532-11.429688-25.519532-25.523438s11.425782-25.523437 25.519532-25.523437c14.097656 0 25.523437 11.429687 25.523437 25.523437zm0 0" fill="#fee55a"/><path d="m146.792969 361.972656c0-8.449218 4.113281-15.941406 10.441406-20.582031-4.226563-3.105469-9.441406-4.9375-15.085937-4.9375-14.09375 0-25.519532 11.425781-25.519532 25.519531 0 14.097656 11.425782 25.523438 25.519532 25.523438 5.644531 0 10.859374-1.835938 15.085937-4.9375-6.328125-4.648438-10.441406-12.136719-10.441406-20.585938zm0 0" fill="#ffd301"/><path d="m30.898438 321.410156v107.707032c0 8.292968 6.742187 15.035156 15.035156 15.035156h420.132812c8.289063 0 15.035156-6.742188 15.035156-15.035156v-107.707032c0-8.292968-6.746093-15.039062-15.035156-15.039062h-420.132812c-8.289063 0-15.035156 6.746094-15.035156 15.039062zm187.402343 107.722656-47.691406-.003906 34.976563-44.378906 23.847656 30.257812zm19.097657 0 61.613281-78.171874 61.621093 78.183593zm-191.464844-107.761718h420.132812l.035156.039062-.035156 107.746094-86.332031-.007812-70.511719-89.460938c-2.421875-3.074219-6.144531-4.835938-10.210937-4.835938-4.066407 0-7.789063 1.761719-10.210938 4.832032v.003906l-49.816406 63.207031-23.1875-29.417969c-2.421875-3.074218-6.140625-4.835937-10.207031-4.835937 0 0 0 0-.003906 0-4.0625 0-7.785157 1.761719-10.207032 4.835937h-.003906l-43.863281 55.652344-105.613281-.007812zm0 0"/><path d="m60.59375 97.394531h86.835938c10.128906 0 18.367187-8.238281 18.367187-18.367187v-9.164063c0-10.128906-8.238281-18.367187-18.367187-18.367187h-86.835938c-10.128906 0-18.367188 8.238281-18.367188 18.367187v9.164063c0 10.128906 8.238282 18.367187 18.367188 18.367187zm-3.367188-27.53125c0-1.824219 1.542969-3.367187 3.367188-3.367187h86.835938c1.824218 0 3.367187 1.542968 3.367187 3.367187v9.164063c0 1.824218-1.542969 3.367187-3.367187 3.367187h-86.835938c-1.824219 0-3.367188-1.542969-3.367188-3.367187zm0 0"/><path d="m49.726562 129.703125h145.765626c4.144531 0 7.5-3.355469 7.5-7.5 0-4.140625-3.355469-7.5-7.5-7.5h-145.765626c-4.144531 0-7.5 3.359375-7.5 7.5 0 4.144531 3.355469 7.5 7.5 7.5zm0 0"/><path d="m49.726562 160.636719h145.765626c4.144531 0 7.5-3.359375 7.5-7.5s-3.355469-7.5-7.5-7.5h-145.765626c-4.144531 0-7.5 3.359375-7.5 7.5s3.355469 7.5 7.5 7.5zm0 0"/><path d="m49.726562 191.566406h145.765626c4.144531 0 7.5-3.355468 7.5-7.5 0-4.140625-3.355469-7.5-7.5-7.5h-145.765626c-4.144531 0-7.5 3.359375-7.5 7.5 0 4.144532 3.355469 7.5 7.5 7.5zm0 0"/><path d="m49.726562 222.5h145.765626c4.144531 0 7.5-3.355469 7.5-7.5 0-4.140625-3.355469-7.5-7.5-7.5h-145.765626c-4.144531 0-7.5 3.359375-7.5 7.5 0 4.144531 3.355469 7.5 7.5 7.5zm0 0"/><path d="m49.726562 253.433594h145.765626c4.144531 0 7.5-3.359375 7.5-7.5s-3.355469-7.5-7.5-7.5h-145.765626c-4.144531 0-7.5 3.359375-7.5 7.5s3.355469 7.5 7.5 7.5zm0 0"/><path d="m49.726562 284.367188h145.765626c4.144531 0 7.5-3.359376 7.5-7.5 0-4.144532-3.355469-7.5-7.5-7.5h-145.765626c-4.144531 0-7.5 3.355468-7.5 7.5 0 4.140624 3.355469 7.5 7.5 7.5zm0 0"/><path d="m237.519531 290.816406h228.546875c8.289063 0 15.035156-6.742187 15.035156-15.035156v-229.847656c0-8.289063-6.746093-15.035156-15.035156-15.035156h-228.546875c-8.292969 0-15.039062 6.746093-15.039062 15.035156v229.847656c0 .519531.027343 1.03125.078125 1.535156.773437 7.574219 7.1875 13.5 14.960937 13.5zm228.546875-15-155.746094-.023437 103.960938-151.84375 51.796875 75.648437zm-228.546875-229.917968h228.546875l.035156.035156-.019531 127.121094-40.035156-58.476563c-2.660156-3.882813-7.054687-6.199219-11.761719-6.199219 0 0 0 0-.003906 0-4.703125 0-9.101562 2.316406-11.761719 6.199219l-65.683593 95.9375-31.328126-45.75c-2.65625-3.886719-7.054687-6.207031-11.761718-6.207031-4.707032 0-9.105469 2.320312-11.765625 6.207031l.003906-.003906-44.496094 64.988281zm-.035156 210.410156 56.261719-82.175782 34 49.660157-35.601563 51.996093-54.664062-.007812zm0 0"/><path d="m338.9375 148.4375c18.210938 0 33.023438-14.8125 33.023438-33.019531 0-18.210938-14.8125-33.023438-33.023438-33.023438-18.207031 0-33.019531 14.8125-33.019531 33.023438 0 18.207031 14.8125 33.019531 33.019531 33.019531zm0-51.042969c9.941406 0 18.023438 8.082031 18.023438 18.019531s-8.085938 18.023438-18.023438 18.023438c-9.933594 0-18.019531-8.085938-18.019531-18.023438s8.085937-18.019531 18.019531-18.019531zm0 0"/><path d="m175.003906 361.972656c0-18.207031-14.8125-33.023437-33.019531-33.023437s-33.023437 14.816406-33.023437 33.023437c0 18.207032 14.816406 33.019532 33.023437 33.019532 18.207031.003906 33.019531-14.8125 33.019531-33.019532zm-33.019531 18.023438c-9.941406 0-18.023437-8.085938-18.023437-18.023438s8.085937-18.019531 18.023437-18.019531c9.933594 0 18.019531 8.082031 18.019531 18.019531s-8.082031 18.023438-18.019531 18.023438zm0 0"/><path d="m512 255.027344c0-4.144532-3.355469-7.5-7.5-7.5s-7.5 3.355468-7.5 7.5v198.339844c0 3.683593-3 6.683593-6.683594 6.683593h-216.816406c-4.144531 0-7.5 3.359375-7.5 7.5 0 4.144531 3.355469 7.5 7.5 7.5h216.816406c11.957032 0 21.683594-9.726562 21.683594-21.683593zm0 0"/><path d="m21.683594 475.050781h216.816406c4.140625 0 7.5-3.355469 7.5-7.5 0-4.140625-3.359375-7.5-7.5-7.5h-216.816406c-3.683594 0-6.683594-3-6.683594-6.683593v-431.683594c0-3.683594 3-6.683594 6.683594-6.683594h468.632812c3.6875 0 6.683594 3 6.683594 6.683594v198.34375c0 4.140625 3.359375 7.5 7.5 7.5 4.144531 0 7.5-3.359375 7.5-7.5v-198.34375c0-11.957032-9.726562-21.683594-21.683594-21.683594h-468.632812c-11.957032 0-21.683594 9.726562-21.683594 21.683594v431.683594c0 11.957031 9.726562 21.683593 21.683594 21.683593zm0 0"/></svg>