<svg height="512pt" viewBox="-46 0 512 512.001" width="512pt" xmlns="http://www.w3.org/2000/svg"><path d="m382.777344 412.601562c-.363282-.785156-163.203125-348.269531-163.570313-349.046874-9.175781-19.472657-36.644531-18.988282-45.589843 0-.007813.019531-.019532.035156-.027344.054687l-163.542969 348.992187c-5.90625 12.601563-.476563 27.609376 12.128906 33.515626 12.609375 5.910156 27.609375.46875 33.515625-12.128907l56.234375-120.003906c.757813-1.613281 2.378907-2.644531 4.160157-2.644531h160.652343c1.785157 0 3.40625 1.03125 4.160157 2.644531l56.238281 120.003906c5.90625 12.605469 20.910156 18.035157 33.515625 12.128907 12.605468-5.90625 18.03125-20.914063 12.125-33.515626zm-133.964844-151.664062h-104.800781c-3.363281 0-5.585938-3.5-4.160157-6.546875l52.402344-111.816406c1.652344-3.527344 6.667969-3.527344 8.320313 0l52.398437 111.816406c1.429688 3.046875-.796875 6.546875-4.160156 6.546875zm0 0" fill="#fee55a"/><g fill="#ffd301"><path d="m218.5625 117.71875c-1.652344-3.523438-6.667969-3.523438-8.320312 0l-10.839844 23.132812.152344.324219c.402343.378907.757812.839844 1.015624 1.398438l52.402344 111.816406c1.425782 3.046875-.796875 6.542969-4.160156 6.542969h30c3.363281 0 5.585938-3.496094 4.160156-6.542969zm0 0"/><path d="m367.136719 433.988281-56.234375-120.003906c-.757813-1.613281-2.378906-2.644531-4.160156-2.644531h-30.003907c1.785157 0 3.40625 1.03125 4.160157 2.644531l56.238281 120.003906c5.90625 12.605469 20.910156 18.035157 33.515625 12.128907 1.546875-.726563 2.980468-1.589844 4.304687-2.566407-3.257812-2.40625-5.980469-5.636719-7.820312-9.5625zm0 0"/><path d="m40.046875 412.601562 163.546875-348.992187c.007812-.019531.019531-.035156.027344-.054687 1.894531-4.019532 4.621094-7.199219 7.828125-9.546876-12.035157-8.914062-30.742188-5.496093-37.828125 9.546876-.011719.019531-.019532.035156-.03125.054687l-163.542969 348.992187c-5.90625 12.601563-.476563 27.609376 12.128906 33.515626 8.679688 4.066406 18.496094 2.757812 25.695313-2.566407-9.460938-6.988281-13.003906-19.890625-7.824219-30.949219zm0 0"/></g><path d="m399.050781 504.5c-7.667969 0-13.882812-6.214844-13.882812-13.882812v-469.234376c0-7.667968 6.214843-13.882812 13.882812-13.882812 7.664063 0 13.878907 6.214844 13.878907 13.882812v469.234376c0 7.667968-6.214844 13.882812-13.878907 13.882812zm0 0" fill="#8cc9f9"/><path d="m403.667969 490.617188v-469.234376c0-4.109374 1.792969-7.789062 4.628906-10.332031-2.457031-2.199219-5.691406-3.550781-9.25-3.550781-7.664063 0-13.878906 6.214844-13.878906 13.882812v469.234376c0 7.667968 6.214843 13.882812 13.878906 13.882812 3.558594 0 6.792969-1.351562 9.25-3.550781-2.832031-2.542969-4.628906-6.222657-4.628906-10.332031zm0 0" fill="#60b8fe"/><path d="m262.203125 264.960938c1.378906-2.167969 1.550781-4.882813.460937-7.207032l-59.625-127.242187c-1.234374-2.632813-3.882812-4.316407-6.792968-4.316407-2.90625 0-5.554688 1.683594-6.789063 4.316407l-59.628906 127.242187c-1.089844 2.320313-.914063 5.039063.460937 7.207032 1.378907 2.164062 3.765626 3.476562 6.332032 3.476562h119.253906c2.5625 0 4.953125-1.3125 6.328125-3.476562zm-113.785156-11.527344 47.828125-102.0625 47.828125 102.0625zm0 0"/><path d="m377.5 21.382812v362.628907c-37.65625-80.363281-151.457031-323.199219-151.675781-323.652344-5.441407-11.554687-16.746094-18.730469-29.496094-18.730469-12.800781.003906-24.125 7.117188-29.59375 18.585938-.003906.011718-.011719.027344-.019531.039062-.027344.054688-.054688.113282-.082032.171875l-163.542968 348.992188c-7.652344 16.328125-.59375 35.839843 15.734375 43.488281 16.324219 7.65625 35.835937.59375 43.488281-15.734375l55.453125-118.332031h56.820313c4.144531 0 7.5-3.359375 7.5-7.5s-3.355469-7.5-7.5-7.5h-61.589844c-2.90625 0-5.554688 1.683594-6.789063 4.316406l-57.472656 122.652344c-4.144531 8.835937-14.703125 12.660156-23.542969 8.515625-8.839844-4.140625-12.660156-14.699219-8.519531-23.539063l163.484375-348.863281c.027344-.058594.054688-.113281.082031-.167969 3.515625-7.460937 10.617188-10.121094 16.09375-10.121094 6.984375 0 12.9375 3.78125 15.929688 10.128907.539062 1.140625 161.039062 343.636719 163.5625 349.019531 4.140625 8.839844.320312 19.402344-8.519531 23.542969-8.863282 4.152343-19.390626.34375-23.542969-8.515625l-57.476563-122.652344c-1.234375-2.632812-3.882812-4.316406-6.789062-4.316406h-69.90625c-4.144532 0-7.5 3.359375-7.5 7.5 0 4.144531 3.355468 7.5 7.5 7.5h65.136718l55.453126 118.332031c7.621093 16.269531 27.019531 23.453125 43.488281 15.738281 1.34375-.628906 2.617187-1.347656 3.832031-2.128906v39.835938c0 11.792968 9.59375 21.382812 21.382812 21.382812 11.789063 0 21.382813-9.589844 21.382813-21.382812v-217.117188c0-4.140625-3.355469-7.5-7.5-7.5s-7.5 3.359375-7.5 7.5v217.117188c0 3.519531-2.863281 6.382812-6.382813 6.382812-3.519531 0-6.382812-2.863281-6.382812-6.382812v-469.234376c0-3.519531 2.863281-6.382812 6.382812-6.382812 3.519532 0 6.382813 2.863281 6.382813 6.382812v217.117188c0 4.140625 3.355469 7.5 7.5 7.5s7.5-3.359375 7.5-7.5v-217.117188c0-11.789062-9.59375-21.382812-21.382813-21.382812-11.789062 0-21.382812 9.59375-21.382812 21.382812zm0 0"/></svg>