<svg height="512pt" viewBox="0 0 512 511" width="512pt" xmlns="http://www.w3.org/2000/svg"><path d="m177.769531 366.996094-32.09375-32.097656c-35.074219-20.800782-81.070312-16.125-111.230469 14.039062-35.703124 35.703125-35.703124 93.589844 0 129.289062 35.703126 35.703126 93.585938 35.703126 129.289063 0 30.160156-30.160156 34.839844-76.15625 14.035156-111.230468zm0 0" fill="#fee55a"/><path d="m64.441406 348.9375c14.027344-14.027344 31.480469-22.535156 49.664063-25.539062-28.109375-4.65625-57.976563 3.855468-79.664063 25.539062-35.699218 35.703125-35.699218 93.589844 0 129.289062 21.683594 21.683594 51.539063 30.171876 79.648438 25.519532-73.015625-12.082032-102.285156-102.171875-49.648438-154.808594zm0 0" fill="#ffd301"/><path d="m146.070312 397.785156-31.183593-31.183594c-17.269531-5.792968-37.09375-1.820312-50.847657 11.933594-19.355468 19.355469-19.355468 50.742188 0 70.097656 19.359376 19.355469 50.742188 19.355469 70.097657 0 13.753906-13.753906 17.722656-33.578124 11.933593-50.847656zm0 0" fill="#ffd301"/><path d="m94.039062 378.535156c5.8125-5.8125 12.707032-9.871094 20.039063-12.191406-17.078125-5.402344-36.5-1.351562-50.039063 12.191406-19.355468 19.355469-19.355468 50.738282 0 70.097656 13.542969 13.542969 32.96875 17.597657 50.050782 12.1875-35.363282-11.195312-46.296875-56.039062-20.050782-82.285156zm0 0" fill="#ffc20c"/><path d="m496.125 16.546875c-11.507812-11.507813-30.207031-11.371094-41.542969.304687l-272.464843 280.527344 33.175781 33.175782 280.527343-272.464844c11.675782-11.339844 11.8125-30.035156.304688-41.542969zm0 0" fill="#695d67"/><path d="m454.582031 16.851562-272.464843 280.527344 15.21875 15.21875 287.246093-295.746094c1.804688-1.859374 3.796875-3.421874 5.917969-4.695312-11.335938-6.808594-26.28125-5.226562-35.917969 4.695312zm0 0" fill="#544e55"/><path d="m182.613281 296.871094-88.441406 91.058594c-8.234375 8.476562-8.136719 21.992187.21875 30.347656 8.359375 8.359375 21.875 8.457031 30.351563.222656l91.058593-88.441406zm0 0" fill="#dfebfa"/><path d="m124.6875 418.546875c-.09375-.089844-.199219-.171875-.296875-.265625-8.355469-8.355469-8.453125-21.875-.21875-30.351562l73.65625-75.839844-15.21875-15.21875-88.4375 91.058594c-8.078125 8.320312-8.277344 21.851562.21875 30.351562 8.234375 8.230469 21.714844 8.546875 30.296875.265625zm0 0" fill="#b1dbfc"/><path d="m7.5 317.421875h5.550781v5.546875c0 4.144531 3.355469 7.5 7.5 7.5 4.140625 0 7.5-3.355469 7.5-7.5v-5.546875h5.546875c4.140625 0 7.5-3.359375 7.5-7.5 0-4.144531-3.359375-7.5-7.5-7.5h-5.546875v-5.550781c0-4.140625-3.359375-7.5-7.5-7.5-4.144531 0-7.5 3.359375-7.5 7.5v5.550781h-5.550781c-4.144531 0-7.5 3.355469-7.5 7.5 0 4.140625 3.355469 7.5 7.5 7.5zm0 0"/><path d="m221.746094 493.917969c4.144531 0 7.5-3.359375 7.5-7.5v-5.550781h5.546875c4.144531 0 7.5-3.355469 7.5-7.5 0-4.140626-3.355469-7.5-7.5-7.5h-5.546875v-5.546876c0-4.144531-3.355469-7.5-7.5-7.5-4.144532 0-7.5 3.355469-7.5 7.5v5.546876h-5.546875c-4.144531 0-7.5 3.359374-7.5 7.5 0 4.144531 3.355469 7.5 7.5 7.5h5.546875v5.550781c0 4.140625 3.359375 7.5 7.5 7.5zm0 0"/><path d="m253.726562 427.0625v-16.980469h16.980469c4.140625 0 7.5-3.355469 7.5-7.5 0-4.140625-3.359375-7.5-7.5-7.5h-16.980469v-16.976562c0-4.144531-3.355468-7.5-7.5-7.5-4.144531 0-7.5 3.355469-7.5 7.5v16.976562h-16.980468c-4.140625 0-7.5 3.359375-7.5 7.5 0 4.144531 3.359375 7.5 7.5 7.5h16.980468v16.980469c0 4.144531 3.355469 7.5 7.5 7.5 4.144532 0 7.5-3.355469 7.5-7.5zm0 0"/><path d="m168.871094 483.53125c30.578125-30.578125 37.613281-77.132812 18.054687-115.132812l131.378907-127.601563c2.972656-2.886719 3.039062-7.636719.15625-10.605469-2.886719-2.96875-7.636719-3.039062-10.605469-.15625l-92.144531 89.496094-22.738282-22.734375 266.820313-274.71875c8.320312-8.566406 22.175781-8.910156 30.859375-.226563 4.136718 4.132813 6.386718 9.628907 6.347656 15.476563-.042969 5.847656-2.378906 11.308594-6.570312 15.382813l-157.464844 152.9375c-2.972656 2.886718-3.039063 7.632812-.152344 10.605468 2.886719 2.96875 7.632812 3.039063 10.601562.152344l157.46875-152.9375c7.097657-6.894531 11.042969-16.136719 11.117188-26.03125.070312-9.894531-3.742188-19.195312-10.738281-26.195312-14.378907-14.375-37.871094-14.398438-52.226563.382812-10.050781 10.347656-289.789062 298.367188-304.933594 313.957031-8.246093-4.234375-17.046874-7.296875-26.253906-9.082031-4.070312-.792969-8 1.867188-8.789062 5.933594-.789063 4.066406 1.867187 8.003906 5.933594 8.792968 6.28125 1.21875 12.339843 3.125 18.105468 5.6875l-20.628906 21.238282c-19.355469-4.753906-39.632812.808594-53.898438 15.078125-22.25 22.25-22.25 58.453125 0 80.703125 22.25 22.253906 58.453126 22.25 80.703126 0 14.269531-14.269532 19.832031-34.550782 15.078124-53.898438l21.246094-20.636718c14.050782 31.417968 7.503906 68.6875-17.335937 93.527343-32.746094 32.746094-85.988281 32.691407-118.683594 0-15.847656-15.851562-24.578125-36.925781-24.578125-59.339843 0-22.417969 8.730469-43.492188 24.582031-59.34375 11.871094-11.875 26.832031-19.835938 43.269531-23.023438 4.066407-.789062 6.722657-4.726562 5.933594-8.789062-.789062-4.066407-4.726562-6.722657-8.792968-5.9375-19.378907 3.761718-37.019532 13.148437-51.019532 27.144531-18.683594 18.679687-28.972656 43.523437-28.972656 69.949219 0 26.421874 10.289062 51.261718 28.972656 69.945312 38.605469 38.601562 101.359375 38.535156 139.898438 0zm-40.203125-40.203125c-16.402344 16.402344-43.089844 16.402344-59.492188 0-16.402343-16.402344-16.402343-43.089844 0-59.488281 8.050781-8.050782 18.699219-12.347656 29.648438-12.347656.226562 0 .457031.003906.683593.007812l-10.882812 11.203125c-7.707031 7.9375-9.957031 19.285156-6.789062 29.222656 6.601562 20.71875 32.773437 26.703125 47.964843 11.957031l11.203125-10.882812c.183594 11.1875-4.117187 22.109375-12.335937 30.328125zm43.714843-81.714844s0 0-.003906.003907l-31.699218 30.785156v.003906l-21.328126 20.714844c-5.503906 5.34375-14.398437 5.277344-19.820312-.144532-1.355469-1.359374-2.378906-2.929687-3.0625-4.613281-2.058594-5.046875-1.089844-11.082031 2.917969-15.210937l83.136719-85.597656 22.425781 22.425781zm0 0"/></svg>