<svg height="511pt" viewBox="-74 1 511 511.999" width="511pt" xmlns="http://www.w3.org/2000/svg"><path d="m131.082031 7.5h-109.257812c-7.515625 0-13.660157 6.144531-13.660157 13.65625v109.257812c0 7.511719 6.148438 13.65625 13.660157 13.65625h109.257812c7.511719 0 13.65625-6.144531 13.65625-13.65625v-109.257812c0-7.511719-6.144531-13.65625-13.65625-13.65625zm0 0" fill="#60b8fe"/><path d="m131.082031 187.714844h-109.257812c-7.515625 0-13.660157 6.144531-13.660157 13.65625v109.257812c0 7.511719 6.148438 13.65625 13.660157 13.65625h109.257812c7.511719 0 13.65625-6.144531 13.65625-13.65625v-109.257812c0-7.511719-6.144531-13.65625-13.65625-13.65625zm0 0" fill="#60b8fe"/><path d="m131.082031 367.929688h-109.257812c-7.515625 0-13.660157 6.144531-13.660157 13.65625v109.257812c0 7.511719 6.148438 13.65625 13.660157 13.65625h109.257812c7.511719 0 13.65625-6.144531 13.65625-13.65625v-109.257812c0-7.511719-6.144531-13.65625-13.65625-13.65625zm0 0" fill="#b1dbfc"/><path d="m37.664062 130.414062v-109.257812c0-7.511719 6.148438-13.65625 13.660157-13.65625h-29.5c-7.515625 0-13.660157 6.144531-13.660157 13.65625v109.257812c0 7.511719 6.148438 13.65625 13.660157 13.65625h29.5c-7.511719.003907-13.660157-6.144531-13.660157-13.65625zm0 0" fill="#23a8fe"/><path d="m37.664062 310.628906v-109.257812c0-7.511719 6.148438-13.65625 13.660157-13.65625h-29.5c-7.515625 0-13.660157 6.144531-13.660157 13.65625v109.257812c0 7.511719 6.148438 13.65625 13.660157 13.65625h29.5c-7.511719 0-13.660157-6.144531-13.660157-13.65625zm0 0" fill="#23a8fe"/><path d="m37.664062 490.84375v-109.257812c0-7.511719 6.148438-13.65625 13.660157-13.65625h-29.5c-7.515625 0-13.660157 6.144531-13.660157 13.65625v109.257812c0 7.511719 6.148438 13.65625 13.660157 13.65625h29.5c-7.511719 0-13.660157-6.144531-13.660157-13.65625zm0 0" fill="#8cc9f9"/><path d="m108.597656 399.242188h-66.109375c-2.664062 0-4.820312 2.109374-4.820312 4.710937v64.519531c0 2.601563 2.15625 4.710938 4.820312 4.710938h66.109375c2.664063 0 4.824219-2.109375 4.824219-4.710938v-64.519531c0-2.601563-2.160156-4.710937-4.824219-4.710937zm0 0" fill="#60b8fe"/><path d="m67.890625 468.476562v-64.523437c0-2.601563 2.160156-4.707031 4.824219-4.707031h-30.226563c-2.664062 0-4.824219 2.105468-4.824219 4.707031v64.523437c0 2.597657 2.160157 4.707032 4.824219 4.707032h30.226563c-2.664063 0-4.824219-2.109375-4.824219-4.707032zm0 0" fill="#23a8fe"/><path d="m265.363281 90.5625c-1.75-1.300781-2.292969-3.683594-1.234375-5.589844l13.800782-24.832031c1.746093-3.144531-.886719-6.917969-4.441407-6.371094l-86.339843 13.378907c-2.820313.4375-4.449219 3.429687-3.285157 6.035156l35.179688 78.683594c1.457031 3.253906 5.996093 3.449218 7.726562.335937l13.949219-25.101563c1.296875-2.332031 4.375-2.949218 6.46875-1.296874 108.503906 85.738281 92.832031 274.765624-28.304688 343.046874-1.09375.617188-1.609374 2.003907-1.019531 3.113282.570313 1.066406 1.851563 1.496094 2.925781 1.035156 157.230469-67.535156 182.402344-280.289062 44.574219-382.4375zm0 0" fill="#fee55a"/><path d="m226.765625 152.203125 13.953125-25.105469c.433594-.78125 1.078125-1.351562 1.8125-1.726562l-27.933594-62.476563-27.449218 4.25c-2.820313.4375-4.449219 3.433594-3.285157 6.039063l35.179688 78.683594c1.453125 3.25 5.996093 3.449218 7.722656.335937zm0 0" fill="#ffd301"/><path d="m278.347656 115.316406c-.253906-.226562-.519531-.449218-.8125-.667968-17.320312-12.726563-32.664062 10.242187-32.664062 10.242187l-.003906.015625c.8125.066406 1.621093.34375 2.316406.894531 108.578125 85.796875 92.722656 274.832031-28.300782 343.050781-1.097656.617188-1.613281 2-1.019531 3.109376.570313 1.070312 1.851563 1.5 2.925781 1.035156 9.464844-4.0625 18.605469-8.777344 27.371094-14.085938.207032-.496094.574219-.933594 1.070313-1.210937 120.613281-67.980469 136.902343-256.125 29.117187-342.382813zm0 0" fill="#ffd301"/><path d="m.5 490.84375c0 11.664062 9.492188 21.15625 21.15625 21.15625h109.257812c11.667969 0 21.15625-9.492188 21.15625-21.15625v-109.257812c0-11.667969-9.488281-21.160157-21.15625-21.160157h-109.257812c-11.664062 0-21.15625 9.492188-21.15625 21.160157zm15-109.257812c0-3.398438 2.761719-6.160157 6.15625-6.160157h109.257812c3.394532 0 6.15625 2.761719 6.15625 6.160157v109.257812c0 3.394531-2.761718 6.15625-6.15625 6.15625h-109.257812c-3.394531 0-6.15625-2.761719-6.15625-6.15625zm0 0"/><path d="m44.023438 480.683594h64.523437c6.730469 0 12.207031-5.476563 12.207031-12.207032v-64.523437c0-6.730469-5.476562-12.207031-12.207031-12.207031h-64.523437c-6.730469 0-12.207032 5.476562-12.207032 12.207031v64.523437c0 6.730469 5.476563 12.207032 12.207032 12.207032zm2.792968-73.9375h58.9375v58.9375h-58.9375zm0 0"/><path d="m272.175781 46.359375-86.34375 13.375c-7.707031 1.195313-12.167969 9.386719-8.980469 16.507813l35.179688 78.6875c3.972656 8.886718 16.398438 9.425781 21.128906.917968l12.117188-21.808594c101.125 83.703126 84.925781 263.363282-30.242188 328.277344-4.660156 2.628906-6.433594 8.542969-3.949218 13.183594 2.421874 4.527344 7.800781 6.40625 12.496093 4.390625 160.96875-69.140625 188.65625-287.023437 48.289063-393.703125l12.449218-22.402344c4.777344-8.597656-2.429687-18.929687-12.144531-17.425781zm8.328125 378.410156c72.46875-93.148437 59.105469-235.363281-28.832031-304.851562-2.105469-1.664063-4.6875-2.546875-7.324219-2.546875-.773437 0-1.554687.074218-2.328125.230468-3.410156.683594-6.332031 2.816407-8.019531 5.855469l-10.867188 19.550781-30.886718-69.085937 75.808594-11.742187-10.644532 19.148437c-2.871094 5.167969-1.445312 11.726563 3.324219 15.261719 107.589844 79.734375 116.460937 236.640625 19.769531 328.179687zm0 0"/><path d="m21.65625 15h37.128906c4.144532 0 7.5-3.359375 7.5-7.5s-3.355468-7.5-7.5-7.5h-37.128906c-11.664062 0-21.15625 9.492188-21.15625 21.15625v109.257812c0 11.667969 9.492188 21.160157 21.15625 21.160157h109.257812c11.667969 0 21.15625-9.492188 21.15625-21.160157v-109.257812c0-11.664062-9.488281-21.15625-21.15625-21.15625h-37.128906c-4.144531 0-7.5 3.359375-7.5 7.5s3.355469 7.5 7.5 7.5h37.128906c3.394532 0 6.15625 2.761719 6.15625 6.15625v109.257812c0 3.398438-2.761718 6.160157-6.15625 6.160157h-109.257812c-3.394531 0-6.15625-2.761719-6.15625-6.160157v-109.257812c0-3.394531 2.761719-6.15625 6.15625-6.15625zm0 0"/><path d="m.5 310.628906c0 11.667969 9.492188 21.15625 21.15625 21.15625h109.257812c11.667969 0 21.15625-9.488281 21.15625-21.15625v-37.128906c0-4.140625-3.355468-7.5-7.5-7.5-4.140624 0-7.5 3.359375-7.5 7.5v37.128906c0 3.394532-2.761718 6.15625-6.15625 6.15625h-109.257812c-3.394531 0-6.15625-2.761718-6.15625-6.15625v-109.257812c0-3.394532 2.761719-6.15625 6.15625-6.15625h109.257812c3.394532 0 6.15625 2.761718 6.15625 6.15625v37.128906c0 4.140625 3.359376 7.5 7.5 7.5 4.144532 0 7.5-3.359375 7.5-7.5v-37.128906c0-11.667969-9.488281-21.15625-21.15625-21.15625h-109.257812c-11.664062 0-21.15625 9.488281-21.15625 21.15625zm0 0"/></svg>