<svg height="512pt" viewBox="0 0 512 512" width="512pt" xmlns="http://www.w3.org/2000/svg"><path d="m398.5625 242.738281h-129.132812v-129.136719h-26.527344v129.136719h-130.132813v26.523438h130.132813v130.136719h26.527344v-130.136719h129.132812zm0 0" fill="#b1dbfc"/><path d="m112.769531 242.738281h17.5v26.523438h-17.5zm0 0" fill="#8cc9f9"/><path d="m260.402344 234.8125v-121.210938h-17.5v129.136719h9.574218c4.378907 0 7.925782-3.550781 7.925782-7.925781zm0 0" fill="#8cc9f9"/><path d="m252.476562 269.261719h-9.574218v130.136719h17.5v-122.210938c0-4.375-3.546875-7.925781-7.925782-7.925781zm0 0" fill="#8cc9f9"/><g fill="#4f67d2"><path d="m337.914062 101.457031-75.089843-90.820312c-3.453125-4.179688-9.863281-4.179688-13.316407 0l-75.089843 90.820312c-4.660157 5.632813-.652344 14.144531 6.65625 14.144531h150.183593c7.308594 0 11.316407-8.511718 6.65625-14.144531zm0 0"/><path d="m337.914062 410.542969-75.089843 90.820312c-3.453125 4.179688-9.863281 4.179688-13.316407 0l-75.089843-90.820312c-4.660157-5.632813-.652344-14.144531 6.65625-14.144531h150.183593c7.308594 0 11.316407 8.511718 6.65625 14.144531zm0 0"/><path d="m101.621094 174.25-90.820313 75.089844c-4.179687 3.457031-4.179687 9.863281 0 13.320312l90.820313 75.089844c5.632812 4.65625 14.148437.652344 14.148437-6.660156v-150.179688c0-7.3125-8.515625-11.316406-14.148437-6.660156zm0 0"/><path d="m410.710938 174.25 90.820312 75.089844c4.179688 3.457031 4.179688 9.863281 0 13.320312l-90.820312 75.089844c-5.636719 4.65625-14.148438.652344-14.148438-6.660156v-150.179688c0-7.3125 8.511719-11.316406 14.148438-6.660156zm0 0"/></g><path d="m204.667969 101.457031 66.621093-80.582031-8.464843-10.238281c-3.457031-4.179688-9.863281-4.179688-13.316407 0l-75.089843 90.820312c-4.660157 5.632813-.652344 14.144531 6.65625 14.144531h30.25c-7.308594 0-11.316407-8.511718-6.65625-14.144531zm0 0" fill="#324ccc"/><path d="m204.667969 410.542969c-4.660157-5.632813-.652344-14.144531 6.65625-14.144531h-30.25c-7.308594 0-11.316407 8.511718-6.65625 14.144531l75.089843 90.820312c3.457032 4.179688 9.863282 4.179688 13.316407 0l8.464843-10.238281zm0 0" fill="#324ccc"/><path d="m41.050781 262.660156c-4.179687-3.457031-4.179687-9.863281 0-13.320312l74.71875-61.773438v-6.65625c0-7.3125-8.511719-11.316406-14.148437-6.660156l-90.820313 75.089844c-4.179687 3.457031-4.179687 9.863281 0 13.320312l90.820313 75.089844c5.636718 4.65625 14.148437.652344 14.148437-6.660156v-6.65625zm0 0" fill="#324ccc"/><path d="m426.8125 187.566406-16.101562-13.316406c-5.636719-4.65625-14.148438-.652344-14.148438 6.660156v150.179688c0 7.3125 8.515625 11.316406 14.148438 6.660156l16.101562-13.316406zm0 0" fill="#324ccc"/><path d="m5.855469 268.4375 90.820312 75.089844c2.972657 2.460937 6.585938 3.726562 10.246094 3.726562 2.332031 0 4.6875-.515625 6.914063-1.5625 5.714843-2.6875 9.265624-8.285156 9.265624-14.601562v-54.328125h112.136719v112.136719h-54.328125c-6.316406 0-11.914062 3.550781-14.605468 9.265624-2.6875 5.714844-1.859376 12.289063 2.167968 17.160157l75.085938 90.816406c3.078125 3.722656 7.613281 5.855469 12.4375 5.859375h.003906c4.828125 0 9.363281-2.136719 12.4375-5.855469l75.089844-90.820312c4.027344-4.871094 4.855468-11.445313 2.164062-17.160157-2.6875-5.714843-8.285156-9.265624-14.601562-9.265624h-54.328125v-112.136719h33.28125c4.144531 0 7.5-3.355469 7.5-7.5 0-4.140625-3.355469-7.5-7.5-7.5h-40.78125c-4.144531 0-7.5 3.359375-7.5 7.5v119.636719h-11.523438v-119.636719c0-4.140625-3.359375-7.5-7.5-7.5h-119.636719v-11.523438h119.636719c4.144531 0 7.5-3.355469 7.5-7.5v-119.636719h11.523438v39.527344c0 4.144532 3.359375 7.5 7.5 7.5 4.144531 0 7.5-3.355468 7.5-7.5v-39.527344h54.328125c6.316406 0 11.914062-3.550781 14.605468-9.265624 2.6875-5.714844 1.859376-12.289063-2.164062-17.160157l-75.089844-90.816406c-3.078125-3.722656-7.613281-5.859375-12.445312-5.859375-4.824219 0-9.359375 2.136719-12.4375 5.855469l-75.089844 90.820312c-4.023438 4.867188-4.855469 11.441407-2.164062 17.160157 2.691406 5.714843 8.289062 9.265624 14.605468 9.265624h54.324219v112.136719h-112.132813v-54.328125c0-6.316406-3.550781-11.914062-9.265624-14.605468-5.71875-2.6875-12.292969-1.859376-17.160157 2.167968l-90.820312 75.089844c-3.71875 3.074219-5.855469 7.609375-5.855469 12.4375s2.136719 9.363281 5.855469 12.4375zm263.40625 135.460938h61.828125c.199218 0 .722656 0 1.03125.652343.308594.65625-.027344 1.0625-.152344 1.214844l-75.089844 90.820313c-.226562.273437-.523437.414062-.878906.414062s-.652344-.140625-.878906-.414062l-75.089844-90.820313c-.128906-.152344-.460938-.558594-.152344-1.210937.308594-.65625.832032-.65625 1.03125-.65625zm-88.351563-295.796876c-.199218 0-.726562 0-1.03125-.652343-.308594-.65625.023438-1.0625.152344-1.214844l75.089844-90.820313c.226562-.273437.523437-.414062.878906-.414062s.652344.140625.878906.414062l75.089844 90.820313c.128906.152344.460938.558594.152344 1.214844-.308594.652343-.832032.652343-1.03125.652343h-61.808594c-.007812 0-.011719 0-.019531 0h-26.523438c-.007812 0-.011719 0-.019531 0zm-165.496094 147.019532 90.820313-75.089844c.105469-.089844.339844-.28125.691406-.28125.152344 0 .324219.035156.519531.128906.65625.308594.65625.832032.65625 1.03125v150.179688c0 .195312 0 .722656-.65625 1.03125-.65625.304687-1.058593-.027344-1.210937-.152344l-90.820313-75.089844c-.273437-.226562-.414062-.523437-.414062-.878906s.140625-.652344.414062-.878906zm0 0"/><path d="m506.144531 243.5625-90.820312-75.089844c-4.867188-4.027344-11.441407-4.855468-17.160157-2.167968-5.714843 2.691406-9.265624 8.289062-9.265624 14.605468v54.328125h-112.136719v-37.609375c0-4.144531-3.355469-7.5-7.5-7.5-4.140625 0-7.5 3.355469-7.5 7.5v45.109375c0 4.140625 3.359375 7.5 7.5 7.5h119.636719v11.523438h-43.851563c-4.144531 0-7.5 3.355469-7.5 7.5s3.355469 7.5 7.5 7.5h43.851563v54.328125c0 6.316406 3.550781 11.914062 9.265624 14.601562 2.226563 1.046875 4.578126 1.5625 6.914063 1.5625 3.660156 0 7.273437-1.265625 10.246094-3.726562l90.820312-75.085938c3.71875-3.078125 5.855469-7.613281 5.855469-12.441406s-2.136719-9.363281-5.855469-12.4375zm-9.558593 13.316406-90.820313 75.089844c-.152344.128906-.5625.460938-1.214844.152344-.652343-.308594-.652343-.832032-.652343-1.03125v-150.179688c0-.199218 0-.726562.65625-1.03125.191406-.09375.367187-.128906.519531-.128906.351562 0 .582031.191406.691406.28125l90.820313 75.089844c.273437.226562.414062.523437.414062.878906s-.140625.652344-.414062.878906zm0 0"/></svg>