<svg height="512pt" viewBox="-14 0 512 512.00021" width="512pt" xmlns="http://www.w3.org/2000/svg"><path d="m8.921875 133.027344c29.707031-60.914063 83.726563-106.242188 148.871094-124.917969h.003906c6.5625-1.882813 13.253906 2.792969 13.789063 9.636719l9.605468 122.675781c-3.820312-.621094-7.859375.332031-11.046875 3.003906l-30.105469 25.261719c-3.183593 2.671875-4.824218 6.484375-4.875 10.355469l-119.144531-30.761719c-6.644531-1.71875-10.089843-9.117188-7.097656-15.253906zm0 0" fill="#ffbb7e"/><path d="m50.902344 132.433594c-6.648438-1.714844-10.089844-9.117188-7.097656-15.253906 21.671874-44.433594 56.285156-80.558594 98.714843-104.109376-58.277343 21.023438-106.246093 63.875-133.597656 119.957032-2.992187 6.136718.453125 13.535156 7.097656 15.253906l119.144531 30.761719c.050782-3.871094 1.691407-7.683594 4.875-10.355469l12.066407-10.121094zm0 0" fill="#ffa85d"/><path d="m87.914062 165.539062c17.597657-36.082031 49.59375-62.929687 88.183594-73.992187.183594-.066406.699219-.175781 1.25-.222656l3.84375 49.097656c-3.820312-.621094-7.859375.328125-11.042968 3l-30.109376 25.265625c-3.183593 2.671875-4.824218 6.484375-4.871093 10.355469l-47.683594-12.3125c.105469-.402344.242187-.800781.429687-1.191407zm0 0" fill="#ffa85d"/><path d="m87.914062 165.539062c-.1875.390626-.324218.789063-.429687 1.191407l47.679687 12.3125c.050782-3.871094 1.691407-7.683594 4.875-10.355469l8.96875-7.527344 3.097657-2.597656-52.011719-13.429688c-4.585938 6.40625-8.671875 13.21875-12.179688 20.40625zm0 0" fill="#ff9839"/><path d="m423.40625 62.757812c20.859375-1.726562 35.519531-5.074218 45.78125-8.738281 3.625-1.292969 7.238281 1.738281 6.59375 5.53125-1.828125 10.746094-2.578125 25.761719-.65625 46.601563 3.542969 38.421875-22.109375 58.109375-41.707031 67.445312-7.925781 3.777344-16.820313 4.144532-24.796875 1.425782-.746094-2.441407-2.167969-4.707032-4.269532-6.46875-29.097656-23.515626-30.195312-27.476563-37.21875-28.347657-4.0625-7.382812-5.246093-16.207031-2.902343-24.664062 5.789062-20.921875 20.726562-49.601563 59.175781-52.785157zm0 0" fill="#fee55a"/><path d="m434.015625 168.554688-30.109375-25.261719c-.523438-.441407-1.074219-.835938-1.640625-1.183594-4.925781-3.011719-8.539063-7.828125-9.289063-13.554687-.558593-4.273438-.28125-8.691407.914063-13.015626 5.792969-20.917968 20.730469-49.597656 59.179687-52.785156 8.558594-.707031 16.058594-1.691406 22.652344-2.855468.019532-.113282.035156-.234376.058594-.347657.644531-3.792969-2.96875-6.824219-6.59375-5.53125-10.261719 3.664063-24.921875 7.007813-45.78125 8.734375-38.449219 3.1875-53.386719 31.867188-59.175781 52.785156-2.34375 8.460938-1.160157 17.285157 2.902343 24.667969 7.03125.871094 7.804688 4.574219 37.21875 28.347657 2.097657 1.761718 3.519532 4.023437 4.269532 6.46875 7.976562 2.714843 16.871094 2.351562 24.796875-1.425782 1.128906-.539062 2.28125-1.113281 3.441406-1.722656-.742187-1.222656-1.6875-2.347656-2.84375-3.320312zm0 0" fill="#ffd301"/><path d="m446.96875 468.390625c-7.648438-9.605469-253.910156-318.839844-258.109375-324.109375-4.828125-6.066406-13.710937-6.960938-19.652344-1.976562l-30.105469 25.265624c-5.941406 4.984376-6.605468 13.882813-1.46875 19.695313 10.503907 11.886719 261.046876 295.398437 274.363282 310.46875 7.128906 8.070313 19.390625 8.984375 27.640625 2.0625l4.5625-3.832031c8.25-6.921875 9.476562-19.152344 2.769531-27.574219zm0 0" fill="#bc7c63"/><path d="m441.996094 497.734375c-13.320313-15.070313-263.863282-298.582031-274.367188-310.46875-5.136718-5.8125-4.472656-14.714844 1.46875-19.699219l22.964844-19.269531c-1.847656-2.316406-2.953125-3.707031-3.203125-4.019531-4.828125-6.066406-13.710937-6.957032-19.652344-1.972656l-30.105469 25.261718c-5.941406 4.984375-6.605468 13.886719-1.46875 19.695313 10.503907 11.886719 261.046876 295.398437 274.363282 310.472656 7.128906 8.066406 19.390625 8.980469 27.640625 2.058594l2.402343-2.015625c-.015624-.011719-.03125-.027344-.042968-.042969zm0 0" fill="#ab6b51"/><path d="m139.101562 167.570312 30.105469-25.265624c5.941407-4.984376 14.824219-4.089844 19.652344 1.976562l41.539063 52.15625-48.613282 40.789062-44.152344-49.960937c-5.136718-5.8125-4.472656-14.710937 1.46875-19.695313zm0 0" fill="#ab6b51"/><path d="m137.632812 187.265625c2.578126 2.917969 19.660157 22.25 44.152344 49.960937l17.222656-14.453124c-17.53125-19.839844-29.277343-33.128907-31.378906-35.511719-5.136718-5.808594-4.472656-14.710938 1.46875-19.695313l22.964844-19.269531-3.203125-4.019531c-4.929687-6.191406-13.847656-6.84375-19.652344-1.976563l-30.109375 25.265625c-6.054687 5.085938-6.492187 14.007813-1.464844 19.699219zm0 0" fill="#965a44"/><path d="m250.359375 221.503906-47.355469 39.734375-21.21875-24.011719 48.613282-40.789062zm0 0" fill="#965a44"/><path d="m199.007812 222.773438-17.222656 14.453124 21.21875 24.011719 17.222656-14.453125c-7.714843-8.730468-14.847656-16.800781-21.21875-24.011718zm0 0" fill="#7d4c38"/><path d="m375.074219 142.304688 30.105469 25.265624c5.941406 4.984376 6.605468 13.882813 1.46875 19.695313l-274.367188 310.46875c-7.128906 8.066406-19.390625 8.980469-27.636719 2.0625l-4.5625-3.832031c-8.25-6.921875-9.476562-19.152344-2.769531-27.578125l258.109375-324.109375c4.828125-6.0625 13.710937-6.957032 19.652344-1.972656zm0 0" fill="#dfebfa"/><path d="m130.074219 495.964844c-8.246094-6.917969-9.476563-19.152344-2.765625-27.574219l254.90625-320.089844-7.140625-5.996093c-5.941407-4.984376-14.824219-4.089844-19.652344 1.976562l-258.109375 324.109375c-6.707031 8.421875-5.480469 20.652344 2.765625 27.574219l4.566406 3.832031c8.230469 6.90625 20.457031 6.007813 27.59375-2.015625zm0 0" fill="#b1dbfc"/><path d="m375.074219 142.304688 30.105469 25.265624c5.941406 4.984376 6.605468 13.882813 1.46875 19.695313l-44.152344 49.960937-48.613282-40.789062 41.535157-52.15625c4.832031-6.066406 13.714843-6.960938 19.65625-1.976562zm0 0" fill="#b1dbfc"/><path d="m331.863281 211.527344 50.351563-63.226563c-.15625-.132812-7.496094-6.292969-7.140625-5.996093-5.945313-4.988282-14.824219-4.089844-19.652344 1.976562l-41.539063 52.15625zm0 0" fill="#8cc9f9"/><path d="m341.277344 261.238281-47.355469-39.734375 19.960937-25.066406 48.613282 40.789062zm0 0" fill="#8cc9f9"/><path d="m313.882812 196.4375-19.960937 25.066406 17.980469 15.085938 19.960937-25.0625zm0 0" fill="#60b8fe"/><path d="m95.09375 501.710938 4.5625 3.828124c5.164062 4.335938 11.402344 6.460938 17.601562 6.460938 7.550782 0 15.042969-3.148438 20.476563-9.300781l134.238281-151.902344 134.238282 151.902344c5.4375 6.152343 12.925781 9.300781 20.476562 9.300781 6.199219 0 12.4375-2.125 17.601562-6.460938l4.566407-3.828124c11.449219-9.609376 13.125-26.296876 3.8125-37.992188l-71.898438-90.285156c-2.582031-3.242188-7.300781-3.777344-10.539062-1.195313s-3.773438 7.296875-1.195313 10.539063l71.902344 90.285156c4.203125 5.28125 3.449219 12.820312-1.726562 17.160156l-4.5625 3.828125c-5.171876 4.34375-12.726563 3.777344-17.199219-1.28125l-135.46875-153.296875 27.652343-31.289062 37.144532 46.640625c2.578125 3.238281 7.296875 3.773437 10.535156 1.195312 3.242188-2.582031 3.777344-7.300781 1.195312-10.539062l-38.789062-48.710938 92.382812-104.539062c2.324219-2.628907 3.914063-5.71875 4.722657-9.023438 1.09375.089844 2.191406.136719 3.285156.136719 5.851563 0 11.671875-1.285156 17.078125-3.839844 6.234375-2.941406 12.003906-6.386718 17.144531-10.234375 3.3125-2.484375 3.988281-7.183593 1.503907-10.5-2.480469-3.3125-7.179688-3.988281-10.496094-1.503906-4.332032 3.242187-9.226563 6.164063-14.550782 8.675781-5.03125 2.371094-10.628906 2.992188-16.050781 1.824219-.871093-1.570313-2.109375-3.242187-3.417969-4.566406-.472656-.480469-.96875-.941407-1.488281-1.378907l-30.105469-25.261718c-.015624-.011719-.03125-.023438-.046874-.035156-2.011719-1.679688-4.367188-2.96875-6.65625-3.761719-2.09375-5.136719-2.453126-10.757813-.992188-16.121094 5.425781-19.878906 18.855469-44.113281 52.035156-46.695313 17.058594-1.332031 31.691406-3.875 43.570313-7.582031-4.496094 34.992188 5.175781 49.246094-3.121094 70.589844-1.5 3.859375.414063 8.207031 4.273437 9.707031 3.859376 1.5 8.203126-.410156 9.707032-4.273437 10.320312-26.546875-1.097656-43.640625 4.53125-77.628907.730468-4.414062-.871094-8.757812-4.289063-11.625-3.414062-2.867187-7.972656-3.691406-12.191406-2.207031-11.289063 3.976563-25.972656 6.6875-43.644531 8.0625-32.675782 2.546875-55.878906 23.039063-65.339844 57.703125-1.867188 6.847656-1.871094 13.945313-.105469 20.695313-3.117187 1.367187-5.882812 3.472656-8.070312 6.21875-85.277344 107.085937-20.816407 26.140625-77.414063 97.210937-9.765625-12.261718-68.832031-86.433594-77.414062-97.210937-1.351563-1.699219-2.921875-3.152344-4.660156-4.34375-.867188-.59375-1.789063-1.09375-2.734376-1.550781l-8.527343-116.824219c-.402344-5.503907-3.234375-10.472657-7.769531-13.625-4.535157-3.152344-10.179688-4.074219-15.480469-2.53125-66.800781 19.453125-122.75 66.398437-153.503907 128.804687-2.441406 4.957032-2.511718 10.671875-.195312 15.6875 2.316406 5.011719 6.714844 8.664063 12.070312 10.015625l113.570313 28.6875c.855469 3.035157 2.363281 5.867188 4.519531 8.304688 2.273438 2.578125 89.824219 101.648437 92.382813 104.539062l-132.953125 166.949219c-9.3125 11.695312-7.636719 28.382812 3.816406 37.992188zm266.027344-352.761719c2.390625-3.003907 6.515625-2.953125 8.964844-.898438l30.105468 25.261719c2.679688 2.25 3.042969 6.304688.671875 8.988281l-39.3125 44.484375-37.414062-31.394531zm-46.332032 58.179687c5.34375 4.484375 31.488282 26.417969 36.824219 30.898438l-11.28125 12.765625-36.15625-30.335938zm-297.359374-66.433594c-1.292969-.324218-1.886719-1.246093-2.128907-1.765624-.238281-.519532-.554687-1.566407.035157-2.761719 28.898437-58.644531 81.472656-102.757813 144.242187-121.035157.324219-.09375.632813-.132812.914063-.132812.832031 0 1.464843.335938 1.8125.578125.472656.328125 1.273437 1.074219 1.371093 2.402344l4.890625 66.976562c-36.839844 12.023438-67.792968 37.996094-86.03125 72.1875zm116.5 21.300782c-2.21875 1.902344-3.988282 4.191406-5.261719 6.796875l-31.109375-7.855469c16-28.09375 41.6875-49.652344 72.136718-60.53125l2.335938 32c-2.738281.785156-5.367188 2.128906-7.730469 4.09375-.027343.023438-.054687.039062-.078125.058594l-30.109375 25.265625c-.0625.054687-.117187.117187-.183593.171875zm9.15625 20.300781c-2.285157-2.582031-2.074219-6.609375.601562-8.921875.023438-.019531.042969-.042969.066406-.0625l30.109375-25.261719c2.667969-2.242187 6.765625-1.863281 8.964844.898438l36.980469 46.441406-37.410156 31.394531zm49.246093 55.730469 36.824219-30.898438c1.339844 1.683594-1.417969-1.785156 10.617188 13.328125l-36.15625 30.335938zm21.21875 24.011718 35.566407-29.847656 13.269531 16.664063-28.671875 36zm-110.539062 211.023438 136.871093-171.871094c5.324219-6.691406 48.242188-60.578125 54.945313-69l35.570313 29.84375c-11.59375 13.117188-44.082032 49.882813-55.59375 62.90625l-148.308594 167.824219c-4.46875 5.0625-12.027344 5.625-17.195313 1.285156l-4.566406-3.828125c-5.171875-4.339844-5.929687-11.878906-1.722656-17.160156zm0 0"/></svg>