<svg height="512pt" viewBox="-2 0 512 512" width="512pt" xmlns="http://www.w3.org/2000/svg"><path d="m300.484375 64.957031c-4.882813 0-9.132813 3.496094-9.898437 8.316407-2.550782 16.074218-16.492188 28.429687-33.363282 28.429687-16.8125 0-30.808594-12.304687-33.363281-28.4375-.761719-4.820313-5.015625-8.308594-9.894531-8.308594h-177.21875v384.589844c0 30.347656 24.601562 54.953125 54.953125 54.953125h331.046875c30.351562 0 54.953125-24.605469 54.953125-54.953125v-384.589844c-39.21875 0-141.148438 0-177.214844 0zm0 0" fill="#ff656f"/><path d="m67.410156 449.546875v-384.589844h-30.664062v384.589844c0 30.347656 24.601562 54.953125 54.953125 54.953125h30.667969c-30.351563 0-54.957032-24.605469-54.957032-54.953125zm0 0" fill="#ff4756"/><path d="m477.710938 11.058594c-74.78125 0-391.175782 0-440.976563 0-7.824219 0-14.222656 6.398437-14.222656 14.222656v28.449219c0 7.824219 6.398437 14.226562 14.222656 14.226562h177.230469c4.878906 0 9.132812 3.488281 9.894531 8.308594 2.554687 16.132813 16.550781 28.441406 33.363281 28.441406 16.871094 0 30.8125-12.359375 33.363282-28.433593.765624-4.820313 5.015624-8.316407 9.898437-8.316407h177.226563c7.824218 0 14.226562-6.398437 14.226562-14.222656v-28.453125c0-7.824219-6.402344-14.222656-14.226562-14.222656zm0 0" fill="#ff4756"/><g fill="#fc2d39"><path d="m53.175781 53.730469v-28.449219c0-7.824219 6.402344-14.222656 14.226563-14.222656-13.800782 0-24.371094 0-30.667969 0-7.824219 0-14.226563 6.398437-14.226563 14.222656v28.449219c0 7.824219 6.402344 14.226562 14.226563 14.226562h30.667969c-7.824219 0-14.226563-6.402343-14.226563-14.226562zm0 0"/><path d="m254.527344 76.265625c-.761719-4.820313-5.019532-8.308594-9.898438-8.308594h-30.667968c4.882812 0 9.136718 3.488281 9.898437 8.308594 2.550781 16.128906 16.546875 28.4375 33.363281 28.4375 5.527344 0 10.734375-1.332031 15.335938-3.679687-9.433594-4.8125-16.316406-13.917969-18.03125-24.757813zm0 0"/><path d="m500.441406 47.601562h-48.378906c-4.140625 0-7.5-3.359374-7.5-7.5 0-4.144531 3.359375-7.5 7.5-7.5h48.378906c4.140625 0 7.5 3.355469 7.5 7.5 0 4.140626-3.359375 7.5-7.5 7.5zm0 0"/><path d="m322.796875 47.601562h-308.972656c-4.140625 0-7.5-3.359374-7.5-7.5 0-4.144531 3.359375-7.5 7.5-7.5h308.972656c4.140625 0 7.5 3.355469 7.5 7.5 0 4.140626-3.359375 7.5-7.5 7.5zm0 0"/></g><path d="m438.335938 7.5h-101.8125c-7.582032 0-13.726563 6.144531-13.726563 13.726562v204.09375c0 11.167969 8.304687 20.859376 19.425781 21.9375 12.789063 1.238282 23.664063-8.894531 23.664063-21.441406v-37.101562c0-11.167969 8.304687-20.859375 19.421875-21.9375 12.789062-1.242188 23.664062 8.890625 23.664062 21.4375v2.34375c0 11.171875 8.308594 20.863281 19.425782 21.9375 12.792968 1.242187 23.664062-8.890625 23.664062-21.4375v-169.832032c0-7.582031-6.148438-13.726562-13.726562-13.726562zm0 0" fill="#fee55a"/><path d="m352.796875 225.320312v-204.09375c0-7.582031 6.144531-13.726562 13.726563-13.726562h-30c-7.582032 0-13.726563 6.144531-13.726563 13.726562v204.09375c0 11.167969 8.304687 20.859376 19.425781 21.9375 6.671875.644532 12.820313-1.808593 17.175782-6.078124-4.089844-4.058594-6.601563-9.730469-6.601563-15.859376zm0 0" fill="#ffd301"/><path d="m438.972656 190.5625v-2.347656c0-12.546875-10.875-22.679688-23.664062-21.4375-5.019532.488281-9.453125 2.738281-12.820313 6.078125 3.992188 3.917969 6.484375 9.359375 6.488281 15.359375v2.347656c0 11.171875 8.304688 20.859375 19.425782 21.9375 6.671875.648438 12.820312-1.804688 17.175781-6.078125-4.09375-4.0625-6.605469-9.734375-6.605469-15.859375zm0 0" fill="#ffd301"/><path d="m365.886719 293.199219c0 11.898437-9.648438 21.546875-21.546875 21.546875-11.898438 0-21.542969-9.648438-21.542969-21.546875 0-11.898438 9.644531-21.542969 21.542969-21.542969 11.898437 0 21.546875 9.644531 21.546875 21.542969zm0 0" fill="#fee55a"/><path d="m350.296875 293.199219c0-6.671875 3.03125-12.628907 7.792969-16.582031-3.730469-3.097657-8.519532-4.960938-13.75-4.960938-11.898438 0-21.542969 9.644531-21.542969 21.542969 0 11.902343 9.644531 21.546875 21.542969 21.546875 5.230468 0 10.019531-1.863282 13.75-4.960938-4.761719-3.953125-7.792969-9.914062-7.792969-16.585937zm0 0" fill="#ffd301"/><path d="m373.21875 293.199219c0-16.015625-13.027344-29.042969-29.042969-29.042969s-29.046875 13.027344-29.046875 29.042969 13.03125 29.042969 29.046875 29.042969 29.042969-13.027344 29.042969-29.042969zm-43.089844 0c0-7.746094 6.300782-14.042969 14.046875-14.042969 7.742188 0 14.042969 6.296875 14.042969 14.042969 0 7.742187-6.300781 14.042969-14.042969 14.042969-7.746093 0-14.046875-6.300782-14.046875-14.042969zm0 0"/><path d="m477.546875 3.558594h-27.640625c-3.363281-2.246094-7.398438-3.558594-11.738281-3.558594h-101.808594c-4.339844 0-8.375 1.3125-11.742187 3.558594h-288.050782c-11.976562 0-21.722656 9.746094-21.722656 21.722656v7.320312h-1.1875c-4.140625 0-7.5 3.355469-7.5 7.5 0 4.140626 3.359375 7.5 7.5 7.5h1.1875v6.128907c0 9.351562 5.933594 17.339843 14.234375 20.394531v135.9375c-.285156.261719-19.039063 17.390625-19.308594 17.667969-13.070312 13.511719-13.019531 34.628906.117188 48.078125 5.242187 5.371094 11.921875 8.800781 19.191406 9.953125v163.785156c0 34.4375 28.015625 62.453125 62.453125 62.453125h144.890625c4.140625 0 7.5-3.355469 7.5-7.5s-3.359375-7.5-7.5-7.5h-144.890625c-26.164062 0-47.453125-21.289062-47.453125-47.453125v-164.683594c5.628906-1.601562 10.773437-4.625 14.980469-8.886719l172.78125-172.285156c7.410156 5.695313 16.257812 8.511719 25.214844 8.511719 20.433593 0 37.574218-14.617187 40.769531-34.753906.136719-.851563.773437-1.546875 1.605469-1.839844.277343-.097656.574218-.152344.886718-.152344h14.8125v149.859375c0 .472656.011719.941406.03125 1.40625.691406 14.457032 11.9375 26.617188 26.171875 28 .476563.046875.953125.078125 1.429688.101563.300781.015625.601562.015625.90625.023437.148437 0 .300781.007813.449219.007813h.0625c.3125 0 .628906-.011719.941406-.019531.152344-.007813.300781-.011719.453125-.019532.324219-.015625.648437-.039062.976562-.066406.132813-.011719.269531-.023438.402344-.035156.335937-.03125.667969-.070313 1-.117188.121094-.015625.242187-.03125.363281-.050781.34375-.050781.683594-.105469 1.027344-.167969.097656-.015625.199219-.039062.300781-.058594.355469-.066406.714844-.140624 1.070313-.222656.0625-.015625.121094-.03125.183594-.046875 1.59375-.382812 3.15625-.902343 4.664062-1.546875.097656-.042968.199219-.082031.296875-.125.28125-.121094.554687-.253906.832031-.386718.15625-.074219.3125-.148438.46875-.226563.246094-.125.492188-.253906.734375-.382813.179688-.097656.359375-.195312.539063-.296874.222656-.125.445312-.257813.664062-.386719.199219-.121094.394532-.242188.585938-.363281.203125-.128907.402344-.257813.601562-.390626.214844-.140624.421875-.289062.632813-.433593.175781-.125.355469-.25.53125-.378907.238281-.179687.476562-.367187.710937-.550781.140625-.109375.28125-.21875.417969-.328125.371094-.304687.734375-.617187 1.089844-.941406 6.070312-5.511719 9.554687-13.34375 9.554687-21.496094v-37.101562c0-7.429688 5.554688-13.785156 12.644532-14.472656 3.992187-.378907 7.832031.886718 10.808593 3.585937 2.941407 2.671875 4.632813 6.457031 4.632813 10.386719v2.34375c0 .472656.011718.941406.035156 1.40625.6875 14.457031 11.933594 26.617187 26.167969 28 7.308593.714844 14.609375-1.40625 20.410156-5.824219.660156-.5 1.304687-1.027344 1.925781-1.585937 6.066406-5.511719 9.550782-13.347657 9.550782-21.496094v-115.601563h10.636718v168.550781c0 4.140626 3.359375 7.5 7.5 7.5 4.144532 0 7.5-3.359374 7.5-7.5v-169.882812c8.300782-3.058594 14.238282-11.046875 14.238282-20.394531v-6.128907h1.003906c4.140625 0 7.5-3.359374 7.5-7.5 0-4.144531-3.359375-7.5-7.5-7.5h-1.003906v-7.320312c-.003907-11.976562-9.75-21.722656-21.726563-21.722656zm-448.46875 266.847656c-3.175781-.925781-6.082031-2.644531-8.460937-5.082031-7.375-7.546875-7.449219-19.371094-.210938-27.011719l8.671875-7.929688zm19.347656-5.011719c-1.304687 1.324219-2.773437 2.425781-4.347656 3.3125v-193.25h169.71875c.15625 0 .308594.011719.457031.039063.742188.128906 1.382813.558594 1.742188 1.15625.144531.238281.246094.503906.289062.789062.871094 5.5 2.789063 10.582032 5.523438 15.074219zm266.703125-204.9375h-14.8125c-8.679687 0-15.957031 6.15625-17.304687 14.640625-2.03125 12.8125-12.949219 22.105469-25.953125 22.105469-4.933594 0-9.824219-1.375-14.351563-4.347656l19.644531-19.589844c2.933594-2.921875 2.941407-7.671875.015626-10.605469-2.925782-2.933594-7.671876-2.9375-10.605469-.015625l-18.792969 18.742188c-.871094-1.984375-1.515625-4.085938-1.863281-6.292969-.925781-5.832031-4.652344-10.5625-9.714844-12.949219-2.300781-1.085937-4.878906-1.6875-7.59375-1.6875h-177.230469c-3.707031 0-6.722656-3.019531-6.722656-6.726562v-6.128907h285.285156zm0-39.226562v11.371093h-285.285156v-7.320312c0-3.707031 3.015625-6.722656 6.726562-6.722656h278.730469c-.074219.5625-.171875 1.800781-.171875 2.671875zm129.265625 46.726562v123.101563c0 3.929687-1.6875 7.714844-4.632812 10.390625-2.972657 2.699219-6.8125 3.964843-10.804688 3.585937-7.09375-.6875-12.648437-7.046875-12.648437-14.472656v-2.347656c-.003906-8.152344-3.484375-15.984375-9.554688-21.496094-6.058594-5.496094-14.199218-8.199219-22.335937-7.40625-14.9375 1.449219-26.199219 14.089844-26.199219 29.402344v37.101562c0 3.929688-1.6875 7.71875-4.632812 10.390625-2.976563 2.699219-6.8125 3.964844-10.808594 3.585938-7.09375-.6875-12.648438-7.046875-12.648438-14.472657v-204.089843c0-3.390625 2.777344-6.230469 6.230469-6.230469h101.808594c3.449219 0 6.230469 2.839844 6.230469 6.230469v46.726562zm39.875-14.226562c0 3.707031-3.015625 6.726562-6.726562 6.726562h-18.148438v-12.855469h24.875zm0-21.128907h-24.875v-11.371093c0-.882813-.101562-2.144531-.167969-2.671875h18.316407c3.710937 0 6.726562 3.015625 6.726562 6.722656zm0 0"/><path d="m263.921875 504.5c0 4.144531 3.359375 7.5 7.5 7.5h151.15625c34.441406 0 62.457031-28.019531 62.457031-62.453125v-170.539063c0-4.144531-3.359375-7.5-7.5-7.5-4.144531 0-7.5 3.355469-7.5 7.5v170.539063c0 26.164063-21.289062 47.453125-47.457031 47.453125h-151.15625c-4.140625 0-7.5 3.355469-7.5 7.5zm0 0"/></svg>