<svg height="511pt" viewBox="0 0 511 511.9992" width="511pt" xmlns="http://www.w3.org/2000/svg"><path d="m171.703125 309.839844 1.972656 1.976562 27.171875 27.167969 1.972656 1.976563 280.414063-253.503907c29.414063-26.589843 25.882813-49.847656 8.851563-66.878906s-40.289063-20.5625-66.878907 8.851563zm0 0" fill="#bc7c63"/><path d="m425.207031 29.429688-253.503906 280.410156 1.972656 1.976562 27.171875 27.167969 1.972656 1.976563 15.757813-14.242188-14.902344-14.902344c-1.105469-1.105468-1.148437-2.886718-.101562-4.046875l251.632812-278.339843c8.246094-9.125 16.175781-15.078126 23.699219-18.441407-15.109375-7.242187-33.4375-3.972656-53.699219 18.441407zm0 0" fill="#ab6b51"/><path d="m238.476562 235.980469 38.207032 38.207031 25.128906-22.714844-40.621094-40.621094zm0 0" fill="#965a44"/><path d="m261.191406 210.851562-22.714844 25.128907 15.753907 15.753906 22.71875-25.125zm0 0" fill="#7d4c38"/><path d="m173.675781 311.816406 27.171875 27.167969 1.972656 1.976563 73.863282-66.773438-38.207032-38.207031-66.773437 73.859375zm0 0" fill="#ab6b51"/><path d="m218.578125 326.71875-14.902344-14.902344c-1.105469-1.105468-1.148437-2.886718-.101562-4.046875l50.65625-56.035156-15.753907-15.753906-66.773437 73.859375c32.15625 32.15625 8.816406 8.820312 31.117187 31.121094zm0 0" fill="#965a44"/><path d="m178.085938 425.101562c3.816406-9.722656 14.183593-36.039062 15.53125-51.597656-2.367188-.425781-4.621094-1.542968-6.4375-3.355468l-44.664063-44.664063c-1.816406-1.816406-2.929687-4.074219-3.359375-6.4375-15.558594 1.34375-41.871094 11.714844-51.59375 15.53125-29.71875 11.65625-69.800781 37.714844-70.773438 93.632813-.53125 30.335937-3.988281 51.988281-8.316406 67.355468-1.53125 5.425782 3.195313 10.152344 8.621094 8.625 15.371094-4.328125 37.023438-7.785156 67.359375-8.316406 55.914063-.972656 81.976563-41.054688 93.632813-70.773438zm0 0" fill="#ffd301"/><path d="m38.46875 495.566406c4.332031-15.367187 7.789062-37.023437 8.320312-67.355468.972657-55.917969 41.054688-81.976563 70.769532-93.632813 5.082031-1.992187 14.691406-5.773437 24.929687-9.125-1.796875-1.808594-2.90625-4.054687-3.332031-6.40625-15.558594 1.34375-41.871094 11.714844-51.59375 15.53125-29.71875 11.65625-69.800781 37.714844-70.773438 93.632813-.53125 30.335937-3.988281 51.988281-8.316406 67.355468-1.53125 5.425782 3.195313 10.152344 8.621094 8.625 6.085938-1.714844 13.171875-3.285156 21.375-4.601562-.359375-1.226563-.398438-2.597656 0-4.023438zm0 0" fill="#ffc20c"/><path d="m193.617188 373.503906c-2.367188-.425781-4.621094-1.542968-6.4375-3.355468l-16.144532-16.144532c-8.1875 33.710938-35.550781 113.183594-115.804687 143.460938-.007813 0-.011719.003906-.019531.003906 8.722656-.839844 18.417968-1.40625 29.242187-1.59375 55.914063-.976562 81.976563-41.054688 93.632813-70.773438 3.816406-9.722656 14.183593-36.039062 15.53125-51.597656zm0 0" fill="#fee55a"/><path d="m210.695312 346.632812-44.664062-44.664062c-4.765625-4.765625-12.566406-4.765625-17.335938 0l-7.222656 7.222656c-4.765625 4.765625-4.765625 12.566406 0 17.335938l44.664063 44.664062c4.765625 4.765625 12.566406 4.765625 17.335937 0l7.222656-7.222656c4.765626-4.769531 4.765626-12.570312 0-17.335938zm0 0" fill="#dfebfa"/><path d="m171.472656 326.527344c-4.769531-4.769532-4.769531-12.570313 0-17.335938l.890625-.890625-6.332031-6.332031c-4.769531-4.765625-12.566406-4.765625-17.335938 0l-7.222656 7.222656c-4.765625 4.765625-4.765625 12.566406 0 17.335938l44.664063 44.664062c4.765625 4.765625 12.566406 4.765625 17.335937 0l6.332032-6.332031zm0 0" fill="#b1dbfc"/><path d="m14.847656 512c1.347656 0 2.714844-.1875 4.078125-.566406 10.488281-2.921875 22.734375-5.03125 36.574219-6.320313.023438-.003906.046875-.003906.074219-.003906 30.339843-2.824219 63.210937 3.1875 96.652343-27.769531 13.378907-12.386719 24.097657-28.769532 31.855469-48.6875l.105469-.28125c5.722656-14.679688 12.269531-32.59375 14.777344-46.589844 3.628906-.804688 6.960937-2.601562 9.644531-5.285156l7.222656-7.222656c7.703125-7.703126 7.703125-20.238282 0-27.945313l-1.195312-1.191406c5.78125-5.226563 152.378906-137.707031 158.855469-143.558594 3.074218-2.777344 3.3125-7.519531.535156-10.59375s-7.519532-3.3125-10.589844-.535156l-60.769531 54.917969-30.535157-30.535157 158.609376-175.511719c15.511718-17.164062 30.199218-22.914062 43.664062-17.078124 3.800781 1.648437 8.214844-.097657 9.863281-3.898438 1.644531-3.800781-.101562-8.214844-3.898437-9.863281-13.765625-5.964844-35.472656-7.195313-60.757813 20.785156-6.835937 7.566406-240.433593 266.050781-247.25 273.59375l-1.195312-1.195313c-7.703125-7.703124-20.238281-7.703124-27.941407 0l-7.222656 7.222657c-2.746094 2.746093-4.492187 6.109375-5.28125 9.644531-13.988281 2.507812-31.890625 9.050781-46.566406 14.765625l-.308594.121094c-19.921875 7.757812-36.304687 18.476562-48.691406 31.855469-17.078125 18.449218-25.929688 41.363281-26.304688 68.105468-.367187 26.023438-2.988281 47.960938-7.789062 65.191406-1.441406 5.179688-.082031 10.496094 3.644531 14.222657 2.746094 2.746093 6.355469 4.207031 10.140625 4.207031zm155.363282-89.074219-.105469.28125c-14.398438 36.984375-40.601563 62.265625-80.023438 65.152344 51.058594-32.828125 73.96875-86.351563 83.617188-118.832031l6.96875 6.96875c1.035156 1.035156 2.367187 2.078125 3.519531 2.792968-2.644531 14.546876-10.703125 35.242188-13.976562 43.636719zm91.851562-201.953125 29.460938 29.460938-13.898438 12.5625c-14.585938-14.585938-11.859375-11.859375-28.121094-28.125 10.742188-11.890625 7.703125-8.527344 12.558594-13.898438zm-22.632812 25.042969 27.050781 27.050781-62.460938 56.449219-21.039062-21.039063zm-92.820313 68.480469 7.222656-7.222656c.910157-.914063 2.140625-1.367188 3.363281-1.367188 1.226563 0 2.453126.453125 3.367188 1.367188l37.890625 37.890624c.003906.003907.007813.003907.007813.007813l6.765624 6.765625c.890626.886719 1.378907 2.082031 1.378907 3.363281s-.488281 2.476563-1.378907 3.363281l-7.222656 7.222657c-1.65625 1.65625-4.234375 1.789062-6.042968.5625-.21875-.148438-.421876-.316407-.613282-.5-.023437-.023438-.046875-.039063-.074218-.0625l-44.664063-44.664063c-1.785156-1.785156-1.847656-4.882812 0-6.726562zm-122.761719 114.09375c.710938-50.457032 35.980469-74.726563 65.441406-86.195313l.308594-.121093c8.394532-3.269532 29.078125-11.324219 43.609375-13.960938.761719 1.222656 1.792969 2.515625 2.796875 3.519531l25.515625 25.515625c-8.730469 33.652344-35.429687 105.128906-108.390625 132.929688-13.976562 1.347656-26.488281 3.507812-37.382812 6.472656 5-18.335938 7.722656-41.261719 8.101562-68.160156zm0 0"/><path d="m499.152344 28.226562c-3.800782 1.648438-5.542969 6.0625-3.898438 9.863282 5.835938 13.460937.089844 28.152344-17.078125 43.667968l-88.738281 80.191407c-3.070312 2.777343-3.3125 7.519531-.535156 10.59375 1.480468 1.636719 3.519531 2.472656 5.566406 2.472656 1.792969 0 3.589844-.640625 5.023438-1.9375l88.742187-80.195313c27.980469-25.285156 26.746094-46.996093 20.78125-60.757812-1.644531-3.796875-6.0625-5.546875-9.863281-3.898438zm0 0"/></svg>