<svg height="512pt" viewBox="0 0 512.00013 512" width="512pt" xmlns="http://www.w3.org/2000/svg"><path d="m496.921875 126.273438-111.03125-111.027344c-10.304687-10.308594-27.167969-10.308594-37.472656 0l-79.640625 79.640625c3.480468 1.519531 6.738281 3.6875 9.574218 6.523437l132.40625 132.40625c2.835938 2.835938 5.003907 6.09375 6.523438 9.574219l79.640625-79.644531c10.304687-10.304688 10.304687-27.164063 0-37.472656zm0 0" fill="#ffbb7e"/><path d="m285.527344 108.585938 80.769531-80.765626c6.40625-6.40625 15.042969-9.300781 23.472656-8.699218l-3.878906-3.875c-10.304687-10.308594-27.167969-10.308594-37.472656 0l-79.644531 79.640625c3.480468 1.519531 6.742187 3.6875 9.578124 6.523437zm0 0" fill="#ffa85d"/><path d="m233.972656 410.597656-132.402344-132.40625c-2.835937-2.835937-5.007812-6.09375-6.523437-9.574218l-79.644531 79.644531c-10.304688 10.304687-10.304688 27.167969 0 37.472656l111.03125 111.03125c10.304687 10.304687 27.167968 10.300781 37.472656 0l79.644531-79.644531c-3.480469-1.519532-6.738281-3.6875-9.578125-6.523438zm0 0" fill="#ffbb7e"/><path d="m156.433594 496.761719-111.03125-111.027344c-10.304688-10.308594-10.304688-27.167969 0-37.476563l63.117187-63.117187-6.949219-6.949219c-2.835937-2.835937-5.007812-6.09375-6.523437-9.574218l-79.644531 79.640624c-10.304688 10.304688-10.304688 27.167969 0 37.476563l111.03125 111.027344c9.136718 9.140625 23.429687 10.167969 33.734375 3.097656-1.3125-.902344-2.570313-1.929687-3.734375-3.097656zm0 0" fill="#ffa85d"/><path d="m411.035156 233.535156-132.40625-132.40625c-12.203125-12.203125-32.207031-12.167968-44.457031.082032l-132.871094 132.875c-12.25 12.246093-12.285156 32.25-.082031 44.453124l132.40625 132.40625c12.203125 12.203126 32.210938 12.167969 44.457031-.078124l132.875-132.875c12.246094-12.246094 12.28125-32.25.078125-44.457032zm0 0" fill="#ffa85d"/><g fill="#ff9839"><path d="m263.625 410.945312-132.40625-132.40625c-12.203125-12.203124-12.167969-32.207031.078125-44.453124 143.421875-143.421876 134.382813-135.179688 140.160156-138.300782-11.910156-6.449218-27.214843-4.644531-37.285156 5.425782l-132.871094 132.875c-12.246093 12.246093-12.285156 32.25-.078125 44.453124l132.402344 132.40625c10.007812 10.003907 25.253906 11.777344 37.171875 5.34375-2.578125-1.394531-5-3.171874-7.171875-5.34375zm0 0"/><path d="m271.585938 154.269531c-5.578126-5.578125-14.621094-5.578125-20.199219 0-5.578125 5.574219-5.578125 14.617188 0 20.195313s14.621093 5.578125 20.199219 0c5.578124-5.578125 5.578124-14.621094 0-20.195313zm0 0"/><path d="m314.738281 197.421875c-5.574219-5.578125-14.617187-5.578125-20.195312 0s-5.578125 14.621094 0 20.199219 14.621093 5.578125 20.195312 0c5.578125-5.578125 5.578125-14.621094 0-20.199219zm0 0"/><path d="m357.894531 240.578125c-5.578125-5.578125-14.621093-5.578125-20.199219 0-5.574218 5.578125-5.574218 14.621094 0 20.199219 5.578126 5.578125 14.621094 5.578125 20.199219 0s5.578125-14.621094 0-20.199219zm0 0"/><path d="m223.105469 202.75c-5.578125-5.578125-14.621094-5.578125-20.199219 0s-5.578125 14.621094 0 20.199219 14.621094 5.578125 20.199219 0 5.578125-14.621094 0-20.199219zm0 0"/><path d="m266.257812 245.90625c-5.578124-5.578125-14.621093-5.578125-20.199218 0-5.574219 5.574219-5.574219 14.617188 0 20.195312 5.578125 5.578126 14.621094 5.578126 20.199218 0 5.578126-5.578124 5.578126-14.621093 0-20.195312zm0 0"/><path d="m309.414062 289.058594c-5.578124-5.578125-14.621093-5.578125-20.199218 0s-5.578125 14.621094 0 20.199218c5.578125 5.578126 14.621094 5.578126 20.199218 0 5.574219-5.578124 5.574219-14.621093 0-20.199218zm0 0"/><path d="m174.621094 251.230469c-5.578125-5.578125-14.621094-5.578125-20.199219 0-5.574219 5.578125-5.574219 14.621093 0 20.199219 5.578125 5.578124 14.621094 5.578124 20.199219 0 5.578125-5.578126 5.578125-14.621094 0-20.199219zm0 0"/><path d="m217.777344 294.386719c-5.578125-5.578125-14.621094-5.578125-20.199219 0s-5.578125 14.621093 0 20.199219c5.578125 5.574218 14.621094 5.574218 20.199219 0 5.578125-5.578126 5.578125-14.621094 0-20.199219zm0 0"/><path d="m260.929688 337.542969c-5.578126-5.578125-14.621094-5.578125-20.199219 0-5.574219 5.578125-5.574219 14.621093 0 20.195312 5.578125 5.578125 14.621093 5.578125 20.199219 0 5.578124-5.574219 5.578124-14.617187 0-20.195312zm0 0"/></g><path d="m276.726562 179.769531c4.113282-4.113281 6.378907-9.582031 6.378907-15.402343 0-5.820313-2.265625-11.289063-6.378907-15.402344-8.492187-8.492188-22.3125-8.492188-30.804687 0-4.117187 4.113281-6.382813 9.582031-6.382813 15.402344 0 5.820312 2.265626 11.289062 6.382813 15.402343 8.492187 8.492188 22.3125 8.492188 30.804687 0zm-20.199218-20.199219c1.324218-1.320312 3.058594-1.984374 4.796875-1.984374s3.472656.664062 4.796875 1.984374c1.28125 1.28125 1.984375 2.984376 1.984375 4.796876s-.703125 3.515624-1.984375 4.796874c-2.648438 2.644532-6.949219 2.644532-9.59375 0-1.28125-1.28125-1.988282-2.984374-1.988282-4.796874s.707032-3.515626 1.988282-4.796876zm0 0"/><path d="m319.882812 192.117188c-8.496093-8.492188-22.3125-8.492188-30.808593 0-8.488281 8.496093-8.488281 22.3125.003906 30.804687 8.488281 8.492187 22.3125 8.492187 30.804687 0 8.492188-8.492187 8.492188-22.308594 0-30.804687zm-10.605468 20.199218c-2.648438 2.644532-6.949219 2.648438-9.59375.003906-2.644532-2.644531-2.644532-6.949218 0-9.59375 1.320312-1.324218 3.058594-1.984374 4.792968-1.984374 1.738282 0 3.476563.660156 4.796876 1.984374 2.648437 2.644532 2.648437 6.945313.003906 9.589844zm0 0"/><path d="m347.632812 272.460938c5.816407 0 11.289063-2.265626 15.402344-6.382813 8.492188-8.492187 8.492188-22.308594 0-30.804687-4.113281-4.113282-9.582031-6.378907-15.402344-6.378907-5.816406 0-11.289062 2.265625-15.402343 6.378907-8.492188 8.496093-8.492188 22.3125 0 30.804687 4.113281 4.113281 9.585937 6.382813 15.402343 6.382813zm-4.796874-26.582032c1.28125-1.28125 2.984374-1.984375 4.796874-1.984375s3.515626.703125 4.796876 1.984375c2.644531 2.644532 2.644531 6.949219 0 9.59375-1.28125 1.28125-2.984376 1.984375-4.796876 1.984375s-3.515624-.703125-4.792968-1.984375c-2.648438-2.644531-2.648438-6.949218-.003906-9.59375zm0 0"/><path d="m228.242188 228.25c4.117187-4.113281 6.382812-9.582031 6.382812-15.402344 0-5.816406-2.265625-11.289062-6.382812-15.402344-8.492188-8.492187-22.308594-8.492187-30.804688 0-4.113281 4.113282-6.378906 9.585938-6.378906 15.402344 0 5.820313 2.265625 11.289063 6.378906 15.402344 8.496094 8.492188 22.3125 8.492188 30.804688 0zm-20.195313-20.199219c1.320313-1.320312 3.058594-1.980469 4.792969-1.980469 1.738281 0 3.476562.660157 4.796875 1.984376 1.28125 1.28125 1.988281 2.980468 1.988281 4.792968s-.707031 3.515625-1.988281 4.796875c-2.644531 2.644531-6.945313 2.644531-9.589844 0-1.28125-1.28125-1.988281-2.984375-1.988281-4.796875s.707031-3.511718 1.988281-4.796875zm0 0"/><path d="m271.398438 240.601562c-4.113282-4.113281-9.582032-6.378906-15.402344-6.378906-5.816406 0-11.289063 2.265625-15.402344 6.378906-4.113281 4.113282-6.378906 9.582032-6.378906 15.402344 0 5.820313 2.265625 11.289063 6.378906 15.402344 8.511719 8.511719 22.289062 8.515625 30.804688 0 4.117187-4.113281 6.382812-9.582031 6.382812-15.402344-.003906-5.820312-2.269531-11.289062-6.382812-15.402344zm-10.605469 20.199219c-1.28125 1.28125-2.984375 1.984375-4.796875 1.984375s-3.515625-.707031-4.796875-1.984375c-1.28125-1.28125-1.984375-2.984375-1.984375-4.796875s.703125-3.515625 1.984375-4.796875 2.984375-1.988281 4.796875-1.988281 3.515625.707031 4.796875 1.988281 1.988281 2.984375 1.988281 4.796875-.707031 3.515625-1.988281 4.796875zm0 0"/><path d="m314.554688 314.5625c8.492187-8.496094 8.492187-22.3125 0-30.804688-8.492188-8.496093-22.3125-8.496093-30.808594 0-8.492188 8.492188-8.492188 22.308594.003906 30.804688 8.492188 8.492188 22.3125 8.492188 30.804688 0zm-20.199219-20.199219c1.320312-1.324219 3.058593-1.984375 4.796875-1.984375 1.734375 0 3.472656.660156 4.796875 1.984375 2.644531 2.644531 2.644531 6.945313 0 9.589844s-6.945313 2.648437-9.59375 0c-2.644531-2.644531-2.644531-6.945313 0-9.589844zm0 0"/><path d="m164.359375 239.546875c-5.816406 0-11.289063 2.269531-15.402344 6.382813-8.492187 8.492187-8.492187 22.3125 0 30.804687 8.515625 8.511719 22.289063 8.511719 30.804688 0 8.492187-8.492187 8.492187-22.3125 0-30.804687-4.113281-4.113282-9.582031-6.382813-15.402344-6.382813zm4.796875 26.582031c-1.28125 1.28125-2.984375 1.984375-4.796875 1.984375s-3.515625-.703125-4.796875-1.984375c-2.644531-2.644531-2.644531-6.949218 0-9.59375 1.28125-1.28125 2.984375-1.988281 4.796875-1.988281s3.515625.707031 4.796875 1.988281c2.644531 2.644532 2.644531 6.949219 0 9.59375zm0 0"/><path d="m222.917969 319.886719c4.113281-4.113281 6.378906-9.582031 6.378906-15.402344 0-5.816406-2.265625-11.285156-6.378906-15.402344-4.117188-4.113281-9.585938-6.378906-15.402344-6.378906-5.820313 0-11.289063 2.265625-15.402344 6.378906-4.113281 4.117188-6.378906 9.585938-6.378906 15.402344 0 5.820313 2.265625 11.289063 6.378906 15.402344 8.511719 8.515625 22.289063 8.515625 30.804688 0zm-20.199219-20.199219c1.28125-1.277344 2.984375-1.984375 4.796875-1.984375s3.515625.707031 4.796875 1.988281 1.984375 2.984375 1.984375 4.792969c0 1.8125-.703125 3.515625-1.984375 4.796875s-2.984375 1.988281-4.796875 1.988281-3.515625-.707031-4.796875-1.988281-1.988281-2.984375-1.988281-4.796875c0-1.808594.707031-3.511719 1.988281-4.796875zm0 0"/><path d="m266.070312 363.042969c.003907 0 .003907 0 0 0 8.492188-8.492188 8.492188-22.3125.003907-30.804688-8.496094-8.492187-22.316407-8.492187-30.808594 0-8.492187 8.492188-8.492187 22.3125 0 30.804688 8.492187 8.492187 22.3125 8.492187 30.804687 0zm-20.195312-20.199219c1.320312-1.324219 3.058594-1.984375 4.796875-1.984375 1.734375 0 3.472656.664063 4.792969 1.984375 2.644531 2.644531 2.644531 6.949219 0 9.59375-2.640625 2.644531-6.945313 2.644531-9.589844 0-2.648438-2.644531-2.648438-6.949219 0-9.59375zm0 0"/><path d="m502.058594 120.972656-45.492188-45.492187c-2.929687-2.929688-7.675781-2.929688-10.605468 0-2.929688 2.929687-2.929688 7.675781 0 10.605469l45.492187 45.492187c7.40625 7.40625 7.40625 19.457031 0 26.867187l-72.953125 72.949219c-.40625-.496093-.824219-.988281-1.261719-1.46875-.433593-.480469-.882812-.953125-1.34375-1.414062l-132.40625-132.40625c-.011719-.011719-.019531-.019531-.03125-.027344-.914062-.914063-1.863281-1.773437-2.851562-2.582031l72.949219-72.949219c3.566406-3.566406 8.339843-5.53125 13.433593-5.53125 5.097657 0 9.867188 1.964844 13.433594 5.53125l40.789063 40.792969c2.933593 2.925781 7.679687 2.925781 10.609374 0 2.929688-2.929688 2.929688-7.679688 0-10.605469l-40.792968-40.792969c-13.253906-13.253906-34.820313-13.253906-48.078125 0l-76.289063 76.289063c-13.082031-3.6875-27.777344-.503907-38.15625 9.875l-132.40625 132.40625c-10.390625 10.394531-13.554687 25.09375-9.875 38.15625l-76.289062 76.289062c-13.246094 13.246094-13.242188 34.832031 0 48.078125l111.03125 111.03125c13.246094 13.246094 34.832031 13.246094 48.078125 0l76.289062-76.289062c13.085938 3.6875 27.777344.5 38.15625-9.878906l53.828125-53.828126c2.929688-2.929687 2.929688-7.675781 0-10.605468-2.929687-2.929688-7.675781-2.929688-10.605468 0l-53.828126 53.828125c-7.160156 7.160156-17.734374 8.730469-26.375 5.015625-.042968-.019532-.082031-.042969-.125-.0625-2.039062-.890625-3.917968-2.046875-5.613281-3.449219-.023437-.015625-.042969-.035156-.0625-.054687-.550781-.457032-1.082031-.9375-1.59375-1.449219l-132.40625-132.40625c-.515625-.511719-1-1.046875-1.460937-1.597657-.011719-.019531-.027344-.035156-.042969-.050781-1.402344-1.699219-2.558594-3.578125-3.449219-5.621093-3.847656-8.824219-2.152344-19.398438 4.953125-26.5l132.40625-132.40625c8.746094-8.75 22.742188-9.25 32.113281-1.503907.023438.015625.039063.035157.0625.050781.550782.460938 1.082032.941407 1.59375 1.453126l132.40625 132.40625c0 .003906.003907.007812.007813.011718.503906.503906.984375 1.03125 1.4375 1.578125.019531.023438.039063.042969.058594.070313 1.402343 1.691406 2.554687 3.574218 3.445312 5.609375.019531.046875.046875.089843.070313.132812 3.707031 8.636719 2.140625 19.210938-5.019532 26.367188l-53.832031 53.832031c-2.925781 2.929688-2.925781 7.675781 0 10.605469 2.929688 2.929687 7.679688 2.925781 10.609375 0l53.828125-53.832031c10.3125-10.3125 13.601563-25.027344 9.878907-38.15625l76.285156-76.285157c13.253906-13.253906 13.253906-34.824219 0-48.078125zm-273.554688 294.929688c.925782.921875 1.886719 1.792968 2.882813 2.609375l-72.949219 72.949219c-7.382812 7.382812-19.484375 7.382812-26.867188 0l-111.03125-111.03125c-7.382812-7.382813-7.382812-19.484376 0-26.867188l72.949219-72.949219c.816407.996094 1.6875 1.957031 2.609375 2.882813zm0 0"/></svg>