<svg height="512pt" viewBox="0 0 512 512" width="512pt" xmlns="http://www.w3.org/2000/svg"><path d="m428.859375 46.035156h-345.382813c-20.585937 0-37.277343 16.6875-37.277343 37.273438v345.382812c0 20.585938 16.6875 37.277344 37.277343 37.277344h345.382813c20.585937 0 37.273437-16.691406 37.273437-37.277344v-345.382812c0-20.585938-16.6875-37.273438-37.273437-37.273438zm0 0" fill="#ffbb7e"/><path d="m77.867188 428.691406v-345.382812c0-20.585938 16.6875-37.273438 37.273437-37.273438h-31.664063c-20.585937 0-37.277343 16.6875-37.277343 37.273438v345.382812c0 20.585938 16.6875 37.277344 37.277343 37.277344h31.664063c-20.585937-.003906-37.273437-16.691406-37.273437-37.277344zm0 0" fill="#ffa85d"/><path d="m434.855469 428.691406c0 3.304688-2.691407 5.996094-5.996094 5.996094h-345.382813c-3.308593 0-6-2.691406-6-5.996094v-345.382812c0-3.304688 2.691407-5.996094 6-5.996094h345.382813c3.304687 0 5.996094 2.691406 5.996094 5.996094zm0 0" fill="#ffa85d"/><path d="m109.144531 428.691406v-345.382812c0-3.304688 2.691407-5.996094 5.996094-5.996094h-31.664063c-3.308593 0-6 2.691406-6 5.996094v345.382812c0 3.304688 2.691407 5.996094 6 5.996094h31.664063c-3.304687 0-5.996094-2.691406-5.996094-5.996094zm0 0" fill="#ff9839"/><path d="m504.5 143.320312c4.144531 0 7.5-3.359374 7.5-7.5 0-4.144531-3.355469-7.5-7.5-7.5h-31.03125v-45.011718c0-24.6875-20.089844-44.777344-44.777344-44.777344h-45.011718v-31.03125c0-4.144531-3.355469-7.5-7.5-7.5-4.140626 0-7.5 3.355469-7.5 7.5v31.03125h-65.117188v-31.03125c0-4.144531-3.359375-7.5-7.5-7.5-4.144531 0-7.5 3.355469-7.5 7.5v31.03125h-65.121094v-31.03125c0-4.144531-3.359375-7.5-7.5-7.5-4.144531 0-7.5 3.355469-7.5 7.5v31.03125h-65.121094v-31.03125c0-4.144531-3.359374-7.5-7.5-7.5-4.144531 0-7.5 3.355469-7.5 7.5v31.03125h-45.011718c-24.6875 0-44.773438 20.089844-44.773438 44.777344v45.011718h-31.035156c-4.144531 0-7.5 3.355469-7.5 7.5 0 4.140626 3.355469 7.5 7.5 7.5h31.035156v65.117188h-31.035156c-4.144531 0-7.5 3.359375-7.5 7.5 0 4.144531 3.355469 7.5 7.5 7.5h31.035156v65.121094h-31.035156c-4.144531 0-7.5 3.359375-7.5 7.5 0 4.144531 3.355469 7.5 7.5 7.5h31.035156v65.121094h-31.035156c-4.144531 0-7.5 3.359374-7.5 7.5 0 4.144531 3.355469 7.5 7.5 7.5h31.035156v45.011718c0 24.6875 20.085938 44.773438 44.773438 44.773438h45.011718v31.035156c0 4.140625 3.355469 7.5 7.5 7.5 4.140626 0 7.5-3.359375 7.5-7.5v-31.035156h65.121094v31.035156c0 4.140625 3.355469 7.5 7.5 7.5 4.140625 0 7.5-3.359375 7.5-7.5v-31.035156h65.117188v31.035156c0 4.140625 3.359375 7.5 7.5 7.5 4.144531 0 7.5-3.359375 7.5-7.5v-31.035156h65.121094v31.035156c0 4.140625 3.359374 7.5 7.5 7.5 4.144531 0 7.5-3.359375 7.5-7.5v-31.035156h45.011718c24.6875 0 44.773438-20.085938 44.773438-44.773438v-45.011718h31.035156c4.140625 0 7.5-3.355469 7.5-7.5 0-4.140626-3.359375-7.5-7.5-7.5h-31.035156v-65.121094h31.035156c4.140625 0 7.5-3.355469 7.5-7.5 0-4.140625-3.359375-7.5-7.5-7.5h-31.035156v-15.058594c0-4.144531-3.355469-7.5-7.5-7.5-4.140625 0-7.5 3.355469-7.5 7.5v15.058594h-16.277344v-65.121094h16.277344v15.0625c0 4.144531 3.359375 7.5 7.5 7.5 4.144531 0 7.5-3.355469 7.5-7.5v-15.0625h31.035156c4.140625 0 7.5-3.355469 7.5-7.5 0-4.140625-3.359375-7.5-7.5-7.5h-31.035156v-65.117188zm-200.9375-89.785156h65.117188v16.277344h-65.117188zm-160.242188 0h65.121094v16.277344h-65.121094zm-89.785156 29.773438c0-16.417969 13.355469-29.773438 29.773438-29.773438h45.011718v16.277344h-45.011718c-7.441406 0-13.496094 6.054688-13.496094 13.496094v45.011718h-16.277344zm0 60.011718h16.277344v65.117188h-16.277344zm0 80.117188h16.277344v65.121094h-16.277344zm0 80.125h16.277344v65.117188h-16.277344zm74.785156 154.902344h-45.011718c-16.417969 0-29.773438-13.355469-29.773438-29.773438v-45.011718h16.277344v45.011718c0 7.441406 6.054688 13.496094 13.496094 13.496094h45.011718zm80.121094 0h-65.121094v-16.277344h65.121094zm80.121094 0h-65.121094v-16.277344h65.121094zm80.117188 0h-65.117188v-16.277344h65.117188zm14.988281-31.277344c-.128907-4.027344-3.425781-7.253906-7.488281-7.253906-4.058594 0-7.355469 3.226562-7.488282 7.253906h-65.144531c-.128906-4.027344-3.425781-7.253906-7.488281-7.253906-4.058594 0-7.355469 3.226562-7.488282 7.253906h-65.144531c-.128906-4.027344-3.429687-7.253906-7.488281-7.253906s-7.355469 3.226562-7.488281 7.253906h-65.144531c-.132813-4.027344-3.429688-7.253906-7.488282-7.253906-4.0625 0-7.359375 3.226562-7.488281 7.253906h-43.515625v-43.519531c4.03125-.128907 7.257812-3.425781 7.257812-7.488281 0-4.058594-3.226562-7.355469-7.257812-7.484376v-65.148437c4.03125-.128906 7.257812-3.425781 7.257812-7.488281 0-4.058594-3.226562-7.355469-7.257812-7.488282v-65.144531c4.03125-.128906 7.257812-3.425781 7.257812-7.488281s-3.226562-7.359375-7.257812-7.488281v-65.144531c4.03125-.128907 7.257812-3.425782 7.257812-7.488282s-3.226562-7.359375-7.257812-7.488281v-43.515625h43.519531c.128907 4.027344 3.425781 7.257812 7.488281 7.257812 4.058594 0 7.355469-3.230468 7.488282-7.257812h65.144531c.128906 4.027344 3.429687 7.257812 7.488281 7.257812s7.359375-3.230468 7.488282-7.257812h15.070312c4.144531 0 7.503906-3.355469 7.503906-7.5s-3.359375-7.5-7.503906-7.5h-15.058594v-16.277344h65.121094v16.277344h-15.0625c-4.140625 0-7.5 3.355469-7.5 7.5 0 4.140625 3.359375 7.5 7.5 7.5h15.074219c.128906 4.027344 3.429687 7.253906 7.488281 7.253906s7.359375-3.226562 7.488281-7.253906h65.144531c.128907 4.027344 3.429688 7.253906 7.488282 7.253906s7.359375-3.226562 7.488281-7.253906h43.519531v43.519531c-4.03125.128907-7.257812 3.425781-7.257812 7.488281 0 4.058594 3.226562 7.355469 7.257812 7.484376v65.148437c-4.03125.128906-7.257812 3.425781-7.257812 7.488281 0 4.058594 3.226562 7.355469 7.257812 7.488282v65.144531c-4.03125.128906-7.257812 3.425781-7.257812 7.488281s3.226562 7.359375 7.257812 7.488281v65.144531c-4.03125.128907-7.257812 3.425782-7.257812 7.488282s3.226562 7.359375 7.257812 7.488281v43.519531h-43.523437zm74.796875 1.503906c0 16.417969-13.355469 29.773438-29.773438 29.773438h-45.011718v-16.277344h45.011718c7.441406 0 13.496094-6.054688 13.496094-13.496094v-45.011718h16.277344zm0-125.128906v65.117188h-16.277344v-65.117188zm0-95.125h-16.277344v-65.117188h16.277344zm0-80.117188h-16.277344v-45.011718c0-7.441406-6.054688-13.496094-13.496094-13.496094h-45.011718v-16.277344h45.011718c16.417969 0 29.773438 13.355469 29.773438 29.773438zm0 0"/></svg>