<svg height="511pt" viewBox="-103 1 511 511.999" width="511pt" xmlns="http://www.w3.org/2000/svg"><path d="m296.695312 233.03125-134.4375-221.261719c-3.457031-5.691406-11.71875-5.691406-15.179687 0l-134.4375 221.261719c-6.359375 10.464844-5.90625 23.707031 1.148437 33.71875l50.644532 71.839844c1.554687-.683594 3.269531-1.070313 5.070312-1.070313h168.746094c2.265625 0 4.394531.609375 6.238281 1.660157l51.058594-72.429688c7.058594-10.011719 7.507813-23.253906 1.148437-33.71875zm0 0" fill="#dfebfa"/><path d="m44.039062 266.746094c-7.054687-10.007813-7.503906-23.25-1.144531-33.71875l126.898438-208.855469-7.535157-12.402344c-3.457031-5.691406-11.71875-5.691406-15.179687 0l-134.433594 221.261719c-6.359375 10.464844-5.910156 23.707031 1.144531 33.71875l50.644532 71.839844c1.558594-.683594 3.269531-1.070313 5.074218-1.070313h24.421876zm0 0" fill="#b1dbfc"/><path d="m77.125 395.695312v101.023438c0 4.296875 3.484375 7.78125 7.78125 7.78125h139.527344c4.296875 0 7.777344-3.484375 7.777344-7.78125v-101.023438zm0 0" fill="#ff8188"/><path d="m107.125 496.71875v-101.023438h-30v101.023438c0 4.296875 3.484375 7.78125 7.78125 7.78125h30c-4.296875 0-7.78125-3.484375-7.78125-7.78125zm0 0" fill="#ff656f"/><path d="m178.984375 230.261719c0 13.429687-10.886719 24.316406-24.316406 24.316406-13.429688 0-24.316407-10.886719-24.316407-24.316406 0-13.429688 10.886719-24.316407 24.316407-24.316407 13.429687 0 24.316406 10.886719 24.316406 24.316407zm0 0" fill="#b1dbfc"/><path d="m160.351562 230.261719c0-7.769531 3.648438-14.679688 9.316407-19.132813-4.132813-3.246094-9.335938-5.183594-15-5.183594-13.429688 0-24.316407 10.886719-24.316407 24.316407 0 13.429687 10.886719 24.316406 24.316407 24.316406 5.664062 0 10.867187-1.941406 15-5.1875-5.667969-4.449219-9.316407-11.363281-9.316407-19.128906zm0 0" fill="#8cc9f9"/><path d="m239.042969 336.617188h-168.746094c-6.992187 0-12.710937 6.132812-12.710937 13.625v5.296874c0 7.492188 5.71875 13.621094 12.710937 13.621094h168.746094c6.988281 0 12.707031-6.128906 12.707031-13.621094v-5.296874c0-7.492188-5.71875-13.625-12.707031-13.625zm0 0" fill="#8cc9f9"/><path d="m239.042969 350.394531h-168.746094c-4.707031 0-8.828125-2.785156-11.023437-6.886719-1.066407 1.988282-1.6875 4.285157-1.6875 6.734376v5.296874c0 7.492188 5.71875 13.621094 12.710937 13.621094h168.746094c6.988281 0 12.707031-6.128906 12.707031-13.621094v-5.296874c0-2.449219-.617188-4.746094-1.683594-6.734376-2.195312 4.101563-6.320312 6.886719-11.023437 6.886719zm0 0" fill="#60b8fe"/><path d="m264.019531 367.878906h-218.699219c-5.796874 0-10.5 4.8125-10.5 10.746094v6.976562c0 5.9375 4.699219 10.746094 10.5 10.746094h218.699219c5.796875 0 10.5-4.808594 10.5-10.746094v-6.976562c0-5.933594-4.703125-10.746094-10.5-10.746094zm0 0" fill="#8cc9f9"/><path d="m264.019531 377.582031h-218.699219c-3.671874 0-6.898437-1.929687-8.773437-4.851562-1.089844 1.695312-1.726563 3.71875-1.726563 5.894531v6.980469c0 5.933593 4.699219 10.746093 10.5 10.746093h218.699219c5.796875 0 10.5-4.8125 10.5-10.746093v-6.980469c0-2.175781-.640625-4.199219-1.726562-5.894531-1.878907 2.921875-5.101563 4.851562-8.773438 4.851562zm0 0" fill="#60b8fe"/><path d="m290.121094 236.925781c.59375.976563 1.121094 2.007813 1.5625 3.0625 1.609375 3.816407 6.007812 5.609375 9.824218 4 3.816407-1.605469 5.609376-6.003906 4-9.820312-.726562-1.730469-1.59375-3.425781-2.570312-5.03125l-134.433594-221.261719c-2.996094-4.929688-8.230468-7.875-14-7.875-5.773437 0-11.003906 2.945312-14 7.875l-134.4375 221.257812c-7.910156 13.023438-7.351562 29.484376 1.429688 41.9375l46.890625 66.519532c-2.789063 3.464844-4.464844 7.859375-4.464844 12.640625v4.941406c0 1.804687.261719 3.542969.707031 5.207031h-5.476562c-9.925782 0-18 8.074219-18 18v6.816406c0 9.925782 8.074218 18 18 18h24.308594v17.027344c-4.109376.039063-7.425782 3.378906-7.425782 7.496094 0 4.113281 3.316406 7.453125 7.425782 7.492188v61.507812c0 8.425781 6.851562 15.28125 15.277343 15.28125h52.265625c4.144532 0 7.5-3.359375 7.5-7.5 0-4.144531-3.355468-7.5-7.5-7.5h-52.265625c-.152343 0-.277343-.128906-.277343-.28125v-61.5h140.085937v61.5c0 .152344-.125.28125-.28125.28125h-52.261719c-4.144531 0-7.5 3.355469-7.5 7.5 0 4.140625 3.355469 7.5 7.5 7.5h52.261719c8.425781 0 15.28125-6.855469 15.28125-15.28125v-61.503906c4.128906-.015625 7.46875-3.367188 7.46875-7.496094 0-4.132812-3.339844-7.484375-7.46875-7.5v-17.023438h24.308594c9.921875 0 17.996093-8.074218 17.996093-18v-6.816406c0-9.925781-8.074218-18-17.996093-18h-5.476563c.445313-1.664062.707032-3.402344.707032-5.207031v-4.941406c0-4.78125-1.679688-9.175781-4.464844-12.640625l43.136718-61.191406c2.386719-3.386719 1.574219-8.0625-1.8125-10.449219-3.386718-2.390625-8.0625-1.578125-10.449218 1.808593l-44.023438 62.449219c-.851562-.109375-1.714844-.183593-2.597656-.183593h-169.535156c-.628906 0-1.253906.027343-1.878906.085937l-47.707032-67.683594c-5.339844-7.570312-5.679687-17.582031-.867187-25.5l128.117187-210.863281v173.285156c-13.9375 3.378906-24.316406 15.953125-24.316406 30.914063 0 17.542969 14.269531 31.816406 31.816406 31.816406 17.542969 0 31.816406-14.273437 31.816406-31.816406 0-14.960938-10.382812-27.535157-24.316406-30.914063v-173.285156zm-65.574219 183.292969h-140.085937v-17.023438h140.085937zm39.304687-44.839844c1.65625 0 3 1.347656 3 3v6.816406c0 1.652344-1.34375 3-3 3-4.902343 0-212.886718 0-218.699218 0-1.652344 0-3-1.347656-3-3v-6.816406c0-1.652344 1.347656-3 3-3zm-198.929687-25.148437c0-2.824219 2.382813-5.210938 5.207031-5.210938h167.957032c.890624 0 1.738281.230469 2.53125.679688.578124.328125 1.183593.570312 1.796874.734375 1.023438.949218 1.667969 2.296875 1.667969 3.796875v4.941406c0 2.824219-2.386719 5.207031-5.207031 5.207031h-168.746094c-2.824218 0-5.207031-2.382812-5.207031-5.207031zm106.398437-119.96875c0 9.269531-7.542968 16.816406-16.816406 16.816406-9.273437 0-16.816406-7.546875-16.816406-16.816406 0-9.273438 7.542969-16.816407 16.816406-16.816407 9.273438 0 16.816406 7.542969 16.816406 16.816407zm0 0"/></svg>