<svg height="512pt" viewBox="0 -3 512 511" width="512pt" xmlns="http://www.w3.org/2000/svg"><path d="m386.308594 58.402344 27.332031-27.332032 67.9375 67.9375-27.332031 27.332032zm0 0" fill="#dfebfa"/><path d="m386.308594 58.402344 27.332031-27.332032 21.296875 21.296876-27.332031 27.332031zm0 0" fill="#b1dbfc"/><path d="m238.527344 342.054688-64.613282-71.257813c-14.636718-6.476563-30.824218-10.078125-47.855468-10.078125-65.386719 0-118.394532 53.007812-118.394532 118.394531 0 65.382813 53.007813 118.390625 118.394532 118.390625 65.386718 0 118.394531-53.003906 118.394531-118.390625 0-12.945312-2.085937-25.398437-5.925781-37.058593zm0 0" fill="#ffbb7e"/><path d="m38.96875 379.113281c0-60.085937 44.761719-109.710937 102.757812-117.363281-5.125-.679688-10.355468-1.03125-15.667968-1.03125-65.386719 0-118.394532 53.007812-118.394532 118.394531s53.007813 118.390625 118.394532 118.390625c5.308594 0 10.53125-.351562 15.652344-1.03125-57.988282-7.65625-102.742188-57.28125-102.742188-117.359375zm0 0" fill="#ffa85d"/><path d="m390.324219 54.382812 33.96875 33.96875-254.175781 254.175782-33.96875-33.96875zm0 0" fill="#ffd301"/><path d="m390.324219 54.382812 33.96875 33.96875-254.175781 254.175782-33.96875-33.96875zm0 0" fill="#ffd301"/><path d="m424.292969 88.351562 33.96875 33.96875-254.175781 254.175782-33.96875-33.96875zm0 0" fill="#fee55a"/><path d="m424.292969 88.351562 33.96875 33.96875-254.175781 254.175782-33.96875-33.96875zm0 0" fill="#fee55a"/><path d="m136.144531 308.5625 254.175781-254.175781 21.210938 21.207031-254.179688 254.175781zm0 0" fill="#ffc20c"/><path d="m495.789062 41.933594-25.074218-25.074219c-11.835938-11.835937-31.027344-11.835937-42.863282 0l-17.277343 17.277344 67.9375 67.9375 17.277343-17.277344c11.835938-11.835937 11.835938-31.027344 0-42.863281zm0 0" fill="#ff4756"/><path d="m484.949219 31.09375-14.234375-14.234375c-11.835938-11.835937-31.027344-11.835937-42.863282 0l-17.277343 17.273437 20.796875 20.796876 17.277344-17.273438c11.835937-11.835938 28.089843-14.773438 36.300781-6.5625zm0 0" fill="#fc2d39"/><path d="m151.527344 398.265625 52.558594-21.765625-67.9375-67.9375-21.765626 52.558594zm0 0" fill="#dfebfa"/><path d="m144.507812 360.246094.167969.167968 12.683594-30.636718-21.210937-21.214844-21.765626 52.558594 21.046876 21.046875zm0 0" fill="#b1dbfc"/><path d="m108.199219 416.445312 44.203125-18.304687-37.894532-37.894531-18.308593 44.203125c-3.128907 7.558593 4.441406 15.128906 12 11.996093zm0 0" fill="#544e55"/><path d="m126.203125 404.449219 9.519531-22.988281-21.214844-21.214844-18.304687 44.203125c-3.132813 7.558593 4.4375 15.128906 11.996094 11.996093l17.367187-7.191406c-.21875-1.53125-.042968-3.167968.636719-4.804687zm0 0" fill="#453f46"/><path d="m500.925781 36.628906-25.074219-25.074218c-14.742187-14.738282-38.726562-14.738282-53.46875 0-31.375 31.375-243.167968 243.167968-250.394531 250.394531-9.550781-3.761719-19.53125-6.34375-29.75-7.671875-4.101562-.539063-7.867187 2.363281-8.402343 6.46875-.535157 4.109375 2.363281 7.871094 6.472656 8.40625 6.796875.882812 13.480468 2.390625 19.96875 4.507812l-29.601563 29.601563c-.707031.710937-1.289062 1.621093-1.625 2.433593-29.03125 70.097657-7.914062 18.542969-39.945312 95.886719-2.503907 6.046875-1.722657 12.019531 1.449219 16.476563 4.839843 6.851562 13.289062 8.222656 20.3125 5.332031.011718-.003906.023437-.007813.035156-.011719 62.222656-25.769531 23.082031-9.796875 95.820312-39.917968.992188-.410157 1.84375-.996094 2.5-1.65625l25.253906-25.25c1.019532 4.972656 1.707032 10.035156 2.042969 15.152343.273438 4.132813 3.855469 7.28125 7.980469 6.988281 4.132812-.273437 7.261719-3.847656 6.988281-7.980468-.597656-9.039063-2.160156-17.945313-4.632812-26.539063 15.535156-15.539062 244.546875-244.550781 254.070312-254.074219 7.140625-7.144531 11.074219-16.636718 11.074219-26.738281 0-10.097656-3.933594-19.59375-11.074219-26.734375zm-321.875 239.472656c.003907-.003906.003907-.007812.007813-.007812l211.101562-211.101562 23.363282 23.359374-243.574219 243.574219-23.363281-23.363281zm-74.761719 133.542969c-.71875-.089843-1.359374-.730469-1.449218-1.449219l14.300781-34.539062 21.6875 21.683594zm49.539063-20.519531-30.472656-30.472656 15.257812-36.847656 52.0625 52.0625zm79.238281-52.378906s-.003906.003906-.007812.003906l-29.140625 29.144531-23.359375-23.363281 243.570312-243.570312 23.363282 23.359374zm225.03125-225.03125c-36.507812-36.507813-20.84375-20.84375-57.332031-57.332032l9.644531-9.640624 57.332032 57.332031zm32.222656-32.222656-11.972656 11.972656-57.332031-57.332032 11.972656-11.96875c8.894531-8.894531 23.363281-8.894531 32.257813 0l25.070312 25.070313h.003906c4.308594 4.308594 6.679688 10.039063 6.679688 16.128906 0 6.09375-2.371094 11.820313-6.679688 16.128907zm0 0"/><path d="m125.894531 505.003906c28.5625 0 56.53125-9.828125 78.761719-27.675781 21.890625-17.574219 37.449219-42.226563 43.8125-69.410156.945312-4.03125-1.558594-8.066407-5.589844-9.011719-4.035156-.945312-8.070312 1.558594-9.015625 5.59375-5.601562 23.933594-19.3125 45.644531-38.601562 61.132812-19.855469 15.945313-43.847657 24.371094-69.367188 24.371094-61.148437 0-110.894531-49.746094-110.894531-110.890625 0-26.402343 9.4375-51.980469 26.566406-72.019531 16.949219-19.820312 40.367188-33.085938 65.941406-37.351562 4.085938-.683594 6.84375-4.546876 6.164063-8.632813-.683594-4.082031-4.535156-6.851563-8.632813-6.160156-29.046874 4.84375-55.636718 19.898437-74.871093 42.398437-19.453125 22.75-30.167969 51.789063-30.167969 81.765625 0 69.417969 56.476562 125.890625 125.894531 125.890625zm0 0"/></svg>