<svg height="512pt" viewBox="0 -37 512 512" width="512pt" xmlns="http://www.w3.org/2000/svg"><path d="m452.546875 51.191406h-392.761719c-4.652344 0-8.425781 3.773438-8.425781 8.429688v319.574218c0 4.65625 3.773437 8.429688 8.425781 8.429688h392.761719c4.652344 0 8.425781-3.773438 8.425781-8.429688v-319.574218c0-4.65625-3.773437-8.429688-8.425781-8.429688zm0 0" fill="#dfebfa"/><path d="m84.128906 379.195312v-319.574218c0-4.65625 3.773438-8.429688 8.425782-8.429688h-32.769532c-4.652344 0-8.425781 3.773438-8.425781 8.429688v319.574218c0 4.65625 3.773437 8.429688 8.425781 8.429688h32.769532c-4.652344 0-8.425782-3.773438-8.425782-8.429688zm0 0" fill="#b1dbfc"/><path d="m421.308594 83.960938h-330.285156c-3.808594 0-6.894532 3.089843-6.894532 6.894531v257.101562c0 3.808594 3.085938 6.894531 6.894532 6.894531h330.285156c3.808594 0 6.894531-3.085937 6.894531-6.894531v-257.101562c0-3.804688-3.085937-6.894531-6.894531-6.894531zm0 0" fill="#23a8fe"/><path d="m114.128906 347.957031v-257.101562c0-3.808594 3.089844-6.894531 6.894532-6.894531h-30c-3.808594 0-6.894532 3.089843-6.894532 6.894531v257.101562c0 3.808594 3.085938 6.894531 6.894532 6.894531h30c-3.804688.003907-6.894532-3.085937-6.894532-6.894531zm0 0" fill="#0193fa"/><path d="m182.566406 214.179688c-3.300781-4.820313-10.417968-4.820313-13.71875 0l-84.71875 122.308593v11.472657c0 3.808593 3.085938 6.894531 6.894532 6.894531h89.554687l50.152344-73.25zm0 0" fill="#43cb8e"/><path d="m114.128906 347.960938v-6.246094c0-3.402344 1.039063-6.726563 2.976563-9.523438l73.730469-106.4375-8.269532-11.574218c-3.300781-4.820313-10.417968-4.820313-13.71875 0l-84.71875 122.308593v11.472657c0 3.808593 3.085938 6.894531 6.894532 6.894531h30c-3.804688 0-6.890626-3.085938-6.894532-6.894531zm0 0" fill="#00ba66"/><path d="m262.726562 148.242188c0 17.34375-14.0625 31.40625-31.40625 31.40625s-31.40625-14.0625-31.40625-31.40625 14.0625-31.40625 31.40625-31.40625 31.40625 14.0625 31.40625 31.40625zm0 0" fill="#fee55a"/><path d="m229.917969 148.242188c0-11.910157 6.628906-22.273438 16.402343-27.597657-4.457031-2.425781-9.566406-3.808593-15-3.808593-17.34375 0-31.40625 14.0625-31.40625 31.40625s14.0625 31.40625 31.40625 31.40625c5.433594 0 10.542969-1.378907 15-3.808594-9.773437-5.324219-16.402343-15.6875-16.402343-27.597656zm0 0" fill="#ffd301"/><path d="m317.175781 152.425781-138.597656 202.429688h242.730469c3.808594 0 6.894531-3.089844 6.894531-6.894531v-53.261719l-97.308594-142.269531c-3.304687-4.824219-10.417969-4.824219-13.71875-.003907zm0 0" fill="#43cb8e"/><path d="m330.894531 152.425781c-3.300781-4.820312-10.417969-4.820312-13.71875 0l-138.597656 202.429688h30.003906l130.449219-190.53125zm0 0" fill="#00ba66"/><path d="m83.960938 76.460938c-4.140626 0-7.5 3.359374-7.5 7.5v270.894531c0 4.140625 3.359374 7.5 7.5 7.5h344.078124c4.140626 0 7.5-3.359375 7.5-7.5v-270.894531c0-4.140626-3.359374-7.5-7.5-7.5zm90.496093 270.890624h-82.992187v-8.519531l83.40625-120.414062c.066406-.097657.242187-.355469.671875-.355469.425781 0 .601562.257812.667969.355469l43.261718 63.1875zm246.082031 0h-227.898437l42.113281-61.507812c0-.003906 0-.003906 0-.003906l88.441406-129.175782c.066407-.097656.242188-.351562.671876-.351562.429687 0 .605468.253906.667968.347656l96.003906 140.359375zm0-76.90625-83.625-122.253906c-2.945312-4.308594-7.824218-6.878906-13.046874-6.878906-5.222657 0-10.097657 2.570312-13.046876 6.878906l-82.257812 120.136719-39.972656-58.386719c-2.949219-4.308594-7.828125-6.878906-13.046875-6.878906-5.222657 0-10.097657 2.570312-13.027344 6.847656l-71.050781 102.578125v-221.023437h329.074218zm0 0"/><path d="m231.152344 187.148438c21.453125 0 38.90625-17.453126 38.90625-38.90625 0-21.453126-17.453125-38.90625-38.90625-38.90625s-38.90625 17.453124-38.90625 38.90625c0 21.453124 17.453125 38.90625 38.90625 38.90625zm0-62.8125c13.183594 0 23.90625 10.726562 23.90625 23.90625 0 13.179687-10.722656 23.90625-23.90625 23.90625-13.179688 0-23.90625-10.726563-23.90625-23.90625 0-13.179688 10.726562-23.90625 23.90625-23.90625zm0 0"/><path d="m443.15625 15h53.84375v54.503906c0 4.140625 3.355469 7.5 7.5 7.5s7.5-3.359375 7.5-7.5v-62.003906c0-4.140625-3.355469-7.5-7.5-7.5h-61.34375c-4.144531 0-7.5 3.359375-7.5 7.5 0 4.144531 3.355469 7.5 7.5 7.5zm0 0"/><path d="m7.5 77.003906c4.144531 0 7.5-3.359375 7.5-7.5v-54.503906h53.84375c4.144531 0 7.503906-3.355469 7.503906-7.5 0-4.140625-3.359375-7.5-7.503906-7.5h-61.34375c-4.144531 0-7.5 3.359375-7.5 7.5v62.003906c0 4.140625 3.355469 7.5 7.5 7.5zm0 0"/><path d="m504.5 438.816406c4.144531 0 7.5-3.359375 7.5-7.5v-62.003906c0-4.140625-3.355469-7.5-7.5-7.5s-7.5 3.359375-7.5 7.5v54.503906h-53.84375c-4.144531 0-7.5 3.355469-7.5 7.5 0 4.140625 3.355469 7.5 7.5 7.5zm0 0"/><path d="m7.5 438.816406h61.34375c4.144531 0 7.503906-3.359375 7.503906-7.5 0-4.144531-3.359375-7.5-7.503906-7.5h-53.84375v-54.503906c0-4.140625-3.355469-7.5-7.5-7.5s-7.5 3.359375-7.5 7.5v62.003906c0 4.140625 3.355469 7.5 7.5 7.5zm0 0"/><path d="m273.5 58.695312h178.878906c.511719 0 .925782.414063.925782.925782v142.285156c0 4.140625 3.359374 7.5 7.503906 7.5 4.140625 0 7.5-3.359375 7.5-7.5v-142.285156c0-8.785156-7.144532-15.929688-15.929688-15.929688h-178.878906c-4.140625 0-7.5 3.359375-7.5 7.5 0 4.144532 3.359375 7.503906 7.5 7.503906zm0 0"/><path d="m43.691406 59.621094v319.574218c0 8.785157 7.144532 15.929688 15.929688 15.929688h392.757812c8.785156 0 15.929688-7.144531 15.929688-15.929688v-142.285156c0-4.144531-3.359375-7.5-7.5-7.5-4.144532 0-7.503906 3.355469-7.503906 7.5v142.285156c0 .511719-.414063.925782-.925782.925782h-392.757812c-.511719 0-.925782-.414063-.925782-.925782v-319.574218c0-.511719.414063-.925782.925782-.925782h178.878906c4.140625 0 7.5-3.359374 7.5-7.503906 0-4.140625-3.359375-7.5-7.5-7.5h-178.878906c-8.785156 0-15.929688 7.144532-15.929688 15.929688zm0 0"/></svg>