<svg height="512pt" viewBox="0 -15 512.001 512" width="512pt" xmlns="http://www.w3.org/2000/svg"><path d="m205.023438 235.445312c0-3.4375 2.789062-6.222656 6.226562-6.222656h174.484375v-213.945312c0-4.292969-3.480469-7.777344-7.777344-7.777344h-362.515625c-4.292968 0-7.773437 3.484375-7.773437 7.777344v294.964844c0 4.296874 3.480469 7.777343 7.773437 7.777343h189.582032zm0 0" fill="#dfebfa"/><path d="m38.078125 310.242188v-294.964844c0-4.292969 3.480469-7.777344 7.777344-7.777344h-30.414063c-4.292968 0-7.773437 3.484375-7.773437 7.777344v294.964844c0 4.296874 3.480469 7.777343 7.773437 7.777343h30.414063c-4.296875.003907-7.777344-3.480469-7.777344-7.777343zm0 0" fill="#b1dbfc"/><path d="m346.242188 37.746094h-299.082032c-5.109375 0-9.25 4.140625-9.25 9.246094v231.535156c0 5.109375 4.140625 9.25 9.25 9.25h157.867188v-52.328125c0-3.4375 2.785156-6.226563 6.222656-6.226563h144.238281v-182.230468c0-5.105469-4.140625-9.246094-9.246093-9.246094zm0 0" fill="#23a8fe"/><path d="m67.910156 278.527344v-231.535156c0-5.105469 4.140625-9.246094 9.25-9.246094h-30c-5.109375 0-9.25 4.140625-9.25 9.246094v231.535156c0 5.109375 4.140625 9.25 9.25 9.25h30c-5.109375-.003906-9.25-4.140625-9.25-9.25zm0 0" fill="#0193fa"/><path d="m116.105469 157.9375-78.195313 112.886719v7.703125c0 5.109375 4.140625 9.246094 9.25 9.25h79.929688l46.289062-67.609375-44.609375-62.230469c-3.046875-4.453125-9.617187-4.453125-12.664062 0zm0 0" fill="#43cb8e"/><path d="m67.910156 278.527344c0-5.015625 1.53125-9.914063 4.386719-14.035156l65.289063-94.253907-8.816407-12.300781c-3.046875-4.453125-9.617187-4.453125-12.664062 0l-78.195313 112.886719v7.703125c0 5.109375 4.140625 9.246094 9.25 9.25h30c-5.109375-.003906-9.25-4.140625-9.25-9.25zm0 0" fill="#00ba66"/><path d="m205.023438 235.445312c0-3.4375 2.789062-6.222656 6.226562-6.222656h140.113281l-85.691406-128.285156c-3.046875-4.449219-9.617187-4.449219-12.664063 0l-127.917968 186.835938h79.933594zm0 0" fill="#43cb8e"/><path d="m265.671875 100.9375c-3.046875-4.449219-9.617187-4.449219-12.664063 0l-127.917968 186.835938h30l119.144531-174.015626zm0 0" fill="#00ba66"/><path d="m202.753906 97.074219c0 16.011719-12.976562 28.988281-28.988281 28.988281-16.007813 0-28.984375-12.976562-28.984375-28.988281 0-16.007813 12.976562-28.984375 28.984375-28.984375 16.011719 0 28.988281 12.976562 28.988281 28.984375zm0 0" fill="#fee55a"/><path d="m174.78125 97.074219c0-10.519531 5.601562-19.726563 13.988281-24.808594-4.378906-2.652344-9.511719-4.175781-15-4.175781-16.011719 0-28.988281 12.976562-28.988281 28.984375 0 16.011719 12.976562 28.988281 28.988281 28.988281 5.488281 0 10.621094-1.527344 15-4.179688-8.386719-5.078124-13.988281-14.289062-13.988281-24.808593zm0 0" fill="#ffd301"/><path d="m498.441406 261.921875h-290.191406c-3.4375 0-6.226562 1.996094-6.226562 4.457031v169.003906c0 2.460938 2.789062 4.457032 6.226562 4.457032h290.191406c3.4375 0 6.226563-1.996094 6.226563-4.457032v-169.003906c-.003907-2.460937-2.789063-4.457031-6.226563-4.457031zm0 0" fill="#ff656f"/><path d="m231.898438 435.382812v-169.003906c0-2.460937 2.789062-4.457031 6.226562-4.457031h-29.875c-3.4375 0-6.226562 1.996094-6.226562 4.457031v169.003906c0 2.460938 2.789062 4.457032 6.226562 4.457032h29.875c-3.4375 0-6.226562-1.996094-6.226562-4.457032zm0 0" fill="#ff4756"/><path d="m504.664062 269.933594v-37.488282c0-3.4375-2.785156-6.222656-6.222656-6.222656h-290.191406c-3.4375 0-6.226562 2.785156-6.226562 6.222656v37.488282zm0 0" fill="#4f67d2"/><path d="m238.125 226.222656h-29.875c-3.4375 0-6.226562 2.785156-6.226562 6.222656v37.488282h29.875v-37.488282c0-3.4375 2.789062-6.222656 6.226562-6.222656zm0 0" fill="#324ccc"/><path d="m202.023438 431.078125v37.484375c0 3.441406 2.789062 6.226562 6.226562 6.226562h290.191406c3.4375 0 6.226563-2.785156 6.226563-6.226562v-37.484375zm0 0" fill="#4f67d2"/><path d="m202.023438 431.078125v37.484375c0 2.226562 1.171874 4.171875 2.925781 5.273438.960937.601562 2.085937.953124 3.300781.953124h29.875c-3.4375 0-6.226562-2.785156-6.226562-6.226562v-37.484375zm0 0" fill="#324ccc"/><path d="m378.816406 346.375-38.695312-25.625c-2.925782-1.9375-6.832032.160156-6.832032 3.667969v52.039062c0 3.53125 3.960938 5.625 6.882813 3.632813l38.695313-26.410156c2.578124-1.761719 2.554687-5.578126-.050782-7.304688zm0 0" fill="#dfebfa"/><path d="m361.988281 335.230469-21.867187-14.480469c-2.925782-1.9375-6.832032.160156-6.832032 3.667969v52.039062c0 3.53125 3.960938 5.625 6.878907 3.632813l21.820312-14.890625zm0 0" fill="#b1dbfc"/><path d="m173.601562 133.5625c20.117188 0 36.488282-16.367188 36.488282-36.484375 0-20.121094-16.371094-36.488281-36.488282-36.488281-20.117187 0-36.488281 16.367187-36.488281 36.488281 0 20.117187 16.367188 36.484375 36.488281 36.484375zm0-57.972656c11.847657 0 21.488282 9.636718 21.488282 21.484375 0 11.847656-9.640625 21.488281-21.488282 21.488281-11.847656 0-21.488281-9.640625-21.488281-21.488281 0-11.847657 9.640625-21.484375 21.488281-21.484375zm0 0"/><path d="m344.09375 314.496094c-7.914062-5.242188-18.46875.46875-18.46875 9.921875v52.039062c0 9.550781 10.722656 15.207031 18.605469 9.824219l38.699219-26.410156c6.976562-4.757813 6.898437-15.085938-.140626-19.746094zm-3.46875 56.089844v-40.394532l30.039062 19.890625zm0 0"/><path d="m498.273438 218.722656h-105.207032v-203.445312c0-8.421875-6.851562-15.277344-15.273437-15.277344h-168.398438c-4.140625 0-7.5 3.359375-7.5 7.5 0 4.144531 3.359375 7.5 7.5 7.5h168.398438c.152343 0 .277343.125.277343.277344v203.441406h-15.246093v-180.972656c0-4.144532-3.359375-7.5-7.5-7.5h-317.578125c-4.144532 0-7.5 3.355468-7.5 7.5v250.027344c0 4.144531 3.355468 7.5 7.5 7.5h156.613281v15.246093h-179.082031c-.152344 0-.277344-.121093-.277344-.277343v-294.964844c0-.152344.125-.277344.277344-.277344h159.117187c4.144531 0 7.5-3.355469 7.5-7.5 0-4.140625-3.355469-7.5-7.5-7.5h-159.117187c-8.425782 0-15.277344 6.855469-15.277344 15.277344v294.964844c0 8.425781 6.851562 15.277343 15.277344 15.277343h179.082031v143.042969c0 7.570312 6.15625 13.726562 13.726563 13.726562h290.1875c7.570312 0 13.726562-6.15625 13.726562-13.726562v-100.625c0-4.144531-3.355469-7.5-7.5-7.5-4.140625 0-7.5 3.355469-7.5 7.5v55.640625h-287.640625v-146.144531h287.640625v55.503906c0 4.140625 3.355469 7.5 7.5 7.5s7.5-3.359375 7.5-7.5v-100.488281c0-7.570313-6.15625-13.726563-13.726562-13.726563zm-377.304688 61.550782h-75.722656v-7.105469l76.882812-110.996094c.070313-.105469.214844-.105469.285156 0l39.707032 57.996094-7.003906 10.230469zm340.589844 158.304687h35.441406v28.710937h-35.441406zm-50.441406 0h35.441406v28.710937h-35.441406zm-50.4375 0h35.4375v28.710937h-35.4375zm-50.441407 0h35.441407v28.710937h-35.441407zm-50.4375 0h35.4375v28.710937h-35.4375zm-15 0v28.710937h-35.441406v-28.710937zm-36.714843-219.855469c-7.570313 0-13.726563 6.15625-13.726563 13.726563v47.828125h-55.214844l38.253907-55.871094 81.632812-119.230469c.070312-.101562.214844-.101562.28125-.003906l77.664062 113.550781zm36.714843 43.710938h-35.441406v-28.710938h35.441406zm50.4375 0h-35.4375v-28.710938h35.4375zm50.441407 0h-35.441407v-28.710938h35.441407zm2.144531-54.429688-76.128907-111.300781c-2.832031-4.132813-7.511718-6.601563-12.519531-6.601563 0 0 0 0-.003906 0-5.007813 0-9.6875 2.46875-12.519531 6.601563l-75.441406 110.1875-36.421876-53.191406c-2.828124-4.132813-7.511718-6.601563-12.519531-6.601563-5.007812 0-9.6875 2.46875-12.496093 6.566406l-64.527344 93.160157v-201.578125h302.574218v162.757812zm48.292969 54.429688h-35.4375v-28.710938h35.441406v28.710938zm50.441406 0h-35.4375v-28.710938h35.4375zm50.441406 0h-35.441406v-28.710938h35.441406zm0 0"/></svg>