<svg height="512pt" viewBox="0 -34 512.003 512" width="512pt" xmlns="http://www.w3.org/2000/svg"><path d="m250.679688 325.625v-33.71875c0-3.082031 2.5-5.582031 5.585937-5.582031h30.925781c2.453125 0 4.605469-1.613281 5.332032-3.957031 1.632812-5.265626 3.746093-10.320313 6.28125-15.121094 1.152343-2.175782.773437-4.839844-.96875-6.578125l-21.882813-21.882813c-2.179687-2.179687-2.179687-5.714844 0-7.894531l23.84375-23.84375c2.179687-2.179687 5.714844-2.179687 7.898437 0l21.878907 21.882813c1.742187 1.738281 4.40625 2.117187 6.578125.96875 4.800781-2.535157 9.855468-4.648438 15.121094-6.28125 2.347656-.730469 3.957031-2.878907 3.957031-5.332032v-30.925781c0-3.085937 2.5-5.585937 5.582031-5.585937h33.71875c.800781 0 1.5625.175781 2.25.480468v-166.75c0-4.417968-3.582031-8.003906-8.003906-8.003906h-373.105469c-4.421875 0-8.003906 3.585938-8.003906 8.003906v303.589844c0 4.417969 3.582031 8.003906 8.003906 8.003906h235.230469c-.128906-.472656-.222656-.960937-.222656-1.472656zm0 0" fill="#dfebfa"/><path d="m38.796875 319.09375v-303.589844c0-4.417968 3.582031-8.003906 8.003906-8.003906h-31.128906c-4.421875 0-8.003906 3.585938-8.003906 8.003906v303.589844c0 4.417969 3.582031 8.003906 8.003906 8.003906h31.128906c-4.421875 0-8.003906-3.585937-8.003906-8.003906zm0 0" fill="#b1dbfc"/><path d="m356.523438 38.632812h-308.597657c-5.042969 0-9.128906 4.085938-9.128906 9.128907v239.074219c0 5.042968 4.085937 9.128906 9.128906 9.128906h202.753907v-4.058594c0-3.082031 2.5-5.582031 5.585937-5.582031h30.925781c2.453125 0 4.605469-1.613281 5.332032-3.957031 1.632812-5.265626 3.75-10.320313 6.285156-15.121094 1.148437-2.175782.769531-4.839844-.96875-6.578125l-21.882813-21.882813c-2.183593-2.179687-2.183593-5.714844 0-7.894531l23.839844-23.84375c2.179687-2.179687 5.71875-2.179687 7.898437 0l21.882813 21.882813c1.738281 1.738281 4.402344 2.117187 6.578125.96875 4.796875-2.535157 9.851562-4.648438 15.121094-6.28125 2.34375-.730469 3.953125-2.878907 3.953125-5.335938v-30.925781c0-3.082031 2.5-5.582031 5.585937-5.582031h4.839844v-134.011719c-.003906-5.042969-4.089844-9.128907-9.132812-9.128907zm0 0" fill="#23a8fe"/><path d="m68.796875 286.835938v-239.074219c0-5.042969 4.085937-9.128907 9.128906-9.128907h-30c-5.042969 0-9.128906 4.085938-9.128906 9.128907v239.074219c0 5.042968 4.085937 9.128906 9.128906 9.128906h30c-5.042969 0-9.128906-4.085938-9.128906-9.128906zm0 0" fill="#0193fa"/><path d="m119.273438 162.332031-80.476563 116.1875v8.320313c0 5.039062 4.085937 9.125 9.125 9.125h82.597656l47.644531-69.582032-45.855468-64.050781c-3.136719-4.582031-9.894532-4.582031-13.035156 0zm0 0" fill="#43cb8e"/><path d="m68.796875 286.839844v-1.605469c0-4.371094 1.332031-8.640625 3.824219-12.234375l68.3125-98.621094-8.625-12.046875c-3.136719-4.582031-9.894532-4.582031-13.03125 0l-80.480469 116.1875v8.320313c0 5.039062 4.085937 9.125 9.125 9.125h30c-5.039063 0-9.125-4.085938-9.125-9.125zm0 0" fill="#00ba66"/><path d="m250.679688 291.90625c0-3.082031 2.5-5.582031 5.585937-5.582031h30.925781c2.453125 0 4.605469-1.613281 5.332032-3.957031 1.632812-5.265626 3.746093-10.320313 6.28125-15.121094 1.152343-2.175782.773437-4.839844-.96875-6.578125l-21.882813-21.882813c-2.179687-2.179687-2.179687-5.714844 0-7.894531l23.84375-23.84375c2.179687-2.179687 5.714844-2.179687 7.898437 0l21.878907 21.882813c1.742187 1.738281 4.40625 2.117187 6.578125.96875 4.800781-2.535157 9.855468-4.648438 15.121094-6.28125 1.097656-.34375 2.027343-1.003907 2.710937-1.851563l-80.773437-118.097656c-3.136719-4.578125-9.898438-4.578125-13.035157 0l-131.65625 192.296875h122.164063v-4.058594zm0 0" fill="#43cb8e"/><path d="m273.210938 103.671875c-3.136719-4.582031-9.894532-4.582031-13.03125 0l-131.660157 192.292969h30l123.171875-179.898438zm0 0" fill="#00ba66"/><path d="m208.453125 99.695312c0 16.476563-13.355469 29.832032-29.832031 29.832032-16.476563 0-29.832032-13.355469-29.832032-29.832032 0-16.476562 13.355469-29.835937 29.832032-29.835937 16.476562 0 29.832031 13.359375 29.832031 29.835937zm0 0" fill="#fee55a"/><path d="m178.621094 99.695312c0-11.042968 6.003906-20.675781 14.917968-25.835937-4.390624-2.539063-9.480468-4-14.917968-4-16.476563 0-29.832032 13.359375-29.832032 29.832031 0 16.476563 13.355469 29.835938 29.832032 29.835938 5.4375 0 10.527344-1.460938 14.917968-4-8.914062-5.160156-14.917968-14.792969-14.917968-25.832032zm0 0" fill="#ffd301"/><path d="m499.082031 285.324219h-30.925781c-2.015625 0-3.773438-1.308594-4.375-3.253907-1.628906-5.246093-3.765625-10.390624-6.355469-15.289062-.953125-1.804688-.632812-3.976562.792969-5.40625l21.882812-21.882812c1.242188-1.242188 1.925782-2.894532 1.925782-4.652344 0-1.761719-.683594-3.414063-1.925782-4.65625l-23.84375-23.84375c-1.242187-1.242188-2.898437-1.929688-4.65625-1.929688-1.757812 0-3.410156.6875-4.652343 1.929688l-21.882813 21.882812c-1.429687 1.429688-3.601562 1.746094-5.402344.792969-4.902343-2.589844-10.046874-4.726563-15.292968-6.355469-1.945313-.601562-3.253906-2.363281-3.253906-4.375v-30.925781c0-3.628906-2.953126-6.582031-6.582032-6.582031h-33.71875c-3.628906 0-6.582031 2.953125-6.582031 6.582031v30.925781c0 2.015625-1.308594 3.773438-3.25 4.375-5.25 1.628906-10.394531 3.769532-15.292969 6.355469-1.804687.953125-3.976562.636719-5.40625-.792969l-21.878906-21.882812c-1.246094-1.242188-2.898438-1.929688-4.65625-1.929688s-3.414062.6875-4.65625 1.929688l-23.84375 23.84375c-1.242188 1.242187-1.925781 2.894531-1.925781 4.65625 0 1.757812.683593 3.410156 1.925781 4.652344l21.882812 21.882812c1.429688 1.429688 1.746094 3.601562.792969 5.40625-2.585937 4.898438-4.726562 10.042969-6.355469 15.292969-.601562 1.941406-2.359374 3.25-4.375 3.25h-30.925781c-3.628906 0-6.582031 2.953125-6.582031 6.582031v33.71875c0 3.628906 2.953125 6.582031 6.582031 6.582031h30.925781c2.015626 0 3.773438 1.308594 4.375 3.253907 1.628907 5.246093 3.769532 10.390624 6.355469 15.289062.953125 1.808594.636719 3.976562-.792969 5.40625l-21.882812 21.882812c-1.242188 1.242188-1.925781 2.894532-1.925781 4.652344 0 1.757813.683593 3.414063 1.925781 4.65625l23.84375 23.84375c1.242188 1.242188 2.898438 1.925782 4.65625 1.925782s3.410156-.683594 4.65625-1.925782l21.878906-21.882812c1.429688-1.429688 3.601563-1.75 5.40625-.792969 4.898438 2.585937 10.042969 4.726563 15.292969 6.355469 1.945313.601562 3.25 2.363281 3.25 4.375v30.925781c0 3.628906 2.953125 6.582031 6.582031 6.582031h33.71875c3.628906 0 6.582032-2.953125 6.582032-6.582031v-30.925781c0-2.015625 1.308593-3.773438 3.253906-4.375 5.246094-1.628906 10.390625-3.769532 15.292968-6.355469 1.800782-.953125 3.972657-.636719 5.402344.792969l21.882813 21.882812c2.566406 2.5625 6.742187 2.5625 9.308593 0l23.84375-23.84375c2.566407-2.566406 2.566407-6.746094 0-9.3125l-21.882812-21.882812c-1.425781-1.425782-1.746094-3.597656-.792969-5.402344 2.589844-4.898438 4.726563-10.042969 6.355469-15.292969.605469-1.945312 2.363281-3.25 4.378906-3.25h30.921875c3.632813 0 6.585938-2.953125 6.585938-6.582031v-33.71875c0-3.628906-2.957031-6.582031-6.585938-6.582031zm-68.1875 26.214843c-1.363281 26.921876-23.523437 49.082032-50.445312 50.445313-15.066407.761719-29.816407-4.898437-40.457031-15.535156-10.636719-10.640625-16.300782-25.386719-15.539063-40.457031 1.367187-26.921876 23.523437-49.082032 50.445313-50.445313.902343-.046875 1.800781-.070313 2.703124-.070313 14.121094 0 27.753907 5.605469 37.753907 15.605469 10.640625 10.640625 16.300781 25.386719 15.539062 40.457031zm0 0" fill="#fee55a"/><g fill="#ffd301"><path d="m297.132812 261.375c1.425782 1.429688 1.742188 3.601562.789063 5.40625-2.585937 4.898438-4.726563 10.042969-6.351563 15.292969-.605468 1.941406-2.363281 3.25-4.378906 3.25h30c2.015625 0 3.773438-1.308594 4.378906-3.25 1.628907-5.25 3.765626-10.394531 6.351563-15.292969.953125-1.804688.636719-3.976562-.789063-5.40625l-21.882812-21.882812c-1.246094-1.242188-1.929688-2.894532-1.929688-4.652344 0-1.761719.683594-3.414063 1.929688-4.65625l13.496094-13.5-10.34375-10.34375c-1.242188-1.242188-2.894532-1.929688-4.65625-1.929688-1.757813 0-3.410156.6875-4.652344 1.929688l-23.84375 23.84375c-1.246094 1.242187-1.929688 2.894531-1.929688 4.652344 0 1.757812.683594 3.414062 1.929688 4.65625zm0 0"/><path d="m279.683594 325.625v-33.71875c0-3.628906 2.953125-6.582031 6.582031-6.582031h-30c-3.632813 0-6.585937 2.953125-6.585937 6.582031v33.71875c0 3.628906 2.953124 6.582031 6.585937 6.582031h30c-3.628906.003907-6.582031-2.949219-6.582031-6.582031zm0 0"/><path d="m305.25 387.347656c-1.246094-1.242187-1.929688-2.894531-1.929688-4.652344 0-1.757812.683594-3.414062 1.929688-4.65625l21.882812-21.882812c1.425782-1.425781 1.742188-3.597656.789063-5.402344-2.585937-4.898437-4.722656-10.042968-6.351563-15.292968-.605468-1.945313-2.363281-3.25-4.378906-3.25h-30c2.015625 0 3.773438 1.304687 4.378906 3.25 1.625 5.25 3.765626 10.394531 6.351563 15.292968.957031 1.804688.636719 3.976563-.789063 5.402344l-21.882812 21.882812c-1.246094 1.242188-1.929688 2.898438-1.929688 4.65625 0 1.757813.683594 3.410157 1.929688 4.652344l23.839844 23.84375c1.246094 1.242188 2.898437 1.929688 4.65625 1.929688 1.757812 0 3.414062-.6875 4.65625-1.929688l10.34375-10.34375zm0 0"/><path d="m360.816406 180.773438c-3.636718 0-6.585937 2.949218-6.585937 6.582031v30.925781c0 1.074219-.378907 2.070312-1.019531 2.863281 0 0 11.183593-2.265625 25.535156-2.765625 3.054687-.105468 5.488281-2.605468 5.488281-5.664062v-25.359375c0-3.628907 2.953125-6.582031 6.582031-6.582031zm0 0"/><path d="m384.230469 430.175781v-25.847656c0-2.796875-2.246094-5.074219-5.042969-5.125-19.175781-.375-25.980469-2.816406-25.980469-2.816406.644531.792969 1.023438 1.789062 1.023438 2.863281v30.925781c0 3.636719 2.949219 6.582031 6.582031 6.582031h30.003906c-3.632812 0-6.585937-2.953124-6.585937-6.582031zm0 0"/></g><path d="m178.453125 137.027344c20.585937 0 37.335937-16.746094 37.335937-37.332032 0-20.585937-16.75-37.335937-37.335937-37.335937s-37.332031 16.75-37.332031 37.335937c0 20.585938 16.746094 37.332032 37.332031 37.332032zm0-59.667969c12.316406 0 22.335937 10.019531 22.335937 22.335937 0 12.3125-10.019531 22.332032-22.335937 22.332032-12.3125 0-22.332031-10.019532-22.332031-22.332032 0-12.316406 10.019531-22.335937 22.332031-22.335937zm0 0"/><path d="m498.917969 278.824219h-29.519531c-1.546876-4.734375-3.476563-9.382813-5.753907-13.847657l20.882813-20.886718c2.472656-2.46875 3.835937-5.757813 3.835937-9.25 0-3.496094-1.363281-6.78125-3.832031-9.25l-23.84375-23.847656c-2.472656-2.46875-5.757812-3.832032-9.25-3.832032-3.496094 0-6.78125 1.363282-9.253906 3.832032l-20.882813 20.886718c-4.46875-2.277344-9.113281-4.210937-13.851562-5.753906v-29.519531c0-3.335938-1.265625-6.378907-3.332031-8.691407v-43.429687c0-4.140625-3.355469-7.5-7.5-7.5-4.144532 0-7.5 3.359375-7.5 7.5v39.039063h-16.128907v-135.640626c0-4.144531-3.359375-7.5-7.5-7.5h-326.859375c-4.144531 0-7.5 3.355469-7.5 7.5v257.335938c0 4.140625 3.355469 7.5 7.5 7.5h204.386719v16.128906h-76.894531c-4.144532 0-7.5 3.359375-7.5 7.5s3.355468 7.5 7.5 7.5h80.480468c2.386719 2.527344 5.757813 4.113282 9.496094 4.113282h29.519532c1.542968 4.734374 3.476562 9.378906 5.753906 13.847656l-20.886719 20.886718c-2.46875 2.46875-3.832031 5.753907-3.832031 9.25 0 3.492188 1.363281 6.78125 3.832031 9.25l23.84375 23.84375c2.472656 2.472657 5.757813 3.832032 9.253906 3.832032 3.496094 0 6.78125-1.359375 9.25-3.832032l20.886719-20.882812c4.464844 2.277344 9.109375 4.207031 13.847656 5.753906v29.515625c0 7.214844 5.867188 13.085938 13.082032 13.085938h33.71875c7.214843 0 13.085937-5.871094 13.085937-13.085938v-29.515625c4.734375-1.546875 9.378906-3.476562 13.847656-5.753906l20.886719 20.882812c5.097656 5.101563 13.398438 5.101563 18.503906 0l23.839844-23.839843c2.472656-2.472657 3.832031-5.757813 3.832031-9.253907 0-3.492187-1.359375-6.777343-3.832031-9.25l-20.882812-20.882812c2.277343-4.46875 4.207031-9.113281 5.753906-13.851562h29.515625c7.214843 0 13.085937-5.867188 13.085937-13.082032v-33.71875c-.003906-7.21875-5.871094-13.085937-13.085937-13.085937zm-452.789063-232.691407h311.859375v128.414063c-.394531.082031-.785156.183594-1.164062.300781-.121094.035156-.234375.082032-.351563.121094-.265625.089844-.53125.183594-.789062.289062-.136719.058594-.273438.121094-.410156.1875-.230469.101563-.457032.207032-.675782.324219-.140625.074219-.28125.152344-.417968.230469-.210938.121094-.417969.246094-.621094.378906-.132813.085938-.261719.171875-.394532.261719-.199218.140625-.394531.289063-.589843.441406-.117188.09375-.238281.1875-.355469.285157-.203125.167968-.394531.351562-.585938.535156-.09375.089844-.195312.171875-.285156.265625-.261718.265625-.511718.539062-.75.824219-.011718.015624-.03125.035156-.046875.050781-.25.308593-.488281.625-.710937.953125-.070313.101562-.132813.207031-.199219.3125-.144531.230468-.292969.460937-.425781.699218-.074219.132813-.140625.269532-.207032.402344-.113281.222656-.222656.445313-.324218.671875-.066406.144531-.125.292969-.183594.445313-.09375.226562-.175781.453125-.253906.6875-.054688.152344-.101563.308594-.148438.464844-.070312.238281-.132812.484374-.1875.730468-.035156.152344-.074218.304688-.105468.460938-.050782.273437-.089844.546875-.125.824218-.015626.136719-.042969.265626-.054688.402344-.039062.417969-.0625.835938-.0625 1.261719v11.976563l-68.328125-99.902344c-2.875-4.195313-7.621094-6.699219-12.707031-6.699219-5.082032 0-9.832032 2.503906-12.703125 6.699219l-77.828125 113.675781-37.664063-55.011719c-2.875-4.195312-7.621093-6.699218-12.707031-6.699218-5.082031 0-9.832031 2.503906-12.679688 6.664062l-66.816406 96.460938zm78.269532 242.332032h-78.269532v-7.601563l79.171875-114.292969c.046875-.070312.117188-.171874.324219-.171874.210938 0 .277344.101562.328125.171874l40.953125 59.8125-22.691406 33.140626zm130.460937-9.578125c-.132813.011719-.261719.03125-.390625.050781-.277344.03125-.550781.074219-.824219.125-.144531.027344-.292969.0625-.4375.09375-.25.058594-.5.121094-.746093.191406-.144532.042969-.285157.085938-.425782.128906-.257812.085938-.507812.179688-.753906.277344-.121094.050782-.242188.09375-.359375.144532-.339844.144531-.671875.304687-.996094.480468-.019531.007813-.042969.019532-.0625.03125-.34375.183594-.675781.390625-1 .605469-.101562.070313-.199219.144531-.300781.214844-.21875.15625-.433594.3125-.640625.480469-.113281.089843-.222656.183593-.332031.28125-.191406.160156-.371094.328124-.550782.5-.109374.101562-.210937.203124-.316406.308593-.179687.1875-.351562.378907-.519531.574219-.085937.097656-.175781.195312-.261719.300781-.214844.265625-.421875.539063-.613281.824219-.027344.035156-.058594.070312-.082031.109375-.21875.320313-.417969.652344-.605469.996094-.058594.105469-.109375.21875-.167969.328125-.125.238281-.242187.480468-.351562.730468-.058594.132813-.113282.269532-.167969.40625-.09375.234376-.179687.472657-.261719.714844-.046875.140625-.09375.285156-.136718.429688-.023438.082031-.054688.167968-.082032.253906h-100.894531l39.605469-57.847656s0 0 0-.003906l84.015625-122.707032c.046875-.070312.121093-.171875.328125-.171875.210937 0 .28125.101563.328125.167969l75.746093 110.742188c-.601562.234374-1.199218.480468-1.792968.722656-.117188.050781-.234375.09375-.351563.144531-1.011719.417969-2.015625.863281-3.011719 1.320313-.246093.109374-.488281.222656-.730468.335937-1.007813.472656-2.007813.953125-3 1.457031l-20.882813-20.882812c-.621093-.617188-1.289062-1.167969-2-1.640625-2.128906-1.425781-4.632812-2.191407-7.253906-2.191407-.359375 0-.710937.023438-1.0625.050782-.078125.007812-.160156.003906-.234375.011718-2.148438.210938-4.183594.9375-5.957031 2.128907-.355469.238281-.699219.492187-1.03125.765625-.332031.273437-.65625.566406-.964844.875l-11.921875 11.921875-11.921875 11.917969c-1.175781 1.179687-2.09375 2.546874-2.742187 4.03125-.03125.074218-.070313.140624-.097657.210937-.054687.128906-.09375.265625-.144531.398437-.097656.265626-.203125.527344-.285156.800782v.003906c-.152344.507812-.265625 1.027344-.355469 1.554688-.128906.738281-.203125 1.488281-.203125 2.253906 0 3.058594 1.039062 5.957031 2.957031 8.289062.273438.332032.566407.652344.875.960938l20.882813 20.886718c-2.277344 4.46875-4.210938 9.117188-5.753906 13.847657h-29.515626c-.421874 0-.832031.023437-1.242187.0625zm242.140625 44.824219h-29.011719c-5.761719 0-10.785156 3.710937-12.492187 9.230468-1.476563 4.746094-3.410156 9.402344-5.753906 13.84375-2.707032 5.121094-1.78125 11.304688 2.296874 15.378906l20.527344 20.527344-21.132812 21.132813-20.527344-20.523438c-4.078125-4.082031-10.261719-5.007812-15.382812-2.300781-4.4375 2.34375-9.09375 4.28125-13.839844 5.753906-5.523438 1.710938-9.234375 6.734375-9.234375 12.496094v29.007812h-29.886719v-29.007812c0-5.761719-3.707031-10.78125-9.230469-12.496094-4.746093-1.472656-9.402343-3.410156-13.839843-5.75-5.121094-2.707031-11.304688-1.785156-15.386719 2.296875l-20.527344 20.527344-21.132813-21.132813 20.527344-20.527343c4.082032-4.082031 5.003906-10.261719 2.300782-15.386719-2.347657-4.4375-4.28125-9.09375-5.753907-13.84375-1.714843-5.519531-6.738281-9.226562-12.496093-9.226562h-29.007813v-29.886719h29.007813c5.761718 0 10.78125-3.710938 12.496093-9.234375 1.472657-4.746094 3.40625-9.402344 5.75-13.839844 1.988281-3.753906 2.011719-8.082031.277344-11.734375-.628906-1.324219-1.484375-2.5625-2.570313-3.648437l-20.53125-20.527344 21.132813-21.132813 20.527344 20.527344c4.082031 4.078125 10.261719 5.003906 15.386719 2.296875 4.433593-2.34375 9.089843-4.277344 13.839843-5.75.015625-.007812.03125-.015625.046875-.019531.308594-.09375.609375-.203125.90625-.320313.195313-.078125.382813-.164062.570313-.25.109375-.046875.214843-.089844.320312-.140625.265625-.128906.523438-.269531.78125-.414062.015625-.007813.03125-.015625.046875-.023438 4.011719-2.296875 6.5625-6.558593 6.5625-11.328125v-29.011718h29.886719v29.011718c0 5.757813 3.707031 10.78125 9.230469 12.496094 4.75 1.472656 9.40625 3.40625 13.839844 5.75 5.121093 2.707031 11.304687 1.785156 15.386718-2.296875l20.527344-20.527344 21.132812 21.132813-20.527343 20.523437c-4.082031 4.082031-5.003907 10.265625-2.296875 15.386719 2.34375 4.4375 4.277344 9.09375 5.75 13.835938 1.710937 5.527343 6.734375 9.238281 12.496094 9.238281h29.007812zm0 0"/><path d="m374.300781 247.058594c-15.195312.769531-29.558593 7.183594-40.4375 18.0625-10.878906 10.878906-17.292969 25.242187-18.0625 40.441406-.886719 17.46875 5.679688 34.5625 18.015625 46.894531 11.597656 11.597657 27.402344 18.097657 43.769532 18.097657 1.039062 0 2.085937-.027344 3.128906-.082032 15.199218-.769531 29.5625-7.1875 40.441406-18.0625 10.878906-10.878906 17.292969-25.242187 18.0625-40.441406.882812-17.46875-5.683594-34.5625-18.019531-46.898438-12.335938-12.332031-29.425781-18.90625-46.898438-18.011718zm49.9375 64.152344c-1.199219 23.632812-20.648437 43.085937-44.285156 44.28125-13.242187.675781-26.1875-4.300782-35.53125-13.640626-9.339844-9.339843-14.3125-22.292968-13.640625-35.53125 1.195312-23.632812 20.648438-43.085937 44.28125-44.285156.792969-.039062 1.582031-.058594 2.375-.058594 12.398438 0 24.375 4.921876 33.15625 13.703126 9.339844 9.339843 14.3125 22.292968 13.644531 35.53125zm0 0"/><path d="m15.503906 334.597656h115.617188c4.140625 0 7.5-3.359375 7.5-7.5 0-4.144531-3.359375-7.5-7.5-7.5h-115.617188c-.277344 0-.503906-.226562-.503906-.503906v-303.589844c0-.277344.226562-.503906.503906-.503906h373.109375c.277344 0 .503907.226562.503907.503906v84.730469c0 4.140625 3.359374 7.5 7.5 7.5 4.144531 0 7.5-3.359375 7.5-7.5v-84.730469c0-8.546875-6.953126-15.503906-15.503907-15.503906h-373.109375c-8.546875 0-15.503906 6.957031-15.503906 15.503906v303.589844c0 8.546875 6.957031 15.503906 15.503906 15.503906zm0 0"/></svg>