<svg height="512pt" viewBox="0 0 512 512.00038" width="512pt" xmlns="http://www.w3.org/2000/svg"><path d="m500.183594 478.382812-157.859375-157.859374c-6.632813 7.765624-13.867188 15-21.632813 21.632812l157.855469 157.859375c5.976563 5.976563 15.664063 5.976563 21.636719 0 5.972656-5.972656 5.972656-15.660156 0-21.632813zm0 0" fill="#dfebfa"/><path d="m488.046875 484.515625-154.464844-154.464844c-4.117187 4.21875-8.40625 8.277344-12.890625 12.109375l157.855469 157.859375c5.976563 5.972657 15.664063 5.972657 21.636719 0 3.324218-3.324219 4.789062-7.792969 4.417968-12.132812-5.519531 2.226562-12.078124 1.105469-16.554687-3.371094zm0 0" fill="#b1dbfc"/><path d="m390.1875 198.761719c0 105.628906-85.628906 191.257812-191.261719 191.257812-105.628906 0-191.257812-85.628906-191.257812-191.257812 0-105.632813 85.628906-191.261719 191.257812-191.261719 105.632813 0 191.261719 85.628906 191.261719 191.261719zm0 0" fill="#ff4756"/><path d="m38.167969 198.761719c0-100.496094 77.507812-182.886719 176.007812-190.65625-5.03125-.398438-10.113281-.605469-15.25-.605469-105.628906 0-191.257812 85.628906-191.257812 191.261719 0 105.628906 85.628906 191.257812 191.257812 191.257812 5.136719 0 10.21875-.207031 15.25-.601562-98.5-7.773438-176.007812-90.160157-176.007812-190.65625zm0 0" fill="#fc2d39"/><path d="m396.6875 216.9375c.371094-4.125-2.667969-7.773438-6.792969-8.144531-4.105469-.378907-7.773437 2.664062-8.148437 6.789062-7.816406 86.171875-76.328125 158.015625-166.164063 166.167969-4.125.371094-7.164062 4.019531-6.789062 8.144531.351562 3.894531 3.625 6.824219 7.460937 6.824219.226563 0 .453125-.011719.6875-.03125 38.550782-3.5 75.261719-18.34375 105.457032-42.328125l151.019531 151.019531c8.824219 8.824219 23.128906 8.832032 31.964843 0 8.808594-8.8125 8.808594-23.152344 0-31.960937l-151.023437-151.023438c23.980469-30.191406 38.828125-66.902343 42.328125-105.457031zm98.085938 267.085938c2.960937 2.960937 2.960937 7.785156 0 10.75-2.972657 2.96875-7.777344 2.96875-10.75 0l-150.203126-150.203126c.085938-.078124 5.023438-4.582031 10.75-10.75zm0 0"/><path d="m198.761719 15c95.550781 0 174.46875 73.070312 182.984375 166.9375.375 4.125 4.003906 7.167969 8.148437 6.792969 4.125-.375 7.164063-4.019531 6.789063-8.148438-9.214844-101.605469-94.621094-180.582031-197.921875-180.582031-109.597657 0-198.761719 89.164062-198.761719 198.761719 0 103.378906 79.050781 188.710937 180.582031 197.925781.230469.019531.460938.03125.6875.03125 3.835938 0 7.105469-2.929688 7.460938-6.824219.375-4.125-2.667969-7.773437-6.792969-8.148437-93.914062-8.519532-166.9375-87.484375-166.9375-182.984375 0-101.328125 82.433594-183.761719 183.761719-183.761719zm0 0"/></svg>