<svg height="512pt" viewBox="0 0 512 512.00135" width="512pt" xmlns="http://www.w3.org/2000/svg"><path d="m197.960938 368.074219-53.871094-53.871094c-35.789063-14.691406-78.449219-7.511719-107.511719 21.554687-38.613281 38.613282-38.613281 101.21875 0 139.832032 38.609375 38.613281 101.214844 38.613281 139.828125 0 29.066406-29.066406 36.25-71.726563 21.554688-107.515625zm0 0" fill="#8cc9f9"/><path d="m66.578125 335.757812c15.464844-15.464843 34.78125-24.734374 54.863281-27.808593-30.023437-4.570313-61.742187 4.6875-84.863281 27.808593-38.613281 38.613282-38.613281 101.21875 0 139.832032 23.132813 23.132812 54.875 32.390625 84.914063 27.804687-79.605469-12.15625-112.289063-110.261719-54.914063-167.636719zm0 0" fill="#60b8fe"/><path d="m159.261719 396.277344-43.375-43.371094c-16.652344-2.949219-34.433594 1.992188-47.300781 14.859375-20.933594 20.9375-20.933594 54.878906 0 75.8125 20.933593 20.9375 54.878906 20.9375 75.8125 0 12.867187-12.867187 17.8125-30.644531 14.863281-47.300781zm0 0" fill="#60b8fe"/><path d="m98.585938 367.765625c5.75-5.75 12.488281-9.910156 19.667968-12.496094l-2.367187-2.367187c-16.652344-2.949219-34.433594 1.996094-47.300781 14.863281-20.933594 20.933594-20.933594 54.878906 0 75.8125 14.324218 14.324219 34.734374 18.84375 52.90625 13.5625-38.976563-11.316406-51.742188-60.539063-22.90625-89.375zm0 0" fill="#23a8fe"/><path d="m326.425781 118.425781 66.890625 66.890625 90.984375-78.269531c25.199219-21.683594 26.980469-59.921875 3.859375-83.042969-23.039062-23.039062-61.117187-21.363281-82.851562 3.644532zm0 0" fill="#ff4756"/><path d="m405.308594 27.648438-78.882813 90.777343 66.890625 66.890625 16.125-13.871094-47.640625-47.640624c-3.027343-3.03125-3.199219-7.886719-.390625-11.117188l73.898438-85.039062c7.835937-9.015626 17.796875-14.984376 28.414062-17.867188-20.347656-5.601562-43.320312.5-58.414062 17.867188zm0 0" fill="#fc2d39"/><path d="m310.851562 147.441406-184.253906 184.253906c-8.890625 8.890626-12.460937 21.082032-10.722656 32.628907.75 4.988281-.765625 10.046875-4.332031 13.617187l-10.757813 10.757813c-6.265625 6.261719-6.265625 16.417969 0 22.683593 6.265625 6.261719 16.417969 6.261719 22.683594 0l10.757812-10.757812c3.566407-3.566406 8.628907-5.085938 13.617188-4.332031 11.546875 1.738281 23.738281-1.835938 32.628906-10.726563l184.253906-184.253906zm0 0" fill="#dfebfa"/><path d="m130.785156 388.695312 10.757813-10.753906c3.566406-3.570312 5.082031-8.628906 4.332031-13.621094-1.738281-11.546874 1.832031-23.734374 10.722656-32.625l169.253906-169.253906-15-15-184.253906 184.253906c-8.890625 8.890626-12.460937 21.082032-10.722656 32.628907.75 4.988281-.765625 10.046875-4.332031 13.617187l-10.757813 10.757813c-6.265625 6.261719-6.265625 16.417969 0 22.683593 6.265625 6.261719 16.417969 6.261719 22.683594 0l4.273438-4.273437c-2.945313-5.992187-1.941407-13.429687 3.042968-18.414063zm0 0" fill="#b1dbfc"/><path d="m400.644531 188.382812-76.863281-76.859374c-4.738281-4.742188-12.628906-4.609376-17.53125.292968l-7.429688 7.429688c-4.902343 4.902344-5.035156 12.792968-.292968 17.53125l76.859375 76.863281c4.742187 4.742187 12.632812 4.609375 17.535156-.292969l7.425781-7.429687c4.90625-4.902344 5.035156-12.792969.296875-17.535157zm0 0" fill="#ff656f"/><path d="m327.277344 136.777344c-4.742188-4.742188-4.609375-12.628906.292968-17.535156l1.964844-1.964844-5.753906-5.753906c-4.742188-4.742188-12.632812-4.609376-17.535156.292968l-7.425782 7.425782c-4.902343 4.902343-5.035156 12.792968-.292968 17.535156l76.859375 76.863281c4.742187 4.738281 12.632812 4.609375 17.535156-.292969l5.460937-5.460937zm0 0" fill="#ff4756"/><path d="m495.34375 32.15625c-3.714844 1.832031-5.238281 6.328125-3.40625 10.042969 9.824219 19.925781 4.90625 43.953125-11.964844 58.433593l-84.304687 72.335938-57.035157-57.039062 72.898438-84.089844c14.808594-17.082032 39.144531-21.730469 59.183594-11.3125 3.675781 1.910156 8.203125.480468 10.113281-3.195313 1.914063-3.671875.480469-8.203125-3.191406-10.113281-26.222657-13.632812-58.066407-7.546875-77.441407 14.796875l-72.238281 83.332031c-7.726562-6.769531-19.515625-6.492187-26.882812.875l-7.1875 7.183594c-7.675781 7.675781-7.675781 20.167969 0 27.847656l6.191406 6.191406-158.027344 158.027344c-38.648437-13.789062-81.699219-4.257812-110.941406 24.984375-41.476563 41.476563-41.476563 108.960938 0 150.4375 41.472656 41.472657 108.957031 41.476563 150.433594 0 29.242187-29.242187 38.777343-72.292969 24.984375-110.941406l54.265625-54.265625c2.929687-2.929688 2.929687-7.679688 0-10.605469-2.929688-2.929687-7.675781-2.929687-10.605469 0l-57.695312 57.691407-17.492188 17.492187c-11.324219 11.328125-24.023438 8.582031-28.703125 8.375-6.558594-.296875-12.96875 2.109375-17.539063 6.679687l-10.757812 10.757813c-3.328125 3.332031-8.75 3.332031-12.078125 0-1.613281-1.613281-2.5-3.757813-2.5-6.039063s.886719-4.425781 2.5-6.039062l10.757813-10.753906c5.148437-5.148438 7.558593-12.640625 6.445312-20.039063-1.445312-9.636719 1.648438-19.246093 8.609375-26.207031l178.953125-178.953125 43.265625 43.265625-79.019531 79.015625c-2.925782 2.929687-2.925782 7.679687 0 10.609375 2.933594 2.925781 7.679687 2.925781 10.609375 0l79.015625-79.015625 6.191406 6.1875c3.707031 3.710937 8.652344 5.753906 13.921875 5.753906s10.214844-2.042969 13.925781-5.753906l7.183594-7.183594c7.5-7.5 7.652344-19.582031.496094-27.296875l83.460937-71.617187c22.074219-18.9375 28.507813-50.375 15.652344-76.445313-1.835937-3.714844-6.332031-5.242187-10.046875-3.410156zm-389.273438 340.480469-10.753906 10.757812c-4.449218 4.445313-6.894531 10.355469-6.894531 16.644531 0 6.289063 2.445313 12.199219 6.894531 16.648438.554688.554688 1.132813 1.078125 1.734375 1.570312.015625.015626.03125.027344.046875.039063.003906.003906.007813.003906.007813.003906 4.1875 3.417969 9.378906 5.28125 14.855469 5.28125 12.664062 0 18.410156-8.660156 27.402343-17.652343 1.730469-1.730469 4.179688-2.527344 6.78125-2.261719.136719.015625.277344.019531.414063.042969 2.097656.3125 4.832031.472656 5.835937.492187.398438 12.644531-4.410156 25.019531-13.46875 34.074219-18.019531 18.019531-47.183593 18.019531-65.203125 0-18.019531-18.023438-18.019531-47.1875 0-65.207032 8.910156-8.90625 21.1875-13.855468 34.074219-13.464843.042969 2.132812.253906 4.242187.496094 5.832031.414062 2.75-.394531 5.375-2.222657 7.199219zm19.542969-50.730469-4.484375 4.484375c-5.171875 5.167969-8.945312 11.480469-11.132812 18.304687-17.347656-1.035156-34.464844 5.355469-46.878906 17.769532-23.882813 23.882812-23.886719 62.53125 0 86.417968 23.882812 23.882813 62.535156 23.886719 86.417968 0 12.414063-12.414062 18.804688-29.53125 17.769532-46.875 5.144531-1.652343 9.996093-4.199218 14.289062-7.574218 1.402344-1.101563 2.742188-2.289063 4.015625-3.5625l8.972656-8.972656c8.46875 31.328124-.257812 65-23.644531 88.386718-35.625 35.628906-93.59375 35.628906-129.222656 0-35.625-35.625-35.625-93.597656 0-129.222656 17.519531-17.519531 40.804687-26.8125 64.5625-26.8125 7.953125 0 15.964844 1.042969 23.824218 3.167969zm269.558594-121.585938-7.183594 7.183594c-.875.878906-2.054687 1.359375-3.316406 1.359375s-2.4375-.480469-3.316406-1.359375c-11.765625-11.765625-67.101563-67.101562-76.859375-76.859375-1.796875-1.800781-1.796875-4.835937 0-6.632812l7.183594-7.1875c.898437-.898438 2.105468-1.347657 3.316406-1.347657 1.207031 0 2.417968.449219 3.316406 1.347657l4.773438 4.773437 66.890624 66.894532 5.195313 5.195312c1.796875 1.796875 1.796875 4.835938 0 6.632812zm0 0"/></svg>