<svg height="511pt" viewBox="0 -10 511.99902 511" width="511pt" xmlns="http://www.w3.org/2000/svg"><path d="m425.589844 182.765625c-4.800782-2.851563-7.847656-7.949219-7.855469-13.535156-.109375-88.5625-72.300781-161.230469-161.5625-161.230469-89.335937 0-161.4375 72.722656-161.558594 161.230469-.007812 5.585937-3.054687 10.683593-7.855469 13.535156-46.933593 27.867187-79.078124 79.433594-79.078124 138.96875 0 123.976563 134.3125 201.136719 240.824218 140.785156 4.75-2.691406 10.589844-2.691406 15.339844 0 106.347656 60.246094 240.824219-16.636719 240.824219-140.785156 0-59.515625-32.132813-111.09375-79.078125-138.96875zm0 0" fill="#dfebfa"/><path d="m38.574219 321.734375c0-59.535156 32.144531-111.101563 79.078125-138.96875 4.800781-2.851563 7.847656-7.949219 7.855468-13.535156.113282-83.339844 64.054688-152.679688 146.109376-160.488281-5.082032-.484376-10.234376-.742188-15.445313-.742188-89.335937 0-161.4375 72.722656-161.5625 161.230469-.007813 5.582031-3.050781 10.683593-7.851563 13.535156-46.9375 27.867187-79.078124 79.433594-79.078124 138.96875 0 100.191406 87.722656 169.789063 177.597656 160.957031-78.054688-7.636718-146.703125-72.324218-146.703125-160.957031zm0 0" fill="#b1dbfc"/><path d="m209.980469 296.882812c-44.496094-16.144531-78.121094-54.953124-86.9375-102.472656-52.039063 18.882813-89.21875 68.757813-89.21875 127.324219 0 74.785156 60.625 135.410156 135.410156 135.410156 33.097656 0 63.414063-11.878906 86.9375-31.597656-37.636719-31.554687-55.121094-80.519531-46.191406-128.664063zm0 0" fill="#ff4756"/><path d="m64.074219 321.734375c0-47.804687 24.78125-89.800781 62.183593-113.898437-1.289062-4.386719-2.367187-8.867188-3.214843-13.425782-52.039063 18.882813-89.21875 68.757813-89.21875 127.324219 0 80.53125 70.109375 143.859375 151.101562 134.507813-63.792969-7.316407-120.851562-59.253907-120.851562-134.507813zm0 0" fill="#fc2d39"/><path d="m389.300781 194.410156c-8.816406 47.519532-42.4375 86.328125-86.9375 102.472656 8.921875 48.097657-8.511719 97.078126-46.191406 128.664063 87.535156 73.382813 222.347656 11.347656 222.347656-103.8125 0-58.566406-37.179687-108.441406-89.21875-127.324219zm0 0" fill="#60b8fe"/><path d="m302.363281 296.882812c-28.910156 10.492188-61.847656 11.082032-92.382812 0-8.921875 48.097657 8.515625 97.078126 46.191406 128.664063 37.636719-31.554687 55.121094-80.519531 46.191406-128.664063zm0 0" fill="#4f67d2"/><path d="m256.171875 217.921875c37.769531-31.664063 88.722656-39.628906 133.128906-23.511719 1.492188-8.058594 2.285157-16.363281 2.285157-24.851562 0-74.785156-60.628907-135.410156-135.414063-135.410156s-135.410156 60.625-135.410156 135.410156c0 8.488281.789062 16.792968 2.28125 24.851562 44.367187-16.101562 95.324219-8.183594 133.128906 23.511719zm0 0" fill="#fee55a"/><path d="m152.164062 187.394531c-8.78125-83.3125 49.6875-144.71875 119.058594-152.410156-4.941406-.546875-9.960937-.835937-15.050781-.835937-74.785156 0-135.410156 60.625-135.410156 135.410156 0 8.488281.789062 16.792968 2.28125 24.851562 9.277343-3.367187 19.027343-5.742187 29.121093-7.015625zm0 0" fill="#ffd301"/><path d="m209.980469 296.882812c5.84375-31.507812 22.59375-59.179687 46.191406-78.960937-37.769531-31.664063-88.71875-39.625-133.128906-23.511719 8.816406 47.519532 42.441406 86.328125 86.9375 102.472656zm0 0" fill="#ff9839"/><path d="m146.433594 197.113281c3.84375-1.636719 6.167968-5.582031 5.730468-9.71875-10.09375 1.273438-19.84375 3.648438-29.121093 7.015625.847656 4.558594 1.925781 9.039063 3.214843 13.425782 6.382813-4.109376 13.121094-7.714844 20.175782-10.722657zm0 0" fill="#ff7501"/><path d="m256.171875 217.921875c23.597656 19.78125 40.347656 47.453125 46.191406 78.960937 44.5-16.144531 78.121094-54.953124 86.9375-102.472656-44.367187-16.101562-95.320312-8.183594-133.128906 23.511719zm0 0" fill="#43cb8e"/><path d="m256.171875 217.921875c-23.597656 19.78125-40.347656 47.453125-46.191406 78.960937 28.910156 10.492188 61.847656 11.082032 92.382812 0-5.84375-31.507812-22.59375-59.179687-46.191406-78.960937zm0 0" fill="#695d67"/><path d="m489.042969 236.605469c-14.480469-24.8125-35.15625-45.660157-59.792969-60.289063-2.574219-1.53125-4.179688-4.25-4.183594-7.09375-.113281-93.035156-75.953125-168.722656-169.0625-168.722656-93.089844 0-168.929687 75.6875-169.058594 168.722656-.003906 2.84375-1.605468 5.5625-4.183593 7.09375-24.632813 14.625-45.308594 35.46875-59.789063 60.277344-45.070312 77.214844-23.355468 181.839844 61.042969 231.027344 52.59375 30.648437 115.402344 31.234375 168.019531 1.421875 2.449219-1.386719 5.492188-1.386719 7.941406 0 111.6875 63.269531 252.023438-17.699219 252.023438-147.308594 0-29.960937-7.9375-59.398437-22.957031-85.128906zm-221.671875 219.386719c-7.007813-3.96875-15.71875-3.972657-22.730469 0-47.871094 27.125-105.09375 26.628906-153.074219-1.332032-76.902344-44.816406-96.710937-140.144531-55.640625-210.503906 13.203125-22.617188 32.046875-41.613281 54.492188-54.941406 7.101562-4.214844 11.515625-11.867188 11.527343-19.972656.117188-84.773438 69.226563-153.742188 154.058594-153.742188 84.847656 0 153.957032 68.964844 154.0625 153.738281.011719 8.105469 4.425782 15.761719 11.527344 19.976563 22.449219 13.332031 41.292969 32.332031 54.492188 54.949218 13.679687 23.441407 20.914062 50.261719 20.914062 77.570313 0 117.707031-127.628906 192.039063-229.628906 134.257813zm0 0"/><path d="m477.996094 334.09375c-4.089844-.597656-7.90625 2.234375-8.503906 6.332031-13.820313 94.398438-123.898438 141.566407-201.820313 84.660157 32.921875-31.417969 49.472656-76.875 42.890625-123.445313 41.273438-17.113281 72.855469-53.027344 83.992188-97.003906 40.550781 17.84375 70.28125 56.160156 75.488281 102.710937.460937 4.113282 4.164062 7.078125 8.289062 6.617188 4.113281-.457032 7.078125-4.167969 6.617188-8.285156-5.949219-53.199219-40.558594-96.769532-87.441407-116.09375.921876-6.546876 1.410157-13.230469 1.410157-20.027344 0-71.644532-53.503907-132.574219-124.453125-141.726563-4.105469-.527343-7.867188 2.371094-8.398438 6.476563-.53125 4.109375 2.371094 7.867187 6.480469 8.398437 63.492187 8.195313 111.371094 62.726563 111.371094 126.851563 0 5.058594-.304688 10.050781-.878907 14.957031-42.179687-12.273437-89.574218-4.925781-127.03125 23.871094-37.273437-28.652344-84.664062-36.234375-127.03125-23.832031-.578124-4.921876-.882812-9.925782-.882812-14.996094 0-64.125 47.878906-118.65625 111.371094-126.851563 4.109375-.53125 7.011718-4.289062 6.480468-8.398437-.53125-4.105469-4.289062-7.007813-8.398437-6.476563-70.949219 9.152344-124.453125 70.082031-124.453125 141.726563 0 6.820312.492188 13.527344 1.417969 20.09375-51.8125 21.480468-88.351563 72.589844-88.351563 132.082031 0 117.921875 136.023438 185.476563 229.847656 113.34375 86.761719 66.703125 212.671876 14.464844 228.324219-92.480469.601563-4.097656-2.234375-7.90625-6.335937-8.503906zm-97.597656-134.707031c-9.371094 39.082031-36.726563 71.238281-72.792969 87.203125-6.707031-26.425782-20.792969-49.941406-39.933594-68.210938 33.613281-24.546875 75.542969-30.332031 112.726563-18.992187zm-124.394532 28.613281c18.1875 16.878906 31.472656 38.96875 37.449219 63.875-24.3125 7.457031-50.535156 7.472656-74.894531 0 5.976562-24.90625 19.261718-46.996094 37.445312-63.875zm-11.664062-9.621094c-19.140625 18.269532-33.226563 41.785156-39.933594 68.210938-36.054688-15.960938-63.40625-48.105469-72.785156-87.171875 37.386718-11.46875 79.3125-5.433594 112.71875 18.960937zm-203.183594 103.355469c0-52.179687 31.414062-97.15625 76.3125-117.03125 11.15625 43.945313 42.726562 79.832031 83.980469 96.9375-6.585938 46.597656 9.988281 92.046875 42.886719 123.449219-84.160157 61.460937-203.179688 1.015625-203.179688-103.355469zm214.847656 93.734375c-29.601562-27.476562-44.9375-67.410156-40.089844-108.730469 25.558594 7.484375 53.511719 7.808594 80.183594 0 4.855469 41.402344-10.546875 81.3125-40.09375 108.730469zm0 0"/></svg>