<svg height="512pt" viewBox="0 -59 512.00026 512" width="512pt" xmlns="http://www.w3.org/2000/svg"><path d="m131.535156 359.835938c-3.695312-1.582032-4.425781-6.507813-1.34375-9.089844l181.589844-152.375 3.089844 2.59375c1.757812 14.554687 13.375 26.066406 27.984375 27.648437l3.441406 2.886719-139.703125 117.226562c-20.925781 17.558594-49.945312 21.851563-75.058594 11.109376zm0 0" fill="#dfebfa"/><path d="m161.871094 359.835938c-3.695313-1.582032-4.425782-6.507813-1.34375-9.089844l160.441406-134.628906c-3.246094-4.328126-5.417969-9.511719-6.097656-15.15625l-3.089844-2.589844-181.589844 152.375c-3.078125 2.582031-2.351562 7.507812 1.34375 9.089844 14.035156 6.003906 29.292969 7.308593 43.671875 4.226562-4.519531-.96875-8.988281-2.367188-13.335937-4.226562zm0 0" fill="#b1dbfc"/><path d="m490.101562 365.804688c22.660157-27.417969 18.363282-68.160157-8.886718-91.023438l-105.042969-88.144531c1.15625 3.289062 1.789063 6.820312 1.789063 10.5 0 18.789062-16.28125 33.511719-35.105469 31.476562l46.835937 39.300781c4.5625 3.828126 5.164063 10.691407 1.335938 15.25l-.074219.085938c-22.898437 27.292969-19.339844 67.980469 7.953125 90.882812 27.417969 23.003907 68.351562 19.304688 91.195312-8.328124zm-70.460937-16.382813c-13.648437-11.449219-15.429687-31.792969-3.976563-45.4375 11.449219-13.644531 31.792969-15.425781 45.441407-3.976563 13.644531 11.449219 15.425781 31.792969 3.972656 45.441407-11.449219 13.644531-31.792969 15.425781-45.4375 3.972656zm0 0" fill="#ff4756"/><path d="m346.296875 165.472656c-17.488281 0-31.664063 14.175782-31.664063 31.664063 0 1.296875.085938 2.570312.238282 3.824219l-184.679688-154.964844c-3.078125-2.582032-2.351562-7.507813 1.34375-9.089844 25.113282-10.746094 54.132813-6.449219 75.058594 11.109375l139.984375 117.464844c-.09375-.003907-.183594-.007813-.28125-.007813zm0 0" fill="#dfebfa"/><path d="m319.867188 179.699219-159.339844-133.703125c-3.082032-2.582032-2.351563-7.507813 1.34375-9.089844 4.347656-1.859375 8.816406-3.261719 13.335937-4.226562-14.382812-3.082032-29.636719-1.777344-43.671875 4.226562-3.695312 1.582031-4.425781 6.507812-1.34375 9.089844l184.679688 154.964844c-.152344-1.253907-.238282-2.527344-.238282-3.824219 0-6.445313 1.929688-12.433594 5.234376-17.4375zm0 0" fill="#b1dbfc"/><path d="m376.171875 186.636719 13.984375 11.734375 91.0625-76.40625c27.246094-22.863282 31.542969-63.609375 8.882812-91.027344-22.839843-27.632812-63.777343-31.332031-91.195312-8.324219-27.289062 22.898438-30.851562 63.585938-7.949219 90.878907l.070313.085937c3.828125 4.5625 3.226562 11.425781-1.335938 15.253906l-43.394531 36.410157.28125.238281c13.6875.117187 25.292969 8.914062 29.59375 21.15625zm39.492187-93.878907c-11.449218-13.644531-9.671874-33.988281 3.976563-45.4375 13.644531-11.453124 33.988281-9.671874 45.4375 3.972657 11.453125 13.648437 9.671875 33.992187-3.972656 45.441406-13.648438 11.449219-33.992188 9.671875-45.441407-3.976563zm0 0" fill="#ff4756"/><path d="m429.160156 374.132812c-27.292968-22.902343-30.851562-63.589843-7.953125-90.882812l.070313-.085938c3.828125-4.5625 3.226562-11.425781-1.332032-15.253906l-22.25-18.667968c-8.804687-7.386719-8.773437-20.773438-.167968-28.386719 3.121094-2.765625 5.703125-6.144531 7.550781-9.964844l-28.90625-24.253906c1.15625 3.285156 1.789063 6.816406 1.789063 10.496093 0 18.75-16.242188 33.515626-35.105469 31.476563l46.835937 39.300781c4.5625 3.828125 5.164063 10.691406 1.335938 15.253906l-.074219.085938c-22.898437 27.289062-19.339844 67.980469 7.953125 90.878906 16.300781 13.679688 37.378906 17.914063 56.59375 13.296875-9.398438-2.257812-18.433594-6.660156-26.339844-13.292969zm0 0" fill="#fc2d39"/><path d="m405.855469 185.199219c-1.679688-4.121094-4.203125-7.8125-7.351563-10.851563-8.015625-7.742187-7.867187-20.605468.625-27.824218l20.816406-17.695313c4.5625-3.828125 5.160157-10.691406 1.335938-15.25l-.074219-.085937c-30.804687-36.714844-12.105469-93.027344 34.296875-104.175782-19.214844-4.621094-40.296875-.382812-56.597656 13.292969-27.289062 22.902344-30.851562 63.589844-7.949219 90.882813l.070313.085937c3.828125 4.558594 3.226562 11.421875-1.335938 15.25l-43.394531 36.414063.28125.234374c13.6875.121094 25.292969 8.917969 29.59375 21.160157l13.984375 11.734375zm0 0" fill="#fc2d39"/><path d="m346.296875 164.472656c-18.011719 0-32.664063 14.652344-32.664063 32.664063s14.652344 32.664062 32.664063 32.664062 32.667969-14.652343 32.667969-32.664062c-.003906-18.011719-14.65625-32.664063-32.667969-32.664063zm0 0" fill="#ff656f"/><path d="m343.605469 197.386719c0-12.5625 7.132812-23.484375 17.554687-28.945313-4.523437-2.371094-9.660156-3.71875-15.113281-3.71875-18.011719 0-32.664063 14.652344-32.664063 32.664063 0 24.378906 26 40.359375 47.777344 28.945312-10.425781-5.464843-17.554687-16.386719-17.554687-28.945312zm0 0" fill="#ff4756"/><path d="m470.660156 350.269531c14.089844-16.792969 11.890625-41.917969-4.902344-56.007812-8.132812-6.828125-18.441406-10.074219-29.019531-9.148438-10.574219.925781-20.160156 5.914063-26.984375 14.046875-14.089844 16.792969-11.894531 41.917969 4.898438 56.007813 7.433594 6.242187 16.5 9.285156 25.519531 9.285156 11.355469 0 22.636719-4.824219 30.488281-14.183594zm-11.492187-9.644531c-8.773438 10.457031-24.417969 11.824219-34.875 3.054688-10.453125-8.773438-11.824219-24.417969-3.050781-34.875 4.890624-5.828126 11.914062-8.832032 18.980468-8.832032 5.617188 0 11.265625 1.898438 15.894532 5.78125 10.453124 8.773438 11.824218 24.417969 3.050781 34.871094zm0 0"/><path d="m414.652344 41.570312c-16.792969 14.09375-18.992188 39.21875-4.898438 56.007813 7.851563 9.359375 19.128906 14.183594 30.484375 14.183594 9.019531 0 18.085938-3.042969 25.519531-9.28125h.003907c8.132812-6.824219 13.121093-16.410157 14.046875-26.988281.925781-10.578126-2.324219-20.882813-9.148438-29.019532-14.097656-16.800781-39.140625-19.054687-56.007812-4.902344zm50.210937 32.613282c-1.914062 21.902344-29.492187 30.589844-43.621093 13.753906-8.773438-10.457031-7.402344-26.101562 3.054687-34.875 16.910156-14.1875 42.472656-.664062 40.566406 21.121094zm0 0"/><path d="m484.152344 35.71875c4.511718 5.453125 7.90625 11.640625 10.097656 18.386719 1.28125 3.9375 5.511719 6.097656 9.453125 4.816406 3.9375-1.28125 6.097656-5.511719 4.816406-9.453125-2.777343-8.550781-7.085937-16.394531-12.804687-23.308594-25.542969-30.902344-71.199219-34.96875-101.796875-9.296875-30.414063 25.523438-34.398438 71.03125-8.902344 101.414063l.101563.121094c.757812.90625.796874 1.90625.75 2.425781-.042969.519531-.253907 1.5-1.160157 2.257812l-38.574219 32.367188-134.886718-113.179688c-23.21875-19.484375-54.957032-24.179687-82.824219-12.257812-4.152344 1.773437-7.023437 5.5-7.6875 9.964843-.660156 4.464844 1.011719 8.863282 4.46875 11.765626l174.742187 146.628906-174.742187 146.628906c-3.457031 2.902344-5.128906 7.300781-4.46875 11.765625.664063 4.464844 3.535156 8.191406 7.683594 9.964844v.003906c10.203125 4.363281 20.925781 6.5 31.558593 6.5 18.40625 0 36.550782-6.410156 51.273438-18.761719l134.882812-113.179687 38.574219 32.367187c.90625.757813 1.117188 1.742188 1.160157 2.257813.046874.519531.007812 1.523437-.777344 2.460937l-.046875.050782c-25.519531 30.417968-21.539063 75.925781 8.875 101.449218 8.160156 6.847656 17.503906 11.699219 27.769531 14.425782.644531.171874 1.292969.253906 1.929688.253906 3.316406 0 6.351562-2.21875 7.246093-5.578125 1.0625-4.003907-1.324219-8.109375-5.324219-9.175781-8.125-2.15625-15.515624-5.996094-21.976562-11.417969-24.078125-20.207031-27.230469-56.234375-7-80.347657l.042969-.050781c3.140625-3.742187 4.632812-8.492187 4.207031-13.375-.425781-4.886719-2.722656-9.304687-6.464844-12.445312l-34.003906-28.535157c12.769531-5.003906 22.113281-16.445312 24.394531-29.875l91.492188 76.769532c24.242187 20.34375 27.796875 56.457031 7.921875 80.5-7.242188 8.765625-16.8125 15.101562-27.671875 18.324218-3.972657 1.179688-6.234375 5.355469-5.058594 9.324219 1.179687 3.96875 5.355469 6.238281 9.324219 5.058594 13.730468-4.074219 25.820312-12.078125 34.96875-23.148437 25.105468-30.375 20.691406-75.929688-9.84375-101.550782l-84.210938-70.660156 84.210938-70.664062c12.152344-10.195313 20.511718-23.746094 24.175781-39.191407.953125-4.027343-1.539063-8.070312-5.570313-9.027343-4.035156-.953126-8.070312 1.539062-9.027343 5.566406-2.910157 12.277344-9.558594 23.054687-19.21875 31.160156l-86.238281 72.363281c-3.957032-3.324219-3.03125-2.542969-7.679688-6.445312-3.542969-8.660157-10.648438-16.398438-20.019531-20.660157l32.054687-26.898437c3.742188-3.140625 6.039063-7.558594 6.464844-12.445313.429688-4.882812-1.066406-9.636718-4.175781-13.34375l-.101563-.117187c-20.203125-24.078125-17.050781-60.109375 7.027344-80.316406 24.269531-20.363281 60.402344-17.066407 80.589844 7.363281zm-346.601563 6.800781c21.828125-8.019531 46.082031-3.835937 64.054688 11.242188l128.359375 107.703125c-10.296875 4.695312-18.195313 13.742187-21.394532 24.558594zm64.054688 300.460938c-17.972657 15.078125-42.226563 19.253906-64.054688 11.242187l171.640625-144.023437c3.773438 10.808593 12.082032 19.355469 22.707032 23.453125zm168.691406-145.84375c-.003906 16.042969-15.457031 27.671875-30.816406 23.226562-9.175781-2.65625-16.167969-10.679687-17.328125-20.296875-1.761719-14.570312 9.6875-27.246094 24.179687-27.089844 12.765625 0 23.964844 10.570313 23.964844 24.160157zm0 0"/><path d="m114.507812 189.636719h-.5c-4.144531 0-7.5 3.355469-7.5 7.5 0 4.140625 3.355469 7.5 7.5 7.5h.5c4.144532 0 7.5-3.359375 7.5-7.5 0-4.144531-3.355468-7.5-7.5-7.5zm0 0"/><path d="m43.503906 189.636719h-.5c-4.144531 0-7.5 3.355469-7.5 7.5 0 4.140625 3.355469 7.5 7.5 7.5h.5c4.140625 0 7.5-3.359375 7.5-7.5 0-4.144531-3.359375-7.5-7.5-7.5zm0 0"/><path d="m79.003906 189.636719h-.5c-4.140625 0-7.5 3.355469-7.5 7.5 0 4.140625 3.359375 7.5 7.5 7.5h.5c4.144532 0 7.5-3.359375 7.5-7.5 0-4.144531-3.355468-7.5-7.5-7.5zm0 0"/><path d="m8 189.636719h-.5c-4.144531 0-7.5 3.355469-7.5 7.5 0 4.140625 3.355469 7.5 7.5 7.5h.5c4.144531 0 7.5-3.359375 7.5-7.5 0-4.144531-3.355469-7.5-7.5-7.5zm0 0"/><path d="m256.515625 189.636719h-.5c-4.140625 0-7.5 3.355469-7.5 7.5 0 4.140625 3.359375 7.5 7.5 7.5h.5c4.144531 0 7.5-3.359375 7.5-7.5 0-4.144531-3.355469-7.5-7.5-7.5zm0 0"/><path d="m221.015625 189.636719h-.5c-4.144531 0-7.5 3.355469-7.5 7.5 0 4.140625 3.355469 7.5 7.5 7.5h.5c4.140625 0 7.5-3.359375 7.5-7.5 0-4.144531-3.359375-7.5-7.5-7.5zm0 0"/><path d="m185.511719 189.636719h-.5c-4.144531 0-7.5 3.355469-7.5 7.5 0 4.140625 3.355469 7.5 7.5 7.5h.5c4.144531 0 7.5-3.359375 7.5-7.5 0-4.144531-3.355469-7.5-7.5-7.5zm0 0"/><path d="m150.011719 189.636719h-.5c-4.144531 0-7.503907 3.355469-7.503907 7.5 0 4.140625 3.359376 7.5 7.503907 7.5h.5c4.140625 0 7.5-3.359375 7.5-7.5 0-4.144531-3.359375-7.5-7.5-7.5zm0 0"/></svg>