<svg height="511pt" viewBox="0 -8 511.99947 511" width="511pt" xmlns="http://www.w3.org/2000/svg"><path d="m422.039062 414.386719-112.890624-127.613281-10.171876 12.125-.160156.191406c8.367188 9.167968 8.902344 23.429687.71875 33.183594l-29.140625 34.726562 83.832031 104.285156c15.648438 18.648438 43.707032 21.105469 62.355469 5.457032 18.648438-15.648438 21.105469-43.707032 5.457031-62.355469zm-25.039062 39.015625c-7.269531 6.101562-18.113281 5.152344-24.210938-2.117188-6.101562-7.269531-5.152343-18.109375 2.117188-24.210937 7.269531-6.101563 18.109375-5.152344 24.210938 2.117187 6.101562 7.269532 5.152343 18.109375-2.117188 24.210938zm0 0" fill="#dfebfa"/><path d="m383.699219 471.285156-77.636719-96.574218-20.617188-25.648438-15.050781 17.9375 83.832031 104.289062c12.148438 14.476563 31.777344 19.1875 48.675782 13.25-7.253906-2.535156-13.933594-6.972656-19.203125-13.253906zm0 0" fill="#b1dbfc"/><path d="m258.15625 246.496094 4.847656-5.773438c1.035156-1.238281 2.246094-2.246094 3.554688-3.042968l-41.984375-47.210938c-18.765625-21.273438-28.304688-48.945312-27.527344-77.300781.929687-33.742188-16.101563-67.015625-46.964844-85.070313-30.621093-17.910156-67.019531-16.765625-95.625-.296875-4.210937 2.421875-4.140625 8.535157.074219 10.945313l58.28125 33.3125c2.414062 1.382812 3.910156 3.949218 3.925781 6.730468l.175781 40.867188c.011719 2.785156-1.460937 5.363281-3.867187 6.765625l-35.300781 20.585937c-2.40625 1.402344-5.375 1.414063-7.792969.03125l-52.804687-30.179687c-4.558594-2.605469-10.136719 1.15625-9.417969 6.359375 3.898437 28.238281 20.375 54.425781 47.039062 69.664062 16.269531 9.300782 34.128907 13.273438 51.5625 12.460938 21.859375-1.015625 42.792969 8.941406 56.445313 26.046875l39.0625 48.1875 13.941406-16.617187c8.183594-9.753907 22.324219-11.703126 32.804688-5.054688zm0 0" fill="#dfebfa"/><path d="m192.246094 231.386719c-13.648438-17.101563-34.585938-27.058594-56.445313-26.042969-17.429687.808594-35.289062-3.160156-51.558593-12.460938-24.878907-14.21875-40.882813-37.964843-46.085938-64.015624l-21.007812-12.007813c-4.558594-2.605469-10.136719 1.15625-9.417969 6.359375 3.898437 28.238281 20.375 54.425781 47.039062 69.664062 16.269531 9.300782 34.128907 13.273438 51.5625 12.460938 21.859375-1.015625 42.792969 8.941406 56.445313 26.046875l39.0625 48.1875 13.941406-16.617187c.347656-.417969.722656-.800782 1.09375-1.1875zm0 0" fill="#b1dbfc"/><path d="m423.613281 70.617188 28.757813 24.128906-142.28125 169.550781-28.753906-24.128906zm0 0" fill="#b1dbfc"/><path d="m316.425781 234.132812 124.8125-148.746093-17.605469-14.769531-142.277343 169.558593 28.753906 24.128907 12.394531-14.773438-5.105468-4.28125c-3.335938-2.804688-3.773438-7.78125-.972657-11.117188zm0 0" fill="#8cc9f9"/><path d="m452.386719 94.746094-28.753907-24.128906 15.765626-28.203126 38.023437 31.910157zm0 0" fill="#dfebfa"/><path d="m503.570312 34.773438c1.816407-2.75 1.300782-6.410157-1.203124-8.507813l-19.972657-16.761719c-2.503906-2.097656-6.195312-1.972656-8.589843.292969l-34.40625 32.617187 38.023437 31.910157zm0 0" fill="#b1dbfc"/><path d="m439.398438 42.414062-15.765626 28.203126 17.546876 14.726562 18.203124-26.15625zm0 0" fill="#b1dbfc"/><path d="m482.394531 9.503906c-2.503906-2.097656-6.195312-1.972656-8.589843.292969l-34.40625 32.617187 19.984374 16.773438 32.238282-34.441406c2.242187-2.390625 4.828125-3.449219 6.015625-2.453125l.808593.679687zm0 0" fill="#8cc9f9"/><path d="m300.8125 303.285156 14.960938-17.832031c5.386718-6.417969 4.789062-15.871094-1.328126-21.003906l-33.988281-28.515625c-6.117187-5.132813-15.527343-4.082032-20.914062 2.335937l-14.964844 17.832031zm0 0" fill="#ff656f"/><path d="m284.933594 250.117188 5.136718-6.121094-9.613281-8.0625c-6.117187-5.132813-15.527343-4.082032-20.914062 2.335937l-14.964844 17.832031 56.230469 47.183594 14.601562-17.398437-29.511718-24.761719c-3.304688-2.773438-3.738282-7.703125-.964844-11.007812zm0 0" fill="#ff4756"/><path d="m299.429688 299.761719-51.136719-42.90625c-10.621094-8.914063-26.601563-7.515625-35.511719 3.105469l-119.824219 142.796874c-8.910156 10.621094-7.511719 26.601563 3.109375 35.511719l51.132813 42.90625c10.621093 8.910157 26.601562 7.511719 35.515625-3.105469l119.820312-142.796874c8.910156-10.621094 7.511719-26.601563-3.105468-35.511719zm0 0" fill="#ff8188"/><path d="m177.535156 481.175781-51.136718-42.90625c-10.621094-8.910156-12.019532-24.890625-3.105469-35.511719l119.820312-142.796874c1.253907-1.492188 2.652344-2.800782 4.152344-3.925782-10.601563-7.996094-25.855469-6.355468-34.484375 3.925782l-119.824219 142.796874c-8.910156 10.621094-7.511719 26.601563 3.109375 35.511719l51.132813 42.90625c9.125 7.660157 22.207031 7.695313 31.363281.820313-.347656-.261719-.691406-.535156-1.027344-.820313zm0 0" fill="#ff656f"/><path d="m284.425781 287.171875-21.132812-17.730469c-4.386719-3.683594-15.273438 1.992188-24.183594 12.613282l-119.820313 142.796874c-8.914062 10.621094-12.613281 22.324219-8.222656 26.003907l21.132813 17.734375c4.390625 3.683594 15.273437-1.992188 24.183593-12.613282l119.820313-142.796874c8.914063-10.621094 12.613281-22.324219 8.222656-26.007813zm0 0" fill="#ff4756"/><path d="m140.566406 450.855469c-4.390625-3.679688-.6875-15.382813 8.222656-26.003907l119.820313-142.796874c1.386719-1.65625 2.824219-3.171876 4.273437-4.566407l-9.589843-8.046875c-4.386719-3.683594-15.273438 1.992188-24.183594 12.613282l-119.820313 142.796874c-8.914062 10.621094-12.613281 22.324219-8.222656 26.007813l21.132813 17.730469c3.707031 3.113281 12.039062-.46875 19.910156-8.046875zm0 0" fill="#fc2d39"/><path d="m146.210938 78.789062c-.015626-2.78125-1.507813-5.347656-3.925782-6.730468l-58.28125-33.3125c-4.214844-2.410156-4.285156-8.523438-.074218-10.945313 10.195312-5.871093 21.382812-9.78125 32.945312-11.589843-21.605469-3.40625-43.683594.804687-62.417969 11.589843-4.207031 2.421875-4.140625 8.535157.078125 10.945313l58.28125 33.3125c2.414063 1.382812 3.910156 3.949218 3.921875 6.730468l.179688 40.867188c.011719 2.785156-1.464844 5.363281-3.867188 6.765625-4.339843 2.527344-24.519531 14.296875-35.304687 20.585937-2.402344 1.402344-5.375 1.414063-7.789063.03125 0 0 15.441407 12.691407 37.261719-.03125l35.300781-20.585937c2.40625-1.402344 3.878907-3.984375 3.867188-6.765625zm0 0" fill="#b1dbfc"/><path d="m73.800781 140.527344c-.089843.054687-.199219.054687-.289062.003906l-52.804688-30.183594c-4.613281-2.636718-10.214843-2.425781-14.617187.550782-4.398438 2.976562-6.683594 8.089843-5.957032 13.347656 4.394532 31.835937 22.894532 59.230468 50.75 75.152344 16.960938 9.695312 36.210938 14.339843 55.628907 13.4375 19.140625-.886719 37.917969 7.792968 50.234375 23.230468l32.234375 40.390625-101.933594 121.480469c-11.59375 13.816406-9.785156 34.488281 4.03125 46.078125 0 0 36.132813 30.320313 36.136719 30.320313l14.996094 12.585937c6.117187 5.132813 13.578124 7.636719 21 7.636719 9.339843 0 18.621093-3.96875 25.082031-11.667969l84.789062-101.050781 75.117188 94.125c.039062.046875.078125.09375.117187.140625 18.332032 21.851562 51.082032 24.703125 72.921875 6.382812 21.863281-18.347656 24.726563-51.0625 6.378907-72.925781-.039063-.046875-.078126-.09375-.117188-.136719l-46.875-53.152343c-2.738281-3.109376-7.480469-3.40625-10.585938-.667969-3.105468 2.742187-3.40625 7.480469-.664062 10.585937l46.808594 53.082032c12.96875 15.527343 10.917968 38.710937-4.585938 51.722656-15.46875 12.980468-38.726562 10.960937-51.734375-4.464844l-76.941406-96.414062 17.117187-20.402344 46.8125 55.785156c1.484376 1.769531 3.609376 2.679688 5.75 2.679688 1.699219 0 3.410157-.574219 4.816407-1.753907 3.171875-2.664062 3.585937-7.394531.921875-10.566406l-48.582032-57.902344c.019532-.03125.039063-.0625.0625-.09375 7.511719-10.683593 7.785157-24.632812 1.371094-35.472656l.933594-1.117187 33.839844 38.375c2.742187 3.105468 7.480468 3.402343 10.585937.664062 3.105469-2.742188 3.40625-7.480469.664063-10.585938l-35.339844-40.078124c3.726562-4.480469 5.503906-10.15625 4.992188-15.996094-.390626-4.480469-2.101563-8.632813-4.882813-12.023438l45.40625-54.113281c2.664063-3.175781 2.25-7.90625-.925781-10.566406-3.171875-2.664063-7.902344-2.25-10.566406.921875l-45.15625 53.816406-17.265626-14.488281 131.390626-156.582031 17.261718 14.484374-63.734375 75.960938c-2.664062 3.171875-2.25 7.902344.925781 10.566406 3.171876 2.660156 7.902344 2.246094 10.566407-.925781l68.09375-81.152344 24.304687-19.761719c.519532-.425781 1.117188-1.058593 1.527344-1.6875l25.882812-39.234374c3.898438-5.910157 2.746094-13.796876-2.675781-18.347657l-19.972656-16.757812c-5.421875-4.550781-13.390625-4.3125-18.53125.550781l-34.144531 32.300781c-.558594.53125-1.089844 1.246094-1.398438 1.800781l-15.238281 27.363282-136 162.082031c-3.828125-2.152344-8.214844-3.113281-12.691406-2.722656-1.203125.105469-2.375.328125-3.519531.617187l-35.488282-40.242187c-17.285156-19.597657-26.394531-45.214844-25.652344-72.136719 1.035157-37.699219-18.382812-72.855469-50.675781-91.75-31.730469-18.5625-71.261719-18.6875-103.15625-.324219-4.316406 2.484375-6.886719 6.949219-6.882812 11.941407.007812 4.957031 2.683593 9.5625 6.976562 12.015624l58.28125 33.3125c.089844.050782.148438.148438.148438.25l.175781 40.867188c0 .105469-.054688.203125-.144531.253906zm404.335938-124.667969 18.515625 15.539063-20.722656 31.414062-25.132813-21.085938zm-36.472657 37.785156 24.113282 20.234375-13.003906 10.570313-19.265626-16.164063zm-337.703124 381.597657-3.242188-2.71875c-7.476562-6.273438-8.457031-17.464844-2.179688-24.945313 3.347657-3.996094 111.949219-133.417969 119.820313-142.796875 5.644531-6.730469 15.589844-8.269531 23.042969-3.542969.066406.042969.132812.074219.199218.113281.585938.382813 1.15625.789063 1.703126 1.246094l3.203124 2.6875c-4.441406 2.777344-8.992187 6.800782-13.308593 11.949219l-119.820313 142.796875c-4.113281 4.898438-7.375 10.195312-9.417968 15.210938zm32.082031 26.921874-19.511719-16.371093c.019531-2.414063 2.273438-8.898438 8.335938-16.121094l119.820312-142.796875c6.066406-7.226562 12.054688-10.570312 14.429688-11.007812l9.757812 8.183593 9.753906 8.1875c-.019531 2.414063-2.273437 8.894531-8.335937 16.121094l-119.820313 142.796875c-6.0625 7.226562-12.054687 10.570312-14.429687 11.007812zm160.578125-131.710937c-6.597656 7.867187-112.378906 133.929687-119.820313 142.796875-6.277343 7.476562-17.46875 8.457031-24.945312 2.183594l-3.238281-2.71875c4.582031-2.886719 9.234374-7.015625 13.34375-11.917969l119.820312-142.796875c4.113281-4.898438 7.375-10.199219 9.417969-15.210938l3.242187 2.714844c.511719.433594.988282.890625 1.4375 1.363282.078125.09375.148438.1875.230469.277343 5.960937 6.527344 6.179687 16.550781.511719 23.308594zm-38.464844-79.058594 7.425781-8.851562c.230469-.273438.488281-.527344.761719-.765625.015625-.011719.027344-.023438.039062-.035156.28125-.234376.582032-.457032.910157-.652344.023437-.015625.042969-.03125.0625-.046875.898437-.53125 1.914062-.867188 2.992187-.964844 1.878906-.164063 3.699219.40625 5.125 1.601563 17.6875 14.839843 13.949219 11.703124 31.371094 26.320312l2.613281 2.195312c1.425781 1.195313 2.300781 2.886719 2.464844 4.765626.164063 1.878906-.402344 3.699218-1.597656 5.125l-9.441407 11.246093-44.738281-37.539062zm-134.085938-172.640625c-.023437-5.445312-2.976562-10.507812-7.703124-13.207031l-56.480469-32.285156c26.910156-14.632813 59.761719-14.183594 86.246093 1.308593 27.566407 16.128907 44.140626 46.164063 43.253907 78.390626-.84375 30.730468 9.59375 60.019531 29.398437 82.472656l34.203125 38.785156-3.742187 4.457031-5.78125 6.890625c-4.175782-1.570312-8.59375-2.253906-12.964844-2.058594l-40.933594-48.78125c-2.660156-3.175781-7.390625-3.589843-10.566406-.925781-3.171875 2.660157-3.585938 7.394531-.921875 10.566407l36.816406 43.878906c-2.191406 1.335937-4.253906 2.949218-6.128906 4.832031-.101563.101563-.199219.203125-.292969.300781-.550781.566406-1.089844 1.148438-1.601562 1.761719l-8.054688 9.59375-30.34375-38.023437c-14.589844-18.28125-36.542968-28.9375-59.285156-28.9375-1.121094 0-2.246094.027343-3.371094.082031-16.582031.757812-33.003906-3.203125-47.492187-11.480469-23.085938-13.199219-38.644531-35.628906-42.972657-61.808594l50.714844 28.984375c4.730469 2.707031 10.589844 2.679688 15.292969-.0625l35.304687-20.589843c4.703126-2.742188 7.609376-7.828126 7.585938-13.273438zm0 0"/><path d="m366.878906 456.105469c8.777344 10.464843 24.34375 11.796875 34.777344 3.042969 10.425781-8.75 11.789062-24.351563 3.039062-34.777344-8.769531-10.457032-24.324218-11.816406-34.777343-3.042969-10.449219 8.769531-11.8125 24.324219-3.039063 34.777344zm12.683594-23.289063c4.097656-3.4375 10.203125-2.90625 13.644531 1.195313 3.433594 4.089843 2.898438 10.210937-1.195312 13.644531-1.980469 1.664062-4.496094 2.449219-7.066407 2.230469-2.578124-.226563-4.914062-1.441407-6.574218-3.421875-3.445313-4.101563-2.910156-10.203125 1.191406-13.648438zm0 0"/></svg>