<svg height="512pt" viewBox="0 0 512 512" width="512pt" xmlns="http://www.w3.org/2000/svg"><path d="m464.074219 7.5h-415.8125c-22.328125 0-40.59375 18.265625-40.59375 40.59375v415.8125c0 22.324219 18.265625 40.59375 40.59375 40.59375h415.808593c22.328126 0 40.59375-18.265625 40.59375-40.59375v-415.8125c0-22.328125-18.265624-40.59375-40.589843-40.59375zm0 0" fill="#dfebfa"/><path d="m38.335938 463.90625v-415.8125c0-22.328125 18.265624-40.59375 40.589843-40.59375h-30.664062c-22.328125 0-40.59375 18.265625-40.59375 40.59375v415.8125c0 22.328125 18.265625 40.59375 40.59375 40.59375h30.667969c-22.328126 0-40.59375-18.269531-40.59375-40.59375zm0 0" fill="#b1dbfc"/><path d="m464.074219 7.5h-415.8125c-22.328125 0-40.59375 18.265625-40.59375 40.59375v19.726562h496.996093v-19.726562c0-22.328125-18.265624-40.59375-40.589843-40.59375zm0 0" fill="#23a8fe"/><path d="m75.867188 67.820312v18.917969c0 6.882813 5.628906 12.511719 12.511718 12.511719h155.277344c6.878906 0 12.511719-5.628906 12.511719-12.511719v-18.917969zm0 0" fill="#8cc9f9"/><path d="m106.117188 86.738281v-18.917969h-30.25v18.917969c0 6.882813 5.628906 12.511719 12.511718 12.511719h30.25c-6.882812 0-12.511718-5.628906-12.511718-12.511719zm0 0" fill="#60b8fe"/><path d="m7.667969 67.820312h68.199219v49.78125h-68.199219zm0 0" fill="#b1dbfc"/><path d="m7.667969 67.820312h30.667969v49.78125h-30.667969zm0 0" fill="#8cc9f9"/><path d="m7.667969 117.601562h68.199219v49.78125h-68.199219zm0 0" fill="#8cc9f9"/><path d="m7.667969 117.601562h30.667969v49.78125h-30.667969zm0 0" fill="#60b8fe"/><path d="m7.667969 167.386719h68.199219v49.777343h-68.199219zm0 0" fill="#b1dbfc"/><path d="m7.667969 167.386719h30.667969v49.777343h-30.667969zm0 0" fill="#8cc9f9"/><path d="m7.667969 217.164062h68.199219v49.78125h-68.199219zm0 0" fill="#8cc9f9"/><path d="m7.667969 217.164062h30.667969v49.78125h-30.667969zm0 0" fill="#60b8fe"/><path d="m7.667969 316.730469h68.199219v49.78125h-68.199219zm0 0" fill="#8cc9f9"/><path d="m7.667969 316.730469h30.667969v49.78125h-30.667969zm0 0" fill="#60b8fe"/><path d="m7.667969 266.945312h68.199219v49.78125h-68.199219zm0 0" fill="#b1dbfc"/><path d="m7.667969 266.945312h30.667969v49.78125h-30.667969zm0 0" fill="#8cc9f9"/><path d="m7.667969 366.511719v49.777343h57.878906c5.699219 0 10.320313-4.617187 10.320313-10.320312v-39.460938h-68.199219zm0 0" fill="#b1dbfc"/><path d="m7.667969 366.511719h30.667969v49.777343h-30.667969zm0 0" fill="#8cc9f9"/><path d="m106.269531 7.5h-58.007812c-22.328125 0-40.59375 18.265625-40.59375 40.59375v19.726562h98.601562zm0 0" fill="#ff656f"/><path d="m38.335938 48.09375c0-22.328125 18.265624-40.59375 40.589843-40.59375h-30.664062c-22.328125 0-40.59375 18.265625-40.59375 40.59375v19.726562h30.667969zm0 0" fill="#ff4756"/><path d="m65.546875 416.292969c3.128906 0 5.929687-1.398438 7.820313-3.601563l-65.699219-46.179687v49.777343h57.878906zm0 0" fill="#8cc9f9"/><path d="m38.335938 388.066406-30.667969-21.554687v49.78125h30.667969zm0 0" fill="#60b8fe"/><path d="m456.144531 128.8125h-341.917969c-4.394531 0-7.957031 3.558594-7.957031 7.953125v303.109375c0 4.394531 3.5625 7.957031 7.957031 7.957031h341.917969c4.394531 0 7.957031-3.5625 7.957031-7.957031v-303.105469c0-4.398437-3.5625-7.957031-7.957031-7.957031zm0 0" fill="#b1dbfc"/><path d="m136.269531 439.875v-303.105469c0-4.394531 3.5625-7.957031 7.957031-7.957031h-30c-4.394531 0-7.957031 3.558594-7.957031 7.957031v303.109375c0 4.394532 3.5625 7.957032 7.957031 7.957032h30c-4.394531-.003907-7.957031-3.566407-7.957031-7.960938zm0 0" fill="#8cc9f9"/><path d="m416.199219 332.023438v-87.605469c-45.738281-33.160157-37.390625 55.714843-80.371094 18.746093-44.675781-38.421874-42.75 75.835938-76.632813 28.179688-28.140624-39.582031-42.226562-100.292969-70.179687-61.199219-17.347656 24.261719-32.449219 39.238281-40.941406 46.789063v55.09375c0 6.464844 5.242187 11.707031 11.707031 11.707031h244.710938c6.464843 0 11.707031-5.242187 11.707031-11.710937zm0 0" fill="#4f67d2"/><g fill="#324ccc"><path d="m414.269531 243.074219c-27.113281-18.222657-34.457031 8.105469-46.335937 21.832031 26.636718 21.179688 32.65625-8.261719 46.335937-21.832031zm0 0"/><path d="m189.78125 343.734375c-6.46875 0-11.710938-5.242187-11.710938-11.710937v-36.816407c0-11.148437 4.300782-21.859375 12.023438-29.898437 8.039062-8.371094 18.039062-19.941406 28.921875-35.167969.722656-1.007813 1.433594-1.933594 2.136719-2.8125-9.59375-12.105469-19.433594-14.949219-32.136719 2.8125-17.347656 24.265625-32.449219 39.242187-40.941406 46.792969v55.089844c0 6.46875 5.242187 11.710937 11.707031 11.710937h244.710938zm0 0"/><path d="m289.195312 291.34375c23.230469 32.671875 29.628907-10.757812 45.753907-28.917969-25.792969-21.320312-35.804688 8.96875-46.566407 27.757813.269532.386718.539063.773437.8125 1.160156zm0 0"/></g><path d="m206.78125 376.582031h-20.933594c-2.28125 0-4.128906 1.851563-4.128906 4.132813v20.929687c0 2.28125 1.847656 4.132813 4.128906 4.132813h20.933594c2.28125 0 4.128906-1.847656 4.128906-4.132813v-20.929687c0-2.28125-1.847656-4.132813-4.128906-4.132813zm0 0" fill="#23a8fe"/><path d="m200.84375 401.644531v-20.929687c0-2.28125 1.847656-4.132813 4.128906-4.132813h-19.125c-2.28125 0-4.128906 1.851563-4.128906 4.132813v20.929687c0 2.28125 1.847656 4.132813 4.128906 4.132813h19.125c-2.28125 0-4.128906-1.851563-4.128906-4.132813zm0 0" fill="#0193fa"/><path d="m378.425781 376.582031h-20.933593c-2.28125 0-4.128907 1.851563-4.128907 4.132813v20.929687c0 2.28125 1.847657 4.132813 4.128907 4.132813h20.933593c2.277344 0 4.128907-1.847656 4.128907-4.132813v-20.929687c0-2.28125-1.851563-4.132813-4.128907-4.132813zm0 0" fill="#23a8fe"/><path d="m372.484375 401.644531v-20.929687c0-2.28125 1.851563-4.132813 4.132813-4.132813h-19.125c-2.28125 0-4.132813 1.851563-4.132813 4.132813v20.929687c0 2.28125 1.851563 4.132813 4.132813 4.132813h19.125c-2.28125 0-4.132813-1.851563-4.132813-4.132813zm0 0" fill="#0193fa"/><path d="m471.433594 439.878906v-303.109375c0-8.523437-6.933594-15.457031-15.457032-15.457031h-341.917968c-8.519532 0-15.453125 6.933594-15.453125 15.457031v303.109375c0 8.519532 6.933593 15.453125 15.453125 15.453125h341.917968c8.523438 0 15.457032-6.933593 15.457032-15.453125zm-357.828125 0v-303.109375c0-.253906.203125-.457031.453125-.457031h341.917968c.253907 0 .457032.203125.457032.457031v303.109375c0 .25-.203125.453125-.457032.453125h-341.917968c-.25 0-.453125-.203125-.453125-.453125zm0 0"/><path d="m416.035156 159.886719c-4.144531 0-7.5 3.355469-7.5 7.5v64.21875c-5.371094-2.113281-10.421875-2.738281-15.253906-1.875-11.851562 2.121093-18.6875 12.335937-24.722656 21.347656-4.300782 6.433594-8.75 13.078125-13.347656 13.707031-3.492188.460938-8.550782-2.054687-14.660157-7.308594-9.132812-7.855468-17.933593-11.035156-26.152343-9.464843-13.832032 2.644531-21.582032 17.449219-28.417969 30.511719-2.878907 5.503906-8.875 16.953124-11.773438 17.152343.027344-.011719-2.921875-.039062-9.066406-8.679687-7.425781-10.449219-13.832031-22.40625-20.023437-33.972656-12.554688-23.441407-22.46875-41.957032-37.84375-42.953126-8.535157-.554687-16.570313 4.585938-24.523438 15.710938-10.292969 14.394531-19.769531 25.402344-27.34375 33.375v-91.773438c0-4.140624-3.355469-7.5-7.5-7.5-4.140625 0-7.5 3.359376-7.5 7.5v109.53125.019532 55.089844c0 10.589843 8.617188 19.207031 19.210938 19.207031h244.707031c10.59375 0 19.210937-8.617188 19.210937-19.207031v-164.640626c0-4.140624-3.359375-7.496093-7.5-7.496093zm-7.5 172.136719c0 2.320312-1.890625 4.210937-4.210937 4.210937h-244.707031c-2.320313 0-4.210938-1.890625-4.210938-4.210937v-51.761719c9.671875-8.910157 23.710938-23.613281 39.542969-45.757813 4.429687-6.191406 8.542969-9.683594 11.355469-9.464844 7.054687.457032 17.332031 19.648438 25.589843 35.066407 6.113281 11.417969 13.042969 24.359375 21.019531 35.582031 4.796876 6.742188 12.339844 15.648438 22.3125 14.949219 11.273438-.765625 17.476563-12.613281 24.042969-25.160157 5.003907-9.554687 11.230469-21.449218 17.949219-22.734374 4.371094-.84375 9.777344 2.859374 13.550781 6.105468 9.726563 8.363282 18.382813 11.902344 26.464844 10.796875 11.285156-1.535156 17.929687-11.464843 23.789063-20.222656 4.796874-7.164063 9.324218-13.929687 14.898437-14.929687 3.308594-.585938 7.539063.71875 12.609375 3.898437v83.632813zm0 0"/><path d="m416.035156 383.679688h-26.148437v-2.964844c0-6.414063-5.214844-11.632813-11.628907-11.632813h-20.933593c-6.414063 0-11.628907 5.21875-11.628907 11.632813v2.964844h-127.449218v-2.964844c0-6.414063-5.21875-11.632813-11.632813-11.632813h-20.929687c-6.414063 0-11.632813 5.21875-11.632813 11.632813v2.964844h-26.144531c-4.144531 0-7.5 3.355468-7.5 7.5 0 4.144531 3.355469 7.5 7.5 7.5h26.144531v2.964843c0 6.414063 5.21875 11.632813 11.632813 11.632813h20.929687c6.414063 0 11.632813-5.21875 11.632813-11.632813v-2.964843h127.449218v2.964843c0 6.414063 5.21875 11.632813 11.628907 11.632813h20.933593c6.414063 0 11.632813-5.21875 11.632813-11.632813v-2.964843h26.144531c4.144532 0 7.5-3.355469 7.5-7.5 0-4.144532-3.359375-7.5-7.5-7.5zm-212.789062 14.597656h-14.191406v-7.078125s0-.011719 0-.019531v-7.09375h14.191406zm171.640625 0h-14.191407v-7.078125s0-.011719 0-.019531v-7.09375h14.191407zm0 0"/><path d="m504.5 271.855469c-4.144531 0-7.5 3.355469-7.5 7.5v184.550781c0 18.246094-14.847656 33.09375-33.09375 33.09375h-190.40625c-4.144531 0-7.5 3.355469-7.5 7.5s3.355469 7.5 7.5 7.5h190.40625c26.519531 0 48.09375-21.574219 48.09375-48.09375v-184.550781c0-4.144531-3.359375-7.5-7.5-7.5zm0 0"/><path d="m463.90625 0c-2.378906 0-409.867188 0-415.8125 0-26.519531 0-48.09375 21.574219-48.09375 48.09375v368.199219 47.613281c0 26.519531 21.574219 48.09375 48.09375 48.09375h190.40625c4.144531 0 7.5-3.355469 7.5-7.5s-3.355469-7.5-7.5-7.5h-190.40625c-18.246094 0-33.09375-14.847656-33.09375-33.09375v-40.113281h50.378906c9.652344 0 17.820313-7.871094 17.820313-17.824219v-299.878906c1.605469.417968 3.277343.664062 5.011719.664062h155.277343c11.035157 0 20.011719-8.980468 20.011719-20.015625v-11.417969h233.5v169.03125c0 4.144532 3.355469 7.5 7.5 7.5s7.5-3.355468 7.5-7.5v-196.257812c0-26.519531-21.574219-48.09375-48.09375-48.09375zm-448.90625 408.792969v-27.84375l39.609375 27.84375zm53.199219-8.78125-36.988281-26h36.988281zm0-41h-53.199219v-34.78125h53.199219zm0-49.78125h-53.199219v-34.78125h53.199219zm0-49.785157h-53.199219v-34.78125h53.199219zm0-49.78125h-53.199219v-34.777343h53.199219zm0-49.777343h-53.199219v-34.78125h53.199219zm0-73.148438v23.363281h-53.199219v-34.78125h53.199219zm-53.199219-26.417969v-12.226562c0-18.246094 14.847656-33.09375 33.09375-33.09375h50.511719v45.320312c-9.613281 0-73.335938 0-83.605469 0zm233.5 26.417969c0 2.714844-2.296875 5.011719-5.011719 5.011719h-155.277343c-2.714844 0-5.011719-2.296875-5.011719-5.011719v-11.417969h165.300781zm248.5-26.417969c-13.566406 0-369.859375 0-383.394531 0v-45.320312h350.300781c18.246094 0 33.09375 14.847656 33.09375 33.09375zm0 0"/></svg>