<svg height="511pt" viewBox="0 -11 511.9985 511" width="511pt" xmlns="http://www.w3.org/2000/svg"><path d="m228.21875 357.605469 7.78125-39.777344-42.121094-42.121094-183.847656 183.847657c-3.128906 3.128906-3.148438 8.179687-.042969 11.28125 12.488281 12.492187 31.707031 15.378906 47.480469 7.132812l132.660156-69.363281c19.78125-10.34375 33.816406-29.132813 38.089844-51zm0 0" fill="#dfebfa"/><path d="m40.988281 470.835938c-3.101562-3.101563-3.082031-8.152344.046875-11.28125l168.34375-168.34375-15.5-15.503907-183.847656 183.847657c-3.125 3.128906-3.148438 8.179687-.042969 11.28125 11.601563 11.601562 29.003907 14.910156 44.058594 8.71875-4.785156-1.980469-9.238281-4.898438-13.058594-8.71875zm0 0" fill="#b1dbfc"/><path d="m211.394531 246.078125 55.195313 55.191406c2.695312 2.699219 3.894531 6.34375 3.609375 9.890625l220.265625-220.265625c18.96875-18.96875 18.96875-49.722656 0-68.695312-18.96875-18.96875-49.722656-18.96875-68.691406 0l-220.269532 220.269531c3.546875-.289062 7.191406.910156 9.890625 3.609375zm0 0" fill="#6c7ed6"/><path d="m451.773438 22.199219c5.617187-5.617188 12.273437-9.554688 19.34375-11.847657-16.808594-5.441406-35.992188-1.5-49.34375 11.847657l-220.269532 220.269531c3.546875-.289062 7.191406.910156 9.890625 3.609375l55.195313 55.191406c2.695312 2.699219 3.894531 6.34375 3.609375 9.890625l18.140625-18.140625-46.945313-46.941406c-.023437-.027344-.050781-.054687-.078125-.082031-3.679687-3.609375-3.894531-9.441406-.25-13.085938zm0 0" fill="#4f67d2"/><path d="m242.105469 201.867188-41.898438 41.898437c3.609375-.347656 7.292969.8125 9.988281 3.507813l55.195313 55.195312c2.699219 2.699219 3.855469 6.382812 3.507813 9.988281l41.898437-41.898437zm0 0" fill="#4f67d2"/><path d="m211.394531 246.078125 55.195313 55.191406c2.695312 2.699219 3.894531 6.34375 3.609375 9.890625l18.140625-18.140625-46.945313-46.941406c-.023437-.027344-.050781-.054687-.078125-.082031-3.679687-3.609375-3.894531-9.441406-.25-13.085938l16.039063-16.042968-15-15-40.601563 40.601562c3.546875-.289062 7.191406.910156 9.890625 3.609375zm0 0" fill="#324ccc"/><path d="m266.589844 301.269531-55.195313-55.191406c-4.878906-4.878906-12.859375-4.878906-17.734375 0l-7.390625 7.386719c-4.878906 4.878906-4.878906 12.859375 0 17.734375l55.195313 55.195312c4.875 4.878907 12.855468 4.878907 17.734375 0l7.390625-7.386719c4.875-4.878906 4.875-12.859374 0-17.738281zm0 0" fill="#b1dbfc"/><path d="m213.039062 271.199219c-4.878906-4.875-4.878906-12.855469 0-17.734375l2.871094-2.871094-4.515625-4.515625c-4.875-4.878906-12.855469-4.878906-17.734375 0l-7.390625 7.386719c-4.875 4.878906-4.875 12.859375 0 17.734375l55.195313 55.195312c4.878906 4.878907 12.859375 4.878907 17.734375 0l4.519531-4.515625zm0 0" fill="#8cc9f9"/><path d="m404.816406 165.765625c-2.929687 2.929687-2.929687 7.675781 0 10.605469 2.929688 2.929687 7.679688 2.929687 10.609375 0l80.175781-80.175782c21.863282-21.863281 21.863282-57.4375 0-79.300781-21.863281-21.859375-57.4375-21.859375-79.300781 0l-218.578125 218.582031c-3.582031.839844-6.875 2.636719-9.53125 5.296876l-7.394531 7.390624c-3.773437 3.773438-5.851563 8.808594-5.851563 14.171876 0 5.359374 2.078126 10.394531 5.851563 14.171874l.753906.753907-177.035156 177.035156c-6.019531 6.019531-6.019531 15.820313 0 21.84375 9.257813 9.257813 21.480469 14.097656 33.890625 14.097656 7.53125 0 15.136719-1.785156 22.1875-5.449219l131.835938-68.535156c21.828124-11.347656 37.003906-31.714844 41.632812-55.878906l5.011719-26.152344c3.347656 2.222656 7.21875 3.339844 11.089843 3.339844 5.132813 0 10.265626-1.953125 14.171876-5.859375l7.390624-7.390625c2.660157-2.660156 4.457032-5.953125 5.296876-9.535156l113.652343-113.652344c2.929688-2.929688 2.929688-7.679688 0-10.609375-2.929687-2.925781-7.675781-2.929687-10.605469 0l-69.4375 69.4375-15.476562-15.476563c-2.929688-2.929687-7.679688-2.929687-10.605469 0-2.929687 2.929688-2.929687 7.675782 0 10.605469l15.476563 15.476563-26.929688 26.929687c0-.003906 0-.003906 0-.003906-.429687-.523437-.882812-1.03125-1.371094-1.515625l-55.191406-55.195312c-.484375-.480469-.992187-.9375-1.511718-1.363282-.003907-.003906-.003907-.003906-.007813-.007812l26.925781-26.925782 17.859375 17.855469c2.929688 2.929688 7.675781 2.929688 10.605469 0 2.929688-2.929687 2.929688-7.679687 0-10.605469l-17.855469-17.859374 174.363281-174.359376c7.753907-7.761718 18.070313-12.03125 29.042969-12.03125 10.96875 0 21.28125 4.269532 29.039063 12.03125 7.757812 7.757813 12.03125 18.070313 12.03125 29.039063 0 10.972656-4.273438 21.285156-12.03125 29.042969zm-185.484375 191.785156c-3.761719 19.628907-16.089843 36.175781-33.820312 45.394531l-131.835938 68.53125c-12.832031 6.667969-28.324219 4.285157-38.550781-5.945312-.039062-.035156-.132812-.128906-.132812-.3125s.09375-.277344.132812-.3125l177.035156-177.035156 34.003906 34.003906zm41.785157-50.976562h.003906c1.890625 1.894531 1.960937 5.164062-.003906 7.128906l-7.390626 7.390625c-1.929687 1.929688-5.195312 1.929688-7.125 0l-7.011718-7.011719s-.003906-.003906-.003906-.007812l-20.851563-20.851563-27.328125-27.324218c-1.929688-1.933594-1.929688-5.195313 0-7.128907l7.390625-7.390625c1.941406-1.9375 5.203125-1.921875 7.128906 0zm0 0"/></svg>