<svg height="512pt" viewBox="-133 0 512 512.00106" width="512pt" xmlns="http://www.w3.org/2000/svg"><path d="m139.988281 92.851562v-65.914062c0-6.960938-5.695312-12.660156-12.65625-12.660156h-23.210937c-6.960938 0-12.65625 5.699218-12.65625 12.660156v65.914062zm0 0" fill="#dfebfa"/><path d="m130.871094 14.796875c-1.125-.332031-2.3125-.519531-3.542969-.519531h-23.207031c-6.964844 0-12.660156 5.699218-12.660156 12.660156v65.914062h30.289062v-65.914062c0-5.734375 3.867188-10.601562 9.121094-12.140625zm0 0" fill="#dfebfa"/><path d="m139.988281 38.554688c-2.140625-.964844-4.507812-1.511719-7.007812-1.511719-9.460938 0-17.128907 7.667969-17.128907 17.128906 0 9.457031 7.667969 17.128906 17.128907 17.128906 2.5 0 4.867187-.550781 7.007812-1.511719zm0 0" fill="#b1dbfc"/><path d="m135.351562 54.171875c0-4.527344 1.769532-8.632813 4.636719-11.695313v-3.921874c-2.140625-.964844-4.507812-1.511719-7.007812-1.511719-9.460938 0-17.128907 7.667969-17.128907 17.128906s7.667969 17.128906 17.128907 17.128906c2.5 0 4.867187-.546875 7.007812-1.511719v-3.921874c-2.867187-3.066407-4.636719-7.167969-4.636719-11.695313zm0 0" fill="#8cc9f9"/><path d="m68.511719 118.019531h94.429687c1.359375 0 2.679688.1875 3.949219.507813v-13.515625c0-7.816407-6.03125-14.15625-13.472656-14.15625h-75.386719c-7.441406 0-13.472656 6.335937-13.472656 14.15625v13.515625c1.273437-.320313 2.589844-.507813 3.953125-.507813zm0 0" fill="#b1dbfc"/><path d="m94.851562 105.011719c0-7.820313 6.03125-14.160157 13.472657-14.160157h-30.292969c-7.4375 0-13.46875 6.339844-13.46875 14.160157v13.515625c1.269531-.320313 2.585938-.507813 3.949219-.507813h26.339843zm0 0" fill="#8cc9f9"/><path d="m59.75 144.351562h111.953125c2.761719 0 5.46875.234376 8.113281.675782v-10.273438c0-9.972656-7.554687-18.054687-16.875-18.054687h-94.429687c-9.320313 0-16.875 8.082031-16.875 18.054687v10.273438c2.644531-.441406 5.351562-.675782 8.113281-.675782zm0 0" fill="#8cc9f9"/><path d="m81.925781 134.753906c0-9.972656 7.554688-18.054687 16.875-18.054687h-30.289062c-9.320313 0-16.875 8.082031-16.875 18.054687v10.273438c2.644531-.441406 5.351562-.675782 8.113281-.675782h22.175781zm0 0" fill="#60b8fe"/><path d="m171.703125 504.5h-111.953125c-28.765625 0-52.082031-23.316406-52.082031-52.078125v-257.796875c0-28.761719 23.320312-52.078125 52.082031-52.078125h111.953125c28.765625 0 52.082031 23.316406 52.082031 52.078125v257.796875c0 28.761719-23.320312 52.078125-52.082031 52.078125zm0 0" fill="#fee55a"/><path d="m37.667969 452.421875v-257.796875c0-28.761719 23.316406-52.078125 52.078125-52.078125h-29.996094c-28.761719 0-52.082031 23.316406-52.082031 52.078125v257.796875c0 28.761719 23.320312 52.078125 52.082031 52.078125h29.996094c-28.761719 0-52.078125-23.316406-52.078125-52.078125zm0 0" fill="#ffd301"/><path d="m7.667969 227.960938h216.117187v185.132812h-216.117187zm0 0" fill="#ffd301"/><path d="m7.667969 227.960938h30v185.132812h-30zm0 0" fill="#ffc20c"/><path d="m141.1875 316.644531-24.113281-34.953125c-.558594-.8125-1.761719-.816406-2.324219-.007812l-24.484375 34.960937c-14.691406 20.679688.09375 49.320313 25.460937 49.320313 25.367188 0 40.152344-28.640625 25.460938-49.320313zm0 0" fill="#23a8fe"/><path d="m120.265625 316.644531 10.539063-15.050781-13.730469-19.902344c-.558594-.8125-1.757813-.816406-2.324219-.007812l-24.484375 34.960937c-14.691406 20.679688.097656 49.320313 25.460937 49.320313 5.582032 0 10.644532-1.386719 15-3.769532-15.441406-8.445312-21.921874-29.417968-10.460937-45.550781zm0 0" fill="#0193fa"/><path d="m115.773438 273.582031c-.007813 0-.019532 0-.03125 0-2.90625 0-5.632813 1.417969-7.304688 3.800781l-24.453125 34.921876c-8.429687 11.863281-9.515625 27.265624-2.839844 40.199218 6.675781 12.929688 19.863281 20.960938 34.414063 20.960938 14.554687 0 27.742187-8.03125 34.417968-20.960938 6.667969-12.917968 5.589844-28.296875-2.808593-40.15625l-24.089844-34.917968c-1.65625-2.398438-4.386719-3.839844-7.304687-3.847657zm19.132812 47.40625c5.242188 7.378907 5.894531 16.589844 1.742188 24.632813-4.152344 8.042968-12.039063 12.84375-21.089844 12.84375-9.050782 0-16.933594-4.800782-21.085938-12.84375-4.152344-8.042969-3.503906-17.253906 1.769532-24.671875l19.460937-27.792969 19.144531 27.75c.019532.027344.042969.054688.058594.082031zm0 0"/><path d="m235.878906.457031-60.570312 22.117188c-3.890625 1.421875-5.894532 5.726562-4.472656 9.617187 1.109374 3.042969 3.984374 4.929688 7.046874 4.929688.851563 0 1.722657-.144532 2.570313-.457032l60.570313-22.117187c3.890624-1.417969 5.894531-5.726563 4.472656-9.617187-1.417969-3.886719-5.722656-5.894532-9.617188-4.472657zm0 0"/><path d="m245.496094 98.074219c1.421875-3.890625-.582032-8.195313-4.472656-9.617188l-60.570313-22.113281c-3.894531-1.425781-8.195313.582031-9.617187 4.472656-1.421876 3.890625.582031 8.195313 4.472656 9.617188l60.570312 22.113281c3.882813 1.421875 8.195313-.578125 9.617188-4.472656zm0 0"/><path d="m238.453125 44.003906h-60.574219c-4.140625 0-7.5 3.355469-7.5 7.5 0 4.140625 3.359375 7.5 7.5 7.5h60.574219c4.140625 0 7.5-3.359375 7.5-7.5 0-4.144531-3.359375-7.5-7.5-7.5zm0 0"/><path d="m223.617188 313.523438c4.140624 0 7.5-3.355469 7.5-7.5v-111.398438c0-27.449219-18.667969-50.613281-43.96875-57.492188v-3.558593c0-9.304688-5.242188-17.40625-12.925782-21.511719v-7.738281c0-11.5625-9.40625-20.972657-20.972656-20.972657h-5.929688v-56.414062c0-11.117188-9.042968-20.160156-20.15625-20.160156h-23.210937c-11.113281 0-20.15625 9.042968-20.15625 20.160156v56.417969h-5.929687c-11.566407 0-20.972657 9.40625-20.972657 20.96875v7.738281c-7.683593 4.109375-12.925781 12.207031-12.925781 21.511719v3.5625c-25.300781 6.875-43.96875 30.039062-43.96875 57.488281v257.796875c0 32.851563 26.726562 59.578125 59.578125 59.578125h111.957031c32.851563 0 59.578125-26.726562 59.578125-59.578125v-111.398437c0-4.144532-3.355469-7.5-7.5-7.5-4.140625 0-7.5 3.355468-7.5 7.5v64.574218h-201.109375v-170.136718h83.054688c4.144531 0 7.5-3.355469 7.5-7.5 0-4.140626-3.355469-7.5-7.5-7.5h-83.054688v-25.835938c0-24.621094 20.042969-44.578125 44.578125-44.578125h111.957031c24.554688 0 44.578126 19.976563 44.578126 44.578125v25.835938h-83.058594c-4.144532 0-7.5 3.359374-7.5 7.5 0 4.144531 3.355468 7.5 7.5 7.5h83.058594v70.5625c0 4.140624 3.355468 7.5 7.5 7.5zm-7.5 107.074218v31.824219c0 24.582031-20 44.578125-44.578126 44.578125h-111.957031c-24.582031 0-44.578125-19.996094-44.578125-44.578125v-31.824219zm-117.320313-393.660156c0-2.84375 2.3125-5.160156 5.15625-5.160156h23.210937c2.84375 0 5.160157 2.316406 5.160157 5.160156v2.617188c-13.355469.261718-24.140625 11.199218-24.140625 24.613281 0 13.417969 10.785156 24.355469 24.140625 24.617187v4.566406h-33.527344zm33.527344 17.617188v19.230468c-5.082031-.253906-9.140625-4.46875-9.140625-9.617187.003906-5.140625 4.058594-9.355469 9.140625-9.613281zm-60.429688 59.769531c0-3.292969 2.679688-5.972657 5.972657-5.972657h75.386718c3.292969 0 5.972656 2.679688 5.972656 5.972657v4.875h-87.332031zm100.253907 30.722656c-.203126 0-.40625 0-.609376 0h-111.957031c-.203125 0-.40625 0-.609375 0v-1.472656c0-4.386719 3.027344-8.066407 7.097656-9.085938.023438-.003906.050782-.007812.074219-.011719.777344-.1875 1.496094-.277343 2.199219-.277343h94.429688c.703124 0 1.425781.089843 2.199218.277343.027344.003907.050782.007813.074219.011719 4.074219 1.019531 7.101563 4.703125 7.101563 9.085938zm0 0"/></svg>