<svg height="511pt" viewBox="-10 1 511 511.999" width="511pt" xmlns="http://www.w3.org/2000/svg"><path d="m246.390625 183.332031c-14.367187 0-27.929687-3.40625-39.957031-9.425781v121.628906h79.914062v-121.628906c-12.03125 6.019531-25.589844 9.425781-39.957031 9.425781zm0 0" fill="#b1dbfc"/><path d="m234.933594 182.59375c-10.128906-1.300781-19.722656-4.296875-28.5-8.6875v121.628906h28.5zm0 0" fill="#8cc9f9"/><path d="m335.804688 96.917969c0 49.382812-40.03125 89.414062-89.414063 89.414062s-89.417969-40.03125-89.417969-89.414062c0-49.386719 40.035156-89.417969 89.417969-89.417969s89.414063 40.03125 89.414063 89.417969zm0 0" fill="#dfebfa"/><path d="m187.972656 96.917969c0-44.097657 31.921875-80.734375 73.917969-88.074219-5.035156-.882812-10.214844-1.34375-15.5-1.34375-49.382813 0-89.417969 40.03125-89.417969 89.417969 0 49.382812 40.035156 89.414062 89.417969 89.414062 5.285156 0 10.464844-.460937 15.5-1.339843-41.996094-7.339844-73.917969-43.980469-73.917969-88.074219zm0 0" fill="#b1dbfc"/><path d="m443.9375 461.3125h-395.09375c-6.355469 0-12.382812-1.582031-17.757812-4.382812v8.382812c0 21.554688 16.542968 39.1875 36.765624 39.1875h357.078126c20.21875 0 36.765624-17.632812 36.765624-39.1875v-8.382812c-5.375 2.800781-11.402343 4.382812-17.757812 4.382812zm0 0" fill="#544e55"/><path d="m365.367188 292.535156h-239.40625c-17.617188 0-32.046876 27.921875-32.28125 46.394532h303.96875c-.234376-18.472657-14.667969-46.394532-32.28125-46.394532zm0 0" fill="#ff4756"/><path d="m62.085938 465.3125v-4.003906h-13.242188c-6.359375 0-12.382812-1.578125-17.757812-4.378906v8.382812c0 21.550781 16.542968 39.1875 36.761718 39.1875h31c-20.21875 0-36.761718-17.636719-36.761718-39.1875zm0 0" fill="#453f46"/><path d="m156.960938 292.535156h-31c-17.617188 0-32.046876 27.921875-32.28125 46.394532h31c.234374-18.472657 14.664062-46.394532 32.28125-46.394532zm0 0" fill="#fc2d39"/><path d="m443.9375 336.648438h-395.09375c-22.375 0-40.675781 18.304687-40.675781 40.675781v45.980469c0 22.375 18.300781 40.675781 40.675781 40.675781h395.09375c22.371094 0 40.675781-18.304688 40.675781-40.675781v-45.980469c0-22.375-18.304687-40.675781-40.675781-40.675781zm0 0" fill="#ff656f"/><path d="m443.9375 434.484375h-395.09375c-22.375 0-40.679688-18.304687-40.679688-40.675781v29.5c0 22.371094 18.304688 40.675781 40.679688 40.675781h395.09375c22.371094 0 40.675781-18.304687 40.675781-40.675781v-29.5c0 22.371094-18.304687 40.675781-40.675781 40.675781zm0 0" fill="#ff4756"/><path d="m469.027344 467.738281v-3.429687c13.738281-8.492188 22.917968-23.695313 22.917968-41.003906v-45.980469c0-26.566407-21.609374-48.175781-48.175781-48.175781h-39.519531c-3.453125-19.941407-18.949219-44.113282-39.050781-44.113282h-71.519531v-103.671875c24.015624-13.53125 41.957031-37.050781 47.597656-65.484375.808594-4.066406-1.832032-8.011718-5.894532-8.816406-4.066406-.808594-8.011718 1.832031-8.816406 5.894531-7.578125 38.1875-41.390625 65.875-80.34375 65.875-45.160156 0-81.914062-36.75-81.914062-81.914062 0-45.167969 36.746094-81.917969 81.914062-81.917969 38.980469 0 72.769532 27.707031 80.34375 65.875.808594 4.0625 4.746094 6.703125 8.816406 5.898438 4.0625-.808594 6.703126-4.753907 5.894532-8.816407-8.960938-45.171875-48.9375-77.957031-95.054688-77.957031-53.4375 0-96.914062 43.476562-96.914062 96.917969 0 36.207031 19.960937 67.839843 49.457031 84.472656v103.644531h-72.972656c-20.101563 0-35.597657 24.171875-39.050781 44.113282h-38.066407c-26.5625 0-48.175781 21.609374-48.175781 48.175781v45.980469c0 17.308593 9.179688 32.507812 22.917969 41.003906v3.425781c0 24.410156 19.859375 44.265625 44.265625 44.265625h161.039062c4.144532 0 7.5-3.359375 7.5-7.5 0-4.144531-3.355468-7.5-7.5-7.5h-161.039062c-15.234375 0-27.789063-11.703125-29.144532-26.589844 3.035157.65625 6.667969 1.074219 10.136719 1.074219h395.09375c3.132813 0 6.796875-.351563 10.136719-1.074219-1.355469 14.886719-13.90625 26.589844-29.140625 26.589844h-161.042969c-4.140625 0-7.5 3.355469-7.5 7.5 0 4.140625 3.359375 7.5 7.5 7.5h161.042969c24.40625 0 44.261719-19.855469 44.261719-44.261719zm-255.261719-279.484375c9.96875 3.5625 21.0625 5.570313 32.398437 5.578125h.058594c11.210938 0 22.085938-1.871093 32.457032-5.578125v96.78125h-64.914063zm-87.972656 111.78125h239.40625c9.867187 0 20.523437 15.246094 23.78125 29.113282h-286.96875c3.257812-13.871094 13.914062-29.113282 23.78125-29.113282zm317.976562 156.449219h-395.09375c-18.125 0-33.175781-14.742187-33.175781-33.179687v-45.980469c0-18.292969 14.882812-33.175781 33.175781-33.175781h395.09375c18.292969 0 33.179688 14.882812 33.179688 33.175781v45.980469c-.003907 18.277343-14.890625 33.179687-33.179688 33.179687zm0 0"/></svg>