<svg height="512pt" viewBox="-63 0 512 512" width="512pt" xmlns="http://www.w3.org/2000/svg"><path d="m70.359375 61.023438h55.875v30.71875h-55.875zm0 0" fill="#dfebfa"/><path d="m70.359375 61.023438h27.9375v30.71875h-27.9375zm0 0" fill="#b1dbfc"/><path d="m169.886719 34.894531c10.414062-10.453125 16.773437-18.957031 20.628906-25.628906 1.363281-2.355469 4.664063-2.355469 6.027344 0 3.855469 6.671875 10.214843 15.175781 20.628906 25.628906 19.199219 19.265625 14.300781 41.664063 7.988281 55.671875-2.550781 5.667969-7.160156 9.921875-12.664062 12.085938-1.5-.988282-3.28125-1.570313-5.203125-1.570313h-27.527344c-1.921875 0-3.703125.582031-5.203125 1.570313-5.503906-2.164063-10.113281-6.417969-12.664062-12.085938-6.3125-14.007812-11.210938-36.410156 7.988281-55.671875zm0 0" fill="#fee55a"/><path d="m192.398438 90.566406c-6.3125-14.007812-11.210938-36.40625 7.988281-55.671875 3.15625-3.171875 5.9375-6.160156 8.390625-8.972656-5.640625-6.464844-9.546875-12.007813-12.234375-16.65625-1.363281-2.355469-4.664063-2.355469-6.027344 0-3.859375 6.671875-10.214844 15.175781-20.628906 25.628906-19.199219 19.265625-14.300781 41.664063-7.988281 55.671875 2.550781 5.667969 7.160156 9.921875 12.660156 12.085938 1.503906-.988282 3.285156-1.570313 5.207031-1.570313h22.117187c-4.074218-2.378906-7.445312-5.984375-9.484374-10.515625zm0 0" fill="#ffd301"/><path d="m306.40625 47.542969c0-7.484375-5.097656-13.609375-11.324219-13.609375h-17.929687c-6.226563 0-11.320313 6.125-11.320313 13.609375v52.796875h40.574219zm0 0" fill="#6c7ed6"/><path d="m300.992188 35.96875c-1.722657-1.28125-3.746094-2.035156-5.910157-2.035156h-17.929687c-6.226563 0-11.320313 6.125-11.320313 13.605468v52.796876h29.75v-52.792969c0-4.882813 2.175781-9.175781 5.410157-11.574219zm0 0" fill="#4f67d2"/><path d="m318.671875 215.964844v-102.746094c0-7.414062-5.09375-13.484375-11.324219-13.484375h-41.515625c-6.230469 0-11.324219 6.070313-11.324219 13.484375v102.746094zm0 0" fill="#4f67d2"/><path d="m295.582031 99.734375h-29.75c-6.230469 0-11.324219 6.070313-11.324219 13.484375v102.746094h29.75v-102.746094c0-7.414062 5.097657-13.484375 11.324219-13.484375zm0 0" fill="#324ccc"/><path d="m108.609375 30.035156h-20.621094c-9.734375 0-17.628906 7.957032-17.628906 17.769532v14.324218h55.875v-14.324218c0-9.8125-7.890625-17.769532-17.625-17.769532zm0 0" fill="#ff4756"/><path d="m112.265625 30.421875c-1.179687-.25-2.402344-.386719-3.65625-.386719h-20.621094c-9.734375 0-17.628906 7.957032-17.628906 17.769532v14.324218h27.9375v-14.324218c0-8.546876 5.992187-15.683594 13.96875-17.382813zm0 0" fill="#fc2d39"/><path d="m214.25 215.964844 2.699219-106.242188c.140625-5.472656-4.226563-9.988281-9.65625-9.988281h-27.527344c-5.429687 0-9.796875 4.511719-9.65625 9.988281l2.699219 106.242188zm0 0" fill="#dfebfa"/><path d="m208.777344 99.863281c-.484375-.078125-.976563-.128906-1.484375-.128906h-27.527344c-5.429687 0-9.796875 4.511719-9.65625 9.988281l2.699219 106.242188h30.5l-2.699219-106.242188c-.125-4.960937 3.453125-9.125 8.167969-9.859375zm0 0" fill="#b1dbfc"/><path d="m98.296875 89.742188h27.9375v126.222656h-27.9375zm0 0" fill="#fee55a"/><path d="m70.359375 89.742188h27.9375v126.222656h-27.9375zm0 0" fill="#ffd301"/><path d="m179.765625 99.734375h27.527344c5.429687 0 9.796875 4.511719 9.65625 9.988281l-1.195313 47.070313h-44.449218l-1.195313-47.070313c-.140625-5.472656 4.226563-9.988281 9.65625-9.988281zm0 0" fill="#b1dbfc"/><path d="m171.304688 156.792969h30.5l-1.195313-47.070313c-.125-4.960937 3.453125-9.125 8.167969-9.859375-.566406-.089843-1.113282-.128906-1.484375-.128906h-27.527344c-5.394531 0-9.796875 4.484375-9.65625 9.988281zm0 0" fill="#8cc9f9"/><path d="m368.472656 249.761719h-349.886718c-6.003907 0-10.921876-4.914063-10.921876-10.921875v-13.644532c0-6.007812 4.914063-10.921874 10.921876-10.921874h349.886718c6.003906 0 10.921875 4.914062 10.921875 10.921874v13.644532c-.003906 6.007812-4.917969 10.921875-10.921875 10.921875zm0 0" fill="#60b8fe"/><path d="m368.472656 227.761719h-349.886718c-4.527344 0-8.433594-2.792969-10.082032-6.742188-.539062 1.289063-.839844 2.699219-.839844 4.175781v13.648438c0 6.003906 4.917969 10.917969 10.921876 10.917969h349.886718c6.007813 0 10.921875-4.914063 10.921875-10.917969v-13.648438c0-1.476562-.300781-2.886718-.839843-4.175781-1.648438 3.949219-5.554688 6.742188-10.082032 6.742188zm0 0" fill="#23a8fe"/><path d="m31.804688 249.761719v215.671875c0 21.484375 17.582031 39.066406 39.066406 39.066406h245.3125c21.488281 0 39.070312-17.582031 39.070312-39.066406v-215.671875zm0 0" fill="#8cc9f9"/><path d="m62.140625 465.433594v-215.671875h-30.335937v215.671875c0 21.484375 17.582031 39.066406 39.066406 39.066406h30.335937c-21.488281 0-39.066406-17.582031-39.066406-39.066406zm0 0" fill="#60b8fe"/><path d="m31.804688 285.605469h323.449218v50.335937h-323.449218zm0 0" fill="#60b8fe"/><path d="m31.804688 285.605469h30.832031v50.335937h-30.832031zm0 0" fill="#23a8fe"/><path d="m231.804688 91.847656c10.960937-23.785156 7.570312-46.128906-9.546876-62.921875-8.722656-8.558593-15.257812-16.46875-19.425781-23.515625-2.003906-3.386718-5.542969-5.410156-9.46875-5.410156s-7.46875 2.023438-9.46875 5.410156c-4.167969 7.046875-10.707031 14.957032-19.425781 23.515625-17.117188 16.792969-20.507812 39.136719-9.550781 62.921875 1.992187 4.316406 4.925781 8.035156 8.554687 10.949219-.71875 1.984375-1.082031 4.105469-1.027344 6.289063l2.503907 97.6875h-31.382813c0-24.683594 0-139.4375 0-159.292969 0-13.855469-11.269531-25.128907-25.125-25.128907h-20.621094c-13.851562 0-25.125 11.269532-25.125 25.128907v159.292969h-44.273437c-10.15625 0-18.421875 8.265624-18.421875 18.421874v13.644532c0 10.15625 8.265625 18.421875 18.421875 18.421875h5.71875v208.171875c0 25.675781 20.890625 46.566406 46.566406 46.566406h245.3125c25.675781 0 46.566407-20.890625 46.566407-46.566406v-37.40625c0-4.144532-3.355469-7.5-7.5-7.5-4.140626 0-7.5 3.355468-7.5 7.5v37.40625c0 17.40625-14.160157 31.566406-31.566407 31.566406h-245.3125c-17.40625 0-31.566406-14.160156-31.566406-31.566406v-121.992188h136.722656c4.144531 0 7.5-3.355468 7.5-7.5 0-4.140625-3.355469-7.5-7.5-7.5h-136.722656v-35.339844h308.445313v35.339844h-136.722657c-4.144531 0-7.5 3.359375-7.5 7.5 0 4.144532 3.355469 7.5 7.5 7.5h136.722657v49.582032c0 4.144531 3.359374 7.5 7.5 7.5 4.144531 0 7.5-3.355469 7.5-7.5v-135.761719h5.71875c10.160156 0 18.421874-8.265625 18.421874-18.421875v-13.644532c0-10.160156-8.261718-18.421874-18.421874-18.421874h-13.910157v-55.367188c0-16.347656-12.464843-29.835938-28.386719-31.457031v-7.589844c0-8.949219-5.117187-16.578125-12.269531-19.539063v-45.726562c0-11.507812-8.441406-20.875-18.824219-20.875h-17.925781c-10.378906 0-18.824219 9.367188-18.824219 20.875v46.132812c-6.652343 3.222657-11.320312 10.582032-11.320312 19.136719v7.738281c-3.09375.925782-5.347656 3.789063-5.347656 7.183594 0 3.394532 2.253906 6.257813 5.347656 7.183594v72.304688h-25.066406l2.503906-97.6875c.058594-2.179688-.308594-4.300782-1.027344-6.289063 3.628906-2.914063 6.5625-6.632813 8.550782-10.949219zm-154.109376-44.367187c0-5.585938 4.542969-10.128907 10.125-10.128907h20.621094c5.582032 0 10.125 4.542969 10.125 10.128907v6.707031h-40.871094zm0 21.707031h40.871094v12.386719c-14.777344 0-26.089844 0-40.871094 0zm40.871094 27.386719v110.199219h-12.933594v-110.199219zm-40.871094 0h12.9375v110.199219h-12.9375zm269.890626 181.53125h-308.445313v-20.84375h308.445313zm-21.578126-143c7.621094 1.507812 13.386719 8.242187 13.386719 16.300781v55.367188h-13.386719zm-52.84375-88.011719c0-3.359375 2.019532-5.875 3.824219-5.875h17.925781c1.808594 0 3.824219 2.515625 3.824219 5.875v44.394531h-25.574219zm-11.320312 65.265625c0-3.359375 2.015625-5.871094 3.820312-5.871094h41.519532c1.804687 0 3.820312 2.511719 3.820312 5.871094v7.425781h-49.164062v-7.425781zm0 22.425781h49.164062v71.988282h-49.164062zm106.460938 86.988282c1.855468 0 3.421874 1.566406 3.421874 3.421874v13.644532c0 1.855468-1.566406 3.421875-3.421874 3.421875h-349.882813c-1.855469 0-3.421875-1.566407-3.421875-3.421875v-13.644532c0-1.855468 1.566406-3.421874 3.421875-3.421874zm-189.855469-73.691407-1.007813-39.382812c-.035156-1.320313 1.0625-2.210938 2.15625-2.210938h27.527344c1.089844 0 2.191406.890625 2.160156 2.210938l-1.011718 39.382812zm29.441406 15-1.117187 43.691407h-26.820313l-1.121094-43.691407zm10.292969-77.511719c-1.289063 2.789063-3.355469 5.09375-5.960938 6.679688-1.449218-.445312-3.433594-.761719-5.097656-.761719h-27.527344s0 0-.003906 0c-1.710938 0-3.699219.332031-5.089844.761719-2.605468-1.585938-4.675781-3.890625-5.960937-6.679688-8.34375-18.109374-6.179688-33.566406 6.429687-45.9375 7.589844-7.445312 13.753906-14.566406 18.390625-21.242187 4.636719 6.675781 10.800781 13.796875 18.394531 21.242187 12.605469 12.371094 14.769532 27.828126 6.425782 45.9375zm0 0"/></svg>