<svg height="511pt" viewBox="0 -94 511.9995 511" width="511pt" xmlns="http://www.w3.org/2000/svg"><path d="m499.308594 144.273438c-131.246094-181.632813-354.972656-181.722657-486.289063 0-7.140625 9.882812-7.140625 25.195312 0 35.078124 60.554688 83.796876 147.074219 136.246094 243.144531 136.246094 96.074219 0 182.59375-52.449218 243.144532-136.246094 7.144531-9.882812 7.144531-25.195312 0-35.078124zm0 0" fill="#dfebfa"/><path d="m43.023438 179.351562c-7.144532-9.882812-7.144532-25.195312 0-35.078124 57.382812-79.410157 138.089843-130.664063 228.144531-135.808594-105.152344-6.011719-196.742188 50.832031-258.148438 135.808594-7.140625 9.882812-7.140625 25.195312 0 35.078124 60.554688 83.796876 147.074219 136.246094 243.148438 136.246094 5.027343 0 10.023437-.152344 15-.4375-90.054688-5.144531-170.765625-56.398437-228.144531-135.808594zm0 0" fill="#b1dbfc"/><path d="m376.964844 161.8125c0 66.714844-54.085938 120.796875-120.796875 120.796875-66.714844 0-120.796875-54.082031-120.796875-120.796875s54.082031-120.796875 120.796875-120.796875c66.710937 0 120.796875 54.082031 120.796875 120.796875zm0 0" fill="#8cc9f9"/><path d="m165.367188 161.8125c0-61.632812 46.164062-112.484375 105.796874-119.871094-72.324218-8.960937-135.796874 47.367188-135.796874 119.871094 0 66.714844 54.082031 120.796875 120.796874 120.796875 5.082032 0 10.085938-.316406 15-.925781-59.632812-7.386719-105.796874-58.234375-105.796874-119.871094zm0 0" fill="#60b8fe"/><path d="m229.902344 107.410156c2.957031 3.6875 4.738281 8.363282 4.738281 13.457032 0 11.898437-9.644531 21.542968-21.539063 21.542968-4.707031 0-9.050781-1.53125-12.59375-4.089844-16.804687 39.757813 12.503907 83.890626 55.660157 83.890626 33.355469 0 60.398437-27.039063 60.398437-60.398438 0-44.550781-46.707031-73.726562-86.664062-54.402344zm0 0" fill="#60b8fe"/><path d="m236.4375 196.09375c-18.933594-27.464844-12.015625-65.078125 15.449219-84.007812 6.035156-4.164063 12.5625-7.074219 19.273437-8.792969-13.300781-3.398438-28.015625-2.289063-41.257812 4.117187 2.957031 3.6875 4.738281 8.363282 4.738281 13.460938 0 11.894531-9.644531 21.539062-21.539063 21.539062-4.710937 0-9.050781-1.527344-12.59375-4.089844-16.804687 39.757813 12.5 83.890626 55.65625 83.890626 5.203126 0 10.246094-.65625 15.0625-1.890626-13.65625-3.484374-26.164062-11.714843-34.789062-24.226562zm0 0" fill="#23a8fe"/><path d="m235.582031 121.339844c0 12.15625-9.855469 22.011718-22.011719 22.011718s-22.007812-9.855468-22.007812-22.011718 9.851562-22.011719 22.007812-22.011719 22.011719 9.855469 22.011719 22.011719zm0 0" fill="#dfebfa"/><path d="m228.570312 105.238281c-3.929687-3.664062-9.203124-5.910156-15-5.910156-12.15625 0-22.007812 9.855469-22.007812 22.011719s9.851562 22.011718 22.007812 22.011718c5.796876 0 11.070313-2.246093 15-5.910156-9.34375-8.710937-9.351562-23.488281 0-32.203125zm0 0" fill="#b1dbfc"/><path d="m256 323.097656c101.316406 0 189.136719-56.199218 249.222656-139.351562 9.035156-12.503906 9.035156-31.363282 0-43.863282-134.421875-186.027343-364.285156-185.660156-498.445312 0-9.035156 12.5-9.035156 31.359376 0 43.863282 60.097656 83.167968 147.917968 139.351562 249.222656 139.351562zm-237.066406-174.433594c128.285156-177.527343 345.820312-177.570312 474.132812 0 5.238282 7.25 5.238282 19.046876 0 26.292969-57.207031 79.171875-140.625 133.140625-237.066406 133.140625-96.472656 0-179.878906-54.003906-237.066406-133.140625-5.238282-7.246093-5.238282-19.042969 0-26.292969zm0 0"/><path d="m323.898438 161.8125c0-47.554688-47.992188-80.601562-92.449219-63.296875-5.027344-4.171875-11.484375-6.6875-18.515625-6.6875-16.011719 0-29.039063 13.027344-29.039063 29.042969 0 7.550781 2.902344 14.441406 7.644531 19.613281-14.585937 44.011719 18.429688 89.226563 64.460938 89.226563 37.441406 0 67.898438-30.457032 67.898438-67.898438zm-110.964844-54.984375c7.679687 0 14.039062 6.285156 14.039062 14.042969 0 7.738281-6.292968 14.039062-14.039062 14.039062 0 0 0 0-.003906 0-7.585938 0-14.035157-6.203125-14.035157-14.039062 0-7.742188 6.296875-14.042969 14.039063-14.042969zm43.066406 107.882813c-34.386719 0-59.800781-32.507813-51.273438-65.984376 2.492188.738282 5.40625 1.183594 8.207032 1.183594 11.007812 0 20.605468-6.15625 25.53125-15.210937 3.980468-7.320313 4.523437-15.882813 1.871094-23.433594 33.980468-10.546875 68.5625 15.019531 68.5625 50.546875 0 29.167969-23.730469 52.898438-52.898438 52.898438zm0 0"/><path d="m376.605469 171.890625c-4.089844-.589844-7.902344 2.246094-8.496094 6.34375-3.519531 24.25-14.585937 46.269531-32.003906 63.6875-17.414063 17.414063-39.4375 28.480469-63.683594 32-4.101563.59375-6.941406 4.398437-6.34375 8.5.539063 3.734375 3.746094 6.425781 7.410156 6.425781.359375 0 .722657-.027344 1.085938-.082031 27.472656-3.984375 52.417969-16.515625 72.140625-36.238281 19.71875-19.71875 32.25-44.664063 36.238281-72.136719.59375-4.101563-2.246094-7.90625-6.347656-8.5zm0 0"/><path d="m237.421875 288.765625c.363281.054687.730469.078125 1.085937.078125 3.667969 0 6.871094-2.6875 7.414063-6.421875.59375-4.101563-2.246094-7.90625-6.347656-8.5-26.664063-3.871094-51.164063-17.25-68.980469-37.667969-17.984375-20.613281-27.890625-47.050781-27.890625-74.441406 0-97.210938 114.878906-148.984375 187.738281-85.40625 20.417969 17.816406 33.796875 42.3125 37.667969 68.980469.59375 4.101562 4.394531 6.9375 8.496094 6.347656 4.101562-.59375 6.941406-4.402344 6.347656-8.5-9.113281-62.789063-63.175781-109.71875-126.953125-109.71875-70.742188 0-128.296875 57.550781-128.296875 128.296875 0 31.015625 11.21875 60.957031 31.589844 84.304688 20.171875 23.117187 47.917969 38.261718 78.128906 42.648437zm0 0"/></svg>