<svg height="511pt" viewBox="1 0 511.99906 511" width="511pt" xmlns="http://www.w3.org/2000/svg"><path d="m186.757812 347.691406-37.722656 37.722656c-.289062-5.726562-2.589844-11.375-6.96875-15.75-4.375-4.375-10.023437-6.679687-15.75-6.96875l37.804688-37.804687c6.941406 8.179687 14.507812 15.808594 22.636718 22.800781zm0 0" fill="#b1dbfc"/><path d="m160.367188 354.316406 16.113281-16.113281c-4.3125-4.253906-8.4375-8.691406-12.355469-13.3125l-37.804688 37.804687c5.726563.289063 11.375 2.589844 15.75 6.96875 4.375 4.375 6.679688 10.019532 6.964844 15.75l17.15625-17.15625c-1.332031-1.121093-2.761718-2.074218-4.253906-2.855468-4.128906-2.164063-4.867188-7.789063-1.570312-11.085938zm0 0" fill="#8cc9f9"/><path d="m504.664062 201.3125c0 106.761719-86.546874 193.308594-193.308593 193.308594s-193.3125-86.546875-193.3125-193.308594c0-106.765625 86.550781-193.3125 193.3125-193.3125s193.308593 86.546875 193.308593 193.3125zm0 0" fill="#dfebfa"/><path d="m148.046875 201.3125c0-101.714844 78.558594-185.082031 178.308594-192.738281-4.949219-.378907-9.953125-.574219-15-.574219-106.761719 0-193.3125 86.546875-193.3125 193.3125 0 106.761719 86.550781 193.308594 193.3125 193.308594 5.046875 0 10.050781-.195313 15-.574219-99.75-7.65625-178.308594-91.019531-178.308594-192.734375zm0 0" fill="#b1dbfc"/><path d="m460.746094 201.3125c0 82.503906-66.882813 149.390625-149.390625 149.390625-82.507813 0-149.390625-66.886719-149.390625-149.390625 0-82.507812 66.882812-149.394531 149.390625-149.394531 82.507812 0 149.390625 66.886719 149.390625 149.394531zm0 0" fill="#60b8fe"/><path d="m191.964844 201.3125c0-77.445312 58.929687-141.121094 134.390625-148.644531-4.933594-.492188-9.9375-.75-15-.75-82.507813 0-149.390625 66.886719-149.390625 149.394531 0 82.503906 66.882812 149.390625 149.390625 149.390625 5.0625 0 10.066406-.253906 15-.746094-75.460938-7.523437-134.390625-71.203125-134.390625-148.644531zm0 0" fill="#0193fa"/><path d="m14.132812 465.671875 96.5625-96.863281c8.894532-8.894532 23.324219-8.898438 32.222657 0 8.898437 8.902344 8.898437 23.328125 0 32.226562l-96.511719 96.8125c-8.78125 8.808594-22.984375 8.671875-31.769531-.132812-.109375-.105469-.214844-.214844-.324219-.320313-8.789062-8.765625-8.941406-22.933593-.179688-31.722656zm0 0" fill="#ff4756"/><path d="m51.296875 465.671875 93.886719-94.179687c-.683594-.933594-1.421875-1.839844-2.265625-2.683594-8.898438-8.898438-23.328125-8.898438-32.222657 0l-96.5625 96.863281c-8.761718 8.789063-8.605468 22.957031.179688 31.71875l.324219.324219c8.785156 8.800781 22.992187 8.9375 31.769531.132812l2.941406-2.949218c-6.585937-8.78125-6.027344-21.226563 1.949219-29.226563zm0 0" fill="#fc2d39"/><path d="m220.839844 182.464844h181.027344c3.390624 0 6.144531 2.75 6.144531 6.140625v25.410156c0 3.394531-2.753907 6.144531-6.144531 6.144531h-181.027344c-3.390625 0-6.140625-2.75-6.140625-6.144531v-25.410156c0-3.390625 2.75-6.140625 6.140625-6.140625zm0 0" fill="#4f67d2"/><path d="m245.035156 214.015625v-25.410156c0-3.390625 2.75-6.140625 6.140625-6.140625h-30.335937c-3.390625 0-6.140625 2.75-6.140625 6.140625v25.410156c0 3.394531 2.75 6.144531 6.140625 6.144531h30.335937c-3.390625 0-6.140625-2.75-6.140625-6.144531zm0 0" fill="#324ccc"/><path d="m401.703125 174.964844h-181.027344c-7.523437 0-13.644531 6.117187-13.644531 13.640625v25.410156c0 7.523437 6.121094 13.644531 13.644531 13.644531h181.027344c7.523437 0 13.640625-6.121094 13.640625-13.644531v-25.410156c0-7.523438-6.117188-13.640625-13.640625-13.640625zm-1.359375 37.695312h-178.308594v-22.695312h178.308594zm0 0"/><path d="m460.421875 191.261719c4.117187-.480469 7.0625-4.207031 6.582031-8.320313-9.214844-78.96875-76.203125-138.523437-155.816406-138.523437-86.511719 0-156.890625 70.382812-156.890625 156.894531 0 86.507812 70.378906 156.890625 156.890625 156.890625 79.613281 0 146.601562-59.550781 155.816406-138.519531.480469-4.113282-2.464844-7.839844-6.582031-8.320313-4.101563-.480469-7.835937 2.464844-8.316406 6.582031-8.335938 71.40625-68.914063 125.257813-140.917969 125.257813-78.238281 0-141.890625-63.652344-141.890625-141.890625s63.652344-141.890625 141.890625-141.890625c72.003906 0 132.582031 53.847656 140.917969 125.257813.480469 4.113281 4.214843 7.0625 8.316406 6.582031zm0 0"/><path d="m311.1875.5c-110.726562 0-200.808594 90.082031-200.808594 200.8125 0 45.457031 15.253906 89.105469 43.222656 124.457031l-28.953124 28.953125c-7.082032.464844-14.03125 3.390625-19.433594 8.792969l-96.5625 96.859375c-11.613282 11.652344-11.523438 30.640625.191406 42.320312l.316406.320313c11.589844 11.613281 30.558594 11.996094 42.390625.128906l96.503907-96.804687c5.398437-5.398438 8.320312-12.34375 8.785156-19.421875l28.847656-28.851563c30.628906 24.566406 67.820312 39.683594 107.328125 43.226563 4.128906.363281 7.773437-2.671875 8.140625-6.796875.371094-4.128906-2.671875-7.773438-6.796875-8.140625-95.382813-8.5625-168.980469-88.792969-168.980469-185.042969 0-102.457031 83.351563-185.8125 185.808594-185.8125s185.8125 83.355469 185.8125 185.8125c0 46.695312-17.394531 91.332031-48.96875 125.6875-31.386719 34.144531-74.007812 55.226562-120.011719 59.355469-4.128906.371093-7.171875 4.015625-6.800781 8.140625.351562 3.898437 3.621094 6.828125 7.460938 6.828125.226562 0 .449218-.007813.679687-.027344 49.730469-4.464844 95.796875-27.246094 129.714844-64.148437 34.128906-37.128907 52.925781-85.371094 52.925781-135.835938 0-110.730469-90.085938-200.8125-200.8125-200.8125zm-173.746094 395.238281-96.511718 96.8125c-5.835938 5.855469-15.28125 5.746094-21.144532-.125l-.34375-.34375c-5.863281-5.851562-5.9375-15.324219-.164062-21.113281l96.554687-96.855469c6.019531-6.019531 15.75-5.867187 21.617188 0 2.535156 2.535157 4.230469 6.101563 4.429687 10.019531.214844 4.175782-1.253906 8.421876-4.4375 11.605469zm36.867188-47.507812-21.480469 21.480469c-1.308594-2.253907-2.996094-4.429688-4.769531-6.203126-1.714844-1.714843-3.863282-3.414062-6.207032-4.773437l21.515626-21.515625c3.320312 3.609375 7.445312 7.75 10.941406 11.011719zm0 0"/></svg>